<svg xmlns="http://www.w3.org/2000/svg" viewBox="0 0 316.21 297.04"><path d="m124.88 27.12h2v131.78h-2z" fill="#5b9bd3" transform="matrix(.89037177 -.45523414 .45523414 .89037177 -28.54 67.51)"></path><path d="m119.32 91.67h131.78v2h-131.78z" fill="#5b9bd3" transform="matrix(.4452604 -.89540113 .89540113 .4452604 19.76 217.25)"></path><path d="m222.88 84.34h2v136.01h-2z" fill="#5b9bd3" transform="matrix(.00977369 -.99995224 .99995224 .00977369 69.35 374.71)"></path><path d="m92.88 89.34h2v124h-2z" fill="#5b9bd3" transform="matrix(.00541049 -.99998536 .99998536 .00541049 -57.97 244.4)"></path><path d="m65.29 205.01h123.18v2h-123.18z" fill="#5b9bd3" transform="matrix(.47070393 -.88229123 .88229123 .47070393 -114.6 220.99)"></path><path d="m184.54 144.1h2v123.81h-2z" fill="#5b9bd3" transform="matrix(.87764857 -.47930469 .47930469 .87764857 -76.03 114.12)"></path><path d="m131.25 262.52a33.55 33.55 0 1 0 -33.55 33.55 33.55 33.55 0 0 0 33.55-33.55z" fill="#fff"></path><path d="m132.22 262.52a34.52 34.52 0 1 1 -34.52-34.52 34.56 34.56 0 0 1 34.52 34.52zm-1.94 0a32.58 32.58 0 1 0 -32.58 32.58 32.61 32.61 0 0 0 32.58-32.58z" fill="#5b9bd3"></path><path d="m243 259.73a27.42 27.42 0 1 0 -27.42 27.42 27.42 27.42 0 0 0 27.42-27.42z" fill="#fff"></path><path d="m244 259.73a28.39 28.39 0 1 1 -28.39-28.39 28.42 28.42 0 0 1 28.39 28.39zm-1.94 0a26.45 26.45 0 1 0 -26.45 26.45 26.49 26.49 0 0 0 26.39-26.45z" fill="#5b9bd3"></path><path d="m228.35 275.61h-28.35v-5.25h28.33zm-27.28-1.05h26.23v-3.15h-26.23z" fill="#1a3967"></path><path d="m202.12 272.46h1.05v1.05h-1.05z" fill="#1a3967"></path><path d="m204.22 272.46h1.05v1.05h-1.05z" fill="#1a3967"></path><path d="m206.32 272.46h1.05v1.05h-1.05z" fill="#1a3967"></path><path d="m215.76 248.33h-15.74v20.98h1.05v-19.93h14.69z" fill="#1a3967"></path><path d="m227.3 260.4h1.05v8.92h-1.05z" fill="#1a3967"></path><path d="m225.09 243.09h-2.92l-.46 1.83a7 7 0 0 0 -1.74.72l-1.62-1-1.77 1.77.74.74 1.19-1.19 1.47.88.27-.18a6.43 6.43 0 0 1 2-.83l.31-.07.42-1.65h1.28l.41 1.65.32.07a6.47 6.47 0 0 1 2 .83l.27.18 1.47-.88.9.9-.88 1.47.18.27a6.47 6.47 0 0 1 .83 2l.07.32 1.65.41v1.28l-1.65.42-.07.31a6.43 6.43 0 0 1 -.83 2l.88.56a7.28 7.28 0 0 0 .89-2l1.83-.46v-2.91l-1.83-.46a7 7 0 0 0 -.72-1.74l1-1.62-2.06-2.06-1.62 1a7 7 0 0 0 -1.74-.72z" fill="#1a3967"></path><path d="m217.43 248.07a7.28 7.28 0 0 0 -.89 2l-1.83.46v2.91l1.83.46a7.35 7.35 0 0 0 .72 1.74l-1 1.62 2.06 2.06 1.62-1a7 7 0 0 0 1.74.72l.46 1.83h2.92l.45-1.83a7 7 0 0 0 1.74-.72l1.62 1 1.77-1.77-.74-.74-1.16 1.19-1.47-.88-.27.17a6 6 0 0 1 -2 .83l-.32.07-.41 1.66h-1.27l-.42-1.66-.31-.07a5.86 5.86 0 0 1 -2-.83l-.28-.17-1.47.88-.9-.9.88-1.47-.17-.27a6 6 0 0 1 -.83-2l-.07-.31-1.66-.42v-1.28l1.66-.41.07-.32a6 6 0 0 1 .83-2z" fill="#1a3967"></path><path d="m228.87 252a5.25 5.25 0 1 1 -5.24-5.24 5.25 5.25 0 0 1 5.24 5.24zm-1.05 0a4.2 4.2 0 1 0 -4.19 4.2 4.2 4.2 0 0 0 4.19-4.2z" fill="#1a3967"></path><path d="m226.77 252a3.15 3.15 0 1 1 -3.14-3.14 3.15 3.15 0 0 1 3.14 3.14zm-1.05 0a2.1 2.1 0 1 0 -2.09 2.1 2.1 2.1 0 0 0 2.09-2.1z" fill="#1a3967"></path><path d="m213.66 251.48h-10.49v16.79h22.03v-6.3h-1.05v5.25h-19.93v-14.69h9.44z" fill="#1a3967"></path><path d="m205.27 261.97h1.05v4.2h-1.05z" fill="#1a3967"></path><path d="m210.51 266.17h-3.15v-4.17h3.15zm-2.1-1.05h1.05v-2.12h-1.05z" fill="#1a3967"></path><path d="m216.81 266.17h-3.15v-4.17h3.15zm-2.1-1.05h1v-2.12h-1z" fill="#1a3967"></path><path d="m221 266.17h-3.14v-4.17h3.14zm-2.09-1.05h1v-2.12h-1z" fill="#1a3967"></path><path d="m211.56 261.97h1.05v4.2h-1.05z" fill="#1a3967"></path><path d="m222.05 261.97h1.05v4.2h-1.05z" fill="#1a3967"></path><path d="m314.56 146.91a28.12 28.12 0 1 1 -33.56-21.36 28.12 28.12 0 0 1 33.56 21.36z" fill="#fff"></path><path d="m287.11 182.1a29.1 29.1 0 1 1 28.4-35.4 29.12 29.12 0 0 1 -28.4 35.4zm.05-56.26a27.38 27.38 0 0 0 -5.94.66 27.15 27.15 0 1 0 32.39 20.62 27.17 27.17 0 0 0 -26.45-21.28z" fill="#5b9bd3"></path><path d="m131.18 34.52a33.55 33.55 0 1 1 -33.54-33.52 33.54 33.54 0 0 1 33.54 33.52z" fill="#fff"></path><path d="m97.64 69a34.52 34.52 0 1 1 34.51-34.51 34.56 34.56 0 0 1 -34.51 34.51zm0-67.09a32.58 32.58 0 1 0 32.57 32.58 32.62 32.62 0 0 0 -32.57-32.55z" fill="#5b9bd3"></path><path d="m242.92 33.31a27.42 27.42 0 1 1 -27.42-27.42 27.42 27.42 0 0 1 27.42 27.42z" fill="#fff"></path><path d="m215.5 61.7a28.39 28.39 0 1 1 28.39-28.39 28.43 28.43 0 0 1 -28.39 28.39zm0-54.84a26.45 26.45 0 1 0 26.5 26.45 26.48 26.48 0 0 0 -26.5-26.45z" fill="#5b9bd3"></path><path d="m57.14 153.76a28.09 28.09 0 1 1 -28.09-28.09 28.08 28.08 0 0 1 28.09 28.09z" fill="#fff"></path><path d="m29.05 182.81a29.06 29.06 0 1 1 29.06-29.05 29.08 29.08 0 0 1 -29.06 29.05zm0-56.17a27.12 27.12 0 1 0 27.12 27.12 27.15 27.15 0 0 0 -27.12-27.12z" fill="#5b9bd3"></path><path d="m203.54 152.49c0-1.39-.07-2.77-.19-4.14l7.86-3.63a53.9 53.9 0 0 0 -1.23-6 56.47 56.47 0 0 0 -1.9-5.86l-8.62.7a45.8 45.8 0 0 0 -4.32-7.55c1.64-2.32 3.76-5.32 5-7.08a54.19 54.19 0 0 0 -8.66-8.73l-7.12 4.92a46.09 46.09 0 0 0 -7.51-4.39c.25-2.82.58-6.47.78-8.61a54.73 54.73 0 0 0 -11.87-3.25l-3.76 7.8a45.44 45.44 0 0 0 -4.55-.23c-1.4 0-2.78.07-4.14.19l-3.63-7.86a53.44 53.44 0 0 0 -6 1.23 55.7 55.7 0 0 0 -5.86 1.9c.17 2.14.47 5.79.7 8.62a45.39 45.39 0 0 0 -7.55 4.32l-7.08-5a53.78 53.78 0 0 0 -8.73 8.66l4.92 7.12a46.51 46.51 0 0 0 -4.39 7.51l-8.61-.78a54.17 54.17 0 0 0 -3.25 11.87l7.83 3.71c-.15 1.5-.22 3-.22 4.55s.06 2.78.19 4.14l-7.86 3.64a53.73 53.73 0 0 0 1.23 6 50.77 50.77 0 0 0 1.9 5.86l8.61-.7a46.16 46.16 0 0 0 4.33 7.55l-5 7.08a53.78 53.78 0 0 0 8.66 8.73l7.12-4.92a46.09 46.09 0 0 0 7.51 4.39c-.25 2.83-.58 6.48-.78 8.61a54.17 54.17 0 0 0 11.87 3.25c.91-1.94 2.49-5.26 3.7-7.83 1.5.15 3 .22 4.56.22q2.08 0 4.14-.18l3.63 7.85a53.26 53.26 0 0 0 11.9-3.13c-.17-2.13-.47-5.79-.7-8.61a46.16 46.16 0 0 0 7.55-4.33l7.08 5a54.19 54.19 0 0 0 8.73-8.66l-4.92-7.12a46.09 46.09 0 0 0 4.39-7.51l8.61.78a54.65 54.65 0 0 0 3.25-11.86l-7.83-3.71c.15-1.47.23-3.02.23-4.53z" fill="#b5d2e9" stroke="#1a3967" stroke-miterlimit="10" stroke-width="3"></path><path d="m157.49 188.75a36.26 36.26 0 1 1 36.26-36.26 36.25 36.25 0 0 1 -36.26 36.26z" fill="#cbcbca" stroke="#1a3967" stroke-miterlimit="10" stroke-width="3"></path><path d="m219.26 41.34h-11.68v-15.26a7.39 7.39 0 0 1 2.79-5.8l3-2.44 3.05 2.44a7.39 7.39 0 0 1 2.79 5.8zm-10.62-1.06h9.56v-14.2a6.31 6.31 0 0 0 -2.39-5l-2.39-1.91-2.42 1.94a6.31 6.31 0 0 0 -2.39 5z" fill="#1a3967"></path><path d="m213.42 32.32a4.25 4.25 0 1 1 4.25-4.25 4.26 4.26 0 0 1 -4.25 4.25zm0-7.43a3.18 3.18 0 1 0 3.19 3.18 3.18 3.18 0 0 0 -3.19-3.18z" fill="#1a3967"></path><path d="m213.42 29.66a1.59 1.59 0 1 1 1.58-1.59 1.59 1.59 0 0 1 -1.58 1.59zm0-2.12a.53.53 0 1 0 .53.53.53.53 0 0 0 -.53-.53z" fill="#1a3967"></path><path d="m218.73 23.29a1.59 1.59 0 1 1 1.59-1.59 1.59 1.59 0 0 1 -1.59 1.59zm0-2.12a.53.53 0 1 0 .53.53.53.53 0 0 0 -.53-.53z" fill="#1a3967"></path><path d="m223 27a1.6 1.6 0 1 1 1.6-1.59 1.6 1.6 0 0 1 -1.6 1.59zm0-2.12a.53.53 0 0 0 -.53.53.54.54 0 1 0 .53-.53z" fill="#1a3967"></path><path d="m228.28 20.64a1.6 1.6 0 1 1 1.59-1.59 1.59 1.59 0 0 1 -1.59 1.59zm0-2.12a.53.53 0 0 0 -.53.53.53.53 0 0 0 .53.53.53.53 0 0 0 .53-.53.52.52 0 0 0 -.53-.53z" fill="#1a3967"></path><path d="m225.1 41.34h-6.37v-1.06h5.27v-.61a8.43 8.43 0 0 0 -4.9-7.67l-.59-.27.44-1 .59.27a9.5 9.5 0 0 1 5.56 8.63z" fill="#1a3967"></path><path d="m208.11 41.34h-6.37v-1.67a9.5 9.5 0 0 1 5.56-8.67l.59-.27.44 1-.59.27a8.43 8.43 0 0 0 -4.94 7.66v.61h5.31z" fill="#1a3967"></path><path d="m220.32 38.16h1.06v1.06h-1.06z" fill="#1a3967"></path><path d="m222.44 38.16h1.06v1.06h-1.06z" fill="#1a3967"></path><path d="m203.34 38.16h1.06v1.06h-1.06z" fill="#1a3967"></path><path d="m205.46 38.16h1.06v1.06h-1.06z" fill="#1a3967"></path><path d="m208.11 37.09h7.96v1.06h-7.96z" fill="#1a3967"></path><path d="m217.14 37.09h1.59v1.06h-1.59z" fill="#1a3967"></path><path d="m212.89 42.4h1.06v5.84h-1.06z" fill="#1a3967"></path><path d="m215.01 48.24h1.06v1.06h-1.06z" fill="#1a3967"></path><path d="m215.01 42.4h1.06v4.78h-1.06z" fill="#1a3967"></path><path d="m217.14 47.18h1.06v1.06h-1.06z" fill="#1a3967"></path><path d="m217.14 42.4h1.06v3.72h-1.06z" fill="#1a3967"></path><path d="m210.77 47.18h1.06v2.12h-1.06z" fill="#1a3967"></path><path d="m210.77 42.4h1.06v3.72h-1.06z" fill="#1a3967"></path><path d="m208.64 46.12h1.06v2.12h-1.06z" fill="#1a3967"></path><path d="m208.64 42.4h1.06v2.65h-1.06z" fill="#1a3967"></path><path d="m212.89 49.3h1.06v1.06h-1.06z" fill="#1a3967"></path><path d="m212.68 24.35h6.8v1.06h-6.8z" fill="#1a3967" transform="matrix(.62469766 -.78086672 .78086672 .62469766 61.66 178.07)"></path><path d="m220.32 21.49h1.06v4.15h-1.06z" fill="#1a3967" transform="matrix(.64024378 -.76817179 .76817179 .64024378 61.37 178.14)"></path><path d="m222.23 21.7h6.8v1.06h-6.8z" fill="#1a3967" transform="matrix(.62469766 -.78086672 .78086672 .62469766 67.32 184.53)"></path><path d="m227.75 21.7h1.06v1.06h-1.06z" fill="#1a3967"></path><path d="m227.75 23.82h1.06v1.06h-1.06z" fill="#1a3967"></path><path d="m227.75 25.95h1.06v1.06h-1.06z" fill="#1a3967"></path><path d="m222.44 28.07h1.06v1.06h-1.06z" fill="#1a3967"></path><path d="m222.44 30.19h1.06v1.06h-1.06z" fill="#1a3967"></path><path d="m222.44 32.32h1.06v1.06h-1.06z" fill="#1a3967"></path><path d="m251.53 109.25h-1v-17.16a1.52 1.52 0 0 0 -1.53-1.51h-22.2a1.52 1.52 0 0 0 -1.52 1.51v17.16h-1v-17.16a2.52 2.52 0 0 1 2.52-2.52h22.2a2.53 2.53 0 0 1 2.53 2.52z" fill="#5b9bd3"></path><path d="m251 113.79h-26.22a2.52 2.52 0 0 1 -2.52-2.52v-2.52h31.28v2.52a2.52 2.52 0 0 1 -2.54 2.52zm-27.75-4v1.51a1.51 1.51 0 0 0 1.51 1.51h26.24a1.5 1.5 0 0 0 1.51-1.51v-1.51z" fill="#5b9bd3"></path><path d="m239.92 111.78h-4a1.52 1.52 0 0 1 -1.51-1.52v-1h1v1a.5.5 0 0 0 .5.51h4a.5.5 0 0 0 .5-.51v-1h1v1a1.52 1.52 0 0 1 -1.49 1.52z" fill="#5b9bd3"></path><path d="m249.51 107.74h-23.22v-16.15h23.22zm-22.21-1h21.2v-14.14h-21.2z" fill="#5b9bd3"></path><path d="m229.83 105.72a1.52 1.52 0 1 1 1.51-1.51 1.52 1.52 0 0 1 -1.51 1.51zm0-2a.51.51 0 1 0 .5.51.51.51 0 0 0 -.5-.53z" fill="#5b9bd3"></path><path d="m234.87 100.17a1.52 1.52 0 1 1 1.52-1.51 1.52 1.52 0 0 1 -1.52 1.51zm0-2a.51.51 0 0 0 0 1 .51.51 0 1 0 0-1z" fill="#5b9bd3"></path><path d="m234.87 102.69a4 4 0 1 1 4-4 4 4 0 0 1 -4 4zm0-7.06a3 3 0 1 0 3 3 3 3 0 0 0 -3-3z" fill="#5b9bd3"></path><path d="m241.43 103.7a1.52 1.52 0 1 1 1.52-1.51 1.52 1.52 0 0 1 -1.52 1.51zm0-2a.5.5 0 0 0 -.5.51.5.5 0 0 0 .5.5.5.5 0 0 0 .51-.5.51.51 0 0 0 -.51-.53z" fill="#5b9bd3"></path><path d="m246 97.14a1.52 1.52 0 1 1 1.52-1.51 1.52 1.52 0 0 1 -1.52 1.51zm0-2a.51.51 0 0 0 -.5.51.51.51 0 0 0 1 0 .51.51 0 0 0 -.5-.53z" fill="#5b9bd3"></path><path d="m229.72 101.94h3.23v1.01h-3.23z" fill="#5b9bd3" transform="matrix(.62469766 -.78086672 .78086672 .62469766 6.83 219.09)"></path><path d="m239.16 99.45h1.01v2.94h-1.01z" fill="#5b9bd3" transform="matrix(.51443953 -.85752666 .85752666 .51443953 29.82 254.51)"></path><path d="m240.41 98.4h6.58v1.01h-6.58z" fill="#5b9bd3" transform="matrix(.53700518 -.84357895 .84357895 .53700518 29.4 251.38)"></path><path d="m234.37 100.67h1.01v3.03h-1.01z" fill="#5b9bd3"></path><path d="m236.89 98.15h3.03v1.01h-3.03z" fill="#5b9bd3"></path><path d="m234.37 93.61h1.01v3.03h-1.01z" fill="#5b9bd3"></path><path d="m229.83 98.15h2.52v1.01h-2.52z" fill="#5b9bd3"></path><g fill="#1a3967"><path d="m45.41 170.49h-25.29v-20h25.29zm-24.23-1.06h23.17v-17.91h-23.17z"></path><path d="m22.23 152.58h1.05v1.05h-1.05z"></path><path d="m24.34 152.58h1.05v1.05h-1.05z"></path><path d="m26.44 152.58h1.05v1.05h-1.05z"></path><path d="m20.65 154.68h24.23v1.05h-24.23z"></path><path d="m20.65 157.84h-7.9v-20.01h25.28v13.17h-1.05v-12.12h-23.18v17.91h6.85z"></path><path d="m14.85 139.94h1.05v1.05h-1.05z"></path><path d="m16.96 139.94h1.05v1.05h-1.05z"></path><path d="m19.07 139.94h1.05v1.05h-1.05z"></path><path d="m13.27 142.04h24.23v1.05h-24.23z"></path><path d="m20.65 153.63h-5.8v-9.48h21.07v6.85h-1.05v-5.8h-18.96v7.38h4.74z"></path><path d="m14.85 154.68h4.21v1.05h-4.21z"></path><path d="m32.24 156.79h1.05v1.05h-1.05z"></path><path d="m32.24 158.9h1.05v2.11h-1.05z"></path><path d="m32.24 152.58h1.05v1.05h-1.05z"></path><path d="m32.24 148.36h1.05v1.05h-1.05z"></path><path d="m32.24 146.26h1.05v1.05h-1.05z"></path><path d="m30.13 146.26h1.05v1.05h-1.05z"></path><path d="m28.02 146.26h1.05v1.05h-1.05z"></path><path d="m25.92 146.26h1.05v1.05h-1.05z"></path><path d="m23.81 146.26h1.05v1.05h-1.05z"></path><path d="m32.76 161.75-3-3 .74-.75 2.26 2.26 2.26-2.26.75.75z"></path><path d="m40.14 170h-1.06v-1.58h-1.14l-.11-.38a5.38 5.38 0 0 0 -.47-1.13l-.19-.35.81-.81-1.49-1.49-.81.81-.35-.19a4.9 4.9 0 0 0 -1.13-.47l-.38-.11v-1.15h-2.11v1.15l-.38.11a4.9 4.9 0 0 0 -1.13.47l-.35.19-.81-.81-1.49 1.49.81.81-.19.35a4.9 4.9 0 0 0 -.47 1.09l-.11.38h-1.15v1.62h-1.05v-2.63h1.42c.07-.21.16-.42.25-.62l-1-1 3-3 1 1c.2-.09.41-.18.62-.25v-1.42h4.21v1.42c.21.07.42.16.62.25l1-1 3 3-1 1c.09.2.18.41.25.62h1.42z"></path><path d="m35.92 170h-1.05v-.53a2.11 2.11 0 0 0 -4.21 0v.53h-1.06v-.53a3.16 3.16 0 0 1 6.32 0z"></path><path d="m23.28 169.96h-1.05v-13.17h7.37v1.05h-6.32z"></path><path d="m43.3 169.96h-1.06v-12.12h-6.32v-1.05h7.38z"></path><path d="m89.84 247.24v2.58h1.24v-2.58a1.86 1.86 0 1 0 -1.24 0zm.62-2.36a.62.62 0 1 1 -.62.62.62.62 0 0 1 .62-.62z"></path><path d="m94.79 247.24v2.58h1.21v-2.58a1.86 1.86 0 1 0 -1.23 0zm.61-2.36a.62.62 0 1 1 -.61.62.61.61 0 0 1 .61-.62z"></path><path d="m99.73 247.24v2.58h1.27v-2.58a1.85 1.85 0 1 0 -1.24 0zm.62-2.36a.62.62 0 1 1 -.62.62.62.62 0 0 1 .62-.62z"></path><path d="m104.68 247.24v2.58h1.24v-2.58a1.86 1.86 0 1 0 -1.24 0zm.62-2.36a.62.62 0 1 1 -.62.62.62.62 0 0 1 .62-.62z"></path><path d="m80.57 268.37a1.86 1.86 0 1 0 1.74 2.48h2.58v-1.24h-2.58a1.86 1.86 0 0 0 -1.74-1.24zm0 2.48a.62.62 0 1 1 .61-.62.62.62 0 0 1 -.61.62z"></path><path d="m80.57 263.43a1.86 1.86 0 1 0 1.74 2.47h2.58v-1.24h-2.58a1.85 1.85 0 0 0 -1.74-1.23zm0 2.47a.62.62 0 1 1 .61-.62.62.62 0 0 1 -.61.62z"></path><path d="m80.57 258.48a1.86 1.86 0 1 0 1.74 2.52h2.58v-1.23h-2.58a1.86 1.86 0 0 0 -1.74-1.29zm0 2.47a.62.62 0 1 1 .61-.62.61.61 0 0 1 -.61.67z"></path><path d="m80.57 253.53a1.86 1.86 0 1 0 1.74 2.47h2.58v-1.24h-2.58a1.86 1.86 0 0 0 -1.74-1.23zm0 2.48a.62.62 0 1 1 .61-.62.62.62 0 0 1 -.61.61z"></path><path d="m105.92 278.38v-2.59h-1.24v2.59a1.85 1.85 0 1 0 1.24 0zm-.62 2.36a.62.62 0 1 1 .62-.62.62.62 0 0 1 -.62.62z"></path><path d="m101 278.38v-2.59h-1.27v2.59a1.83 1.83 0 0 0 -1.23 1.74 1.86 1.86 0 1 0 2.47-1.74zm-.62 2.36a.62.62 0 1 1 .62-.62.62.62 0 0 1 -.65.62z"></path><path d="m96 278.38v-2.59h-1.21v2.59a1.86 1.86 0 1 0 1.23 0zm-.62 2.36a.62.62 0 1 1 .62-.62.61.61 0 0 1 -.6.62z"></path><path d="m91.08 278.38v-2.59h-1.24v2.59a1.84 1.84 0 0 0 -1.24 1.74 1.86 1.86 0 1 0 2.48-1.74zm-.62 2.36a.62.62 0 1 1 .62-.62.62.62 0 0 1 -.62.62z"></path><path d="m115.19 257.24a1.86 1.86 0 1 0 -1.74-2.47h-2.59v1.23h2.59a1.84 1.84 0 0 0 1.74 1.24zm0-2.47a.62.62 0 1 1 -.62.62.62.62 0 0 1 .62-.62z"></path><path d="m115.19 258.48a1.84 1.84 0 0 0 -1.74 1.24h-2.59v1.28h2.59a1.85 1.85 0 1 0 1.74-2.47zm0 2.47a.62.62 0 1 1 .62-.62.62.62 0 0 1 -.62.67z"></path><path d="m115.19 263.43a1.83 1.83 0 0 0 -1.74 1.23h-2.59v1.24h2.59a1.84 1.84 0 0 0 1.74 1.24 1.86 1.86 0 0 0 0-3.71zm0 2.47a.62.62 0 1 1 .62-.62.62.62 0 0 1 -.62.62z"></path><path d="m115.19 268.37a1.84 1.84 0 0 0 -1.74 1.24h-2.59v1.24h2.59a1.85 1.85 0 1 0 1.74-2.48zm0 2.48a.62.62 0 1 1 .62-.62.62.62 0 0 1 -.62.62z"></path><path d="m92.93 272.08h9.89a1.85 1.85 0 0 0 1.86-1.85v-7.42a1.84 1.84 0 0 0 -1.24-1.74v-2a5.57 5.57 0 1 0 -11.13 0v2a1.83 1.83 0 0 0 -1.23 1.74v7.42a1.85 1.85 0 0 0 1.85 1.85zm4.95-17.31a4.34 4.34 0 0 1 4.33 4.33v1.9h-1.21v-1.9a3.09 3.09 0 0 0 -6.18 0v1.9h-1.27v-1.9a4.33 4.33 0 0 1 4.33-4.33zm1.85 6.23h-3.73v-1.9a1.86 1.86 0 1 1 3.71 0zm-7.42 1.86a.62.62 0 0 1 .62-.62h9.89a.62.62 0 0 1 .62.62v7.42a.62.62 0 0 1 -.62.62h-9.89a.62.62 0 0 1 -.62-.62z"></path><path d="m97.26 267v2.59h1.24v-2.59a1.86 1.86 0 1 0 -1.24 0zm.62-2.36a.62.62 0 1 1 -.62.62.62.62 0 0 1 .62-.6z"></path><path d="m86.13 254.51v20h23.49v-23.45h-20zm22.26-2.21v21h-21v-18.3l2.73-2.73z"></path><path d="m117.19 21.37h-38.8v-6.26h38.8zm-37.55-1.25h36.3v-3.76h-36.3z"></path><path d="m80.9 17.61h1.25v1.25h-1.25z"></path><path d="m83.4 17.61h1.25v1.25h-1.25z"></path><path d="m85.9 17.61h1.25v1.25h-1.25z"></path><path d="m117.19 53.91h-38.8v-31.29h1.25v30.03h36.3v-30.03h1.25z"></path><path d="m93.41 51.4h-12.51v-1.25h11.26v-7.51h1.25z"></path><path d="m82.15 48.9h-1.25v-8.76h12.51v1.25h-11.26z"></path><path d="m83.4 42.64h1.25v1.25h-1.25z"></path><path d="m85.9 42.64h5.01v1.25h-5.01z"></path><path d="m83.4 45.15h7.51v1.25h-7.51z"></path><path d="m89.66 47.65h1.25v1.25h-1.25z"></path><path d="m83.4 47.65h5.01v1.25h-5.01z"></path><path d="m114.69 33.88h-12.52v-1.25h11.26v-7.51h1.26z"></path><path d="m103.42 31.38h-1.25v-8.76h12.52v1.25h-11.27z"></path><path d="m104.67 25.12h1.25v1.25h-1.25z"></path><path d="m107.18 25.12h5.01v1.25h-5.01z"></path><path d="m104.67 27.62h7.51v1.25h-7.51z"></path><path d="m110.93 30.13h1.25v1.25h-1.25z"></path><path d="m104.67 30.13h5.01v1.25h-5.01z"></path><path d="m108.43 51.4a6.22 6.22 0 0 1 -2.48-.51l-.8-.34 3.62-4.08-2.15-1.72-3.46 3.9-.4-.86a6.24 6.24 0 0 1 -.59-2.64 7 7 0 0 1 0-.78l-12.46-9.79a6.25 6.25 0 1 1 -2.56-12 6.19 6.19 0 0 1 2.48.51l.8.34-3.62 4.08 2.19 1.76 3.46-3.9.4.87a6.17 6.17 0 0 1 .59 2.64 6.78 6.78 0 0 1 0 .77l12.51 9.79a6.26 6.26 0 1 1 2.56 12zm-1.14-1.4a4.8 4.8 0 0 0 1.14.13 5 5 0 1 0 -2.35-9.43l-.35.19-13.73-10.72.07-.37a4.94 4.94 0 0 0 .09-.92 5.06 5.06 0 0 0 -.16-1.17l-2.9 3.29-4.1-3.3 3.29-3.7a4.8 4.8 0 0 0 -1.14-.13 5 5 0 0 0 0 10 4.93 4.93 0 0 0 2.35-.58l.36-.19 13.72 10.74-.07.37a5 5 0 0 0 -.09.93 5 5 0 0 0 .14 1.16l2.92-3.3 4.11 3.29z"></path><path d="m92.14 33.57h4.42v1.25h-4.42z" transform="matrix(.70710678 -.70710678 .70710678 .70710678 3.45 76.73)"></path><path d="m99.02 39.2h4.42v1.25h-4.42z" transform="matrix(.70710678 -.70710678 .70710678 .70710678 1.49 83.25)"></path></g><path d="m169.9 60.67h-24.6v-4.56h24.6zm-23.69-.92h22.79v-2.75h-22.79z" fill="#5b9bd3"></path><path d="m147.13 57.93h.91v.91h-.91z" fill="#5b9bd3"></path><path d="m148.95 57.93h.91v.91h-.91z" fill="#5b9bd3"></path><path d="m150.77 57.93h.91v.91h-.91z" fill="#5b9bd3"></path><path d="m158.97 79.8h-13.67v-18.22h.91v17.31h12.76z" fill="#5b9bd3"></path><path d="m168.99 61.58h.91v7.74h-.91z" fill="#5b9bd3"></path><path d="m167.07 84.35h-2.54l-.39-1.59a5.89 5.89 0 0 1 -1.51-.63l-1.41.85-1.54-1.54.65-.65 1 1 1.28-.76.23.15a5.63 5.63 0 0 0 1.74.72l.28.06.36 1.44h1.11l.36-1.44.27-.06a5.53 5.53 0 0 0 1.74-.72l.24-.15 1.27.76.78-.78-.76-1.28.15-.24a5.25 5.25 0 0 0 .72-1.73l.06-.28 1.44-.36v-1.07l-1.44-.36-.06-.27a5.3 5.3 0 0 0 -.72-1.74l.77-.49a6.19 6.19 0 0 1 .77 1.75l1.59.4v2.53l-1.59.4a6.4 6.4 0 0 1 -.62 1.51l.84 1.41-1.76 1.81-1.38-.87a5.89 5.89 0 0 1 -1.51.63z" fill="#5b9bd3"></path><path d="m160.42 80a6 6 0 0 1 -.77-1.75l-1.59-.4v-2.51l1.59-.4a6.58 6.58 0 0 1 .62-1.51l-.84-1.4 1.79-1.79 1.41.84a6.69 6.69 0 0 1 1.51-.63l.39-1.59h2.54l.39 1.59a6.69 6.69 0 0 1 1.51.63l1.41-.84 1.54 1.54-.64.64-1-1-1.27.77-.24-.15a5.1 5.1 0 0 0 -1.74-.72l-.27-.07-.36-1.44h-1.11l-.36 1.44-.28.07a5.18 5.18 0 0 0 -1.74.72l-.23.15-1.28-.77-.78.79.76 1.27-.15.24a5.53 5.53 0 0 0 -.72 1.74l-.06.27-1.44.36v1.11l1.44.36.06.28a5.47 5.47 0 0 0 .72 1.73z" fill="#5b9bd3"></path><path d="m165.8 81.16a4.56 4.56 0 1 1 4.56-4.55 4.55 4.55 0 0 1 -4.56 4.55zm0-8.2a3.65 3.65 0 1 0 3.64 3.65 3.65 3.65 0 0 0 -3.64-3.61z" fill="#5b9bd3"></path><path d="m165.8 79.34a2.74 2.74 0 1 1 2.73-2.73 2.73 2.73 0 0 1 -2.73 2.73zm0-4.55a1.82 1.82 0 1 0 1.82 1.82 1.82 1.82 0 0 0 -1.82-1.82z" fill="#5b9bd3"></path><path d="m157.15 77.06h-9.11v-14.57h19.13v5.46h-.91v-4.55h-17.31v12.75h8.2z" fill="#5b9bd3"></path><path d="m149.86 64.31h.91v3.64h-.91z" fill="#5b9bd3"></path><path d="m154.41 68h-2.73v-3.69h2.73zm-1.82-1h.91v-1.78h-.91z" fill="#5b9bd3"></path><path d="m159.88 68h-2.73v-3.69h2.73zm-1.82-1h.94v-1.78h-.91z" fill="#5b9bd3"></path><path d="m163.52 68h-2.73v-3.69h2.73zm-1.82-1h.91v-1.78h-.91z" fill="#5b9bd3"></path><path d="m155.32 64.31h.91v3.64h-.91z" fill="#5b9bd3"></path><path d="m164.43 64.31h.91v3.64h-.91z" fill="#5b9bd3"></path><path d="m248.52 210.66h-26.21a2.52 2.52 0 0 1 -2.52-2.52v-2.52h9.07v1h-8.06v1.51a1.52 1.52 0 0 0 1.51 1.51h26.21a1.52 1.52 0 0 0 1.52-1.51v-1.51h-8.04v-1h9v2.52a2.52 2.52 0 0 1 -2.48 2.52z" fill="#5b9bd3"></path><path d="m239.45 208.65h-8.07a1.52 1.52 0 0 1 -1.51-1.52v-1.51h11.13v1.51a1.52 1.52 0 0 1 -1.55 1.52zm-8.57-2v.5a.51.51 0 0 0 .5.51h8.07a.5.5 0 0 0 .5-.51v-.5z" fill="#5b9bd3"></path><path d="m222.82 207.64h1.01v1.01h-1.01z" fill="#5b9bd3"></path><path d="m224.83 207.64h1.01v1.01h-1.01z" fill="#5b9bd3"></path><path d="m226.85 207.64h1.01v1.01h-1.01z" fill="#5b9bd3"></path><path d="m250 204.61h-1v-17.61a1.52 1.52 0 0 0 -1.51-1.51h-24.2a1.52 1.52 0 0 0 -1.51 1.51v17.64h-1v-17.64a2.52 2.52 0 0 1 2.52-2.52h24.2a2.52 2.52 0 0 1 2.5 2.52z" fill="#5b9bd3"></path><path d="m248 204.61h-1v-17.14h-23.18v17.14h-1v-17.14a1 1 0 0 1 1-1h23.18a1 1 0 0 1 1 1z" fill="#5b9bd3"></path><path d="m246 194.53a6.06 6.06 0 0 1 -6.05-6.05h1a5 5 0 0 0 5 5z" fill="#5b9bd3"></path><path d="m246 202.09h-1.9l-.85-3.4a10.08 10.08 0 0 1 -2.52-1l-3 1.8-2.7-2.69 1.8-3a10.81 10.81 0 0 1 -1-2.51l-3.4-.85v-1.91h1v1.12l3.22.81.08.29a9.2 9.2 0 0 0 1 2.57l.13.22.16.26-1.71 2.85 1.58 1.58 2.85-1.71.27.16a9.16 9.16 0 0 0 2.78 1.16l.3.07.8 3.22h1.11z" fill="#5b9bd3"></path><path d="m238.37 195.11h1.01v1.01h-1.01z" fill="#5b9bd3" transform="matrix(.70710678 -.70710678 .70710678 .70710678 -68.35 226.2)"></path><path d="m233.25 203.96-.71-.71 2.16-2.17-2.16-2.16.71-.71 2.88 2.87z" fill="#5b9bd3"></path><path d="m228 203.96-2.87-2.88 2.87-2.87.72.71-2.17 2.16 2.17 2.17z" fill="#5b9bd3"></path><path d="m228 200.58h5.26v1.01h-5.26z" fill="#5b9bd3" transform="matrix(.28702616 -.95792274 .95792274 .28702616 -28.2 364.28)"></path><path d="m300.8 165.3h-11.59a2.63 2.63 0 0 1 -2.63-2.63v-2.67h16.86v2.63a2.64 2.64 0 0 1 -2.64 2.67zm-13.17-4.21v1.58a1.58 1.58 0 0 0 1.58 1.58h11.59a1.58 1.58 0 0 0 1.58-1.58v-1.58z" fill="#1a3967"></path><path d="m303.44 159h-1.06v-19.51a1.58 1.58 0 0 0 -1.58-1.58h-11.59a1.58 1.58 0 0 0 -1.58 1.58v19.51h-1.05v-19.51a2.63 2.63 0 0 1 2.63-2.63h11.59a2.64 2.64 0 0 1 2.64 2.63z" fill="#1a3967"></path><path d="m292.9 162.14h4.21v1.05h-4.21z" fill="#1a3967"></path><path d="m287.11 140.02h15.8v1.05h-15.8z" fill="#1a3967"></path><path d="m296.47 156.88h-2.93l-.34-1.38-.41-.17-1.22.73-1.78-1.78.75-.75 1.2 1.2 1-.61.27.15a4 4 0 0 0 .77.32l.29.08.29 1.15h1.28l.29-1.15.28-.08a3.87 3.87 0 0 0 .78-.32l.26-.15 1 .61.91-.91-.61-1 .14-.26a4.41 4.41 0 0 0 .32-.78l.09-.29 1.15-.28v-1.29l-1.15-.28-.09-.29a4.12 4.12 0 0 0 -.32-.78l.93-.5a4.23 4.23 0 0 1 .3.69l1.38.34v2.9l-1.38.34a3 3 0 0 1 -.17.41l.73 1.22-2.07 2.07-1.21-.73-.41.17z" fill="#1a3967"></path><path d="m290.37 153.05a5.37 5.37 0 0 1 -.31-.69l-1.37-.34v-2.93l1.37-.34c.05-.14.11-.28.17-.42l-.73-1.21 2.07-2.07 1.22.73.41-.17.34-1.38h2.93l.35 1.38.41.17 1.21-.73 1.78 1.78-.74.74-1.2-1.19-1 .6-.26-.14a4.12 4.12 0 0 0 -.78-.32l-.28-.09-.29-1.14h-1.28l-.29 1.14-.29.09a4.41 4.41 0 0 0 -.78.32l-.26.14-1-.6-.91.9.61 1-.14.26a4.15 4.15 0 0 0 -.33.78l-.08.29-1.15.28v1.29l1.15.28.08.29a4.45 4.45 0 0 0 .33.78z" fill="#1a3967"></path><path d="m295 152.66a2.11 2.11 0 1 1 2.1-2.11 2.11 2.11 0 0 1 -2.1 2.11zm0-3.16a1.06 1.06 0 1 0 1.05 1.05 1.06 1.06 0 0 0 -1.05-1.05z" fill="#1a3967"></path><path d="m298.69 169.52h-27.91v-23.18h14.75v1.05h-13.7v21.07h25.81v-2.1h1.05z" fill="#1a3967"></path><path d="m271.3 150.55h14.22v1.05h-14.22z" fill="#1a3967"></path><path d="m272.88 148.45h1.05v1.05h-1.05z" fill="#1a3967"></path><path d="m274.99 148.45h1.05v1.05h-1.05z" fill="#1a3967"></path><path d="m277.1 148.45h1.05v1.05h-1.05z" fill="#1a3967"></path><path d="m272.88 162.14h1.05v1.05h-1.05z" fill="#1a3967"></path><path d="m274.99 162.14h10.53v1.05h-10.53z" fill="#1a3967"></path><path d="m272.88 166.36h21.6v1.05h-21.6z" fill="#1a3967"></path><path d="m295.53 166.36h1.05v1.05h-1.05z" fill="#1a3967"></path><path d="m272.88 164.25h12.64v1.05h-12.64z" fill="#1a3967"></path><path d="m285.53 161.09h-12.65v-8.43h12.65v1.06h-11.59v6.32h11.59z" fill="#1a3967"></path><path d="m178.68 160.56a9.36 9.36 0 0 0 -9.68-2.36l-6.28-6.29 10.07-10 2.22-.5 4.53-6.77-2.88-2.89-6.78 4.51-.51 2.22-10.06 10-6.78-6.8a9.34 9.34 0 0 0 -10.07-12.25 1.24 1.24 0 0 0 -1 .82 1.23 1.23 0 0 0 .29 1.25l3.93 3.94-1 4.24-4.25 1-3.93-3.94a1.2 1.2 0 0 0 -1.25-.29 1.23 1.23 0 0 0 -.82 1 9.35 9.35 0 0 0 12.22 10.12l4.42 4.42-12.07 12.01a6.55 6.55 0 0 0 -2 4.23 5.24 5.24 0 0 0 1.49 4.14l.25.26a5.23 5.23 0 0 0 3.75 1.51h.39a6.66 6.66 0 0 0 4.24-2l12.08-12 3.92 3.93a9.37 9.37 0 0 0 2.15 9.5 9.25 9.25 0 0 0 6.67 2.83 10.63 10.63 0 0 0 1.25-.08 1.2 1.2 0 0 0 1-.81 1.22 1.22 0 0 0 -.29-1.26l-3.9-3.91 1-4.25 4.25-1 3.92 3.94a1.23 1.23 0 0 0 1.26.29 1.2 1.2 0 0 0 .81-1 9.26 9.26 0 0 0 -2.56-7.76zm-32.12-14.56a7.85 7.85 0 0 1 -10.71-7.76l4.1 4.1 6-1.41 1.43-6-4.09-4.1a7.75 7.75 0 0 1 6.06 2.35 7.86 7.86 0 0 1 1.66 8.37l-.18.46 5.26 5.28a1.22 1.22 0 0 0 -.17.07l-.15.06a1.42 1.42 0 0 0 -.41.28l-.91.91a1.55 1.55 0 0 0 -.47 1.09s0 .07 0 .11a7.44 7.44 0 0 0 -.85.42l-.17.11a5.63 5.63 0 0 0 -.76.55l-5.2-5.07zm-.5 25.14a5.18 5.18 0 0 1 -3.28 1.53 3.81 3.81 0 0 1 -3-1.06l-.25-.26a3.81 3.81 0 0 1 -1.06-3 5.14 5.14 0 0 1 1.53-3.25l12.62-12.57.12-.13a5.37 5.37 0 0 1 2.39-1.38l1.27-.33-1-1 .92-.91 2.35 2.36 1.64-1.63 10.37-10.33.47-2.07 5.26-3.49 1.14 1.15-3.44 5.23-2.07.47-10.9 10.86-1.1 1.1 2.36 2.38-.92.9-1-1-.33 1.27a5.4 5.4 0 0 1 -1.39 2.38l-.13.13-.49.5zm33.74-3.61-4.09-4.1-6 1.41-1.43 6 4.09 4.11a7.71 7.71 0 0 1 -6.06-2.36 7.87 7.87 0 0 1 -1.67-8.37l.18-.46-4.62-4.64a7 7 0 0 0 .55-.76l.1-.17a6.06 6.06 0 0 0 .43-.84h.2a1.6 1.6 0 0 0 1-.46l.91-.91a1.6 1.6 0 0 0 .23-.3l.05-.1a1 1 0 0 0 .11-.28l4.76 4.77.45-.18a7.85 7.85 0 0 1 8.51 1.83 7.76 7.76 0 0 1 2.3 5.81z" fill="#fff"></path><path d="m76.9 88.99h.94v2.83h-.94z" fill="#5b9bd3"></path><path d="m70.77 90.63h.94v2.83h-.94z" fill="#5b9bd3" transform="matrix(.8660254 -.5 .5 .8660254 -36.48 47.96)"></path><path d="m66.28 95.12h.94v2.83h-.94z" fill="#5b9bd3" transform="matrix(.5 -.8660254 .8660254 .5 -50.23 106.07)"></path><path d="m63.69 102.19h2.83v.94h-2.83z" fill="#5b9bd3"></path><path d="m65.34 108.32h2.83v.94h-2.83z" fill="#5b9bd3" transform="matrix(.86611266 -.49984884 .49984884 .86611266 -45.45 47.94)"></path><path d="m87.52 107.38h.94v2.83h-.94z" fill="#5b9bd3" transform="matrix(.5 -.8660254 .8660254 .5 -50.23 130.59)"></path><path d="m88.21 102.19h2.83v.94h-2.83z" fill="#5b9bd3"></path><path d="m86.57 96.06h2.83v.94h-2.83z" fill="#5b9bd3" transform="matrix(.86611266 -.49984884 .49984884 .86611266 -36.48 56.92)"></path><path d="m82.08 91.58h2.83v.94h-2.83z" fill="#5b9bd3" transform="matrix(.49984884 -.86611266 .86611266 .49984884 -37.96 118.35)"></path><path d="m82.56 118.23h-10.38v-7.14a9.9 9.9 0 1 1 10.38 0zm-9.44-1h8.49v-6.73l.24-.13a9 9 0 1 0 -9 0l.23.13z" fill="#5b9bd3"></path><path d="m71.24 115.4h12.26v.94h-12.26z" fill="#5b9bd3"></path><path d="m71.24 113.51h12.26v.94h-12.26z" fill="#5b9bd3"></path><path d="m71.24 111.62h12.26v.94h-12.26z" fill="#5b9bd3"></path><path d="m77.37 104.08a2.83 2.83 0 1 1 2.83-2.83 2.83 2.83 0 0 1 -2.83 2.83zm0-4.72a1.89 1.89 0 1 0 1.89 1.89 1.89 1.89 0 0 0 -1.89-1.89z" fill="#5b9bd3"></path><path d="m80.67 112.1h-.94v-3l4.57-7.78a1 1 0 0 0 .14-.51 1 1 0 0 0 -1-1h-.06a1 1 0 0 0 -.85.46l-3 4.72h-4.31l-3-4.72a1 1 0 0 0 -.85-.46h-.06a1 1 0 0 0 -1 1 1 1 0 0 0 .13.51l4.56 7.82v3h-.94v-2.7l-4.45-7.56a2 2 0 0 1 -.27-1 2 2 0 0 1 2-2h.06a2 2 0 0 1 1.6.92l2.72 4.28h3.28l2.72-4.28a2 2 0 0 1 1.65-.91h.06a2 2 0 0 1 2 2 2 2 0 0 1 -.27 1l-4.45 7.56z" fill="#5b9bd3"></path><path d="m77.37 107.22-1.79-2.39.75-.56 1.04 1.38 1.04-1.38.75.56z" fill="#5b9bd3"></path><path d="m81.14 102.26h.94v3.16h-.94z" fill="#5b9bd3" transform="matrix(.44729085 -.89438856 .89438856 .44729085 -47.77 130.4)"></path><path d="m71.54 103.37h3.16v.94h-3.16z" fill="#5b9bd3" transform="matrix(.89438856 -.44729085 .44729085 .89438856 -38.72 43.67)"></path><path d="m97.26 186.66h-28.26v-2.83h28.3zm-27.35-.94h26.41v-.95h-26.41z" fill="#5b9bd3"></path><path d="m97.26 205.52h-28.26v-2.83h28.3zm-27.35-.94h26.41v-.94h-26.41z" fill="#5b9bd3"></path><path d="m83.11 180.06a1.89 1.89 0 1 1 1.89-1.89 1.89 1.89 0 0 1 -1.89 1.89zm0-2.83a.94.94 0 1 0 1 .94.94.94 0 0 0 -1-.94z" fill="#5b9bd3"></path><path d="m69.16 180.77h13.29v.94h-13.29z" fill="#5b9bd3" transform="matrix(.88749389 -.46081948 .46081948 .88749389 -74.99 55.32)"></path><path d="m89.95 174.59h.94v13.29h-.94z" fill="#5b9bd3" transform="matrix(.46128411 -.88725248 .88725248 .46128411 -112.09 177.85)"></path><path d="m69.91 186.19h.94v16.98h-.94z" fill="#5b9bd3"></path><path d="m95.37 201.75h.94v1.41h-.94z" fill="#5b9bd3"></path><path d="m95.37 186.19h.94v3.3h-.94z" fill="#5b9bd3"></path><path d="m72.74 201.28h-.95v-.09a12.65 12.65 0 0 1 12.65-12.64h2v.94h-2a11.71 11.71 0 0 0 -11.7 11.7z" fill="#5b9bd3"></path><path d="m85.28 190.81-.56-.75 1.38-1.04-1.38-1.04.56-.75 2.39 1.79z" fill="#5b9bd3"></path><path d="m73.68 191.38a1.89 1.89 0 1 1 1.89-1.89 1.89 1.89 0 0 1 -1.89 1.89zm0-2.83a.94.94 0 1 0 .94.94.94.94 0 0 0 -.94-.94z" fill="#5b9bd3"></path><path d="m83.58 195.62a1.89 1.89 0 1 1 1.89-1.89 1.89 1.89 0 0 1 -1.89 1.89zm0-2.83a.95.95 0 0 0 0 1.89.95.95 0 1 0 0-1.89z" fill="#5b9bd3"></path><path d="m77.22 197.29h.94v4.67h-.94z" fill="#5b9bd3" transform="matrix(.70710678 -.70710678 .70710678 .70710678 -118.4 113.4)"></path><path d="m75.35 199.16h4.67v.94h-4.67z" fill="#5b9bd3" transform="matrix(.70710678 -.70710678 .70710678 .70710678 -118.4 113.4)"></path><path d="m96.32 201.75h-6.61v-4.49a5.19 5.19 0 1 1 6.61 0zm-5.66-.94h4.71v-4l.19-.14a4.25 4.25 0 1 0 -5.09 0l.19.14z" fill="#5b9bd3"></path><path d="m88.77 198.92h8.49v.94h-8.49z" fill="#5b9bd3"></path><path d="m88.77 197.04h8.49v.94h-8.49z" fill="#5b9bd3"></path><path d="m93 195.15a1.89 1.89 0 1 1 1.88-1.89 1.89 1.89 0 0 1 -1.88 1.89zm0-2.83a.95.95 0 1 0 .94.94.95.95 0 0 0 -.94-.94z" fill="#5b9bd3"></path><path d="m92.54 194.68h.94v2.83h-.94z" fill="#5b9bd3"></path><path d="m156.16 241.55a7.07 7.07 0 0 1 -4.55-12.49l.61.73a6.13 6.13 0 1 0 7.88 0l.61-.73a7.08 7.08 0 0 1 -4.55 12.49z" fill="#5b9bd3"></path><path d="m157.47 228.49a6.14 6.14 0 0 0 -2.63 0l-.2-.92a7 7 0 0 1 3 0z" fill="#5b9bd3"></path><path d="m156.16 239.67a5.2 5.2 0 0 1 -5.19-5.19 5 5 0 0 1 .52-2.25l.85.41a4.24 4.24 0 1 0 7.64 0l.85-.41a5.18 5.18 0 0 1 -4.67 7.44z" fill="#5b9bd3"></path><path d="m157.43 230.43a4.27 4.27 0 0 0 -2.55 0l-.28-.9a5.16 5.16 0 0 1 3.11 0z" fill="#5b9bd3"></path><path d="m156.16 249.1a2.36 2.36 0 0 1 -2.36-2.36v-6.13h.94v6.13a1.42 1.42 0 1 0 2.83 0v-6.13h1v6.13a2.36 2.36 0 0 1 -2.41 2.36z" fill="#5b9bd3"></path><path d="m152.86 242.02h6.6v.94h-6.6z" fill="#5b9bd3"></path><path d="m149.56 235h-3.78v-5.19h3.78zm-2.83-.94h1.88v-3.3h-1.88z" fill="#5b9bd3"></path><path d="m155.21 235h-3.77v-10.9h3.77zm-2.83-.94h1.89v-9h-1.89z" fill="#5b9bd3"></path><path d="m160.87 235h-3.77v-9h3.77zm-2.87-1h1.89v-7.08h-1.89z" fill="#5b9bd3"></path><path d="m166.53 235h-3.77v-13.2h3.77zm-2.83-1h1.89v-11.31h-1.89z" fill="#5b9bd3"></path><path d="m145.12 244.27h10.98v.94h-10.98z" fill="#5b9bd3" transform="matrix(.70710678 -.70710678 .70710678 .70710678 -128.95 178.18)"></path><path d="m140.4 239.56h10.98v.94h-10.98z" fill="#5b9bd3" transform="matrix(.70710678 -.70710678 .70710678 .70710678 -126.99 173.46)"></path><path d="m170.78 231.37-3.07-3.06-1.31 1.31-.67-.66 1.98-1.99 2.12 2.13v-8.3h-8.29l2.12 2.12-3.87 3.87-.66-.66 3.2-3.21-3.07-3.06h11.52z" fill="#5b9bd3"></path><path d="m141.96 243.2h10v.94h-10z" fill="#5b9bd3" transform="matrix(.70710678 -.70710678 .70710678 .70710678 -129.26 175.29)"></path><path d="m141.81 247.68h1.33v.94h-1.33z" fill="#5b9bd3" transform="matrix(.70710678 -.70710678 .70710678 .70710678 -133.74 173.43)"></path><path d="m161.52 227.64h2v.94h-2z" fill="#5b9bd3" transform="matrix(.70710678 -.70710678 .70710678 .70710678 -113.7 181.73)"></path></svg>