<svg xmlns="http://www.w3.org/2000/svg" viewBox="0 0 316.21 344.47"><path d="m195 234.09h91.07a1 1 0 0 0 0-2h-91.07z" fill="#5b9bd3"></path><path d="m24.15 234.74h91.07a1 1 0 0 0 0-2h-91.07z" fill="#5b9bd3"></path><path d="m159.61 197.42v-151.07a1 1 0 1 0 -2 0v151.07z" fill="#5b9bd3"></path><path d="m233.06 87.57c0-.3 0-.59 0-.88h-47.26c-.08 0-8.34.64-8.34 8.4v134.13a1 1 0 1 0 2 0v-134.13a5.68 5.68 0 0 1 3.17-5.43 9.24 9.24 0 0 1 3.3-1h47.19c-.05-.37-.06-.73-.06-1.09z" fill="#5b9bd3"></path><path d="m260.56 269.21v-.07c0-.08-.64-8.33-8.4-8.33h-104.16a1 1 0 1 0 0 2h104.16a5.68 5.68 0 0 1 5.43 3.17 9.38 9.38 0 0 1 1 3.31v51.11h2z" fill="#5b9bd3"></path><path d="m161.42 201h-104.13a5.67 5.67 0 0 1 -5.43-3.17 9.24 9.24 0 0 1 -1-3.3v-44.39c-.68 0-1.33-.11-2-.2v44.65c0 .09.64 8.34 8.4 8.34h104.16a1 1 0 1 0 0-2z" fill="#5b9bd3"></path><path d="m129.78 84.46h.06c.09 0 8.34.64 8.34 8.4v134.14a1 1 0 0 1 -2 0v-134.14a5.67 5.67 0 0 0 -3.18-5.43 9.59 9.59 0 0 0 -3.3-1h-65.53v-2z" fill="#5b9bd3"></path><path d="m262.91 194.69v.06c0 .09-.64 8.34-8.4 8.34h-104.13a1 1 0 0 1 0-2h104.13a5.68 5.68 0 0 0 5.49-3.09 9.47 9.47 0 0 0 1-3.3v-65.63h2z" fill="#5b9bd3"></path><path d="m55.69 269.1v-.1c0-.08.64-8.33 8.4-8.33h104.13a1 1 0 1 1 0 2h-104.13a5.7 5.7 0 0 0 -5.44 3.17 9.5 9.5 0 0 0 -1 3.31v53.37h-2z" fill="#5b9bd3"></path><path d="m188.08 24.49a30 30 0 1 1 -35.82-22.8 30 30 0 0 1 35.82 22.8z" fill="#fff"></path><path d="m158.7 62a31.12 31.12 0 1 1 6.78-.75 31.23 31.23 0 0 1 -6.78.75zm.07-60.07a29.57 29.57 0 0 0 -6.3.69 29.06 29.06 0 1 0 34.66 22.08 29.1 29.1 0 0 0 -28.36-22.76z" fill="#5b9bd3"></path><path d="m77 157a27.63 27.63 0 1 1 -21.67-32.52 27.64 27.64 0 0 1 21.67 32.52z" fill="#fff"></path><path d="m49.91 180.15a28.6 28.6 0 1 1 28-23 28.66 28.66 0 0 1 -28 23zm-.06-55.28a26.71 26.71 0 1 0 5.29.53 27.27 27.27 0 0 0 -5.29-.53z" fill="#5b9bd3"></path><path d="m314.56 226.68a28.12 28.12 0 1 1 -33.56-21.35 28.12 28.12 0 0 1 33.56 21.35z" fill="#fff"></path><path d="m287.11 261.87a29.09 29.09 0 1 1 28.4-35.4 29.08 29.08 0 0 1 -28.4 35.4zm.05-56.25a27.38 27.38 0 0 0 -5.94.66 27.15 27.15 0 1 0 32.39 20.61 27.18 27.18 0 0 0 -26.45-21.27z" fill="#5b9bd3"></path><path d="m131.18 85.29a33.55 33.55 0 1 1 -33.54-33.55 33.54 33.54 0 0 1 33.54 33.55z" fill="#fff"></path><path d="m97.64 119.81a34.52 34.52 0 1 1 34.51-34.52 34.56 34.56 0 0 1 -34.51 34.52zm0-67.1a32.58 32.58 0 1 0 32.57 32.58 32.62 32.62 0 0 0 -32.57-32.58z" fill="#5b9bd3"></path><path d="m287.71 149.34a26.78 26.78 0 1 1 -21-31.52 26.78 26.78 0 0 1 21 31.52z" fill="#fff"></path><path d="m261.51 171.85a27.76 27.76 0 1 1 27.15-22.32 27.78 27.78 0 0 1 -27.15 22.32zm-.12-53.59a25.85 25.85 0 1 0 5.13.51 26.25 26.25 0 0 0 -5.13-.51z" fill="#5b9bd3"></path><path d="m282.41 315.1a23.33 23.33 0 1 1 -27.84-17.73 23.34 23.34 0 0 1 27.84 17.73z" fill="#fff"></path><path d="m259.62 344.47a24.36 24.36 0 1 1 5.28-.59 24.35 24.35 0 0 1 -5.28.59zm0-46.68a22.37 22.37 0 1 0 21.83 17.52 22.37 22.37 0 0 0 -21.82-17.52z" fill="#5b9bd3"></path><path d="m242.92 88.08a27.42 27.42 0 1 1 -27.42-27.42 27.42 27.42 0 0 1 27.42 27.42z" fill="#fff"></path><path d="m215.5 116.47a28.39 28.39 0 1 1 28.39-28.39 28.42 28.42 0 0 1 -28.39 28.39zm0-54.84a26.45 26.45 0 1 0 26.5 26.45 26.49 26.49 0 0 0 -26.5-26.45z" fill="#5b9bd3"></path><path d="m57.14 233.53a28.09 28.09 0 1 1 -28.09-28.08 28.09 28.09 0 0 1 28.09 28.08z" fill="#fff"></path><path d="m29.05 262.59a29.06 29.06 0 1 1 29.06-29.06 29.09 29.09 0 0 1 -29.06 29.06zm0-56.17a27.12 27.12 0 1 0 27.12 27.11 27.14 27.14 0 0 0 -27.12-27.11z" fill="#5b9bd3"></path><path d="m80.26 318.82a23.34 23.34 0 1 1 -23.33-23.33 23.34 23.34 0 0 1 23.33 23.33z" fill="#fff"></path><path d="m56.92 343.13a24.31 24.31 0 1 1 24.31-24.31 24.33 24.33 0 0 1 -24.31 24.31zm0-46.67a22.37 22.37 0 1 0 22.37 22.36 22.38 22.38 0 0 0 -22.37-22.36z" fill="#5b9bd3"></path><path d="m223.6 232.27c0-2-.1-4-.27-6l11.28-5.21a78.36 78.36 0 0 0 -1.76-8.67 79.43 79.43 0 0 0 -2.73-8.41l-12.37 1a66.2 66.2 0 0 0 -6.21-10.83l7.16-10.15a77.55 77.55 0 0 0 -12.43-12.53l-10.27 7.09a66.5 66.5 0 0 0 -10.78-6.3c.37-4 .85-9.3 1.12-12.36a78 78 0 0 0 -17-4.66c-1.32 2.78-3.58 7.55-5.32 11.24q-3.22-.31-6.54-.32c-2 0-4 .09-5.94.27l-5.22-11.28a78.36 78.36 0 0 0 -8.67 1.76 79.43 79.43 0 0 0 -8.41 2.73c.25 3.07.68 8.31 1 12.37a65.58 65.58 0 0 0 -10.84 6.21l-10.17-7.17a78 78 0 0 0 -12.53 12.44l7.06 10.22a66.14 66.14 0 0 0 -6.29 10.78l-12.37-1.12a78 78 0 0 0 -4.66 17l11.24 5.33q-.32 3.22-.32 6.54 0 3 .27 5.94l-11.28 5.22a78.83 78.83 0 0 0 1.76 8.67 80.19 80.19 0 0 0 2.73 8.41l12.37-1a66.72 66.72 0 0 0 6.21 10.84c-2.35 3.33-5.39 7.65-7.17 10.16a77.68 77.68 0 0 0 12.46 12.52l10.22-7a65.48 65.48 0 0 0 10.78 6.3c-.36 4.06-.84 9.3-1.12 12.37a78.12 78.12 0 0 0 17 4.66c1.32-2.79 3.57-7.56 5.32-11.25a64.21 64.21 0 0 0 6.54.33c2 0 4-.1 5.94-.27 1.71 3.7 3.93 8.48 5.22 11.28a76.17 76.17 0 0 0 8.67-1.77 75.09 75.09 0 0 0 8.41-2.73c-.25-3.06-.68-8.31-1-12.37a66.25 66.25 0 0 0 10.84-6.2l10.17 7.16a78 78 0 0 0 12.56-12.51l-7.07-10.22a65.07 65.07 0 0 0 6.3-10.78l12.37 1.12a78 78 0 0 0 4.66-17l-11.24-5.32q.32-3.23.32-6.53z" fill="#fff" stroke="#1a3967" stroke-miterlimit="10" stroke-width="3"></path><path d="m157.49 284.32a52.05 52.05 0 1 1 52-52 52.05 52.05 0 0 1 -52 52z" fill="#5b9bd3" stroke="#1a3967" stroke-miterlimit="10" stroke-width="3"></path><path d="m157.3 198.16a34.38 34.38 0 0 0 -16 3.88l8.32 8.32a19.8 19.8 0 0 1 7.67-1.3 22.92 22.92 0 0 1 23 22.79 24.57 24.57 0 0 1 -1.3 7.57l-4.1-4.11-1.08 9.29-1.08 9.29 9.5-1.08 9.29-.86-4.32-4.32a32.33 32.33 0 0 0 4-15.78 33.79 33.79 0 0 0 -33.92-33.69z" fill="#fff"></path><path d="m143.15 208-9.4 1.08-9.29 1.09 4.11 4a33.34 33.34 0 0 0 -5.19 17.71 34 34 0 0 0 33.92 33.92 32.69 32.69 0 0 0 17.7-5.1l-7.88-8a23.09 23.09 0 0 1 -32.84-20.85 27.87 27.87 0 0 1 2.16-9.72l4.65 4.54 1-9.4 1.08-9.29z" fill="#fff"></path><g fill="#1a3967"><path d="m219.26 96.11h-11.68v-15.26a7.4 7.4 0 0 1 2.79-5.8l3-2.44 3.05 2.44a7.4 7.4 0 0 1 2.79 5.8zm-10.62-1.06h9.56v-14.2a6.34 6.34 0 0 0 -2.39-5l-2.39-1.85-2.42 1.88a6.34 6.34 0 0 0 -2.39 5z"></path><path d="m213.42 87.09a4.25 4.25 0 1 1 4.25-4.24 4.25 4.25 0 0 1 -4.25 4.24zm0-7.43a3.19 3.19 0 1 0 3.19 3.19 3.18 3.18 0 0 0 -3.19-3.19z"></path><path d="m213.42 84.44a1.6 1.6 0 1 1 1.58-1.59 1.59 1.59 0 0 1 -1.58 1.59zm0-2.13a.54.54 0 1 0 .53.54.54.54 0 0 0 -.53-.54z"></path><path d="m218.73 78.07a1.6 1.6 0 1 1 1.59-1.59 1.59 1.59 0 0 1 -1.59 1.59zm0-2.13a.54.54 0 1 0 .53.54.54.54 0 0 0 -.53-.54z"></path><path d="m223 81.78a1.59 1.59 0 1 1 1.6-1.59 1.59 1.59 0 0 1 -1.6 1.59zm0-2.12a.53.53 0 1 0 .54.53.53.53 0 0 0 -.54-.53z"></path><path d="m228.28 75.41a1.59 1.59 0 1 1 1.59-1.59 1.59 1.59 0 0 1 -1.59 1.59zm0-2.12a.53.53 0 1 0 0 1.06.53.53 0 1 0 0-1.06z"></path><path d="m225.1 96.11h-6.37v-1.06h5.27v-.61a8.44 8.44 0 0 0 -4.94-7.66l-.59-.27.44-1 .59.27a9.49 9.49 0 0 1 5.56 8.62z"></path><path d="m208.11 96.11h-6.37v-1.67a9.49 9.49 0 0 1 5.56-8.62l.59-.27.44 1-.59.27a8.44 8.44 0 0 0 -4.94 7.66v.61h5.31z"></path><path d="m220.32 92.93h1.06v1.06h-1.06z"></path><path d="m222.44 92.93h1.06v1.06h-1.06z"></path><path d="m203.34 92.93h1.06v1.06h-1.06z"></path><path d="m205.46 92.93h1.06v1.06h-1.06z"></path><path d="m208.11 91.87h7.96v1.06h-7.96z"></path><path d="m217.14 91.87h1.59v1.06h-1.59z"></path><path d="m212.89 97.18h1.06v5.84h-1.06z"></path><path d="m215.01 103.01h1.06v1.06h-1.06z"></path><path d="m215.01 97.18h1.06v4.78h-1.06z"></path><path d="m217.14 101.95h1.06v1.06h-1.06z"></path><path d="m217.14 97.18h1.06v3.72h-1.06z"></path><path d="m210.77 101.95h1.06v2.12h-1.06z"></path><path d="m210.77 97.18h1.06v3.72h-1.06z"></path><path d="m208.64 100.89h1.06v2.12h-1.06z"></path><path d="m208.64 97.18h1.06v2.65h-1.06z"></path><path d="m212.89 104.08h1.06v1.06h-1.06z"></path><path d="m212.68 79.13h6.8v1.06h-6.8z" transform="matrix(.62469766 -.78086672 .78086672 .62469766 18.89 198.62)"></path><path d="m220.32 76.26h1.06v4.15h-1.06z" transform="matrix(.64024378 -.76817179 .76817179 .64024378 19.29 197.85)"></path><path d="m222.23 76.48h6.8v1.06h-6.8z" transform="matrix(.62469766 -.78086672 .78086672 .62469766 24.55 205.09)"></path><path d="m227.75 76.48h1.06v1.06h-1.06z"></path><path d="m227.75 78.6h1.06v1.06h-1.06z"></path><path d="m227.75 80.72h1.06v1.06h-1.06z"></path><path d="m222.44 82.85h1.06v1.06h-1.06z"></path><path d="m222.44 84.97h1.06v1.06h-1.06z"></path><path d="m222.44 87.09h1.06v1.06h-1.06z"></path><path d="m261.81 154.44a13 13 0 1 1 13-13 13 13 0 0 1 -13 13zm0-25a12 12 0 1 0 12 12 12 12 0 0 0 -12-12.03z"></path><path d="m261.81 151.44a10 10 0 1 1 10-10 10 10 0 0 1 -10 10zm0-19a9 9 0 1 0 9 9 9 9 0 0 0 -9-9.03z"></path><path d="m261.81 148.43a7 7 0 1 1 7-7 7 7 0 0 1 -7 7zm0-13a6 6 0 1 0 6 6 6 6 0 0 0 -6-6.01z"></path><path d="m261.81 145.43a4 4 0 1 1 4-4 4 4 0 0 1 -4 4zm0-7a3 3 0 1 0 3 3 3 3 0 0 0 -3-3.01z"></path><path d="m254.17 159.45h-4.05l2.7-9.15.96.28-2.32 7.87h1.97l1.89-6.16.96.3z"></path><path d="m273.49 159.45h-4.04l-2.11-6.86.95-.3 1.9 6.16h1.96l-2.31-7.87.96-.28z"></path><path d="m261.31 140.92h18.52v1h-18.52z"></path><path d="m278.87 145.13-1.59-3.7 1.59-3.71.92.4-1.42 3.31 1.42 3.3z"></path><path d="m276.37 145.13-1.59-3.7 1.59-3.71.92.4-1.42 3.31 1.42 3.3z"></path><path d="m261.31 155.44h1v1h-1z"></path><path d="m263.31 155.44h1v1h-1z"></path><path d="m259.3 155.44h1v1h-1z"></path><path d="m265.31 155.44h1v1h-1z"></path><path d="m257.3 155.44h1v1h-1z"></path><path d="m65 160.1h-1.14v-19.1a1.69 1.69 0 0 0 -1.68-1.69h-24.71a1.69 1.69 0 0 0 -1.69 1.69v19.1h-1.12v-19.1a2.81 2.81 0 0 1 2.81-2.81h24.71a2.81 2.81 0 0 1 2.82 2.81z"></path><path d="m64.42 165.16h-29.2a2.81 2.81 0 0 1 -2.81-2.81v-2.81h34.82v2.81a2.81 2.81 0 0 1 -2.81 2.81zm-30.89-4.5v1.69a1.69 1.69 0 0 0 1.69 1.65h29.2a1.69 1.69 0 0 0 1.69-1.68v-1.69z"></path><path d="m52.07 162.91h-4.5a1.69 1.69 0 0 1 -1.68-1.69v-1.12h1.11v1.12a.57.57 0 0 0 .56.57h4.5a.57.57 0 0 0 .56-.57v-1.12h1.12v1.12a1.69 1.69 0 0 1 -1.67 1.69z"></path><path d="m62.74 158.42h-25.84v-18h25.84zm-24.74-1.13h23.62v-15.72h-23.62z"></path><path d="m40.84 156.17a1.69 1.69 0 1 1 1.68-1.68 1.69 1.69 0 0 1 -1.68 1.68zm0-2.25a.57.57 0 1 0 0 1.13.57.57 0 0 0 0-1.13z"></path><path d="m46.45 150a1.69 1.69 0 0 1 0-3.37 1.69 1.69 0 1 1 0 3.37zm0-2.24a.56.56 0 1 0 .56.56.56.56 0 0 0 -.56-.57z"></path><path d="m46.45 152.8a4.5 4.5 0 1 1 4.49-4.49 4.5 4.5 0 0 1 -4.49 4.49zm0-7.86a3.37 3.37 0 1 0 3.37 3.37 3.37 3.37 0 0 0 -3.37-3.37z"></path><path d="m53.75 153.92a1.69 1.69 0 0 1 0-3.37 1.69 1.69 0 1 1 0 3.37zm0-2.24a.56.56 0 1 0 .56.56.56.56 0 0 0 -.56-.56z"></path><path d="m58.81 146.62a1.69 1.69 0 1 1 1.68-1.68 1.69 1.69 0 0 1 -1.68 1.68zm0-2.24a.56.56 0 1 0 .56.56.56.56 0 0 0 -.56-.56z"></path><path d="m40.72 151.96h3.6v1.12h-3.6z" transform="matrix(.62469766 -.78086672 .78086672 .62469766 -103.14 90.44)"></path><path d="m51.23 149.2h1.12v3.27h-1.12z" transform="matrix(.51443953 -.85752666 .85752666 .51443953 -104.2 117.64)"></path><path d="m52.62 148.03h7.32v1.12h-7.32z" transform="matrix(.53700518 -.84357895 .84357895 .53700518 -99.29 116.27)"></path><path d="m45.89 150.55h1.12v3.37h-1.12z"></path><path d="m48.7 147.75h3.37v1.12h-3.37z"></path><path d="m45.89 142.69h1.12v3.37h-1.12z"></path><path d="m40.84 147.75h2.81v1.12h-2.81z"></path><path d="m45.41 250.26h-25.29v-20h25.29zm-24.23-1h23.17v-17.96h-23.17z"></path><path d="m22.23 232.35h1.05v1.05h-1.05z"></path><path d="m24.34 232.35h1.05v1.05h-1.05z"></path><path d="m26.44 232.35h1.05v1.05h-1.05z"></path><path d="m20.65 234.46h24.23v1.05h-24.23z"></path><path d="m20.65 237.62h-7.9v-20.02h25.28v13.17h-1.05v-12.11h-23.18v17.91h6.85z"></path><path d="m14.85 219.71h1.05v1.05h-1.05z"></path><path d="m16.96 219.71h1.05v1.05h-1.05z"></path><path d="m19.07 219.71h1.05v1.05h-1.05z"></path><path d="m13.27 221.82h24.23v1.05h-24.23z"></path><path d="m20.65 233.41h-5.8v-9.48h21.07v6.84h-1.05v-5.79h-18.96v7.37h4.74z"></path><path d="m14.85 234.46h4.21v1.05h-4.21z"></path><path d="m32.24 236.57h1.05v1.05h-1.05z"></path><path d="m32.24 238.67h1.05v2.11h-1.05z"></path><path d="m32.24 232.35h1.05v1.05h-1.05z"></path><path d="m32.24 228.14h1.05v1.05h-1.05z"></path><path d="m32.24 226.03h1.05v1.05h-1.05z"></path><path d="m30.13 226.03h1.05v1.05h-1.05z"></path><path d="m28.02 226.03h1.05v1.05h-1.05z"></path><path d="m25.92 226.03h1.05v1.05h-1.05z"></path><path d="m23.81 226.03h1.05v1.05h-1.05z"></path><path d="m32.76 241.53-3-3.01.74-.75 2.26 2.27 2.26-2.27.75.75z"></path><path d="m40.14 249.74h-1.06v-1.58h-1.14l-.11-.39a5.38 5.38 0 0 0 -.47-1.13l-.19-.34.81-.82-1.49-1.48-.81.82-.35-.2a5.38 5.38 0 0 0 -1.13-.47l-.38-.1v-1.15h-2.11v1.1l-.38.1a5.38 5.38 0 0 0 -1.13.47l-.35.2-.85-.77-1.49 1.49.81.82-.19.34a4.9 4.9 0 0 0 -.47 1.13l-.11.39h-1.11v1.58h-1.05v-2.65h1.42a6.5 6.5 0 0 1 .25-.61l-1-1 3-3 1 1c.2-.1.41-.18.62-.26v-1.42h4.21v1.42c.21.08.42.16.62.26l1-1 3 3-1 1a6.5 6.5 0 0 1 .25.61h1.42z"></path><path d="m35.92 249.74h-1.05v-.53a2.11 2.11 0 1 0 -4.21 0v.53h-1.06v-.53a3.16 3.16 0 0 1 6.32 0z"></path><path d="m23.28 249.74h-1.05v-13.17h7.37v1.05h-6.32z"></path><path d="m43.3 249.74h-1.06v-12.12h-6.32v-1.05h7.38z"></path><path d="m50.49 307.17v2h1v-2a1.45 1.45 0 0 0 .95-1.36 1.44 1.44 0 1 0 -1.91 1.36zm.48-1.84a.49.49 0 0 1 .48.48.48.48 0 0 1 -.48.48.47.47 0 0 1 -.48-.48.48.48 0 0 1 .51-.48z"></path><path d="m54.32 307.17v2h1v-2a1.44 1.44 0 1 0 -1 0zm.48-1.84a.48.48 0 0 1 .48.48.47.47 0 0 1 -.48.48.48.48 0 0 1 -.48-.48.49.49 0 0 1 .48-.48z"></path><path d="m58.16 307.17v2h1v-2a1.44 1.44 0 1 0 -1 0zm.48-1.84a.48.48 0 0 1 .48.48.47.47 0 0 1 -.48.48.48.48 0 0 1 -.48-.48.49.49 0 0 1 .48-.48z"></path><path d="m62 307.17v2h1v-2a1.44 1.44 0 1 0 -1 0zm.48-1.84a.48.48 0 0 1 .48.48.47.47 0 0 1 -.48.48.48.48 0 0 1 -.48-.48.49.49 0 0 1 .48-.48z"></path><path d="m43.29 323.57a1.44 1.44 0 0 0 0 2.88 1.45 1.45 0 0 0 1.35-1h2v-1h-2a1.44 1.44 0 0 0 -1.35-.88zm0 1.92a.48.48 0 0 1 -.48-.48.47.47 0 0 1 .48-.48.48.48 0 0 1 .48.48.49.49 0 0 1 -.48.48z"></path><path d="m43.29 319.73a1.44 1.44 0 1 0 1.35 1.92h2v-1h-2a1.44 1.44 0 0 0 -1.35-.92zm0 1.92a.48.48 0 0 1 -.48-.48.47.47 0 0 1 .48-.48.48.48 0 0 1 .48.48.49.49 0 0 1 -.48.48z"></path><path d="m43.29 315.89a1.44 1.44 0 1 0 1.35 1.92h2v-1h-2a1.44 1.44 0 0 0 -1.35-.92zm0 1.92a.48.48 0 0 1 -.48-.48.47.47 0 0 1 .48-.48.48.48 0 0 1 .48.48.49.49 0 0 1 -.48.48z"></path><path d="m43.29 312.05a1.44 1.44 0 1 0 1.35 1.95h2v-1h-2a1.44 1.44 0 0 0 -1.35-.95zm0 1.92a.47.47 0 0 1 -.48-.48.48.48 0 0 1 .48-.48.49.49 0 0 1 .48.48.48.48 0 0 1 -.48.51z"></path><path d="m63 331.33v-2h-1v2a1.44 1.44 0 1 0 1 0zm-.48 1.83a.48.48 0 0 1 -.48-.48.49.49 0 0 1 .48-.48.48.48 0 0 1 .48.48.47.47 0 0 1 -.52.48z"></path><path d="m59.12 331.33v-2h-1v2a1.44 1.44 0 0 0 .48 2.79 1.44 1.44 0 0 0 .48-2.79zm-.48 1.83a.48.48 0 0 1 -.48-.48.49.49 0 0 1 .48-.48.48.48 0 0 1 .48.48.47.47 0 0 1 -.48.48z"></path><path d="m55.28 331.33v-2h-1v2a1.44 1.44 0 0 0 .48 2.79 1.44 1.44 0 0 0 .48-2.79zm-.48 1.83a.48.48 0 0 1 -.48-.48.49.49 0 0 1 .48-.48.48.48 0 0 1 .48.48.47.47 0 0 1 -.48.48z"></path><path d="m51.45 331.33v-2h-1v2a1.43 1.43 0 1 0 1 0zm-.45 1.83a.47.47 0 0 1 -.48-.48.48.48 0 0 1 .48-.48.49.49 0 0 1 .48.48.48.48 0 0 1 -.48.48z"></path><path d="m70.16 314.93a1.44 1.44 0 0 0 0-2.88 1.43 1.43 0 0 0 -1.35 1h-2v1h2a1.43 1.43 0 0 0 1.35.88zm0-1.92a.49.49 0 0 1 .48.48.48.48 0 0 1 -.48.48.47.47 0 0 1 -.48-.48.48.48 0 0 1 .48-.49z"></path><path d="m70.16 315.89a1.43 1.43 0 0 0 -1.35 1h-2v1h2a1.43 1.43 0 0 0 1.35 1 1.44 1.44 0 1 0 0-2.88zm0 1.92a.48.48 0 0 1 -.48-.48.47.47 0 0 1 .48-.48.48.48 0 0 1 .48.48.49.49 0 0 1 -.48.48z"></path><path d="m70.16 319.73a1.43 1.43 0 0 0 -1.35 1h-2v1h2a1.43 1.43 0 0 0 1.35 1 1.44 1.44 0 1 0 0-2.88zm0 1.92a.48.48 0 0 1 -.48-.48.47.47 0 0 1 .48-.48.48.48 0 0 1 .48.48.49.49 0 0 1 -.48.48z"></path><path d="m70.16 323.57a1.43 1.43 0 0 0 -1.35 1h-2v1h2a1.44 1.44 0 1 0 1.35-1.92zm0 1.92a.48.48 0 0 1 -.48-.48.47.47 0 0 1 .48-.48.48.48 0 0 1 .48.48.49.49 0 0 1 -.48.48z"></path><path d="m52.88 326.45h7.68a1.44 1.44 0 0 0 1.44-1.45v-5.76a1.43 1.43 0 0 0 -1-1.35v-1.53a4.32 4.32 0 0 0 -8.64 0v1.53a1.43 1.43 0 0 0 -.95 1.35v5.76a1.44 1.44 0 0 0 1.47 1.45zm3.84-13.45a3.37 3.37 0 0 1 3.36 3.36v1.44h-1v-1.44a2.4 2.4 0 0 0 -4.8 0v1.44h-1v-1.44a3.37 3.37 0 0 1 3.44-3.36zm1.44 4.8h-2.88v-1.44a1.44 1.44 0 0 1 2.88 0zm-5.76 1.44a.48.48 0 0 1 .48-.48h7.68a.47.47 0 0 1 .48.48v5.76a.48.48 0 0 1 -.48.48h-7.68a.49.49 0 0 1 -.48-.48z"></path><path d="m56.24 322.52v2h1v-2a1.44 1.44 0 1 0 -1 0zm.48-1.83a.47.47 0 0 1 .48.48.48.48 0 0 1 -.48.48.49.49 0 0 1 -.48-.48.48.48 0 0 1 .48-.48z"></path><path d="m47.61 312.81v15.56h18.23v-18.24h-15.55zm17.27-1.72v16.32h-16.31v-14.2l2.11-2.12z"></path><path d="m117.19 72.14h-38.8v-6.26h38.8zm-37.55-1.25h36.3v-3.75h-36.3z"></path><path d="m80.9 68.39h1.25v1.25h-1.25z"></path><path d="m83.4 68.39h1.25v1.25h-1.25z"></path><path d="m85.9 68.39h1.25v1.25h-1.25z"></path><path d="m117.19 104.68h-38.8v-31.29h1.25v30.04h36.3v-30.04h1.25z"></path><path d="m93.41 102.18h-12.51v-1.25h11.26v-7.51h1.25z"></path><path d="m82.15 99.67h-1.25v-8.76h12.51v1.26h-11.26z"></path><path d="m83.4 93.42h1.25v1.25h-1.25z"></path><path d="m85.9 93.42h5.01v1.25h-5.01z"></path><path d="m83.4 95.92h7.51v1.25h-7.51z"></path><path d="m89.66 98.42h1.25v1.25h-1.25z"></path><path d="m83.4 98.42h5.01v1.25h-5.01z"></path><path d="m114.69 84.66h-12.52v-1.25h11.26v-7.51h1.26z"></path><path d="m103.42 82.15h-1.25v-8.76h12.52v1.25h-11.27z"></path><path d="m104.67 75.9h1.25v1.25h-1.25z"></path><path d="m107.18 75.9h5.01v1.25h-5.01z"></path><path d="m104.67 78.4h7.51v1.25h-7.51z"></path><path d="m110.93 80.9h1.25v1.25h-1.25z"></path><path d="m104.67 80.9h5.01v1.25h-5.01z"></path><path d="m108.43 102.18a6.06 6.06 0 0 1 -2.48-.52l-.8-.34 3.62-4.07-2.15-1.72-3.46 3.89-.4-.86a6.24 6.24 0 0 1 -.59-2.64 6.78 6.78 0 0 1 0-.77l-12.46-9.79a6.26 6.26 0 1 1 -2.56-12 6.19 6.19 0 0 1 2.48.52l.8.34-3.62 4.07 2.19 1.71 3.46-3.89.4.86a6.24 6.24 0 0 1 .59 2.64 6.78 6.78 0 0 1 0 .77l12.51 9.79a6.26 6.26 0 1 1 2.56 12zm-1.14-1.38a5.38 5.38 0 0 0 1.14.13 5 5 0 0 0 0-10 4.94 4.94 0 0 0 -2.35.59l-.35.19-13.73-10.71.07-.38a4.94 4.94 0 0 0 .09-.92 5.06 5.06 0 0 0 -.16-1.22l-2.9 3.28-4.1-3.28 3.29-3.71a5.38 5.38 0 0 0 -1.14-.12 5 5 0 0 0 0 10 4.94 4.94 0 0 0 2.35-.59l.36-.19 13.72 10.74-.07.38a4.94 4.94 0 0 0 -.09.92 5.06 5.06 0 0 0 .14 1.17l2.92-3.28 4.11 3.28z"></path><path d="m92.14 84.34h4.42v1.25h-4.42z" transform="matrix(.70710678 -.70710678 .70710678 .70710678 -32.45 91.6)"></path><path d="m99.02 89.98h4.42v1.25h-4.42z" transform="matrix(.70710678 -.70710678 .70710678 .70710678 -34.41 98.12)"></path><path d="m173.18 19.84h-31.26v-5.79h31.26zm-30.11-1.16h29v-3.47h-29z"></path><path d="m144.23 16.37h1.16v1.16h-1.16z"></path><path d="m146.55 16.37h1.16v1.16h-1.16z"></path><path d="m148.86 16.37h1.16v1.16h-1.16z"></path><path d="m159.29 44.16h-17.37v-23.16h1.15v22h16.22z"></path><path d="m172.03 21h1.16v9.84h-1.16z"></path><path d="m169.58 50h-3.22l-.5-2a8 8 0 0 1 -1.92-.8l-1.79 1.08-2-2 .82-.82 1.32 1.32 1.62-1 .3.19a7.25 7.25 0 0 0 2.21.92l.35.07.46 1.83h1.41l.46-1.83.34-.07a7 7 0 0 0 2.21-.92l.31-.19 1.61 1 1-1-1-1.62.19-.3a6.69 6.69 0 0 0 .92-2.21l.08-.35 1.83-.46v-1.44l-1.76-.4-.08-.35a6.61 6.61 0 0 0 -.92-2.21l1-.62a8 8 0 0 1 1 2.22l2 .51v3.22l-2 .5a7.85 7.85 0 0 1 -.79 1.92l1.07 1.79-2.28 2.28-1.83-1.13a8 8 0 0 1 -1.92.8z"></path><path d="m161.13 44.45a7.93 7.93 0 0 1 -1-2.23l-2-.5v-3.22l2-.51a7.81 7.81 0 0 1 .8-1.91l-1.08-1.79 2.3-2.29 1.79 1.07a8 8 0 0 1 1.92-.79l.5-2h3.22l.51 2a8 8 0 0 1 1.92.79l1.78-1.07 2 2-.82.82-1.32-1.32-1.61 1-.31-.19a6.61 6.61 0 0 0 -2.21-.92l-.34-.08-.46-1.83h-1.41l-.46 1.83-.35.08a6.78 6.78 0 0 0 -2.21.92l-.3.19-1.62-1-1 1 1 1.62-.19.3a7 7 0 0 0 -.92 2.21l-.07.35-1.83.45v1.41l1.83.46.07.35a7.15 7.15 0 0 0 .92 2.21z"></path><path d="m168 45.9a5.79 5.79 0 1 1 5.79-5.79 5.8 5.8 0 0 1 -5.79 5.79zm0-10.42a4.63 4.63 0 1 0 4.63 4.63 4.63 4.63 0 0 0 -4.63-4.63z"></path><path d="m168 43.58a3.48 3.48 0 1 1 3.48-3.47 3.48 3.48 0 0 1 -3.48 3.47zm0-5.79a2.32 2.32 0 1 0 2.32 2.32 2.31 2.31 0 0 0 -2.32-2.32z"></path><path d="m156.97 40.69h-11.58v-18.53h24.32v6.95h-1.16v-5.79h-22v16.21h10.42z"></path><path d="m147.71 24.47h1.16v4.63h-1.16z"></path><path d="m153.5 29.11h-3.5v-4.64h3.48zm-2.32-1.11h1.16v-2.37h-1.16z"></path><path d="m160.44 29.11h-3.44v-4.64h3.47zm-2.31-1.11h1.16v-2.37h-1.16z"></path><path d="m165.08 29.11h-3.48v-4.64h3.48zm-2.32-1.11h1.16v-2.37h-1.16z"></path><path d="m154.65 24.47h1.16v4.63h-1.16z"></path><path d="m166.24 24.47h1.16v4.63h-1.16z"></path><path d="m272.12 332.21h-23a2.22 2.22 0 0 1 -2.21-2.22v-2.21h8v.89h-7.08v1.33a1.33 1.33 0 0 0 1.33 1.33h23a1.33 1.33 0 0 0 1.33-1.33v-1.32h-7.08v-.89h8v2.21a2.22 2.22 0 0 1 -2.29 2.21z"></path><path d="m264.16 330.44h-7.08a1.34 1.34 0 0 1 -1.33-1.33v-1.33h9.74v1.33a1.34 1.34 0 0 1 -1.33 1.33zm-7.52-1.77v.44a.44.44 0 0 0 .44.44h7.08a.44.44 0 0 0 .44-.44v-.44z"></path><path d="m249.56 329.55h.88v.88h-.88z"></path><path d="m251.33 329.55h.88v.88h-.88z"></path><path d="m253.1 329.55h.88v.88h-.88z"></path><path d="m273.45 326.9h-.88v-15.49a1.33 1.33 0 0 0 -1.33-1.32h-21.24a1.32 1.32 0 0 0 -1.32 1.32v15.49h-.89v-15.49a2.21 2.21 0 0 1 2.21-2.21h21.24a2.21 2.21 0 0 1 2.21 2.21z"></path><path d="m271.68 326.9h-.88v-15h-20.35v15h-.89v-15a.89.89 0 0 1 .89-.89h20.35a.89.89 0 0 1 .88.89z"></path><path d="m269.91 318.05a5.31 5.31 0 0 1 -5.31-5.31h.89a4.42 4.42 0 0 0 4.42 4.42z"></path><path d="m269.91 324.69h-1.67l-.75-3a9 9 0 0 1 -2.21-.91l-2.63 1.58-2.37-2.36 1.58-2.63a9.45 9.45 0 0 1 -.91-2.21l-3-.75v-1.67h.88v1l2.83.71.06.26a8.28 8.28 0 0 0 .9 2.25l.12.19.14.23-1.5 2.51 1.38 1.39 2.51-1.51.23.15a8.68 8.68 0 0 0 2.44 1l.26.06.71 2.83h1z"></path><path d="m263.21 318.55h.88v.89h-.88z" transform="matrix(.70710678 -.70710678 .70710678 .70710678 -148.34 279.86)"></path><path d="m258.72 326.32-.62-.62 1.9-1.9-1.9-1.9.62-.62 2.53 2.52z"></path><path d="m254.11 326.32-2.52-2.52 2.52-2.52.63.62-1.9 1.9 1.9 1.9z"></path><path d="m254.11 323.36h4.62v.88h-4.62z" transform="matrix(.28702616 -.95792274 .95792274 .28702616 -127.36 476.47)"></path><path d="m300.8 245.08h-11.59a2.64 2.64 0 0 1 -2.63-2.64v-2.63h16.86v2.63a2.64 2.64 0 0 1 -2.64 2.64zm-13.17-4.22v1.58a1.58 1.58 0 0 0 1.58 1.58h11.59a1.58 1.58 0 0 0 1.58-1.58v-1.58z"></path><path d="m303.44 238.76h-1.06v-19.49a1.58 1.58 0 0 0 -1.58-1.58h-11.59a1.58 1.58 0 0 0 -1.58 1.58v19.49h-1.05v-19.49a2.64 2.64 0 0 1 2.63-2.64h11.59a2.65 2.65 0 0 1 2.64 2.64z"></path><path d="m292.9 241.92h4.21v1.05h-4.21z"></path><path d="m287.11 219.79h15.8v1.05h-15.8z"></path><path d="m296.47 236.65h-2.93l-.34-1.37-.41-.17-1.22.72-1.78-1.78.75-.74 1.2 1.2 1-.61.27.14a4 4 0 0 0 .77.32l.29.09.29 1.15h1.28l.29-1.15.28-.09a3.87 3.87 0 0 0 .79-.36l.26-.14 1 .61.91-.91-.61-1 .14-.27a3.87 3.87 0 0 0 .32-.78l.09-.28 1.15-.29v-1.28l-1.15-.29-.09-.29a4 4 0 0 0 -.32-.77l.93-.5a3.79 3.79 0 0 1 .3.68l1.38.34v2.93l-1.38.35a3.56 3.56 0 0 1 -.17.41l.73 1.21-2.07 2.07-1.21-.72-.41.17z"></path><path d="m290.37 232.82a5.93 5.93 0 0 1 -.31-.68l-1.37-.35v-2.93l1.37-.34c.05-.14.11-.28.17-.41l-.73-1.22 2.07-2.07 1.22.73.41-.17.34-1.37h2.93l.35 1.37.41.17 1.21-.73 1.78 1.78-.74.75-1.2-1.2-1 .61-.26-.14a3.55 3.55 0 0 0 -.78-.32l-.28-.09-.29-1.15h-1.28l-.29 1.15-.29.09a3.77 3.77 0 0 0 -.78.32l-.26.14-1-.61-.91.91.61 1-.14.27a4.06 4.06 0 0 0 -.33.77l-.08.29-1.15.29v1.32l1.15.29.08.28a3.89 3.89 0 0 0 .33.78z"></path><path d="m295 232.44a2.11 2.11 0 1 1 2.1-2.11 2.12 2.12 0 0 1 -2.1 2.11zm0-3.16a1 1 0 1 0 1.05 1.05 1.06 1.06 0 0 0 -1.05-1.05z"></path><path d="m298.69 249.29h-27.91v-23.17h14.75v1.05h-13.7v21.07h25.81v-2.11h1.05z"></path><path d="m271.3 230.33h14.22v1.05h-14.22z"></path><path d="m272.88 228.22h1.05v1.05h-1.05z"></path><path d="m274.99 228.22h1.05v1.05h-1.05z"></path><path d="m277.1 228.22h1.05v1.05h-1.05z"></path><path d="m272.88 241.92h1.05v1.05h-1.05z"></path><path d="m274.99 241.92h10.53v1.05h-10.53z"></path><path d="m272.88 246.13h21.6v1.05h-21.6z"></path><path d="m295.53 246.13h1.05v1.05h-1.05z"></path><path d="m272.88 244.02h12.64v1.05h-12.64z"></path><path d="m285.53 240.86h-12.65v-8.42h12.65v1.05h-11.59v6.32h11.59z"></path></g></svg>