<svg xmlns="http://www.w3.org/2000/svg" viewBox="0 0 69.87 69.86"><g fill="#1b3a69"><path d="m8.68 56.41h4.77v4.76h-4.77z"></path><path d="m68.21 39.76a4.19 4.19 0 0 0 .26-.33 7.42 7.42 0 0 0 1.36-5.26 2 2 0 0 0 -.11-.57 2.64 2.64 0 0 0 -.06-.55 22.36 22.36 0 0 0 -.88-2.42 7.26 7.26 0 0 0 -6.78-4.63h-11.64a81.81 81.81 0 0 1 .82-9.47 22 22 0 0 0 .82-6.28 13.68 13.68 0 0 0 -.94-4.77 10.46 10.46 0 0 0 -2-3.13 6.94 6.94 0 0 0 -3.54-2.2 6.53 6.53 0 0 0 -1.37-.15 6.26 6.26 0 0 0 -1.22.1 5.38 5.38 0 0 0 -2.46 1.14 4.6 4.6 0 0 0 -1.47 2.3 6.45 6.45 0 0 0 -.27 1.71 9.62 9.62 0 0 0 .17 2 5.8 5.8 0 0 1 .1 1.09 63.08 63.08 0 0 1 -2.73 9.17c-.42.95-.87 1.9-1.33 2.82a37.55 37.55 0 0 1 -7.89 10.85 14.22 14.22 0 0 1 -5.05 2.82 4.7 4.7 0 0 0 -4.56-3.61h-12.75a4.7 4.7 0 0 0 -4.69 4.69v30.07a4.7 4.7 0 0 0 4.69 4.71h12.75a4.7 4.7 0 0 0 4.69-4.71v-26.34a17.42 17.42 0 0 0 8.13-4.11c.85-.78 1.69-1.64 2.5-2.54a41.91 41.91 0 0 0 4.49-6.16c.7-1.16 1.36-2.35 2-3.56s1-2.08 1.44-3 2.82-7.85 3.1-10.6a8 8 0 0 0 -.14-2.34 8.64 8.64 0 0 1 -.12-1 5 5 0 0 1 .07-.58 1 1 0 0 1 .23-.08 1.77 1.77 0 0 1 .65 0 1.86 1.86 0 0 1 .58.26 2.61 2.61 0 0 1 .57.49 5.39 5.39 0 0 1 .6.8 7.2 7.2 0 0 1 .47.92 9 9 0 0 1 .59 3.1 17.76 17.76 0 0 1 -.71 5 1.7 1.7 0 0 0 -.06.28 82.76 82.76 0 0 0 -.9 10.62 4.58 4.58 0 0 0 4.23 4.5h12.15a2.4 2.4 0 0 1 .75.12 2.46 2.46 0 0 1 1.59 1.48l.66 1.59a5.08 5.08 0 0 0 .11.58 2.8 2.8 0 0 1 -.42 2 3.65 3.65 0 0 1 -.26.32 6.9 6.9 0 0 0 -1 1.47 3.16 3.16 0 0 0 .57 3.63 3.72 3.72 0 0 1 .51 1c.07.26 0 1-2 2.6a4.6 4.6 0 0 0 -1.69 2.27 4.26 4.26 0 0 0 .53 3.39v.09a1 1 0 0 1 .1.22 1.1 1.1 0 0 1 0 .41 1.33 1.33 0 0 1 -.42 1l-.23.09a4.51 4.51 0 0 0 -1.54.92 3.75 3.75 0 0 0 -.84 4 7.4 7.4 0 0 0 .41 1c.07.13.16.32.16.28a.73.73 0 0 1 -.15.6 3.53 3.53 0 0 1 -2.68 1h-21.33a2.39 2.39 0 1 0 0 4.77h21.35a8.08 8.08 0 0 0 6.47-2.9 5.47 5.47 0 0 0 1.1-4 4.87 4.87 0 0 0 -.46-1.55 6.11 6.11 0 0 0 2.76-6.76 6.56 6.56 0 0 0 -.47-1.18 10.68 10.68 0 0 0 3.11-3.61 5.43 5.43 0 0 0 .37-3.85 7.25 7.25 0 0 0 -.85-2.03zm-50.85-4.62v30h-12.59v-30z"></path></g></svg>