<svg xmlns="http://www.w3.org/2000/svg" viewBox="0 0 37.56 37.56"><g fill="#689bce"><path d="m18.78 29.93c-2.59 0-4.69-2.4-4.69-5.36v-2.83a4.7 4.7 0 1 1 9.39 0v2.83c0 2.96-2.11 5.36-4.7 5.36zm0-11.74a3.54 3.54 0 0 0 -3.52 3.55v2.83c0 2.31 1.58 4.19 3.52 4.19s3.52-1.88 3.52-4.19v-2.83a3.54 3.54 0 0 0 -3.52-3.55z"></path><path d="m15.85 30.12a.59.59 0 0 1 -.59-.59v-1.36a.59.59 0 1 1 1.17 0v1.36a.59.59 0 0 1 -.58.59z"></path><path d="m15.26 35.21a.64.64 0 0 1 -.2 0 .58.58 0 0 1 -.36-.39l-1.18-3.94a.59.59 0 0 1 .21-.63l1.76-1.34a.58.58 0 0 1 .94.46c0 .73 1.56 1.87 2.62 2.42a.59.59 0 0 1 .06 1l-3.53 2.34a.53.53 0 0 1 -.32.08zm-.5-4.3.83 2.79 2.08-1.39a6.41 6.41 0 0 1 -2.13-2z"></path><path d="m7.63 37.56a.59.59 0 0 1 -.63-.56c0-2.9 1.08-4.11 2.81-5.13h.07l3.94-1.66a.59.59 0 1 1 .45 1.09l-3.9 1.64c-1.37.79-2.15 1.67-2.15 4.06a.59.59 0 0 1 -.59.56z"></path><path d="m21.71 30.12a.59.59 0 0 1 -.58-.59v-1.36a.59.59 0 1 1 1.17 0v1.36a.59.59 0 0 1 -.59.59z"></path><path d="m22.3 35.21a.53.53 0 0 1 -.32-.1l-3.53-2.34a.59.59 0 0 1 .06-1c1.06-.55 2.62-1.69 2.62-2.42a.58.58 0 0 1 .94-.46l1.76 1.34a.58.58 0 0 1 .21.63l-1.18 3.94a.58.58 0 0 1 -.36.39.64.64 0 0 1 -.2.02zm-2.41-2.9 2.11 1.39.83-2.79-.83-.59a6.41 6.41 0 0 1 -2.11 1.99z"></path><path d="m29.93 37.56a.59.59 0 0 1 -.59-.59c0-2.35-.73-3.24-2.19-4.1l-3.9-1.64a.59.59 0 1 1 .45-1.09l3.94 1.66h.07c1.73 1 2.81 2.23 2.81 5.13a.58.58 0 0 1 -.59.63z"></path><path d="m23.48 17a.54.54 0 0 1 -.37-.13l-4.33-3.47-4.33 3.49a.58.58 0 0 1 -.93-.61l1.65-6.05-4.93-3.29a.58.58 0 0 1 -.24-.65.6.6 0 0 1 .56-.42h6l1.66-5.45a.58.58 0 0 1 1.12 0l1.66 5.45h6a.6.6 0 0 1 .56.42.58.58 0 0 1 -.24.65l-4.93 3.29 1.61 6.05a.58.58 0 0 1 -.24.64.55.55 0 0 1 -.28.08zm-4.7-5a.58.58 0 0 1 .37.13l3.28 2.65-1.28-4.71a.58.58 0 0 1 .24-.64l3.67-2.43h-4.52a.58.58 0 0 1 -.54-.38l-1.2-4-1.2 4a.58.58 0 0 1 -.6.38h-4.5l3.67 2.45a.58.58 0 0 1 .24.64l-1.28 4.71 3.28-2.65a.58.58 0 0 1 .37-.09z"></path><path d="m32.4 21.13a.58.58 0 0 1 -.51-.3l-2.08-3.63-3.87.8a.59.59 0 0 1 -.53-1l2.83-2.84-1.79-3.33a.59.59 0 0 1 .1-.69.58.58 0 0 1 .69-.1l3.34 1.79 2.83-2.83a.59.59 0 0 1 .7-.11.58.58 0 0 1 .29.64l-.77 3.87 3.63 2.08a.58.58 0 0 1 .29.63.58.58 0 0 1 -.51.46l-3.67.39-.37 3.64a.58.58 0 0 1 -.46.52zm-2.29-5.13a.58.58 0 0 1 .51.3l1.38 2.37.25-2.32a.59.59 0 0 1 .52-.53l2.33-.24-2.43-1.39a.59.59 0 0 1 -.28-.63l.47-2.38-1.76 1.82a.58.58 0 0 1 -.69.1l-2-1.07 1.07 2a.56.56 0 0 1 -.1.69l-1.77 1.78 2.39-.5z"></path><path d="m5.16 21.13h-.16a.6.6 0 0 1 -.46-.52l-.39-3.66-3.63-.4a.58.58 0 0 1 -.52-.46.58.58 0 0 1 .29-.63l3.63-2.08-.76-3.87a.58.58 0 0 1 1-.53l2.84 2.83 3.32-1.81a.58.58 0 0 1 .69.1.59.59 0 0 1 .1.69l-1.79 3.35 2.83 2.86a.59.59 0 0 1 -.53 1l-3.87-.8-2.08 3.63a.57.57 0 0 1 -.51.3zm-2.71-5.55 2.33.24a.59.59 0 0 1 .52.53l.25 2.32 1.39-2.42a.59.59 0 0 1 .62-.25l2.39.48-1.77-1.82a.56.56 0 0 1 -.1-.69l1.07-2-2 1.07a.58.58 0 0 1 -.69-.1l-1.77-1.76.47 2.38a.59.59 0 0 1 -.28.63z"></path></g></svg>