<svg xmlns="http://www.w3.org/2000/svg" viewBox="0 0 42.16 41.64"><g fill="#1b3a69"><path d="m11.21 28.31-3.39 5.09h3.18v8.24h20.18v-8.24h3.16l-3.34-5.09h-6.91l-.26-.39-.26.39zm-1.58 4.12 2.1-3.15h11.2l-2.11 3.15zm13.71 8.24h-11.34v-7.27h9.39l2-3zm7.1-11.39 2.1 3.15h-5.71l-2.1-3.15zm-6.13 1.11 2 3h3.89v7.27h-5.9z"></path><path d="m29.1 14.79-2-1.36v-4.24a8.74 8.74 0 0 0 -3-6.57l-3.02-2.62-3 2.62a8.73 8.73 0 0 0 -3 6.57v4.24l-2 1.36a4.66 4.66 0 0 0 -2.08 3.88 4.78 4.78 0 0 0 .13 1.13l.66 2.61h4.29v-2.75h1.78v4.12h1v-4.12h1.74v6.87h1v-6.87h1.78v4.12h1v-4.12h1.78v2.75h4.3l.54-2.61a4.79 4.79 0 0 0 .14-1.13 4.67 4.67 0 0 0 -2.04-3.88zm-14 6.65h-2.57l-.47-1.88a3.8 3.8 0 0 1 -.11-.89 3.67 3.67 0 0 1 1.65-3.07l1.51-1zm11-2.74h-10v-9.51a7.76 7.76 0 0 1 2.65-5.84l2.36-2.06 2.36 2.06a7.73 7.73 0 0 1 2.65 5.84zm4 .86-.47 1.88h-2.57v-6.85l1.51 1a3.66 3.66 0 0 1 1.64 3.07 3.8 3.8 0 0 1 -.11.9z"></path><path d="m21.08 5.65a3.23 3.23 0 1 0 3.23 3.23 3.23 3.23 0 0 0 -3.23-3.23zm0 5.5a2.27 2.27 0 1 1 2.26-2.27 2.27 2.27 0 0 1 -2.26 2.27z"></path><path d="m23.34 25.56h.97v.97h-.97z"></path><path d="m17.85 25.56h.97v.97h-.97z"></path><path d="m38.73 23v-1.76a3.23 3.23 0 1 0 -6.46 0v1.86h1v-1.86a2.26 2.26 0 1 1 4.52 0v1.76a2.61 2.61 0 0 1 -2.6 2.6h-1.55v1h1.52a3.57 3.57 0 0 0 3.57-3.6z"></path><path d="m30.9 25.56h.97v.97h-.97z"></path><path d="m27.06 24.67v-.48h-1v.48a1.86 1.86 0 0 0 1.94 1.86h1.17v-1h-1.17a.89.89 0 0 1 -.94-.86z"></path><path d="m35.02 22.13h.97v.97h-.97z"></path><path d="m38.93 26.94a3.23 3.23 0 0 0 -3.23 3.23v1.83h1v-1.83a2.27 2.27 0 1 1 4.53 0v1.71a2.61 2.61 0 0 1 -2.61 2.61h-2.92v1h2.89a3.58 3.58 0 0 0 3.57-3.58v-1.74a3.23 3.23 0 0 0 -3.23-3.23z"></path><path d="m38.45 31.06h.97v.97h-.97z"></path><path d="m6.66 18a3.23 3.23 0 0 0 -3.23 3.23v1.77a3.58 3.58 0 0 0 3.57 3.53h7.21a1.85 1.85 0 0 0 1.85-1.86v-.48h-1v.48a.89.89 0 0 1 -.89.89h-7.17a2.61 2.61 0 0 1 -2.6-2.56v-1.76a2.27 2.27 0 0 1 4.53 0v1.86h1v-1.86a3.23 3.23 0 0 0 -3.27-3.24z"></path><path d="m6.18 22.13h.97v.97h-.97z"></path><path d="m3.23 26.94a3.23 3.23 0 0 0 -3.23 3.23v1.71a3.58 3.58 0 0 0 3.57 3.58h.14v-1h-.14a2.61 2.61 0 0 1 -2.57-2.58v-1.71a2.26 2.26 0 1 1 4.52 0v1.83h1v-1.83a3.23 3.23 0 0 0 -3.29-3.23z"></path><path d="m5.49 34.49h.97v.97h-.97z"></path><path d="m2.75 31.06h.97v.97h-.97z"></path></g></svg>