<svg xmlns="http://www.w3.org/2000/svg" viewBox="0 0 36.18 36.18"><circle cx="18.09" cy="18.09" fill="#5b9bd3" r="18.09"></circle><g fill="#fff"><path d="m18.05 25.1a3.63 3.63 0 0 1 -3.36-3.84v-2a3.37 3.37 0 1 1 6.73 0v2a3.64 3.64 0 0 1 -3.37 3.84zm0-8.41a2.53 2.53 0 0 0 -2.52 2.54v2a2.8 2.8 0 0 0 2.52 3 2.8 2.8 0 0 0 2.53-3v-2a2.54 2.54 0 0 0 -2.53-2.54z"></path><path d="m16 25.23a.42.42 0 0 1 -.42-.42v-1a.42.42 0 0 1 .42-.42.42.42 0 0 1 .42.42v1a.42.42 0 0 1 -.42.42z"></path><path d="m15.53 28.88h-.14a.44.44 0 0 1 -.26-.27l-.84-2.82a.43.43 0 0 1 .15-.46l1.26-1a.41.41 0 0 1 .44 0 .43.43 0 0 1 .23.38c0 .51 1.12 1.33 1.88 1.72a.4.4 0 0 1 .22.35.44.44 0 0 1 -.18.38l-2.52 1.68a.48.48 0 0 1 -.24.04zm-.35-3.09.59 2 1.49-1a4.73 4.73 0 0 1 -1.53-1.43z"></path><path d="m10.07 30.56a.42.42 0 0 1 -.42-.42 3.67 3.67 0 0 1 2-3.68h.05l2.82-1.18a.42.42 0 0 1 .33.77l-2.8 1.18a2.85 2.85 0 0 0 -1.57 2.94.42.42 0 0 1 -.41.39z"></path><path d="m20.16 25.23a.42.42 0 0 1 -.42-.42v-1a.42.42 0 0 1 .42-.42.42.42 0 0 1 .42.42v1a.42.42 0 0 1 -.42.42z"></path><path d="m20.58 28.88a.48.48 0 0 1 -.24-.07l-2.52-1.68a.44.44 0 0 1 -.18-.38.4.4 0 0 1 .22-.35c.76-.39 1.88-1.21 1.88-1.72a.43.43 0 0 1 .26-.38.41.41 0 0 1 .44 0l1.26 1a.43.43 0 0 1 .15.46l-.85 2.82a.44.44 0 0 1 -.26.27zm-1.73-2.08 1.49 1 .59-2-.55-.42a4.73 4.73 0 0 1 -1.53 1.42z"></path><path d="m26 30.56a.42.42 0 0 1 -.42-.42 2.85 2.85 0 0 0 -1.57-2.94l-2.76-1.2a.42.42 0 1 1 .33-.77l2.82 1.18h.05a3.67 3.67 0 0 1 2 3.68.42.42 0 0 1 -.45.47z"></path><path d="m21.42 15.85a.44.44 0 0 1 -.27-.09l-3.1-2.5-3.05 2.5a.44.44 0 0 1 -.5 0 .41.41 0 0 1 -.17-.46l1.14-4.3-3.53-2.36a.43.43 0 0 1 -.17-.47.42.42 0 0 1 .4-.3h4.31l1.17-3.87a.42.42 0 0 1 .81 0l1.17 3.9h4.31a.42.42 0 0 1 .4.3.43.43 0 0 1 -.17.47l-3.53 2.33 1.18 4.33a.41.41 0 0 1 -.17.46.39.39 0 0 1 -.23.06zm-3.37-3.55a.44.44 0 0 1 .27.09l2.35 1.9-.92-3.37a.42.42 0 0 1 .17-.46l2.63-1.75h-3.24a.42.42 0 0 1 -.4-.3l-.86-2.86-.85 2.86a.43.43 0 0 1 -.4.3h-3.24l2.63 1.75a.42.42 0 0 1 .17.46l-.92 3.37 2.35-1.9a.43.43 0 0 1 .26-.09z"></path><path d="m27.8 18.79a.43.43 0 0 1 -.36-.21l-1.44-2.58-2.77.55a.41.41 0 0 1 -.45-.21.43.43 0 0 1 .07-.5l2-2-1.28-2.38a.42.42 0 0 1 .07-.5.41.41 0 0 1 .49-.07l2.39 1.28 2-2a.42.42 0 0 1 .48-.17.42.42 0 0 1 .21.45l-.55 2.78 2.6 1.48a.42.42 0 0 1 .2.45.42.42 0 0 1 -.37.34l-2.62.28-.28 2.62a.4.4 0 0 1 -.33.36zm-1.63-3.7a.41.41 0 0 1 .36.21l1 1.74.18-1.67a.42.42 0 0 1 .38-.37l1.66-.18-1.73-1a.42.42 0 0 1 -.21-.44l.34-1.71-1.27 1.27a.41.41 0 0 1 -.49.07l-1.39-.77.77 1.43a.43.43 0 0 1 -.07.5l-1.28 1.27 1.71-.34z"></path><path d="m8.3 18.79h-.08a.4.4 0 0 1 -.33-.36l-.28-2.63-2.61-.28a.42.42 0 0 1 -.36-.34.42.42 0 0 1 .2-.45l2.6-1.48-.55-2.78a.42.42 0 0 1 .19-.47.42.42 0 0 1 .5.07l2 2 2.42-1.23a.42.42 0 0 1 .57.57l-1.28 2.38 2 2a.43.43 0 0 1 .07.5.41.41 0 0 1 -.45.21l-2.75-.5-1.49 2.6a.44.44 0 0 1 -.37.19zm-1.93-4 1.63.21a.42.42 0 0 1 .38.37l.2 1.63 1-1.74a.41.41 0 0 1 .45-.2l1.7.34-1.27-1.27a.43.43 0 0 1 -.07-.5l.77-1.43-1.43.8a.41.41 0 0 1 -.49-.07l-1.24-1.26.35 1.71a.42.42 0 0 1 -.21.44z"></path></g></svg>