<svg xmlns="http://www.w3.org/2000/svg" xmlns:xlink="http://www.w3.org/1999/xlink" id="Layer_1" x="0px" y="0px" viewBox="0 0 47 62" style="enable-background:new 0 0 47 62;" xml:space="preserve"> <style type="text/css"> .st0{fill:#5B9BD3;} </style> <g> <path class="st0" d="M27.5,45.9h-8v-2.6c-0.7-0.2-1.3-0.5-1.9-0.8l-1.9,1.9l-5.6-5.6l1.9-1.9c-0.3-0.6-0.6-1.2-0.8-1.9H8.6v-8h2.6 c0.2-0.7,0.5-1.3,0.8-1.9l-1.9-1.9l5.6-5.6l1.9,1.9c0.6-0.3,1.2-0.6,1.9-0.8V16h8v2.6c0.7,0.2,1.3,0.5,1.9,0.8l1.9-1.9l5.6,5.6 L35,25c0.3,0.6,0.6,1.2,0.8,1.9h2.6v8h-2.6c-0.2,0.7-0.5,1.3-0.8,1.9l1.9,1.9l-5.6,5.6l-1.9-1.9c-0.6,0.3-1.2,0.6-1.9,0.8V45.9z M21.5,43.9h4v-2.2l0.7-0.2c1-0.3,1.9-0.6,2.8-1.2l0.7-0.4l1.5,1.5l2.8-2.8l-1.5-1.4l0.4-0.7c0.5-0.9,0.9-1.8,1.2-2.8l0.2-0.7h2.2 v-4h-2.2l-0.2-0.7c-0.3-1-0.6-1.9-1.2-2.8l-0.4-0.8l1.5-1.5l-2.8-2.8l-1.5,1.5L29,21.5c-0.9-0.5-1.8-0.9-2.8-1.2l-0.7-0.1V18h-4 v2.2l-0.7,0.2c-1,0.3-1.9,0.6-2.8,1.2L17.3,22l-1.5-1.5L13,23.3l1.5,1.5l-0.4,0.7c-0.5,0.9-0.9,1.8-1.2,2.8L12.7,29h-2.2v4h2.2 l0.2,0.7c0.3,1,0.6,1.9,1.2,2.8l0.4,0.7L13,38.7l2.8,2.8l1.5-1.5l0.7,0.4c0.9,0.5,1.8,0.9,2.8,1.2l0.7,0.2V43.9z"></path> <path class="st0" d="M23.5,38.9c-4.4,0-8-3.6-8-8s3.6-8,8-8s8,3.6,8,8S27.9,38.9,23.5,38.9z M23.5,25c-3.3,0-6,2.7-6,6s2.7,6,6,6 s6-2.7,6-6S26.8,25,23.5,25z"></path> <path class="st0" d="M27.5,30h3v2h-3V30z"></path> <path class="st0" d="M25.6,27.4l2.1-2.1l1.4,1.4L27,28.8L25.6,27.4z"></path> <path class="st0" d="M22.5,24h2v3h-2V24z"></path> <path class="st0" d="M17.9,26.8l1.4-1.4l2.1,2.1L20,28.9L17.9,26.8z"></path> <path class="st0" d="M16.5,30h3v2h-3V30z"></path> <path class="st0" d="M17.8,35.2l2.1-2.1l1.4,1.4l-2.1,2.1L17.8,35.2z"></path> <path class="st0" d="M22.5,34.9h2v3h-2V34.9z"></path> <path class="st0" d="M25.6,34.4L27,33l2.1,2.1l-1.4,1.4L25.6,34.4z"></path> <path class="st0" d="M40.7,23.3c-0.3-0.6-0.5-1.1-0.9-1.7l1.7-1c0.3,0.6,0.7,1.2,0.9,1.9L40.7,23.3z M6.3,23.3l-1.8-0.8 c0.3-0.6,0.6-1.3,0.9-1.9l1.7,1C6.8,22.1,6.5,22.7,6.3,23.3z M38.8,20c-0.4-0.5-0.8-1-1.2-1.5l1.5-1.3c0.5,0.5,0.9,1.1,1.3,1.6 L38.8,20z M8.2,20l-1.7-1.1c0.4-0.6,0.8-1.1,1.3-1.6l1.5,1.3C8.9,19,8.5,19.5,8.2,20z M36.4,17.2c-0.5-0.4-0.9-0.8-1.4-1.2l1.2-1.6 c0.5,0.4,1.1,0.9,1.6,1.3L36.4,17.2z M10.6,17.2l-1.4-1.5c0.5-0.5,1-0.9,1.6-1.3L12,16C11.6,16.3,11.1,16.8,10.6,17.2z M33.4,14.9 c-0.5-0.3-1.1-0.6-1.7-0.9l0.9-1.8c0.6,0.3,1.2,0.6,1.8,1L33.4,14.9z M13.6,14.9l-1-1.7c0.6-0.4,1.2-0.7,1.8-1l0.9,1.8 C14.7,14.3,14.2,14.6,13.6,14.9z M30,13.3c-0.6-0.2-1.2-0.4-1.8-0.6l0.5-1.9c0.7,0.2,1.3,0.4,2,0.6L30,13.3z M17,13.3l-0.7-1.9 c0.7-0.2,1.3-0.4,2-0.6l0.5,1.9C18.2,12.9,17.6,13,17,13.3z M26.3,12.3c-0.6-0.1-1.2-0.2-1.9-0.2l0.1-2c0.7,0,1.4,0.1,2.1,0.2 L26.3,12.3z M20.7,12.3l-0.3-2c0.7-0.1,1.4-0.2,2.1-0.2l0.1,2C21.9,12.2,21.3,12.2,20.7,12.3z"></path> <path class="st0" d="M24.5,51.8l-0.1-2c0.6,0,1.3-0.1,1.9-0.2l0.3,2C25.9,51.7,25.2,51.8,24.5,51.8z M22.4,51.8 c-0.7,0-1.4-0.1-2.1-0.2l0.3-2c0.6,0.1,1.2,0.2,1.9,0.2L22.4,51.8z M28.7,51.2l-0.5-1.9c0.6-0.2,1.2-0.3,1.8-0.6l0.7,1.9 C30,50.8,29.3,51.1,28.7,51.2z M18.3,51.2c-0.7-0.2-1.3-0.4-2-0.6l0.7-1.9c0.6,0.2,1.2,0.4,1.8,0.6L18.3,51.2z M32.6,49.8L31.7,48 c0.6-0.3,1.1-0.6,1.7-0.9l1,1.7C33.8,49.2,33.2,49.5,32.6,49.8z M14.4,49.8c-0.6-0.3-1.2-0.6-1.8-1l1-1.7c0.5,0.3,1.1,0.6,1.7,0.9 L14.4,49.8z M36.1,47.6L34.9,46c0.5-0.4,1-0.8,1.4-1.2l1.4,1.5C37.2,46.7,36.7,47.2,36.1,47.6z M10.9,47.6 c-0.5-0.4-1.1-0.9-1.6-1.3l1.4-1.5c0.5,0.4,0.9,0.8,1.4,1.2L10.9,47.6z M39.2,44.8l-1.5-1.3c0.4-0.5,0.8-1,1.2-1.5l1.6,1.2 C40.1,43.7,39.6,44.2,39.2,44.8z M7.8,44.8c-0.5-0.5-0.9-1.1-1.3-1.6L8.1,42c0.4,0.5,0.8,1,1.2,1.5L7.8,44.8z M41.6,41.4l-1.7-1 c0.3-0.5,0.6-1.1,0.9-1.7l1.8,0.8C42.2,40.2,41.9,40.8,41.6,41.4z M5.4,41.4c-0.3-0.6-0.7-1.2-0.9-1.9l1.8-0.8 c0.3,0.6,0.5,1.1,0.9,1.7L5.4,41.4z"></path> <path class="st0" d="M28.9,6l-5.4-3.6L18.1,6L17,4.3L23.5,0L30,4.3L28.9,6z"></path> <path class="st0" d="M22.5,1.2h2v7h-2V1.2z"></path> <path class="st0" d="M2,17.1l-2-0.3l1.6-7.7l7.7-1.6l0.3,2l-6.3,1.3L2,17.1z"></path> <path class="st0" d="M1.7,10.6l1.4-1.4l4.9,4.9l-1.4,1.4L1.7,10.6z"></path> <path class="st0" d="M9.3,54.5l-7.7-1.6L0,45.2l2-0.3l1.3,6.3l6.3,1.3L9.3,54.5z"></path> <path class="st0" d="M1.7,51.4l4.9-4.9l1.4,1.4l-4.9,4.9L1.7,51.4z"></path> <path class="st0" d="M23.5,62L17,57.7l1.1-1.7l5.4,3.6l5.4-3.6l1.1,1.7L23.5,62z"></path> <path class="st0" d="M22.5,53.9h2v7h-2V53.9z"></path> <path class="st0" d="M37.7,54.5l-0.3-2l6.3-1.3l1.3-6.3l2,0.3l-1.6,7.7L37.7,54.5z"></path> <path class="st0" d="M38.9,47.9l1.4-1.4l4.9,4.9l-1.4,1.4L38.9,47.9z"></path> <path class="st0" d="M45,17.1l-1.3-6.3l-6.3-1.3l0.3-2l7.7,1.6l1.6,7.7L45,17.1z"></path> <path class="st0" d="M38.9,14.2l4.9-4.9l1.4,1.4l-4.9,4.9L38.9,14.2z"></path> </g> </svg>