<svg xmlns="http://www.w3.org/2000/svg" viewBox="0 0 41.99 44.76"><g fill="#5b9bd3"><path d="m1.9 7.24h3.44v1.76a1 1 0 0 0 1 .95h18.66a1 1 0 0 0 1-.95v-1.76h3.44v6.13a5.93 5.93 0 0 1 1.9.37v-6.11a2.3 2.3 0 0 0 -2.34-2.29h-3v-1.72a1 1 0 0 0 -1-1h-5l-.12-.19a4.92 4.92 0 0 0 -8.54 0l-.12.19h-5a1 1 0 0 0 -1 1v1.72h-2.94a2.29 2.29 0 0 0 -2.28 2.29v32.05a2.29 2.29 0 0 0 2.28 2.32h7v-1.9h-7.38zm5.34-2.67h4.64a.94.94 0 0 0 .89-.63 3 3 0 0 1 5.74 0 .94.94 0 0 0 .89.63h4.6v3.43h-16.76z"></path><path d="m23.74 16.61a4.28 4.28 0 0 1 .32-.59h-5.75a1 1 0 0 0 0 1.9h5a4.78 4.78 0 0 1 .43-1.31z"></path><path d="m22.83 24h-4.52a1 1 0 0 0 0 1.9h4a14 14 0 0 0 .52-1.9z"></path><path d="m8.64 20.53a.84.84 0 0 0 .71 0l.2-.13.08-.05a.28.28 0 0 1 0-.07l.11-.1 4-5.28a1 1 0 0 0 .18-.7 1 1 0 0 0 -.37-.63 1 1 0 0 0 -1.33.19l-3.36 4.44-1.86-1.9a1 1 0 0 0 -1.34 0 1 1 0 0 0 0 1.35l2.67 2.67h.05l.2.14z"></path><path d="m8.64 28.54a.84.84 0 0 0 .71 0l.2-.14.08-.05s0 0 0-.07l.11-.09 4-5.29a1 1 0 0 0 .18-.7 1 1 0 0 0 -.37-.62.94.94 0 0 0 -1.33.19l-3.36 4.44-1.86-1.89a1 1 0 0 0 -1.34 0 1 1 0 0 0 0 1.34l2.67 2.67h.05l.2.14z"></path><path d="m8.64 36.55a.81.81 0 0 0 .63 0v-2.88l-.41.55-1.86-1.89a.95.95 0 1 0 -1.34 1.34l2.67 2.67h.05l.2.13z"></path><path d="m41.62 34a3.71 3.71 0 0 0 -.27-.61l-.13-.22.16-.2a3 3 0 0 0 .62-2.2c0-.44-.3-2.6-1.92-2.6h-6.69l-.56-7.11c0-.31 0-.53 0-.63a5.59 5.59 0 0 0 -.43-2.05 4.5 4.5 0 0 0 -.89-1.33s0 0-.07-.05a3.33 3.33 0 0 0 -.48-.38l-.11-.06a4.09 4.09 0 0 0 -.54-.23l-.31-.07a3 3 0 0 0 -.52-.08h-.36-.29a1.84 1.84 0 0 0 -.33 0 2.92 2.92 0 0 0 -2.28 1.54 4.26 4.26 0 0 0 -.22 2.22 6.89 6.89 0 0 1 0 .89v.33a24.58 24.58 0 0 1 -.67 4.3 14 14 0 0 1 -.86 2.42 9.34 9.34 0 0 1 -.81 1.43 6.2 6.2 0 0 1 -3.91 2.69l-.46.09v-.66a2 2 0 0 0 -1.93-1.95h-3.36a1.94 1.94 0 0 0 -1.93 1.95v11.37a1.94 1.94 0 0 0 1.93 2h3.38a2 2 0 0 0 1.93-2v-8.8h.33c4.79-.65 7.74-5.15 8.29-12.67v-.25a6.38 6.38 0 0 0 0-1.24 2.85 2.85 0 0 1 .07-1.29c.07-.16.24-.28.55-.38l.38-.09h.27.16a.71.71 0 0 1 .21 0h.14a1 1 0 0 1 .41.26 2.34 2.34 0 0 1 .5.76 3.53 3.53 0 0 1 .28 1.35c0 .51.26 3.64.67 8.59v.12a1 1 0 0 0 1 .87h6.77a.83.83 0 0 1 .74.64 1.28 1.28 0 0 1 -.21 1.17l-.07.08a2.7 2.7 0 0 0 -.46.62 1.39 1.39 0 0 0 .29 1.58l.26.34v.18a.94.94 0 0 1 -.23.38 4.4 4.4 0 0 1 -.75.66 1.92 1.92 0 0 0 -.75.94 1.72 1.72 0 0 0 .28 1.49v.1a.57.57 0 0 1 0 .38.73.73 0 0 1 -.28.3l-.36.15a1.36 1.36 0 0 0 -.34.23 1.5 1.5 0 0 0 -.46 1.73 3.3 3.3 0 0 0 .19.43l.08.21v.27a2.69 2.69 0 0 1 0 .32v.17l-.15.09a3.88 3.88 0 0 1 -1.63.37h-10.49a1 1 0 0 0 0 1.9h10.39a4.7 4.7 0 0 0 3.26-1.2 3.64 3.64 0 0 0 .5-2.24 2.74 2.74 0 0 0 -.09-.39l-.06-.29.26-.17a2.21 2.21 0 0 0 .55-.51 2.55 2.55 0 0 0 .46-2.22c0-.1-.06-.18-.09-.26l-.18-.27.24-.19c1.23-1.02 1.68-1.97 1.38-3.02zm-24.23 8.86h-3.39v-11.46h3.44z"></path></g></svg>