<svg xmlns="http://www.w3.org/2000/svg" viewBox="0 0 78.56 78.92"><path d="m78.56 27.38-7.56-10.61 7.56-10.61h-35.56a4.28 4.28 0 0 0 .37-1.71 4.45 4.45 0 1 0 -6.43 4v29l-6.92-6.92-2.68 2.67v-3.85h-13.78v3.78l-2.68-2.67-9.77 9.77 2.67 2.68h-3.78v13.82h3.78l-2.67 2.68 9.77 9.77 2.68-2.67v3.78h8.29l7.52 7.52 2.68-2.67v3.78h13.82v-3.78l2.68 2.67 7.52-7.52h8.29v-3.78l2.64 2.67 9.78-9.77-2.67-2.68h3.78v-13.82h-3.75l2.67-2.68-9.81-9.77-2.67 2.67v-3.78h-13.8v3.78l-2.67-2.67-6.92 6.92v-10zm-39.56-23.38a.49.49 0 0 1 0 1 .49.49 0 0 1 0-1zm15.5 32v-2.69h5.89v2.69l1.38.44a15.33 15.33 0 0 1 2.06.86l1.28.66 1.89-1.9 4.17 4.17-1.92 1.92.66 1.29a13.44 13.44 0 0 1 .86 2.06l.44 1.37h2.79v5.9h-2.76l-.44 1.37a14.32 14.32 0 0 1 -.86 2.06l-.66 1.29 1.92 1.92-4.2 4.16-1.92-1.92-1.28.66a12.36 12.36 0 0 1 -2.06.86l-1.38.45v2.7h-3.75l-1-1h3.78v-5.09a10.6 10.6 0 1 0 -8.5-18.76l-2.38-2.39-2.68 2.68v-3.71l2-2 1.95 1.95 1.29-.66a14.7 14.7 0 0 1 2-.86zm-12.59 36.24v2.76h-5.91v-2.76l-1.37-.44a13.86 13.86 0 0 1 -2.06-.86l-1.29-.66-1.91 1.92-4.17-4.2 1.92-1.92-.66-1.28a14.32 14.32 0 0 1 -.86-2.06l-.44-1.38h-2.71v-5.86h2.71l.44-1.38a14.22 14.22 0 0 1 .86-2l.66-1.29-1.92-1.97 4.17-4.17 1.92 1.92 1.29-.61a13.86 13.86 0 0 1 2.06-.86l1.36-.49v-2.71h1v6.06a10.61 10.61 0 1 0 4 0v-6.06h1v2.71l1.37.44a14.32 14.32 0 0 1 2.06.86l1.28.66 1.93-1.92 4.17 4.17-1.93 1.92.66 1.28a12.72 12.72 0 0 1 .86 2.06l.45 1.38h2.7v5.89h-2.7l-.45 1.38a12.36 12.36 0 0 1 -.86 2.06l-.66 1.28 1.84 1.89-4.17 4.2-1.93-1.92-1.28.66a14.32 14.32 0 0 1 -2.06.86zm-25.76-9.07a12.36 12.36 0 0 1 -2.06-.86l-1.28-.66-1.93 1.92-4.17-4.16 1.93-1.92-.64-1.29a12.88 12.88 0 0 1 -.86-2.06l-.45-1.37h-2.69v-5.9h2.7l.45-1.37a12.88 12.88 0 0 1 .85-2.06l.66-1.29-1.95-1.92 4.17-4.17 1.92 1.94 1.29-.66a14.81 14.81 0 0 1 2.06-.86l1.37-.48v-2.69h5.9v2.69l1.37.44a14.32 14.32 0 0 1 2.06.86l1.29.66 1.92-1.92 2 2v3.71l-2.68-2.68-2.38 2.4a10.6 10.6 0 1 0 -8.5 18.76v5.13h3.78l-1 1h-3.76v-2.7zm2.34-11.64v4.62a6.64 6.64 0 1 1 5.67-11.85l-4.56 4.56 2.67 2.67zm22.45 7.67v-7.09a6.65 6.65 0 1 1 -4 0v7.09zm14.71-7.67 2.67-2.67-4.56-4.56a6.58 6.58 0 0 1 3.69-1.13 6.64 6.64 0 0 1 2 13v-4.64zm10.45-34.76 4.75 6.65h-29.91v-13.29h29.91z" fill="#1b3a69"></path></svg>