<svg xmlns="http://www.w3.org/2000/svg" viewBox="0 0 60 60"><g fill="#5b9bd3"><path d="m49.35 36.77a10.65 10.65 0 1 1 10.65-10.64 10.65 10.65 0 0 1 -10.65 10.64zm0-19.35a8.71 8.71 0 1 0 8.71 8.71 8.71 8.71 0 0 0 -8.71-8.71z"></path><path d="m30 46.45a10.65 10.65 0 1 1 10.65-10.64 10.66 10.66 0 0 1 -10.65 10.64zm0-19.35a8.71 8.71 0 1 0 8.71 8.71 8.72 8.72 0 0 0 -8.71-8.71z"></path><path d="m10.65 56.13a10.65 10.65 0 1 1 10.64-10.65 10.67 10.67 0 0 1 -10.64 10.65zm0-19.36a8.71 8.71 0 1 0 8.7 8.71 8.72 8.72 0 0 0 -8.7-8.71z"></path><path d="m7.32 45.19h9.86v1.94h-9.86z" transform="matrix(.70710678 -.70710678 .70710678 .70710678 -29.05 22.18)"></path><path d="m7.34 45.33h1.94v5.05h-1.94z" transform="matrix(.70710678 -.70710678 .70710678 .70710678 -31.41 19.89)"></path><path d="m26.19 35.5h9.86v1.94h-9.86z" transform="matrix(.70710678 -.70710678 .70710678 .70710678 -16.67 32.69)"></path><path d="m26.21 35.65h1.94v5.05h-1.94z" transform="matrix(.70710678 -.70710678 .70710678 .70710678 -19.03 30.4)"></path><path d="m45.55 25.46h9.86v1.94h-9.86z" transform="matrix(.70710678 -.70710678 .70710678 .70710678 -3.9 43.43)"></path><path d="m45.56 25.6h1.94v5.05h-1.94z" transform="matrix(.70710678 -.70710678 .70710678 .70710678 -6.26 41.14)"></path><path d="m60 60h-60v-14.52h1.94v12.58h56.12v-31.93h1.94z"></path><path d="m19.35 35.81h1.94v23.23h-1.94z"></path><path d="m38.71 26.13h1.94v32.9h-1.94z"></path><path d="m-.4 13.06h54.99v1.94h-54.99z" transform="matrix(.87973157 -.47547067 .47547067 .87973157 -3.41 14.57)"></path><path d="m48.26 8.22-1.68-.96 3.04-5.32h-6.07v-1.94h9.41z"></path><path d="m19.35 13.55a3.87 3.87 0 1 1 3.88-3.87 3.88 3.88 0 0 1 -3.88 3.87zm0-5.81a1.94 1.94 0 1 0 1.94 1.94 1.94 1.94 0 0 0 -1.94-1.94z"></path><path d="m3.98 13.06h14.29v1.94h-14.29z" transform="matrix(.88080811 -.4734734 .4734734 .88080811 -5.32 6.94)"></path><path d="m.85 17.9h2.16v1.94h-2.16z" transform="matrix(.89438856 -.44729085 .44729085 .89438856 -8.24 2.86)"></path><path d="m32.9 22.26a3.87 3.87 0 1 1 3.87-3.87 3.88 3.88 0 0 1 -3.87 3.87zm0-5.81a1.94 1.94 0 1 0 1.94 1.94 1.94 1.94 0 0 0 -1.94-1.94z"></path><path d="m17.53 21.77h14.29v1.94h-14.29z" transform="matrix(.88080811 -.4734734 .4734734 .88080811 -7.83 14.4)"></path><path d="m14.4 26.61h2.16v1.94h-2.16z" transform="matrix(.89438856 -.44729085 .44729085 .89438856 -10.7 9.84)"></path></g></svg>