<svg xmlns="http://www.w3.org/2000/svg" viewBox="0 0 60 60"><g fill="#1b3a69"><path d="m32.32 24 1.55 1.16h-2.11a25.95 25.95 0 0 0 -25.95 26v.18h1.93v-.18a24 24 0 0 1 24-24h2.11l-1.55 1.16 1.16 1.55 4.91-3.68-4.91-3.68z"></path><path d="m9.68 31a3.87 3.87 0 1 0 -3.87-3.9 3.88 3.88 0 0 0 3.87 3.9zm0-5.81a1.94 1.94 0 1 1 -1.94 1.91 1.94 1.94 0 0 1 1.94-1.94z"></path><path d="m30 31.94a3.87 3.87 0 1 0 3.87 3.87 3.87 3.87 0 0 0 -3.87-3.87zm0 5.8a1.94 1.94 0 1 1 1.94-1.93 1.94 1.94 0 0 1 -1.94 1.93z"></path><path d="m20.61 43.83-2.71 2.7-2.7-2.7-1.37 1.37 2.71 2.7-2.71 2.71 1.37 1.37 2.7-2.71 2.71 2.71 1.36-1.37-2.7-2.71 2.7-2.7z"></path><path d="m60 34.84a10.65 10.65 0 0 0 -3.87-8.21v-5.34h1.93v-5.81h-1.69l-23.53-12.23a3.86 3.86 0 0 0 -7.62 0l-23.52 12.23h-1.7v5.81h1.94v32.9h-1.94v5.81h58.06v-5.81h-1.93v-5.8h1.93v-1.94h-1.93v-1.93h1.93v-1.94h-1.43a10.51 10.51 0 0 0 3.37-7.74zm-1.94 0a8.63 8.63 0 0 1 -3.48 6.95l-.39.29v.5h-3.87v-4a3.88 3.88 0 1 0 -1.93 0v4h-3.87v-.5l-.39-.29a8.7 8.7 0 1 1 13.93-6.95zm-8.71 1.93a1.94 1.94 0 1 1 1.94-1.93 1.93 1.93 0 0 1 -1.94 1.93zm6.78-17.42h-54.19v-1.93h54.19zm-27.13-17.41a1.94 1.94 0 1 1 -1.9 1.93 1.93 1.93 0 0 1 1.9-1.93zm-3.55 3.38a3.87 3.87 0 0 0 7.17 0l19.55 10.16h-46.28zm30.68 52.74h-54.19v-1.93h54.19zm-1.94-3.87h-50.32v-32.9h50.32v4.08a10.49 10.49 0 0 0 -4.84-1.18 10.66 10.66 0 0 0 -10.64 10.65 10.51 10.51 0 0 0 3.37 7.74h-1.43v1.94h1.93v1.93h-1.93v1.94h1.93v3.87h11.61zm0-3.87h-9.67v-1.93h9.67zm0-3.87h-9.67v-1.93h9.67z"></path></g></svg>