<svg xmlns="http://www.w3.org/2000/svg" viewBox="0 0 100 100"><g fill="#cbcbca"><path d="m51.49 55.8a1.19 1.19 0 0 0 1.19 1.2h11.68a1.18 1.18 0 0 0 1.18-1.19v-2.63h-14.05zm4.12-1.86h5.81v2.3h-5.81z"></path><path d="m32.79 63.38a1.2 1.2 0 0 0 1.21 1.19h30.36a1.19 1.19 0 0 0 1.18-1.19v-.6h-32.75z"></path><path d="m42.73 66.86h12.89v1.21h-12.89z"></path><path d="m52.68 33.59a1.19 1.19 0 0 0 -1.19 1.19v.6h14.05v-.6a1.18 1.18 0 0 0 -1.18-1.19z"></path></g><path d="m67.84 40.62v-5.84a3.44 3.44 0 0 0 -.33-1.47 3.53 3.53 0 0 0 -1.14-1.37 3.42 3.42 0 0 0 -2-.65h-11.69a3.5 3.5 0 0 0 -3.49 3.49v2.35h-15.19a3.49 3.49 0 0 0 -3.48 3.49v22.76a3.48 3.48 0 0 0 3.48 3.48h6.45v1.21h-2.36v2.3h22.16v-2.3h-2.34v-1.21h6.45a3.48 3.48 0 0 0 3.15-2 3.4 3.4 0 0 0 .33-1.46v-2h.06v-20.78zm-2.3-5.84v.6h-14.05v-.6a1.19 1.19 0 0 1 1.19-1.19h11.68a1.18 1.18 0 0 1 1.18 1.19zm-22.81 33.29v-1.21h12.88v1.21zm22.81-4.69a1.19 1.19 0 0 1 -1.18 1.19h-30.36a1.2 1.2 0 0 1 -1.19-1.19v-.6h32.73zm.06-2.9h-32.81v-19.86a1.19 1.19 0 0 1 1.21-1.19h15.19v2.92h2.3v-4.67h14.05v13.2h-14.05v-1.48h-2.3v6.4a3.49 3.49 0 0 0 3.49 3.49h11.68a3.38 3.38 0 0 0 1.24-.24zm-.06-7.3v2.62a1.18 1.18 0 0 1 -1.18 1.2h-11.68a1.19 1.19 0 0 1 -1.19-1.19v-2.63z" fill="#1b3a69"></path><path d="m55.61 53.94h5.8v2.3h-5.8z" fill="#1b3a69"></path><path d="m51.28 45.87-4.03-3.52v1.98h-7.84v-1.98l-4.03 3.52 4.03 3.53v-1.98h7.84v1.98z" fill="#cbcbca"></path><path d="m50 89a39 39 0 1 1 39-39 39 39 0 0 1 -39 39zm0-75.19a36.22 36.22 0 1 0 36.26 36.19 36.26 36.26 0 0 0 -36.26-36.23z" fill="#cbcbca"></path><g fill="#1b3a69"><path d="m10 46h-.19a1.39 1.39 0 0 1 -1.19-1.55 41.86 41.86 0 0 1 38.28-36.08 1.39 1.39 0 0 1 1.48 1.28 1.36 1.36 0 0 1 -1.27 1.47 39.06 39.06 0 0 0 -35.75 33.72 1.39 1.39 0 0 1 -1.36 1.16z"></path><path d="m39.4 22.37-2.12-1.77 8.7-10.44-11.06-7.92 1.61-2.24 13.46 9.64z"></path><path d="m44.05 91.29h-.2a41.73 41.73 0 0 1 -35.47-38.21 1.36 1.36 0 0 1 1.27-1.47 1.38 1.38 0 0 1 1.48 1.27 39 39 0 0 0 33.12 35.67 1.38 1.38 0 0 1 -.2 2.74z"></path><path d="m22.37 60.59-1.77 2.12-10.44-8.7-7.92 11.05-2.24-1.61 9.64-13.46z"></path><path d="m53 91.61a1.38 1.38 0 0 1 -.1-2.75 39 39 0 0 0 35.32-31.24 1.38 1.38 0 0 1 2.71.54 41.79 41.79 0 0 1 -37.85 33.45z"></path><path d="m60.6 77.63 2.12 1.77-8.71 10.43 11.05 7.93-1.61 2.24-13.46-9.66z"></path><path d="m90.24 48.38a1.38 1.38 0 0 1 -1.38-1.28 38.91 38.91 0 0 0 -31.79-35.44 1.38 1.38 0 0 1 -1.07-1.61 1.36 1.36 0 0 1 1.57-1.05 41.67 41.67 0 0 1 34 38 1.38 1.38 0 0 1 -1.27 1.48z"></path><path d="m77.63 39.39 1.76-2.12 10.44 8.71 7.93-11.05 2.24 1.61-9.65 13.45z"></path><path d="m63.18 23.92a2.43 2.43 0 1 0 2.42 2.43 2.43 2.43 0 0 0 -2.42-2.43z"></path><path d="m77.35 49.36a2.43 2.43 0 1 0 -2.43 2.43 2.42 2.42 0 0 0 2.43-2.43z"></path><path d="m26.8 49.36a2.43 2.43 0 1 0 -2.42 2.43 2.42 2.42 0 0 0 2.42-2.43z"></path><path d="m36.05 23.92a2.43 2.43 0 1 0 2.42 2.43 2.43 2.43 0 0 0 -2.42-2.43z"></path><path d="m63.18 72.3a2.43 2.43 0 1 0 2.42 2.42 2.42 2.42 0 0 0 -2.42-2.42z"></path><path d="m36.05 72.3a2.43 2.43 0 1 0 2.42 2.42 2.42 2.42 0 0 0 -2.42-2.42z"></path><path d="m53.85 98.77a50.14 50.14 0 0 1 -7.75 0l.18-2.38a47.72 47.72 0 0 0 7.37 0zm-10.64-.27a50.17 50.17 0 0 1 -7.58-1.64l.69-2.29a46.53 46.53 0 0 0 7.21 1.56zm23.85-2.66-.83-2.24a47.27 47.27 0 0 0 6.69-3.12l1.17 2.08a49.93 49.93 0 0 1 -7.03 3.28zm-34.18.1a49.87 49.87 0 0 1 -7.05-3.24l1.17-2.08a46.52 46.52 0 0 0 6.7 3.07zm43.7-4.89-1.29-2a47 47 0 0 0 5.85-4.48l1.6 1.78a49.44 49.44 0 0 1 -6.16 4.7zm-53.24.16a50.94 50.94 0 0 1 -6.19-4.67l1.59-1.79a47.13 47.13 0 0 0 5.89 4.45zm61.51-6.88-1.7-1.68a48.46 48.46 0 0 0 4.76-5.65l1.94 1.4a51.33 51.33 0 0 1 -5 5.93zm-69.85.22a49.59 49.59 0 0 1 -5-5.89l1.93-1.41a46.61 46.61 0 0 0 4.8 5.61zm76.47-8.55-2-1.28a47.74 47.74 0 0 0 3.43-6.52l2.19 1a48.73 48.73 0 0 1 -3.62 6.8zm-83.13.26a51.05 51.05 0 0 1 -3.66-6.84l2.19-1a46.23 46.23 0 0 0 3.48 6.58zm87.83-9.82-2.25-.81a46.22 46.22 0 0 0 2-7.11l2.34.45a48.29 48.29 0 0 1 -2.09 7.47zm2.52-10.34-2.37-.31a47.71 47.71 0 0 0 .38-7.37l2.38-.06a50 50 0 0 1 -.39 7.74zm-95.6-10.16-2.38-.19a48.48 48.48 0 0 1 1.22-7.66l2.32.57a45.8 45.8 0 0 0 -1.16 7.28zm90.66-12.54a47.22 47.22 0 0 0 -3.09-6.7l2.08-1.17a49.3 49.3 0 0 1 3.25 7zm-88.75 2.6-2.29-.7a49.56 49.56 0 0 1 2.85-7.21l2.14 1.05a45.87 45.87 0 0 0 -2.7 6.86zm84.23-11.68a47.83 47.83 0 0 0 -4.47-5.87l1.78-1.59a51 51 0 0 1 4.7 6.14zm-80.23 2.36-2.11-1.17a48.81 48.81 0 0 1 4.32-6.43l1.87 1.48a46.73 46.73 0 0 0 -4.08 6.12zm73.86-10.24a46.77 46.77 0 0 0 -5.63-4.78l1.4-1.93a48.84 48.84 0 0 1 5.91 5zm-68 2-1.79-1.59a48.89 48.89 0 0 1 5.6-5.36l1.51 1.85a46.62 46.62 0 0 0 -5.31 5.1zm60.14-8.33a48.41 48.41 0 0 0 -6.51-3.47l1-2.19a50.93 50.93 0 0 1 6.84 3.64zm-52.61 1.54-1.39-1.94a49.13 49.13 0 0 1 6.62-4l1.08 2.13a47.1 47.1 0 0 0 -6.31 3.81zm43.48-6a46.52 46.52 0 0 0 -7.1-2l.45-2.34a48.39 48.39 0 0 1 7.47 2.08zm-9.87-2.47a47.72 47.72 0 0 0 -7.37-.4l-.02-2.39a48.74 48.74 0 0 1 7.74.43z"></path></g></svg>