<svg xmlns="http://www.w3.org/2000/svg" viewBox="0 0 230.0742 334.8736"><defs><style>.cls-1{fill:#5b9bd3;}.cls-2{fill:#1b3a69;}.cls-3{fill:#fff;}</style></defs><g id="Layer_2" data-name="Layer 2"><g id="Layer_1-2" data-name="Layer 1"><polygon class="cls-1" points="203.185 0 203.185 12.018 208.819 6.385 203.185 0"></polygon><polygon class="cls-1" points="230.074 329.741 108.183 329.741 108.183 327.741 228.074 327.741 228.074 7.385 211.818 7.385 211.818 5.385 230.074 5.385 230.074 329.741"></polygon><polygon class="cls-2" points="209.514 13.261 207.762 13.261 207.762 94.591 192.233 94.591 192.233 96.343 207.762 96.343 207.762 103.807 185.69 103.807 185.69 94.699 169.503 94.699 169.503 87.353 202.074 87.353 202.074 30.864 176.526 30.864 176.526 32.616 200.323 32.616 200.323 85.602 167.736 85.602 167.752 96.474 183.939 96.45 183.939 105.558 207.762 105.558 207.762 140.269 167.821 140.269 167.821 158.484 145.786 158.484 145.786 151.471 161.811 151.471 161.811 140.331 160.06 140.331 160.06 149.72 145.786 149.72 145.786 142.02 153.36 142.02 153.36 140.269 145.786 140.269 145.786 123.679 193.296 123.679 193.296 121.928 137.523 121.928 137.523 94.699 129.762 94.699 129.762 40.555 105.726 40.555 105.726 32.291 136.023 32.291 136.023 41.367 137.774 41.367 137.774 30.54 39.376 30.54 39.376 40.054 17.717 40.054 17.717 32.792 33.491 32.792 33.491 31.04 15.966 31.04 15.966 48.942 7.578 48.942 7.578 96.012 9.33 96.012 9.33 50.693 15.966 50.693 15.966 96.638 25.729 96.638 25.729 49.193 23.978 49.193 23.978 94.887 17.717 94.887 17.717 41.805 31.489 41.805 31.489 50.944 55.526 50.944 55.526 96.763 65.79 96.763 65.79 50.568 79.813 50.568 79.813 131.192 73.677 131.192 73.677 112.915 41.503 112.915 41.503 67.47 39.752 67.47 39.752 149.345 16.091 149.345 16.091 151.096 41.503 151.096 41.503 114.666 63.893 114.666 63.851 140.394 57.527 140.394 57.527 122.121 47.702 122.064 47.702 151.096 57.033 151.096 57.033 149.345 49.453 149.345 49.453 123.825 55.776 123.862 55.776 142.145 65.602 142.145 65.602 122.996 65.644 114.666 71.926 114.666 71.926 149.345 64.164 149.345 64.164 151.096 71.926 151.096 71.926 159.859 73.677 159.859 73.677 132.943 79.813 132.943 79.813 142.082 96.09 142.082 96.09 149.345 80.188 149.345 80.188 151.096 96.09 151.096 96.09 177.011 72.552 177.011 72.552 178.763 79.938 178.763 79.938 195.54 31.615 195.54 31.615 205.804 79.688 205.804 79.688 260.637 121.5 260.637 121.5 249.873 105.726 249.873 105.726 224.332 112.237 224.332 112.237 242.484 113.988 242.484 113.988 222.581 103.975 222.581 103.975 251.624 119.748 251.624 119.748 258.886 81.439 258.886 81.439 204.052 33.366 204.052 33.366 197.291 81.689 197.291 81.689 187.276 87.95 187.276 87.95 196.54 97.463 196.54 97.463 186.151 95.712 186.151 95.712 194.789 89.701 194.789 89.701 185.524 81.689 185.524 81.689 178.763 97.841 178.763 97.841 169.584 103.725 169.584 103.725 197.041 143.785 197.041 143.785 269.275 145.536 269.275 145.536 195.29 121.5 195.29 121.5 187.276 144.91 187.276 144.91 185.524 119.748 185.524 119.748 195.29 105.476 195.29 105.476 169.584 129.016 169.529 168.071 169.499 168.071 178.325 176.146 178.325 176.146 185.962 168.26 185.962 168.26 187.713 185.784 187.713 185.784 185.962 177.897 185.962 177.897 178.325 185.973 178.325 185.973 158.734 184.221 158.734 184.221 176.574 169.823 176.574 169.823 169.499 177.71 169.499 177.71 151.096 199.619 151.096 199.619 222.206 185.784 222.206 185.784 214.943 193.483 214.943 193.483 213.192 184.033 213.192 184.033 223.457 184.096 223.957 184.096 231.845 176.084 231.845 176.084 251.373 200.118 251.373 199.997 304.566 193.734 304.468 193.734 286.803 193.609 286.803 193.609 286.043 167.98 286.043 167.98 304.455 121.75 304.455 121.75 295.254 104.225 295.254 104.225 304.455 73.677 304.455 73.677 286.803 71.926 286.803 71.926 304.455 41.753 304.455 41.753 260.48 57.058 260.48 57.058 258.729 41.753 258.729 41.753 258.635 31.364 258.635 31.364 305.831 33.115 305.831 33.115 260.386 40.002 260.386 40.002 306.206 105.976 306.206 105.976 297.004 119.999 297.004 119.999 306.206 169.731 306.206 169.731 287.794 175.833 287.794 175.833 305.831 177.585 305.831 177.585 287.794 191.982 287.794 191.982 306.192 201.744 306.345 201.873 249.622 177.835 249.622 177.835 233.596 184.096 233.596 184.096 242.359 201.746 242.359 201.746 240.608 185.847 240.608 185.847 223.957 201.371 223.957 201.371 149.345 176.209 149.345 176.209 149.72 175.959 149.72 175.959 167.748 137.712 167.748 137.712 131.317 121.737 131.333 121.878 85.748 105.412 85.748 105.412 77.985 113.362 77.985 113.362 76.234 89.827 76.234 89.827 41.68 95.589 41.68 95.651 59.711 97.402 59.704 97.335 39.929 88.075 39.929 88.075 87.499 89.92 87.499 89.92 86.248 89.827 85.748 89.827 77.985 103.661 77.985 103.661 85.748 96.244 85.748 96.244 87.499 120.121 87.499 120.072 103.525 113.612 103.525 113.612 94.887 111.861 94.887 111.861 112.789 95.587 112.789 95.587 124.055 113.237 124.055 113.237 122.304 97.338 122.304 97.338 114.54 113.612 114.54 113.612 105.276 120.066 105.276 119.98 133.084 128.073 133.084 128.073 150.72 129.824 150.72 129.824 133.068 135.96 133.068 135.96 167.748 129.506 167.748 129.446 158.917 127.695 158.927 127.755 167.782 113.823 167.83 113.823 159.093 112.071 159.093 112.071 167.833 97.841 167.833 97.841 151.077 113.239 151.032 113.235 149.281 97.841 149.326 97.841 142.082 120.124 142.082 120.124 160.11 121.875 160.11 121.875 140.331 81.564 140.331 81.564 96.763 103.599 96.763 103.599 103.775 87.825 103.775 87.825 132.943 113.237 132.943 113.237 131.192 89.576 131.192 89.576 105.526 105.35 105.526 105.35 95.012 81.564 95.012 81.564 40.054 48.39 40.054 48.39 41.805 79.813 41.805 79.813 48.817 64.039 48.817 64.039 95.012 57.277 95.012 57.277 49.193 33.241 49.193 33.241 41.805 41.127 41.805 41.127 32.291 103.975 32.291 103.975 59.833 105.726 59.833 105.726 42.306 128.011 42.306 128.011 123.554 129.762 123.554 129.762 96.45 135.772 96.45 135.772 123.679 144.035 123.679 144.035 160.235 169.572 160.235 169.572 142.02 207.762 142.02 207.762 231.594 192.233 231.594 192.233 233.345 207.762 233.345 207.762 313.94 186.098 313.94 186.098 295.817 184.347 295.817 184.347 313.94 113.487 313.94 113.487 304.455 111.736 304.455 111.736 313.94 110.6 313.94 109.43 313.94 108.6 313.94 108.6 321.016 110.6 321.016 110.6 315.691 209.514 315.691 209.514 13.261"></polygon><polygon class="cls-2" points="168.008 68.998 169.759 68.998 169.759 23.226 201.347 23.226 201.347 21.475 168.008 21.475 168.008 68.998"></polygon><polygon class="cls-2" points="169.447 114.666 169.447 112.915 153.675 112.915 153.736 85.876 151.985 85.871 151.924 112.915 145.786 112.915 145.786 23.402 153.11 23.402 153.11 21.651 104.601 21.651 104.601 23.402 144.035 23.402 144.035 114.666 169.447 114.666"></polygon><rect class="cls-2" x="135.7725" y="49.443" width="1.751" height="37.4932"></rect><polygon class="cls-2" points="121.875 78.11 121.875 49.005 111.861 49.005 111.861 67.345 95.837 67.345 95.837 69.096 113.612 69.096 113.612 50.756 120.124 50.756 120.124 78.11 121.875 78.11"></polygon><polygon class="cls-2" points="7.704 149.72 7.704 160.485 57.277 160.485 57.277 158.734 9.455 158.734 9.455 149.72 7.704 149.72"></polygon><rect class="cls-2" x="119.498" y="222.9566" width="1.751" height="18.7764"></rect><polygon class="cls-2" points="130.263 259.51 130.263 213.317 104.601 213.317 104.601 215.068 128.512 215.068 128.512 259.51 130.263 259.51"></polygon><polygon class="cls-2" points="17.529 296.629 17.529 268.4 8.267 268.4 8.267 306.018 25.416 306.018 25.416 268.588 23.665 268.588 23.665 304.267 10.018 304.267 10.018 270.151 15.778 270.151 15.778 296.629 17.529 296.629"></polygon><polygon class="cls-2" points="97.29 313.94 1.751 313.94 1.751 260.637 25.479 260.637 25.479 251.624 49.516 251.624 49.516 240.859 17.58 240.859 17.479 233.34 55.651 233.1 55.651 251.624 63.663 251.624 63.663 267.649 47.639 267.649 47.639 297.693 65.415 297.693 65.415 278.915 79.688 278.915 79.688 297.192 97.463 297.192 97.463 287.803 127.698 287.803 127.698 296.817 161.748 296.817 161.748 278.79 193.859 278.79 193.859 259.011 192.108 259.011 192.108 277.039 159.997 277.039 159.997 295.066 129.449 295.066 129.449 287.803 145.088 287.803 153.485 287.908 153.485 269.588 185.221 269.588 185.221 267.837 153.485 267.837 153.485 215.318 159.81 215.318 159.81 260.199 161.561 260.199 161.561 215.318 176.146 215.318 176.146 222.331 167.696 222.331 167.696 260.386 185.347 260.386 185.347 258.635 169.447 258.635 169.447 224.082 177.897 224.082 177.897 205.741 193.859 205.741 193.859 158.734 192.108 158.734 192.108 195.165 161.936 195.165 161.936 177.325 160.185 177.325 160.185 196.916 192.108 196.916 192.108 203.99 160.185 203.99 160.185 205.741 176.146 205.741 176.146 213.567 153.485 213.567 153.485 176.385 111.486 176.385 111.486 187.151 113.237 187.151 113.237 178.137 151.734 178.137 151.734 286.135 145.099 286.052 129.449 286.052 129.449 278.165 127.698 278.165 127.698 286.052 88.827 286.052 88.827 287.803 95.712 287.803 95.712 295.441 81.439 295.441 81.439 278.915 121.374 278.915 121.374 277.164 89.451 277.164 89.451 269.651 136.12 269.651 136.151 278.79 145.599 278.79 145.599 277.039 137.896 277.039 137.774 241.734 137.774 204.052 88.2 204.052 88.2 252.124 97.713 252.124 97.713 213.943 95.962 213.943 95.962 250.373 89.952 250.373 89.952 205.804 136.023 205.804 136.023 241.738 136.113 267.9 73.927 267.9 73.927 258.76 72.176 258.76 72.176 269.651 87.7 269.651 87.7 277.164 63.663 277.164 63.663 295.942 49.39 295.942 49.39 269.4 56.152 269.4 56.152 287.552 57.903 287.552 57.903 269.4 65.415 269.4 65.415 251.624 73.552 251.624 73.552 213.317 25.229 213.317 25.229 178.387 47.764 178.387 47.764 185.775 32.115 185.775 32.115 187.526 65.415 187.526 65.415 169.499 89.451 169.499 89.451 158.233 80.313 158.233 80.313 159.984 87.7 159.984 87.7 167.748 65.415 167.748 65.415 158.984 63.663 158.984 63.663 185.775 49.516 185.775 49.516 178.387 57.402 178.387 57.402 168.124 55.651 168.124 55.651 176.636 23.478 176.636 23.478 213.317 9.204 213.317 9.204 178.387 15.715 178.387 15.715 205.428 17.467 205.428 17.467 176.636 7.453 176.636 7.453 215.068 71.801 215.068 71.801 249.873 57.402 249.873 57.402 231.338 15.704 231.599 15.853 242.61 47.764 242.61 47.764 249.873 9.705 249.873 9.705 232.095 7.954 232.095 7.954 251.624 23.728 251.624 23.728 258.886 1.751 258.886 1.751 224.207 63.663 224.207 63.663 241.608 65.415 241.608 65.415 222.456 1.751 222.456 1.751 169.499 49.14 169.499 49.14 167.748 1.751 167.748 1.751 141.957 33.366 141.957 33.366 59.707 47.514 59.707 47.514 105.652 73.802 105.652 73.802 58.207 72.051 58.207 72.051 103.901 49.265 103.901 49.265 57.956 31.615 57.956 31.615 103.901 7.704 103.901 7.704 133.194 17.467 133.194 17.467 112.915 15.715 112.915 15.715 131.442 9.455 131.442 9.455 105.652 23.603 105.652 23.603 132.693 25.354 132.693 25.354 105.652 31.615 105.652 31.615 140.206 1.751 140.206 1.751 41.805 9.079 41.805 9.079 23.402 41.002 23.402 41.002 21.651 7.328 21.651 7.328 40.054 1.751 40.054 1.751 14.836 64.039 14.836 64.039 21.651 47.889 21.651 47.889 23.402 97.15 23.402 97.15 21.651 65.79 21.651 65.79 14.836 160.017 14.836 160.017 40.054 153.673 40.054 153.673 31.416 151.922 31.416 151.922 77.86 153.673 77.86 153.673 41.805 160.017 41.805 160.017 105.777 175.833 105.777 175.833 114.54 199.995 114.54 199.995 131.192 152.173 131.192 152.173 132.943 201.746 132.943 201.746 112.789 177.585 112.789 177.585 104.026 161.768 104.026 161.768 78.164 177.351 78.164 177.351 41.805 191.982 41.805 191.982 76.359 185.597 76.359 185.597 49.318 183.846 49.318 183.846 78.11 193.734 78.11 193.734 40.054 175.599 40.054 175.599 76.412 161.768 76.412 161.768 14.836 201.146 14.836 201.146 13.085 0 13.085 0 315.691 97.29 315.691 97.29 321.016 99.29 321.016 99.29 313.94 97.523 313.94 97.29 313.94"></polygon><circle class="cls-3" cx="104.85" cy="328.7412" r="5.1328"></circle><path class="cls-1" d="M104.85,334.8736a6.1328,6.1328,0,1,1,6.1328-6.1328A6.139,6.139,0,0,1,104.85,334.8736Zm0-10.2656a4.1328,4.1328,0,1,0,4.1328,4.1328A4.1371,4.1371,0,0,0,104.85,324.608Z"></path></g></g></svg>