<svg xmlns="http://www.w3.org/2000/svg" viewBox="0 0 215.69 398.35"><g fill="#5b9bd3"><path d="m100.68 98.01h-.46v-32.6l-10.66-10.65v-34.92h.46v34.73l10.66 10.65z"></path><path d="m85.85 101.77h-.46v-14.79l6.38-6.37v-8.93h.45v9.12l-6.37 6.37z"></path><path d="m73.92 107.56h-.45v-26.83l10.28-10.28v-24.43l-7.63-7.63v-13.97h.45v13.78l7.63 7.63v24.81l-10.28 10.28z"></path><path d="m65.02 96.22h-.46v-16.55l-5.6-5.61v-54.22h.45v54.04l5.61 5.6z"></path><path d="m70.77 73.36h-.46v-18.96l-4.47-4.47v-17.26h.46v17.07l4.47 4.47z"></path><path d="m56.09 120.14-5.06-5.06v-14.01l5.65-5.66v-9.91l-10.53-10.55v-20.34h.45v20.16l10.54 10.54v10.29l-5.65 5.66v13.63l4.92 4.93z"></path><path d="m52.62 62.08h-.46v-20.02l-9.01-9.01.45-.2 9.02 9.02z"></path><path d="m49.47 128.61-5.48-5.48v-33.02l-9.65-9.64v-69.77h.46v69.58l9.65 9.65v33.01l5.34 5.35z"></path><path d="m35.48 96.92-8.53-8.53v-30.75l-7.25-7.25.32-.32 7.39 7.38v30.75l8.39 8.39z"></path><path d="m38.33 148.09-8.4-8.4h-14.64v-.45h14.83l8.53 8.53z"></path><path d="m28.68 131.22h-.46v-10.47l-3.76-3.76h-22.89v-.46h23.08l4.03 4.03z"></path><path d="m10.72 161.79h24.63v.46h-24.63z"></path><path d="m30.12 204.17h-13.92v-.46h13.73l10.29-10.29.32.32z"></path><path d="m1.91 211.36h39.41v.46h-39.41z"></path><path d="m37.15 239.81h-17.29v-.46h17.1l11.64-11.63.32.32z"></path><path d="m42.44 265.7h-.46v-13.85l12.92-12.91.32.32-12.78 12.78z"></path><path d="m34.97 273.52h-.46v-14.33l-8.8-8.79h-14.99v-.46h15.18l9.07 9.06z"></path><path d="m30.15 294.41h-14.86v-.46h14.67l24.19-24.19v-13.25l7.07-7.07.32.32-6.94 6.94v13.25z"></path><path d="m20.02 288.54-.32-.33 6.53-6.52v-11.89h.45v12.08z"></path><path d="m29.88 229.06h-14.59v-.46h14.4l5.69-5.69.33.32z"></path><path d="m44.23 298.45-.33-.33 17.62-17.61v-16.53l5.64-5.64.32.32-5.51 5.51v16.53z"></path><path d="m46.6 315.63-9.15-9.16h-13.01v-.45h13.2l9.28 9.28z"></path><path d="m68.11 294.18h-.46v-23.92l4.72-4.72.33.32-4.59 4.59z"></path><path d="m47.72 325.72-.32-.33 5.07-5.07v-16.77l9.53-9.53.32.32-9.4 9.4v16.77z"></path><path d="m62.16 310.74-.33-.33 11.81-11.8v-22.36l3.96-3.96.32.33-3.82 3.82v22.36z"></path><path d="m40.77 323.74-6.83-6.83h-14.08v-.45h14.27l6.97 6.96z"></path><path d="m88.08 396.75h-.45v-81.47l-7.34-7.34v-22.83l3.92-3.92.32.32-3.78 3.79v22.45l7.33 7.34z"></path><path d="m74.2 369.32h-.46v-13.94l7.74-7.74v-21.99l-8.01-8.01.32-.32 8.14 8.14v22.37l-7.73 7.74z"></path><path d="m61.83 378.46h-.45v-41.07l5.71-5.71v-17.51h.46v17.7l-5.72 5.71z"></path><path d="m54.65 373.89h-.46v-31.32l-5.62-5.62h-11.43l-11.58-11.58.19-.45 11.58 11.58h11.43l5.89 5.88z"></path><path d="m43.56 387.61h-.45v-31.59l-7.43-7.42v-6.54h.45v6.34l7.43 7.43z"></path><path d="m35.52 364.16h-.45v-9.77l-12.1-12.1h-12.25v-.46h12.44l12.36 12.37z"></path><path d="m29.6 373.89h-.46v-11.77l-3.52-3.52.33-.32 3.65 3.65z"></path><path d="m49.59 360.35h-.46v-9.97l-6.19-6.19.33-.32 6.32 6.32z"></path><path d="m67.8 358.83h-.46v-12.67l7.61-7.61.32.32-7.47 7.48z"></path><path d="m101.71 349.91h-.46v-15.98l-6.78-6.79v-34.65h.46v34.46l6.78 6.79z"></path><path d="m95.23 344.35h.46v34.11h-.46z"></path><path d="m102.85 387.61h-.46v-24.08l6.71-6.7v-18.5h.46v18.69l-6.71 6.7z"></path><path d="m114.55 348.39h-.46v-14.35l-11.01-11.01v-19.74h.46v19.55l11.01 11.01z"></path><path d="m113.63 313.27h.46v10.2h-.46z"></path><path d="m114.09 383.03h-.46v-19.42l5.85-5.85v-13.73h.46v13.92l-5.85 5.85z"></path><path d="m121.4 333.14h-.46v-17.59l7.8-7.8v-11.25h.46v11.44l-7.8 7.8z"></path><path d="m127.83 371.6h-.46v-15.16l6.86-6.85v-19.11h.45v19.3l-6.85 6.85z"></path><path d="m125.16 348.03-.32-.32 3.96-3.97v-21.32l6.98-6.97v-27.19h.45v27.38l-6.97 6.97v21.32z"></path><path d="m120.35 97.09h-.46v-27.64l7.36-7.36v-46.82h.46v47.01l-7.36 7.36z"></path><path d="m109.82 89.21h-.45v-31.76l5.28-5.28v-50.62h.46v50.81l-5.29 5.28z"></path><path d="m99.65 33.56h.46v11.98h-.46z"></path><path d="m143.87 102.63-.33-.32 12.49-12.48v-19.73l-13.41-13.41v-36.85h.45v36.66l13.42 13.41v20.1z"></path><path d="m143.64 90.24h-.46v-17.53l-8.32-8.32v-23.3h.45v23.11l8.33 8.32z"></path><path d="m135.06 95.68-6.37-6.37v-12.22h.45v12.03l6.24 6.24z"></path><path d="m153.15 24.42h.46v21.13h-.46z"></path><path d="m156.42 57.71-.33-.33 6.84-6.83v-16.99h.46v17.18z"></path><path d="m164.75 84.07h-.46v-14.79l6.8-6.8v-47.21h.46v47.4l-6.8 6.8z"></path><path d="m156.89 109.13h-.45v-4.31l13.52-13.52v-13.06h.46v13.25l-13.53 13.52z"></path><path d="m172.72 123.04h-.46v-10.67l-5.92-5.92.32-.32 6.06 6.06z"></path><path d="m193.37 100.24h-.46v-38.38l-8.75-8.75v-24.12h.46v23.93l8.75 8.75z"></path><path d="m181.7 132.93-.33-.33 10.82-10.81v-12.15l-11.99-11.99v-28.71h.46v28.52l11.98 11.99v12.53z"></path><path d="m204.8 47.34-9.55-9.55v-16.12h.45v15.93l9.42 9.42z"></path><path d="m186.58 142.13-.32-.32 10.82-10.82v-8.05l.45.19v8.05z"></path><path d="m192.37 160.22h17.24v.46h-17.24z"></path><path d="m195.4 144.54h6.82v.46h-6.82z" transform="matrix(.70710678 -.70710678 .70710678 .70710678 -44.14 182.96)"></path><path d="m204.78 183.71-7.83-7.83h-3.75v-.45h3.94l7.96 7.96z"></path><path d="m213.96 224.56-12.88-12.87v-9.8l-5.96-5.97h-4.32v-.45h4.51l6.23 6.23v9.8l12.74 12.73z"></path><path d="m202.74 184.29h.46v15.71h-.46z" transform="matrix(.70710678 -.70710678 .70710678 .70710678 -76.42 199.8)"></path><path d="m193.03 237.13h-.45v-6.98l-9.51-9.5v-5.01h.46v4.82l9.5 9.5z"></path><path d="m203.16 235.28-4.06-4.06v-8.19l-7.51-7.51.33-.32 7.64 7.64v8.19l3.93 3.93z"></path><path d="m204.92 285.43-14.42-14.43v-10.95l-16.66-16.66v-8.35h.45v8.16l16.66 16.67v10.94l14.3 14.29z"></path><path d="m173.61 291.52h-.46v-20.5l-7.86-7.86v-14.56h.46v14.37l7.86 7.86z"></path><path d="m154.67 383.03h-.46v-33.27l11.15-11.15v-22.55l-11.86-11.86v-37.99h.46v37.81l11.86 11.86v22.92l-11.15 11.15z"></path><path d="m146.83 373.89h-.46v-36.5l3.88-3.87.32.32-3.74 3.74z"></path><path d="m157.64 334.9h-.45v-14.75l-15.08-15.08v-24h.46v23.82l15.07 15.07z"></path><path d="m136.02 364.79-.32-.32 5.73-5.74v-27.52l2.2-2.2v-14.08l-3.07-3.07.33-.33 3.2 3.21v14.46l-2.2 2.2v27.52z"></path><path d="m185.79 364.74h-.45v-27.35l-10.78-10.78v-23.18l-10.84-10.84v-11.52h.46v11.33l10.84 10.84v23.18l10.77 10.78z"></path><path d="m162.98 373.89h-.46v-8l9.73-9.73v-14.71h.46v14.9l-9.73 9.73z"></path><path d="m178.83 353.34h.46v38.84h-.46z"></path><path d="m204.92 353.46-10.54-10.54v-39.2l-11.14-11.13v-25.41l-5.43-5.43.33-.32 5.56 5.56v25.41l11.13 11.13v39.2l10.41 10.41z"></path><path d="m202.36 283.09h.46v21.92h-.46z" transform="matrix(.70710678 -.70710678 .70710678 .70710678 -148.58 229.37)"></path><path d="m214.02 378.87-24.5-24.52v-26.81l-4.9-4.89v-13.51h.46v13.32l4.89 4.9v26.8l24.38 24.39z"></path><circle cx="91.91" cy="70.77" r="1.57"></circle><circle cx="99.88" cy="47.12" r="1.57"></circle><circle cx="109.6" cy="90.24" r="1.57"></circle><circle cx="135.09" cy="41.09" r="1.57"></circle><circle cx="128.91" cy="76.43" r="1.57"></circle><path d="m137.58 96.22a1.58 1.58 0 1 1 -3.15 0 1.58 1.58 0 0 1 3.15 0z"></path><path d="m145 91.81a1.57 1.57 0 1 1 -1.57-1.57 1.57 1.57 0 0 1 1.57 1.57z"></path><circle cx="153.38" cy="47.12" r="1.57"></circle><circle cx="155.94" cy="57.55" r="1.57"></circle><circle cx="164.52" cy="84.07" r="1.57"></circle><circle cx="170.19" cy="78.24" r="1.57"></circle><circle cx="180.43" cy="68.94" r="1.57"></circle><circle cx="166.5" cy="106.29" r="1.57"></circle><circle cx="193.14" cy="100.85" r="1.57"></circle><circle cx="196.4" cy="147.18" r="1.57"></circle><circle cx="197.41" cy="186.59" r="1.57"></circle><path d="m193.33 215.36a1.58 1.58 0 1 1 -1.57-1.57 1.57 1.57 0 0 1 1.57 1.57z"></path><circle cx="192.8" cy="236.29" r="1.57"></circle><circle cx="177.82" cy="261.59" r="1.57"></circle><circle cx="205.12" cy="285.29" r="1.57"></circle><circle cx="194.84" cy="286.68" r="1.57"></circle><circle cx="163.95" cy="281.07" r="1.57"></circle><path d="m175 292.49a1.58 1.58 0 1 1 -1.57-1.57 1.57 1.57 0 0 1 1.57 1.57z"></path><circle cx="184.85" cy="307.99" r="1.57"></circle><circle cx="179.06" cy="353.34" r="1.57"></circle><circle cx="172.48" cy="341.45" r="1.57"></circle><circle cx="157.41" cy="334.9" r="1.57"></circle><circle cx="150.41" cy="333.68" r="1.57"></circle><circle cx="140.72" cy="311.69" r="1.57"></circle><path d="m136 330.48a1.57 1.57 0 1 1 -1.57-1.58 1.57 1.57 0 0 1 1.57 1.58z"></path><path d="m137 364.63a1.58 1.58 0 1 1 -1.58-1.58 1.57 1.57 0 0 1 1.58 1.58z"></path><circle cx="125" cy="347.87" r="1.57"></circle><circle cx="121.28" cy="333.68" r="1.57"></circle><circle cx="119.71" cy="344.03" r="1.57"></circle><path d="m115.43 324.27a1.58 1.58 0 0 1 -3.15 0 1.58 1.58 0 1 1 3.15 0z"></path><path d="m115.89 349a1.57 1.57 0 1 1 -1.57-1.58 1.57 1.57 0 0 1 1.57 1.58z"></path><circle cx="109.33" cy="338.33" r="1.57"></circle><circle cx="101.48" cy="349.91" r="1.57"></circle><path d="m96.81 343a1.57 1.57 0 1 1 -1.57-1.58 1.57 1.57 0 0 1 1.57 1.58z"></path><circle cx="73.92" cy="317.48" r="1.57"></circle><circle cx="75.11" cy="338.71" r="1.57"></circle><path d="m68.89 314.82a1.58 1.58 0 1 1 -1.57-1.57 1.57 1.57 0 0 1 1.57 1.57z"></path><circle cx="67.88" cy="294.18" r="1.57"></circle><circle cx="62.16" cy="294.18" r="1.57"></circle><circle cx="34.74" cy="273.52" r="1.57"></circle><path d="m43.77 265.7a1.58 1.58 0 1 1 -1.57-1.57 1.58 1.58 0 0 1 1.57 1.57z"></path><circle cx="35.53" cy="223.07" r="1.57"></circle><path d="m30 131.22a1.58 1.58 0 1 1 -1.58-1.58 1.57 1.57 0 0 1 1.58 1.58z"></path><circle cx="15.29" cy="139.58" r="1.57"></circle><circle cx="35.64" cy="96.75" r="1.57"></circle><circle cx="46.37" cy="54.61" r="1.57"></circle><path d="m54 63.44a1.58 1.58 0 1 1 -1.57-1.57 1.57 1.57 0 0 1 1.57 1.57z"></path><path d="m66.36 97.09a1.58 1.58 0 1 1 -1.57-1.57 1.57 1.57 0 0 1 1.57 1.57z"></path><circle cx="70.54" cy="74.86" r="1.57"></circle><circle cx="66.07" cy="32.67" r="1.57"></circle><circle cx="19.79" cy="50.19" r="1.57"></circle><circle cx="61.99" cy="310.44" r="1.57"></circle><path d="m49.13 325.84a1.58 1.58 0 1 1 -1.57-1.57 1.57 1.57 0 0 1 1.57 1.57z"></path><path d="m42.2 323.58a1.58 1.58 0 1 1 -1.58-1.58 1.57 1.57 0 0 1 1.58 1.58z"></path><path d="m48 315.47a1.57 1.57 0 1 1 -1.57-1.58 1.57 1.57 0 0 1 1.57 1.58z"></path><path d="m45.64 298.29a1.58 1.58 0 1 1 -1.58-1.58 1.58 1.58 0 0 1 1.58 1.58z"></path><circle cx="26.45" cy="269.79" r="1.57"></circle><circle cx="43.33" cy="344.35" r="1.57"></circle><circle cx="49.4" cy="359.78" r="1.57"></circle><circle cx="35.9" cy="342.46" r="1.57"></circle><circle cx="35.29" cy="364.16" r="1.57"></circle><path d="m27.36 358.44a1.58 1.58 0 1 1 -1.58-1.58 1.57 1.57 0 0 1 1.58 1.58z"></path><circle cx="67.57" cy="359.12" r="1.57"></circle><circle cx="34.57" cy="10.72" r="1.57"></circle><circle cx="43.49" cy="33.05" r="1.57"></circle><circle cx="59.19" cy="19.94" r="1.57"></circle><circle cx="76.33" cy="24.51" r="1.57"></circle><circle cx="89.74" cy="19.94" r="1.57"></circle><circle cx="99.88" cy="33.5" r="1.57"></circle><circle cx="114.89" cy="1.57" r="1.57"></circle><circle cx="127.47" cy="15.21" r="1.57"></circle><circle cx="142.86" cy="19.86" r="1.57"></circle><circle cx="153.38" cy="24.51" r="1.57"></circle><circle cx="163.21" cy="33.66" r="1.57"></circle><circle cx="171.36" cy="15.37" r="1.57"></circle><circle cx="184.39" cy="28.93" r="1.57"></circle><circle cx="195.44" cy="21.62" r="1.57"></circle><circle cx="204.89" cy="47.07" r="1.57"></circle><circle cx="197.35" cy="123.05" r="1.57"></circle><circle cx="201.16" cy="142.4" r="1.57"></circle><circle cx="209.54" cy="160.39" r="1.57"></circle><circle cx="204.97" cy="183.55" r="1.57"></circle><circle cx="208.55" cy="197.73" r="1.57"></circle><circle cx="210.3" cy="301.82" r="1.57"></circle><circle cx="205.04" cy="353.26" r="1.57"></circle><circle cx="214.11" cy="378.72" r="1.57"></circle><circle cx="185.53" cy="364.77" r="1.57"></circle><circle cx="179.06" cy="392.2" r="1.57"></circle><circle cx="162.83" cy="373.84" r="1.57"></circle><circle cx="154.44" cy="382.98" r="1.57"></circle><circle cx="146.62" cy="373.61" r="1.57"></circle><circle cx="127.62" cy="371.55" r="1.57"></circle><circle cx="113.82" cy="383.06" r="1.57"></circle><circle cx="102.62" cy="387.63" r="1.57"></circle><circle cx="95.46" cy="378.49" r="1.57"></circle><circle cx="87.91" cy="396.78" r="1.57"></circle><circle cx="73.89" cy="369.34" r="1.57"></circle><circle cx="61.62" cy="378.49" r="1.57"></circle><circle cx="54.41" cy="373.69" r="1.57"></circle><circle cx="43.33" cy="387.63" r="1.57"></circle><circle cx="29.39" cy="373.99" r="1.57"></circle><circle cx="10.74" cy="342.06" r="1.57"></circle><circle cx="25.73" cy="325.3" r="1.57"></circle><circle cx="19.86" cy="316.76" r="1.57"></circle><circle cx="24.44" cy="306.32" r="1.57"></circle><circle cx="15.29" cy="294.2" r="1.57"></circle><circle cx="19.86" cy="288.34" r="1.57"></circle><circle cx="10.64" cy="250.23" r="1.57"></circle><circle cx="19.94" cy="239.64" r="1.57"></circle><circle cx="15.21" cy="228.9" r="1.57"></circle><circle cx="1.88" cy="211.75" r="1.57"></circle><circle cx="16.28" cy="204.05" r="1.57"></circle><circle cx="10.72" cy="162.14" r="1.57"></circle><circle cx="1.57" cy="116.87" r="1.57"></circle></g><path d="m90.8 162.28h-.92v-22.41l-16.64-16.64v-12.52h.91v12.14l16.65 16.64z" fill="#1a3a67" stroke="#1a3a67" stroke-miterlimit="10" stroke-width=".5"></path><path d="m85.3 174.4-4.93-4.92v-22.64h.91v22.26l4.66 4.66z" fill="#1a3a67" stroke="#1a3a67" stroke-miterlimit="10" stroke-width=".5"></path><path d="m75.58 165.42h-.91v-26.98l-16.25-16.25.64-.65 16.52 16.52z" fill="#1a3a67" stroke="#1a3a67" stroke-miterlimit="10" stroke-width=".5"></path><path d="m78.51 194.12h-.91v-12.3l-9.35-9.34v-21.4h.92v21.02l9.34 9.34z" fill="#1a3a67" stroke="#1a3a67" stroke-miterlimit="10" stroke-width=".5"></path><path d="m82.37 173.65h.91v13.4h-.91z" fill="#1a3a67" stroke="#1a3a67" stroke-miterlimit="10" stroke-width=".5" transform="matrix(.70710678 -.70710678 .70710678 .70710678 -103.26 111.39)"></path><path d="m79.35 245.45h-.91v-17.2l6.43-6.43v-21.02l7-7 .65.64-6.74 6.74v21.02l-6.43 6.43z" fill="#1a3a67" stroke="#1a3a67" stroke-miterlimit="10" stroke-width=".5"></path><path d="m57.93 238.19-.64-.65 12.06-12.06v-27.35h.92v27.73z" fill="#1a3a67" stroke="#1a3a67" stroke-miterlimit="10" stroke-width=".5"></path><path d="m63.19 248.24-.65-.65 11.57-11.56v-26.2l4.72-4.72.64.65-4.45 4.45v26.2z" fill="#1a3a67" stroke="#1a3a67" stroke-miterlimit="10" stroke-width=".5"></path><path d="m70.13 256.22-.65-.65 3.42-3.41v-6.71h.92v7.08z" fill="#1a3a67" stroke="#1a3a67" stroke-miterlimit="10" stroke-width=".5"></path><path d="m75.45 263.39-.65-.64 12.35-12.35v-17.67l6.42-6.42v-13.82h.92v14.19l-6.42 6.43v17.67z" fill="#1a3a67" stroke="#1a3a67" stroke-miterlimit="10" stroke-width=".5"></path><path d="m95.98 289.34h-.92v-10.91l17.1-17.1v-36.37l-10.59-10.6v-13.51h.91v13.13l10.6 10.6v37.13l-17.1 17.09z" fill="#1a3a67" stroke="#1a3a67" stroke-miterlimit="10" stroke-width=".5"></path><path d="m97.76 264.64h-.92v-11.33l6.39-6.39v-19.86h.91v20.24l-6.38 6.39z" fill="#1a3a67" stroke="#1a3a67" stroke-miterlimit="10" stroke-width=".5"></path><path d="m80.79 271.69-.64-.64 11.89-11.89v-16.76h.91v17.14z" fill="#1a3a67" stroke="#1a3a67" stroke-miterlimit="10" stroke-width=".5"></path><path d="m86.1 275.71h7.49v.91h-7.49z" fill="#1a3a67" stroke="#1a3a67" stroke-miterlimit="10" stroke-width=".5" transform="matrix(.70710678 -.70710678 .70710678 .70710678 -168.96 144.41)"></path><path d="m104.05 300.15h-.91v-15.45l5.33-5.32.64.64-5.06 5.06z" fill="#1a3a67" stroke="#1a3a67" stroke-miterlimit="10" stroke-width=".5"></path><path d="m114.31 310.12h-.91v-19.39l5.36-5.36v-34.28h.91v34.66l-5.36 5.36z" fill="#1a3a67" stroke="#1a3a67" stroke-miterlimit="10" stroke-width=".5"></path><path d="m129.63 293.35h-.91v-31.85l-4.43-4.43v-31.14l-12.46-12.46v-10.62h.91v10.24l12.47 12.46v31.14l4.42 4.43z" fill="#1a3a67" stroke="#1a3a67" stroke-miterlimit="10" stroke-width=".5"></path><path d="m136.46 285.11h-.91v-30.44l5.28-5.28v-17.5h.91v17.87l-5.28 5.29z" fill="#1a3a67" stroke="#1a3a67" stroke-miterlimit="10" stroke-width=".5"></path><path d="m131.91 237.87h-.91v-15.91l-8.49-8.49v-12.19h.91v11.81l8.49 8.49z" fill="#1a3a67" stroke="#1a3a67" stroke-miterlimit="10" stroke-width=".5"></path><path d="m134.01 245.77-.64-.64 3.22-3.23v-24.53h.92v24.91z" fill="#1a3a67" stroke="#1a3a67" stroke-miterlimit="10" stroke-width=".5"></path><path d="m138.97 163.02-.65-.65 6.89-6.88v-3.43h.91v3.8z" fill="#1a3a67" stroke="#1a3a67" stroke-miterlimit="10" stroke-width=".5"></path><path d="m142.13 171.7-.65-.64 8.93-8.93v-11.05h.92v11.42z" fill="#1a3a67" stroke="#1a3a67" stroke-miterlimit="10" stroke-width=".5"></path><path d="m141.05 183.84-.65-.65 15.62-15.62v-4.62h.92v4.99z" fill="#1a3a67" stroke="#1a3a67" stroke-miterlimit="10" stroke-width=".5"></path><path d="m154.87 210.02h-.91v-10.45l-4.59-4.58v-13.05l5.4-5.4.64.65-5.12 5.12v12.3l4.58 4.58z" fill="#1a3a67" stroke="#1a3a67" stroke-miterlimit="10" stroke-width=".5"></path><path d="m148.53 228.64h-.92v-22.47l-7.6-7.6v-6.92h.92v6.54l7.6 7.6z" fill="#1a3a67" stroke="#1a3a67" stroke-miterlimit="10" stroke-width=".5"></path><path d="m137.6 205.18h-.91v-5.18l-4.16-4.16.64-.65 4.43 4.43z" fill="#1a3a67" stroke="#1a3a67" stroke-miterlimit="10" stroke-width=".5"></path><path d="m142.76 277.93h-.92v-18.18l6-5.99v-14.32h.91v14.7l-5.99 5.99z" fill="#1a3a67" stroke="#1a3a67" stroke-miterlimit="10" stroke-width=".5"></path><path d="m154.19 263.07h-.92v-23.82l5.94-5.93v-10.86h.91v11.24l-5.93 5.93z" fill="#1a3a67" stroke="#1a3a67" stroke-miterlimit="10" stroke-width=".5"></path><path d="m154.46 228.64h-.91v-7.02l6.85-6.85v-11.7h.91v12.08l-6.85 6.85z" fill="#1a3a67" stroke="#1a3a67" stroke-miterlimit="10" stroke-width=".5"></path><path d="m165.98 245.45h-.92v-19.69l2.9-2.89v-19.83l-10.45-10.44v-8.07h.92v7.69l10.44 10.44v20.59l-2.89 2.89z" fill="#1a3a67" stroke="#1a3a67" stroke-miterlimit="10" stroke-width=".5"></path><path d="m170.16 191.65h-.91v-16.19l4.93-4.93v-30.47l4.81-4.8.64.64-4.53 4.54v30.47l-4.94 4.93z" fill="#1a3a67" stroke="#1a3a67" stroke-miterlimit="10" stroke-width=".5"></path><path d="m169.13 157.3h-.92v-10.27l-3.5-3.5.64-.65 3.78 3.77z" fill="#1a3a67" stroke="#1a3a67" stroke-miterlimit="10" stroke-width=".5"></path><path d="m179.64 176h-.92v-26.91l4.74-4.74.65.65-4.47 4.47z" fill="#1a3a67" stroke="#1a3a67" stroke-miterlimit="10" stroke-width=".5"></path><path d="m174.52 231.89h-.91v-29.23l3.91-3.91v-10.1h.91v10.48l-3.91 3.91z" fill="#1a3a67" stroke="#1a3a67" stroke-miterlimit="10" stroke-width=".5"></path><path d="m183.76 212.49h-.92v-11.83l4.89-4.88.65.64-4.62 4.62z" fill="#1a3a67" stroke="#1a3a67" stroke-miterlimit="10" stroke-width=".5"></path><path d="m184.36 190.18h-.91v-7.83l6.58-6.57.38.91-6.05 6.04z" fill="#1a3a67" stroke="#1a3a67" stroke-miterlimit="10" stroke-width=".5"></path><path d="m185.76 171.38h-.91v-7.2l4.05-4.05.65.64-3.79 3.79z" fill="#1a3a67" stroke="#1a3a67" stroke-miterlimit="10" stroke-width=".5"></path><path d="m55.51 184.53h-.91v-16.46l7.81-7.81v-18.37l-10.35-10.35.65-.64 10.61 10.61v19.13l-7.81 7.81z" fill="#1a3a67" stroke="#1a3a67" stroke-miterlimit="10" stroke-width=".5"></path><path d="m53.38 159.71h-.91v-11.39l-6.75-6.74.65-.65 7.01 7.01z" fill="#1a3a67" stroke="#1a3a67" stroke-miterlimit="10" stroke-width=".5"></path><path d="m39.05 185.88-.64-.64 3.4-3.4v-15.85l-3.64-3.64.64-.65 3.91 3.91v16.61z" fill="#1a3a67" stroke="#1a3a67" stroke-miterlimit="10" stroke-width=".5"></path><path d="m53.94 205.98h-.91v-8.65l-5.49-5.49v-34.99l-6.54-6.53.65-.65 6.8 6.81v34.98l5.49 5.49z" fill="#1a3a67" stroke="#1a3a67" stroke-miterlimit="10" stroke-width=".5"></path><path d="m44.45 210.94-.64-.65 2.71-2.71v-9.26l-4.36-4.36.65-.65 4.63 4.63v10.02z" fill="#1a3a67" stroke="#1a3a67" stroke-miterlimit="10" stroke-width=".5"></path><path d="m51.54 226.28-.65-.65 12.54-12.54v-24.94l-2.87-2.87v-11.42h.92v11.04l2.87 2.87v25.7z" fill="#1a3a67" stroke="#1a3a67" stroke-miterlimit="10" stroke-width=".5"></path><path d="m94.06 132.53h-.92v-4.38l-7.98-7.98v-15.25h.92v14.87l7.98 7.98z" fill="#1a3a67" stroke="#1a3a67" stroke-miterlimit="10" stroke-width=".5"></path><path d="m102.48 150.49h-.91v-23.8l-5.2-5.2.65-.65 5.46 5.47z" fill="#1a3a67" stroke="#1a3a67" stroke-miterlimit="10" stroke-width=".5"></path><path d="m115.13 147.93h-.92v-7.55l-7.66-7.66v-18.87h.91v18.49l7.67 7.66z" fill="#1a3a67" stroke="#1a3a67" stroke-miterlimit="10" stroke-width=".5"></path><path d="m99.99 101.16h.91v9.54h-.91z" fill="#1a3a67" stroke="#1a3a67" stroke-miterlimit="10" stroke-width=".5"></path><path d="m116.97 124.92h-.92v-10.79l3.62-3.61v-10.28h.91v10.65l-3.61 3.62z" fill="#1a3a67" stroke="#1a3a67" stroke-miterlimit="10" stroke-width=".5"></path><path d="m125 150.49h-.92v-13.5l4.32-4.32v-17.24h.91v17.62l-4.31 4.31z" fill="#1a3a67" stroke="#1a3a67" stroke-miterlimit="10" stroke-width=".5"></path><path d="m119.77 138.02h-.91v-7.11l3.78-3.78.65.64-3.52 3.52z" fill="#1a3a67" stroke="#1a3a67" stroke-miterlimit="10" stroke-width=".5"></path><path d="m132.57 154.93h-.91v-13.15l5.01-5.01v-10.27h.92v10.65l-5.02 5.01z" fill="#1a3a67" stroke="#1a3a67" stroke-miterlimit="10" stroke-width=".5"></path><path d="m136.63 114.75h-.91v-4.06l6.09-6.1.65.65-5.83 5.82z" fill="#1a3a67" stroke="#1a3a67" stroke-miterlimit="10" stroke-width=".5"></path><path d="m139.04 150.42-.64-.64 4.85-4.85v-24.95h.91v25.33z" fill="#1a3a67" stroke="#1a3a67" stroke-miterlimit="10" stroke-width=".5"></path><path d="m148.53 140.4h-.92v-9.37l8.39-8.39v-10.36h.91v10.74l-8.38 8.39z" fill="#1a3a67" stroke="#1a3a67" stroke-miterlimit="10" stroke-width=".5"></path><path d="m164.34 180.35h-.91v-19.39l-5.84-5.84v-14.68l14.58-14.58.64.65-14.31 14.31v13.92l5.84 5.84z" fill="#1a3a67" stroke="#1a3a67" stroke-miterlimit="10" stroke-width=".5"></path><circle cx="214.11" cy="224.32" fill="#5b9bd3" r="1.57"></circle><circle cx="203.29" cy="235.07" fill="#5b9bd3" r="1.57"></circle><path d="m142.85 106.08a2 2 0 1 1 2-2 2 2 0 0 1 -2 2zm0-3.15a1.12 1.12 0 1 0 1.15 1.07 1.12 1.12 0 0 0 -1.15-1.07z" fill="#1a3a67" stroke="#1a3a67" stroke-miterlimit="10" stroke-width=".5"></path><path d="m128.78 115.88a2 2 0 1 1 2-2 2 2 0 0 1 -2 2zm0-3.14a1.12 1.12 0 1 0 1.12 1.11 1.11 1.11 0 0 0 -1.12-1.11z" fill="#1a3a67" stroke="#1a3a67" stroke-miterlimit="10" stroke-width=".5"></path><path d="m156.66 112.74a2 2 0 1 1 2-2 2 2 0 0 1 -2 2zm0-3.15a1.12 1.12 0 1 0 1.12 1.12 1.12 1.12 0 0 0 -1.12-1.12z" fill="#1a3a67" stroke="#1a3a67" stroke-miterlimit="10" stroke-width=".5"></path><path d="m172.49 126.64a2 2 0 1 1 2-2 2 2 0 0 1 -2 2zm0-3.14a1.12 1.12 0 1 0 1.12 1.11 1.12 1.12 0 0 0 -1.12-1.11z" fill="#1a3a67" stroke="#1a3a67" stroke-miterlimit="10" stroke-width=".5"></path><path d="m184.88 145.57a2 2 0 1 1 2-2 2 2 0 0 1 -2 2zm0-3.14a1.12 1.12 0 1 0 1.11 1.11 1.12 1.12 0 0 0 -1.11-1.11z" fill="#1a3a67" stroke="#1a3a67" stroke-miterlimit="10" stroke-width=".5"></path><path d="m180.15 136.29a2 2 0 1 1 2-2 2 2 0 0 1 -2 2zm0-3.15a1.12 1.12 0 1 0 1.12 1.11 1.11 1.11 0 0 0 -1.12-1.11z" fill="#1a3a67" stroke="#1a3a67" stroke-miterlimit="10" stroke-width=".5"></path><path d="m190.8 162.48a2 2 0 1 1 2-2 2 2 0 0 1 -2 2zm0-3.15a1.12 1.12 0 1 0 1.11 1.12 1.12 1.12 0 0 0 -1.11-1.12z" fill="#1a3a67" stroke="#1a3a67" stroke-miterlimit="10" stroke-width=".5"></path><path d="m191.63 177.68a2 2 0 1 1 2-2 2 2 0 0 1 -2 2zm0-3.14a1.12 1.12 0 1 0 1.12 1.11 1.12 1.12 0 0 0 -1.12-1.11z" fill="#1a3a67" stroke="#1a3a67" stroke-miterlimit="10" stroke-width=".5"></path><path d="m189.22 197.73a2 2 0 1 1 2-2 2 2 0 0 1 -2 2zm0-3.15a1.12 1.12 0 1 0 1.12 1.11 1.11 1.11 0 0 0 -1.12-1.11z" fill="#1a3a67" stroke="#1a3a67" stroke-miterlimit="10" stroke-width=".5"></path><path d="m178 189.11a2 2 0 1 1 2-2 2 2 0 0 1 -2 2zm0-3.15a1.12 1.12 0 1 0 1.12 1.12 1.12 1.12 0 0 0 -1.12-1.08z" fill="#1a3a67" stroke="#1a3a67" stroke-miterlimit="10" stroke-width=".5"></path><path d="m179.18 179.26a2 2 0 1 1 2-2 2 2 0 0 1 -2 2zm0-3.15a1.12 1.12 0 1 0 1.12 1.12 1.12 1.12 0 0 0 -1.12-1.12z" fill="#1a3a67" stroke="#1a3a67" stroke-miterlimit="10" stroke-width=".5"></path><path d="m185.3 175a2 2 0 1 1 2-2 2 2 0 0 1 -2 2zm0-3.15a1.12 1.12 0 1 0 1.12 1.11 1.11 1.11 0 0 0 -1.12-1.12z" fill="#1a3a67" stroke="#1a3a67" stroke-miterlimit="10" stroke-width=".5"></path><path d="m183.91 193.68a2 2 0 1 1 2-2 2 2 0 0 1 -2 2zm0-3.14a1.12 1.12 0 1 0 1.11 1.11 1.12 1.12 0 0 0 -1.11-1.11z" fill="#1a3a67" stroke="#1a3a67" stroke-miterlimit="10" stroke-width=".5"></path><path d="m183.3 216.1a2 2 0 1 1 2-2 2 2 0 0 1 -2 2zm0-3.15a1.12 1.12 0 1 0 1.12 1.12 1.12 1.12 0 0 0 -1.12-1.07z" fill="#1a3a67" stroke="#1a3a67" stroke-miterlimit="10" stroke-width=".5"></path><path d="m174.06 235.49a2 2 0 1 1 2-2 2 2 0 0 1 -2 2zm0-3.14a1.12 1.12 0 1 0 1.12 1.11 1.11 1.11 0 0 0 -1.12-1.11z" fill="#1a3a67" stroke="#1a3a67" stroke-miterlimit="10" stroke-width=".5"></path><path d="m154.52 213.62a2 2 0 1 1 2-2 2 2 0 0 1 -2 2zm0-3.15a1.12 1.12 0 1 0 1.12 1.12 1.12 1.12 0 0 0 -1.12-1.12z" fill="#1a3a67" stroke="#1a3a67" stroke-miterlimit="10" stroke-width=".5"></path><path d="m160.85 203.52a2 2 0 1 1 2-2 2 2 0 0 1 -2 2zm0-3.14a1.12 1.12 0 1 0 1.12 1.11 1.11 1.11 0 0 0 -1.12-1.11z" fill="#1a3a67" stroke="#1a3a67" stroke-miterlimit="10" stroke-width=".5"></path><path d="m159.66 223.39a2 2 0 1 1 2-2 2 2 0 0 1 -2 2zm0-3.15a1.12 1.12 0 1 0 1.12 1.12 1.12 1.12 0 0 0 -1.12-1.12z" fill="#1a3a67" stroke="#1a3a67" stroke-miterlimit="10" stroke-width=".5"></path><path d="m165.52 249.05a2 2 0 1 1 2-2 2 2 0 0 1 -2 2zm0-3.14a1.12 1.12 0 1 0 1.12 1.11 1.12 1.12 0 0 0 -1.12-1.11z" fill="#1a3a67" stroke="#1a3a67" stroke-miterlimit="10" stroke-width=".5"></path><path d="m153.73 266.67a2 2 0 1 1 2-2 2 2 0 0 1 -2 2zm0-3.14a1.12 1.12 0 1 0 1.11 1.11 1.12 1.12 0 0 0 -1.11-1.11z" fill="#1a3a67" stroke="#1a3a67" stroke-miterlimit="10" stroke-width=".5"></path><path d="m142.3 281.53a2 2 0 1 1 2-2 2 2 0 0 1 -2 2zm0-3.15a1.12 1.12 0 1 0 1.12 1.12 1.12 1.12 0 0 0 -1.12-1.12z" fill="#1a3a67" stroke="#1a3a67" stroke-miterlimit="10" stroke-width=".5"></path><path d="m129 297a2 2 0 1 1 2-2 2 2 0 0 1 -2 2zm0-3.15a1.12 1.12 0 1 0 1.12 1.12 1.12 1.12 0 0 0 -1.12-1.16z" fill="#1a3a67" stroke="#1a3a67" stroke-miterlimit="10" stroke-width=".5"></path><path d="m113.86 313.73a2 2 0 1 1 2-2 2 2 0 0 1 -2 2zm0-3.15a1.12 1.12 0 1 0 1.11 1.11 1.12 1.12 0 0 0 -1.11-1.11z" fill="#1a3a67" stroke="#1a3a67" stroke-miterlimit="10" stroke-width=".5"></path><path d="m103.6 303.75a2 2 0 1 1 2-2 2 2 0 0 1 -2 2zm0-3.15a1.12 1.12 0 1 0 1.11 1.12 1.12 1.12 0 0 0 -1.11-1.12z" fill="#1a3a67" stroke="#1a3a67" stroke-miterlimit="10" stroke-width=".5"></path><path d="m132.12 196.15a2 2 0 1 1 2-2 2 2 0 0 1 -2 2zm0-3.15a1.12 1.12 0 1 0 1.11 1.12 1.12 1.12 0 0 0 -1.11-1.12z" fill="#1a3a67" stroke="#1a3a67" stroke-miterlimit="10" stroke-width=".5"></path><path d="m112.28 203.31a2 2 0 1 1 2-2 2 2 0 0 1 -2 2zm0-3.15a1.12 1.12 0 1 0 1.12 1.12 1.12 1.12 0 0 0 -1.12-1.12z" fill="#1a3a67" stroke="#1a3a67" stroke-miterlimit="10" stroke-width=".5"></path><path d="m123 201.73a2 2 0 1 1 2-2 2 2 0 0 1 -2 2zm0-3.14a1.12 1.12 0 1 0 1.11 1.11 1.12 1.12 0 0 0 -1.11-1.11z" fill="#1a3a67" stroke="#1a3a67" stroke-miterlimit="10" stroke-width=".5"></path><path d="m93.49 195.26a2 2 0 1 1 2-2 2 2 0 0 1 -2 2zm0-3.15a1.12 1.12 0 1 0 1.11 1.12 1.12 1.12 0 0 0 -1.11-1.12z" fill="#1a3a67" stroke="#1a3a67" stroke-miterlimit="10" stroke-width=".5"></path><path d="m102 201.31a2 2 0 1 1 2-2 2 2 0 0 1 -2 2zm0-3.15a1.12 1.12 0 1 0 1.12 1.12 1.12 1.12 0 0 0 -1.12-1.12z" fill="#1a3a67" stroke="#1a3a67" stroke-miterlimit="10" stroke-width=".5"></path><path d="m88.77 188.14a2 2 0 1 1 2-2 2 2 0 0 1 -2 2zm0-3.15a1.12 1.12 0 1 0 1.11 1.12 1.12 1.12 0 0 0 -1.11-1.11z" fill="#1a3a67" stroke="#1a3a67" stroke-miterlimit="10" stroke-width=".5"></path><path d="m61 174.32a2 2 0 1 1 2-2 2 2 0 0 1 -2 2zm0-3.15a1.12 1.12 0 1 0 1.12 1.12 1.12 1.12 0 0 0 -1.12-1.12z" fill="#1a3a67" stroke="#1a3a67" stroke-miterlimit="10" stroke-width=".5"></path><path d="m52.92 163.26a2 2 0 1 1 2-2 2 2 0 0 1 -2 2zm0-3.15a1.12 1.12 0 1 0 1.08 1.12 1.12 1.12 0 0 0 -1.08-1.12z" fill="#1a3a67" stroke="#1a3a67" stroke-miterlimit="10" stroke-width=".5"></path><path d="m41.56 194.58a2 2 0 1 1 2-2 2 2 0 0 1 -2 2zm0-3.15a1.12 1.12 0 1 0 1.12 1.12 1.12 1.12 0 0 0 -1.12-1.12z" fill="#1a3a67" stroke="#1a3a67" stroke-miterlimit="10" stroke-width=".5"></path><path d="m53.48 209.59a2 2 0 1 1 2-2 2 2 0 0 1 -2 2zm0-3.15a1.12 1.12 0 1 0 1.12 1.12 1.12 1.12 0 0 0 -1.12-1.12z" fill="#1a3a67" stroke="#1a3a67" stroke-miterlimit="10" stroke-width=".5"></path><path d="m55.06 188.14a2 2 0 1 1 2-2 2 2 0 0 1 -2 2zm0-3.15a1.12 1.12 0 1 0 1.11 1.12 1.12 1.12 0 0 0 -1.11-1.11z" fill="#1a3a67" stroke="#1a3a67" stroke-miterlimit="10" stroke-width=".5"></path><path d="m77.9 197.54a2 2 0 1 1 2-2 2 2 0 0 1 -2 2zm0-3.14a1.12 1.12 0 1 0 1.1 1.11 1.11 1.11 0 0 0 -1.1-1.11z" fill="#1a3a67" stroke="#1a3a67" stroke-miterlimit="10" stroke-width=".5"></path><path d="m69.81 198.16a2 2 0 1 1 2-2 2 2 0 0 1 -2 2zm0-3.15a1.12 1.12 0 1 0 1.12 1.12 1.12 1.12 0 0 0 -1.12-1.13z" fill="#1a3a67" stroke="#1a3a67" stroke-miterlimit="10" stroke-width=".5"></path><path d="m79.71 206.33a2 2 0 1 1 2-2 2 2 0 0 1 -2 2zm0-3.15a1.12 1.12 0 1 0 1.11 1.12 1.12 1.12 0 0 0 -1.11-1.12z" fill="#1a3a67" stroke="#1a3a67" stroke-miterlimit="10" stroke-width=".5"></path><path d="m73.38 246.37a2 2 0 1 1 2-2 2 2 0 0 1 -2 2zm0-3.15a1.12 1.12 0 1 0 1.12 1.12 1.12 1.12 0 0 0 -1.12-1.12z" fill="#1a3a67" stroke="#1a3a67" stroke-miterlimit="10" stroke-width=".5"></path><path d="m78.9 249.05a2 2 0 1 1 2-2 2 2 0 0 1 -2 2zm0-3.14a1.12 1.12 0 1 0 1.1 1.09 1.12 1.12 0 0 0 -1.1-1.09z" fill="#1a3a67" stroke="#1a3a67" stroke-miterlimit="10" stroke-width=".5"></path><path d="m93.86 212.65a2 2 0 1 1 2-2 2 2 0 0 1 -2 2zm0-3.15a1.12 1.12 0 1 0 1.14 1.11 1.12 1.12 0 0 0 -1.14-1.11z" fill="#1a3a67" stroke="#1a3a67" stroke-miterlimit="10" stroke-width=".5"></path><path d="m92.49 243.05a2 2 0 1 1 2-2 2 2 0 0 1 -2 2zm0-3.15a1.12 1.12 0 1 0 1.12 1.1 1.12 1.12 0 0 0 -1.12-1.1z" fill="#1a3a67" stroke="#1a3a67" stroke-miterlimit="10" stroke-width=".5"></path><path d="m103.6 227.52a2 2 0 1 1 2-2 2 2 0 0 1 -2 2zm0-3.15a1.12 1.12 0 1 0 1.11 1.12 1.12 1.12 0 0 0 -1.11-1.12z" fill="#1a3a67" stroke="#1a3a67" stroke-miterlimit="10" stroke-width=".5"></path><path d="m131.46 241.38a2 2 0 1 1 2-2 2 2 0 0 1 -2 2zm0-3.14a1.12 1.12 0 1 0 1.11 1.11 1.12 1.12 0 0 0 -1.11-1.11z" fill="#1a3a67" stroke="#1a3a67" stroke-miterlimit="10" stroke-width=".5"></path><path d="m93.49 274.49a2 2 0 1 1 2-2 2 2 0 0 1 -2 2zm0-3.15a1.12 1.12 0 1 0 1.11 1.12 1.12 1.12 0 0 0 -1.11-1.12z" fill="#1a3a67" stroke="#1a3a67" stroke-miterlimit="10" stroke-width=".5"></path><path d="m109.84 280.85a2 2 0 1 1 2-2 2 2 0 0 1 -2 2zm0-3.15a1.12 1.12 0 1 0 1.12 1.12 1.12 1.12 0 0 0 -1.12-1.12z" fill="#1a3a67" stroke="#1a3a67" stroke-miterlimit="10" stroke-width=".5"></path><path d="m119.21 251.71a2 2 0 1 1 2-2 2 2 0 0 1 -2 2zm0-3.15a1.12 1.12 0 1 0 1.12 1.12 1.12 1.12 0 0 0 -1.12-1.12z" fill="#1a3a67" stroke="#1a3a67" stroke-miterlimit="10" stroke-width=".5"></path><path d="m132.86 248.37a2 2 0 1 1 2-2 2 2 0 0 1 -2 2zm0-3.14a1.12 1.12 0 1 0 1.11 1.11 1.12 1.12 0 0 0 -1.11-1.11z" fill="#1a3a67" stroke="#1a3a67" stroke-miterlimit="10" stroke-width=".5"></path><path d="m137.15 217.88a2 2 0 1 1 2-2 2 2 0 0 1 -2 2zm0-3.14a1.12 1.12 0 1 0 1.11 1.11 1.12 1.12 0 0 0 -1.11-1.11z" fill="#1a3a67" stroke="#1a3a67" stroke-miterlimit="10" stroke-width=".5"></path><path d="m141.29 232.74a2 2 0 1 1 2-2 2 2 0 0 1 -2 2zm0-3.15a1.12 1.12 0 1 0 1.11 1.11 1.12 1.12 0 0 0 -1.11-1.11z" fill="#1a3a67" stroke="#1a3a67" stroke-miterlimit="10" stroke-width=".5"></path><path d="m148.29 239.9a2 2 0 1 1 2-2 2 2 0 0 1 -2 2zm0-3.15a1.12 1.12 0 1 0 1.12 1.12 1.12 1.12 0 0 0 -1.12-1.12z" fill="#1a3a67" stroke="#1a3a67" stroke-miterlimit="10" stroke-width=".5"></path><path d="m148.07 232.24a2 2 0 1 1 2-2 2 2 0 0 1 -2 2zm0-3.14a1.12 1.12 0 1 0 1.12 1.11 1.12 1.12 0 0 0 -1.12-1.11z" fill="#1a3a67" stroke="#1a3a67" stroke-miterlimit="10" stroke-width=".5"></path><path d="m154 232.24a2 2 0 1 1 2-2 2 2 0 0 1 -2 2zm0-3.14a1.12 1.12 0 1 0 1.12 1.11 1.11 1.11 0 0 0 -1.12-1.11z" fill="#1a3a67" stroke="#1a3a67" stroke-miterlimit="10" stroke-width=".5"></path><path d="m137.05 208.78a2 2 0 1 1 2-2 2 2 0 0 1 -2 2zm0-3.14a1.12 1.12 0 1 0 1.12 1.11 1.12 1.12 0 0 0 -1.12-1.11z" fill="#1a3a67" stroke="#1a3a67" stroke-miterlimit="10" stroke-width=".5"></path><path d="m75.27 169a2 2 0 1 1 2-2 2 2 0 0 1 -2 2zm0-3.15a1.12 1.12 0 1 0 1.11 1.15 1.12 1.12 0 0 0 -1.11-1.12z" fill="#1a3a67" stroke="#1a3a67" stroke-miterlimit="10" stroke-width=".5"></path><path d="m76.84 176.11a2 2 0 1 1 2-2 2 2 0 0 1 -2 2zm0-3.15a1.12 1.12 0 1 0 1.16 1.12 1.12 1.12 0 0 0 -1.16-1.08z" fill="#1a3a67" stroke="#1a3a67" stroke-miterlimit="10" stroke-width=".5"></path><path d="m68.71 151.54a2 2 0 1 1 2-2 2 2 0 0 1 -2 2zm0-3.15a1.12 1.12 0 1 0 1.12 1.12 1.12 1.12 0 0 0 -1.12-1.12z" fill="#1a3a67" stroke="#1a3a67" stroke-miterlimit="10" stroke-width=".5"></path><path d="m90.34 165.88a2 2 0 1 1 2-2 2 2 0 0 1 -2 2zm0-3.15a1.12 1.12 0 1 0 1.12 1.12 1.12 1.12 0 0 0 -1.12-1.12z" fill="#1a3a67" stroke="#1a3a67" stroke-miterlimit="10" stroke-width=".5"></path><path d="m87.19 177.68a2 2 0 1 1 2-2 2 2 0 0 1 -2 2zm0-3.14a1.12 1.12 0 1 0 1.12 1.11 1.11 1.11 0 0 0 -1.12-1.11z" fill="#1a3a67" stroke="#1a3a67" stroke-miterlimit="10" stroke-width=".5"></path><path d="m102 154.09a2 2 0 1 1 2-2 2 2 0 0 1 -2 2zm0-3.15a1.12 1.12 0 1 0 1.12 1.12 1.12 1.12 0 0 0 -1.12-1.12z" fill="#1a3a67" stroke="#1a3a67" stroke-miterlimit="10" stroke-width=".5"></path><path d="m168.67 160.91a2 2 0 1 1 2-2 2 2 0 0 1 -2 2zm0-3.15a1.12 1.12 0 1 0 1.12 1.11 1.12 1.12 0 0 0 -1.12-1.11z" fill="#1a3a67" stroke="#1a3a67" stroke-miterlimit="10" stroke-width=".5"></path><path d="m163.69 184a2 2 0 1 1 2-2 2 2 0 0 1 -2 2zm0-3.15a1.12 1.12 0 1 0 1.12 1.12 1.12 1.12 0 0 0 -1.12-1.15z" fill="#1a3a67" stroke="#1a3a67" stroke-miterlimit="10" stroke-width=".5"></path><path d="m169.73 195.26a2 2 0 1 1 2-2 2 2 0 0 1 -2 2zm0-3.15a1.12 1.12 0 1 0 1.12 1.12 1.12 1.12 0 0 0 -1.12-1.12z" fill="#1a3a67" stroke="#1a3a67" stroke-miterlimit="10" stroke-width=".5"></path><path d="m158 185.54a2 2 0 1 1 2-2 2 2 0 0 1 -2 2zm0-3.14a1.12 1.12 0 1 0 1.12 1.11 1.11 1.11 0 0 0 -1.12-1.11z" fill="#1a3a67" stroke="#1a3a67" stroke-miterlimit="10" stroke-width=".5"></path><path d="m156.46 163.26a2 2 0 1 1 2-2 2 2 0 0 1 -2 2zm0-3.15a1.12 1.12 0 1 0 1.11 1.12 1.12 1.12 0 0 0 -1.11-1.12z" fill="#1a3a67" stroke="#1a3a67" stroke-miterlimit="10" stroke-width=".5"></path><path d="m150.87 151.54a2 2 0 1 1 2-2 2 2 0 0 1 -2 2zm0-3.15a1.12 1.12 0 1 0 1.12 1.12 1.12 1.12 0 0 0 -1.12-1.12z" fill="#1a3a67" stroke="#1a3a67" stroke-miterlimit="10" stroke-width=".5"></path><path d="m145.57 152.52a2 2 0 1 1 2-2 2 2 0 0 1 -2 2zm0-3.15a1.12 1.12 0 1 0 1.12 1.12 1.12 1.12 0 0 0 -1.12-1.12z" fill="#1a3a67" stroke="#1a3a67" stroke-miterlimit="10" stroke-width=".5"></path><path d="m137.05 127.31a2 2 0 1 1 2-2 2 2 0 0 1 -2 2zm0-3.14a1.12 1.12 0 1 0 1.12 1.11 1.12 1.12 0 0 0 -1.12-1.11z" fill="#1a3a67" stroke="#1a3a67" stroke-miterlimit="10" stroke-width=".5"></path><path d="m136 118.35a2 2 0 1 1 2-2 2 2 0 0 1 -2 2zm0-3.15a1.12 1.12 0 1 0 1.12 1.12 1.12 1.12 0 0 0 -1.12-1.12z" fill="#1a3a67" stroke="#1a3a67" stroke-miterlimit="10" stroke-width=".5"></path><path d="m137.71 153.11a2 2 0 1 1 2-2 2 2 0 0 1 -2 2zm0-3.15a1.12 1.12 0 1 0 1.11 1.12 1.12 1.12 0 0 0 -1.11-1.08z" fill="#1a3a67" stroke="#1a3a67" stroke-miterlimit="10" stroke-width=".5"></path><path d="m164.35 144a2 2 0 1 1 2-2 2 2 0 0 1 -2 2zm0-3.15a1.12 1.12 0 1 0 1.12 1.12 1.12 1.12 0 0 0 -1.12-1.12z" fill="#1a3a67" stroke="#1a3a67" stroke-miterlimit="10" stroke-width=".5"></path><path d="m156.1 177.68a2 2 0 1 1 2-2 2 2 0 0 1 -2 2zm0-3.14a1.12 1.12 0 1 0 1.11 1.11 1.12 1.12 0 0 0 -1.11-1.11z" fill="#1a3a67" stroke="#1a3a67" stroke-miterlimit="10" stroke-width=".5"></path><path d="m143.71 120.43a2 2 0 1 1 2-2 2 2 0 0 1 -2 2zm0-3.14a1.12 1.12 0 1 0 1.11 1.11 1.12 1.12 0 0 0 -1.11-1.11z" fill="#1a3a67" stroke="#1a3a67" stroke-miterlimit="10" stroke-width=".5"></path><path d="m148.07 144a2 2 0 1 1 2-2 2 2 0 0 1 -2 2zm0-3.15a1.12 1.12 0 1 0 1.12 1.12 1.12 1.12 0 0 0 -1.12-1.12z" fill="#1a3a67" stroke="#1a3a67" stroke-miterlimit="10" stroke-width=".5"></path><path d="m124.54 154.09a2 2 0 1 1 2-2 2 2 0 0 1 -2 2zm0-3.15a1.12 1.12 0 1 0 1.12 1.12 1.12 1.12 0 0 0 -1.12-1.12z" fill="#1a3a67" stroke="#1a3a67" stroke-miterlimit="10" stroke-width=".5"></path><path d="m114.47 151.54a2 2 0 1 1 2-2 2 2 0 0 1 -2 2zm0-3.15a1.12 1.12 0 1 0 1.11 1.12 1.12 1.12 0 0 0 -1.11-1.12z" fill="#1a3a67" stroke="#1a3a67" stroke-miterlimit="10" stroke-width=".5"></path><path d="m137.58 165.88a2 2 0 1 1 2-2 2 2 0 0 1 -2 2zm0-3.15a1.12 1.12 0 1 0 1.11 1.12 1.12 1.12 0 0 0 -1.11-1.12z" fill="#1a3a67" stroke="#1a3a67" stroke-miterlimit="10" stroke-width=".5"></path><path d="m132.12 158.54a2 2 0 1 1 2-2 2 2 0 0 1 -2 2zm0-3.15a1.12 1.12 0 1 0 1.11 1.12 1.12 1.12 0 0 0 -1.11-1.12z" fill="#1a3a67" stroke="#1a3a67" stroke-miterlimit="10" stroke-width=".5"></path><path d="m139.15 185.54a2 2 0 1 1 2-2 2 2 0 0 1 -2 2zm0-3.14a1.12 1.12 0 1 0 1.12 1.11 1.12 1.12 0 0 0 -1.12-1.11z" fill="#1a3a67" stroke="#1a3a67" stroke-miterlimit="10" stroke-width=".5"></path><path d="m140.47 192.55a2 2 0 1 1 2-2 2 2 0 0 1 -2 2zm0-3.14a1.12 1.12 0 1 0 1.12 1.11 1.12 1.12 0 0 0 -1.12-1.11z" fill="#1a3a67" stroke="#1a3a67" stroke-miterlimit="10" stroke-width=".5"></path><path d="m140.52 174.32a2 2 0 1 1 2-2 2 2 0 0 1 -2 2zm0-3.15a1.12 1.12 0 1 0 1.12 1.12 1.12 1.12 0 0 0 -1.12-1.12z" fill="#1a3a67" stroke="#1a3a67" stroke-miterlimit="10" stroke-width=".5"></path><path d="m117 128.53a2 2 0 1 1 2-2 2 2 0 0 1 -2 2zm0-3.15a1.12 1.12 0 1 0 1.12 1.12 1.12 1.12 0 0 0 -1.12-1.12z" fill="#1a3a67" stroke="#1a3a67" stroke-miterlimit="10" stroke-width=".5"></path><path d="m123.75 128.53a2 2 0 1 1 2-2 2 2 0 0 1 -2 2zm0-3.15a1.12 1.12 0 1 0 1.12 1.12 1.12 1.12 0 0 0 -1.12-1.12z" fill="#1a3a67" stroke="#1a3a67" stroke-miterlimit="10" stroke-width=".5"></path><path d="m119.32 141.63a2 2 0 1 1 2-2 2 2 0 0 1 -2 2zm0-3.15a1.12 1.12 0 1 0 1.11 1.12 1.12 1.12 0 0 0 -1.11-1.12z" fill="#1a3a67" stroke="#1a3a67" stroke-miterlimit="10" stroke-width=".5"></path><path d="m95.52 122.46a2 2 0 1 1 2-2 2 2 0 0 1 -2 2zm0-3.15a1.12 1.12 0 1 0 1.12 1.12 1.12 1.12 0 0 0 -1.12-1.12z" fill="#1a3a67" stroke="#1a3a67" stroke-miterlimit="10" stroke-width=".5"></path><path d="m120.12 100.7a2 2 0 1 1 2-2 2 2 0 0 1 -2 2zm0-3.15a1.12 1.12 0 1 0 1.12 1.12 1.12 1.12 0 0 0 -1.12-1.12z" fill="#1a3a67" stroke="#1a3a67" stroke-miterlimit="10" stroke-width=".5"></path><path d="m107 114.31a2 2 0 1 1 2-2 2 2 0 0 1 -2 2zm0-3.15a1.12 1.12 0 1 0 1.11 1.12 1.12 1.12 0 0 0 -1.11-1.12z" fill="#1a3a67" stroke="#1a3a67" stroke-miterlimit="10" stroke-width=".5"></path><path d="m100.45 101.62a2 2 0 1 1 2-2 2 2 0 0 1 -2 2zm0-3.15a1.12 1.12 0 1 0 1.12 1.12 1.12 1.12 0 0 0 -1.12-1.12z" fill="#1a3a67" stroke="#1a3a67" stroke-miterlimit="10" stroke-width=".5"></path><path d="m100.45 114.31a2 2 0 1 1 2-2 2 2 0 0 1 -2 2zm0-3.15a1.12 1.12 0 1 0 1.12 1.12 1.12 1.12 0 0 0 -1.12-1.12z" fill="#1a3a67" stroke="#1a3a67" stroke-miterlimit="10" stroke-width=".5"></path><path d="m85.62 105.37a2 2 0 1 1 2-2 2 2 0 0 1 -2 2zm0-3.15a1.12 1.12 0 1 0 1.12 1.12 1.12 1.12 0 0 0 -1.12-1.12z" fill="#1a3a67" stroke="#1a3a67" stroke-miterlimit="10" stroke-width=".5"></path><path d="m93.49 136.13a2 2 0 1 1 2-2 2 2 0 0 1 -2 2zm0-3.14a1.12 1.12 0 1 0 1.11 1.11 1.12 1.12 0 0 0 -1.11-1.1z" fill="#1a3a67" stroke="#1a3a67" stroke-miterlimit="10" stroke-width=".5"></path><path d="m80.83 147.15a2 2 0 1 1 2-2 2 2 0 0 1 -2 2zm0-3.15a1.12 1.12 0 1 0 1.11 1.12 1.12 1.12 0 0 0 -1.11-1.12z" fill="#1a3a67" stroke="#1a3a67" stroke-miterlimit="10" stroke-width=".5"></path><path d="m73.69 111.16a2 2 0 1 1 2-2 2 2 0 0 1 -2 2zm0-3.14a1.12 1.12 0 1 0 1.12 1.11 1.11 1.11 0 0 0 -1.12-1.13z" fill="#1a3a67" stroke="#1a3a67" stroke-miterlimit="10" stroke-width=".5"></path><path d="m57.61 122.8a2 2 0 1 1 2-2 2 2 0 0 1 -2 2zm0-3.15a1.12 1.12 0 1 0 1.12 1.12 1.12 1.12 0 0 0 -1.12-1.12z" fill="#1a3a67" stroke="#1a3a67" stroke-miterlimit="10" stroke-width=".5"></path><path d="m50.81 131.68a2 2 0 1 1 2-2 2 2 0 0 1 -2 2zm0-3.15a1.12 1.12 0 1 0 1.12 1.11 1.11 1.11 0 0 0 -1.12-1.11z" fill="#1a3a67" stroke="#1a3a67" stroke-miterlimit="10" stroke-width=".5"></path><path d="m44.47 141.71a2 2 0 1 1 2-2 2 2 0 0 1 -2 2zm0-3.15a1.12 1.12 0 1 0 1.12 1.12 1.12 1.12 0 0 0 -1.12-1.12z" fill="#1a3a67" stroke="#1a3a67" stroke-miterlimit="10" stroke-width=".5"></path><path d="m40 151.2a2 2 0 1 1 2-2 2 2 0 0 1 -2 2zm0-3.15a1.12 1.12 0 1 0 1.11 1.12 1.12 1.12 0 0 0 -1.11-1.12z" fill="#1a3a67" stroke="#1a3a67" stroke-miterlimit="10" stroke-width=".5"></path><path d="m36.92 164.05a2 2 0 1 1 2-2 2 2 0 0 1 -2 2zm0-3.14a1.12 1.12 0 1 0 1.08 1.09 1.12 1.12 0 0 0 -1.08-1.09z" fill="#1a3a67" stroke="#1a3a67" stroke-miterlimit="10" stroke-width=".5"></path><path d="m36.92 188.69a2 2 0 1 1 2-2 2 2 0 0 1 -2 2zm0-3.15a1.12 1.12 0 1 0 1.08 1.12 1.12 1.12 0 0 0 -1.08-1.12z" fill="#1a3a67" stroke="#1a3a67" stroke-miterlimit="10" stroke-width=".5"></path><path d="m42.9 213.62a2 2 0 1 1 2-2 2 2 0 0 1 -2 2zm0-3.15a1.12 1.12 0 1 0 1.1 1.12 1.12 1.12 0 0 0 -1.1-1.12z" fill="#1a3a67" stroke="#1a3a67" stroke-miterlimit="10" stroke-width=".5"></path><path d="m50.1 229.1a2 2 0 1 1 2-2 2 2 0 0 1 -2 2zm0-3.15a1.12 1.12 0 1 0 1.12 1.11 1.11 1.11 0 0 0 -1.12-1.06z" fill="#1a3a67" stroke="#1a3a67" stroke-miterlimit="10" stroke-width=".5"></path><path d="m62.59 250.63a2 2 0 1 1 2-2 2 2 0 0 1 -2 2zm0-3.15a1.12 1.12 0 1 0 1.12 1.12 1.12 1.12 0 0 0 -1.12-1.12z" fill="#1a3a67" stroke="#1a3a67" stroke-miterlimit="10" stroke-width=".5"></path><path d="m56 239.9a2 2 0 1 1 2-2 2 2 0 0 1 -2 2zm0-3.15a1.12 1.12 0 1 0 1.11 1.12 1.12 1.12 0 0 0 -1.11-1.12z" fill="#1a3a67" stroke="#1a3a67" stroke-miterlimit="10" stroke-width=".5"></path><path d="m68.51 259.5a2 2 0 1 1 2-2 2 2 0 0 1 -2 2zm0-3.14a1.12 1.12 0 1 0 1.11 1.11 1.12 1.12 0 0 0 -1.11-1.11z" fill="#1a3a67" stroke="#1a3a67" stroke-miterlimit="10" stroke-width=".5"></path><path d="m73.69 266.67a2 2 0 1 1 2-2 2 2 0 0 1 -2 2zm0-3.14a1.12 1.12 0 1 0 1.12 1.11 1.11 1.11 0 0 0 -1.12-1.11z" fill="#1a3a67" stroke="#1a3a67" stroke-miterlimit="10" stroke-width=".5"></path><path d="m78.9 273.4a2 2 0 1 1 2-2 2 2 0 0 1 -2 2zm0-3.15a1.12 1.12 0 1 0 1.1 1.12 1.12 1.12 0 0 0 -1.1-1.12z" fill="#1a3a67" stroke="#1a3a67" stroke-miterlimit="10" stroke-width=".5"></path><path d="m95.06 293a2 2 0 1 1 2-2 2 2 0 0 1 -2 2zm0-3.15a1.12 1.12 0 1 0 1.12 1.12 1.12 1.12 0 0 0 -1.12-1.17z" fill="#1a3a67" stroke="#1a3a67" stroke-miterlimit="10" stroke-width=".5"></path><path d="m136 288.71a2 2 0 1 1 2-2 2 2 0 0 1 -2 2zm0-3.14a1.12 1.12 0 1 0 1.12 1.11 1.11 1.11 0 0 0 -1.12-1.11z" fill="#1a3a67" stroke="#1a3a67" stroke-miterlimit="10" stroke-width=".5"></path><path d="m85.62 282.43a2 2 0 1 1 2-2 2 2 0 0 1 -2 2zm0-3.15a1.12 1.12 0 1 0 1.12 1.11 1.12 1.12 0 0 0 -1.12-1.11z" fill="#1a3a67" stroke="#1a3a67" stroke-miterlimit="10" stroke-width=".5"></path><path d="m97.3 268.25a2 2 0 1 1 2-2 2 2 0 0 1 -2 2zm0-3.15a1.12 1.12 0 1 0 1.12 1.12 1.12 1.12 0 0 0 -1.12-1.12z" fill="#1a3a67" stroke="#1a3a67" stroke-miterlimit="10" stroke-width=".5"></path></svg>