<svg xmlns="http://www.w3.org/2000/svg" viewBox="0 0 269.37 260.15"><g fill="#dcdbdb"><path d="m184.01 49.31 49.33 85.44-11.23 19.46 31.92 7.11 15.34-26.57-67.34-116.64h-1.08z"></path><path d="m85.36 49.31h87.34l15.92-31.2h-121.28l-15.76 27.31 23.79 21.19z"></path><path d="m184.01 220.19h-40.36l4.06 31.2h54.32l46.9-81.24-30.56-9.47z"></path><path d="m121.41 220.19-2.81 31.2h7.98l1.59-31.2z"></path><path d="m36.03 134.75 26.24-45.46-27.55-14.67-34.72 60.13z"></path><path d="m132.54 220.19v31.2h9.55l-2.56-31.2z"></path><path d="m85.36 220.19-44.99-77.91-34.44 2.75 61.41 106.36h46.01l4.21-31.2z"></path><path d="m72.07 72.33-24.96-19.17-9.12 15.79 26.68 16.19z"></path></g><path d="m79.36 249.19a131.14 131.14 0 0 1 -46.36-36.36 129.37 129.37 0 0 1 -16.09-25.52 131.44 131.44 0 0 1 -10-29.51 130.59 130.59 0 0 1 100.93-154.86l.44 2.1a128.42 128.42 0 0 0 -99.28 152.32 129.33 129.33 0 0 0 9.82 29 128.52 128.52 0 0 0 36.66 45.64 130.15 130.15 0 0 0 24.79 15.25z" fill="#1a3967"></path><path d="m102.57 11.46 10.16-8.13-12.58-3.33z" fill="#1a3967"></path><path d="m106.19 257.25c-.93-.2-1.88-.41-2.81-.63l.49-2.09c.92.22 1.85.43 2.77.62z" fill="#5b9bd3"></path><path d="m134.6 260.15v-2.14c1.87 0 3.76-.08 5.63-.17l.11 2.14c-1.92.1-3.84.16-5.74.17zm-2.86 0c-1.9 0-3.82-.09-5.72-.2l.12-2.15c1.87.11 3.76.18 5.63.21zm11.44-.34-.16-2.14c1.87-.14 3.76-.32 5.61-.54l.26 2.13c-1.89.21-3.81.4-5.71.54zm-20-.06c-1.9-.15-3.81-.35-5.7-.58l.27-2.13c1.85.23 3.74.42 5.6.57zm28.56-.86-.3-2.13c1.85-.26 3.72-.57 5.56-.91l.4 2.11c-1.88.34-3.79.65-5.67.92zm-37.09-.11c-1.88-.27-3.78-.59-5.64-.95l.4-2.11c1.84.35 3.7.67 5.55.94zm45.56-1.38-.44-2.1c1.83-.38 3.68-.81 5.49-1.27l.53 2.07c-1.85.47-3.73.9-5.59 1.29zm8.35-2-.58-2.06c1.8-.51 3.61-1.06 5.39-1.64l.66 2c-1.81.58-3.65 1.14-5.48 1.65zm8.19-2.58-.72-2c1.77-.62 3.54-1.29 5.27-2l.8 2c-1.77.64-3.57 1.32-5.36 1.95zm8-3.11-.84-2c1.71-.73 3.44-1.51 5.12-2.32l.93 1.93c-1.72.79-3.48 1.59-5.22 2.34zm7.78-3.63-1-1.92c1.66-.84 3.33-1.74 5-2.65l1.05 1.87c-1.67.88-3.37 1.79-5.06 2.62zm7.47-4.18-1-1.85c1.6-1 3.21-2 4.77-3l1.18 1.8c-1.64 1.06-3.28 2.08-4.95 3.05zm7.23-4.61-1.21-1.77c1.54-1.06 3.08-2.16 4.58-3.28l1.28 1.72c-1.48 1.14-3.04 2.26-4.61 3.33zm6.92-5.07-1.32-1.69c1.47-1.15 2.93-2.35 4.35-3.57l1.39 1.63c-1.4 1.24-2.88 2.46-4.38 3.63zm6.57-5.51-1.43-1.6c1.39-1.25 2.77-2.54 4.1-3.84l1.5 1.53c-1.31 1.33-2.71 2.64-4.13 3.91zm6.19-5.93-1.53-1.5c1.31-1.33 2.6-2.71 3.84-4.1l1.6 1.43c-1.22 1.39-2.54 2.82-3.82 4.17zm5.79-6.31-1.62-1.4c1.21-1.41 2.41-2.88 3.56-4.34l1.69 1.32c-1.13 1.49-2.33 2.95-3.59 4.42zm5.36-6.68-1.71-1.29c1.12-1.49 2.22-3 3.27-4.57l1.77 1.21c-1.03 1.57-2.15 3.13-3.29 4.65zm4.91-7-1.8-1.17c1-1.56 2-3.16 3-4.77l1.85 1.09c-.96 1.61-2.02 3.25-3.02 4.83zm4.44-7.33-1.87-1.05c.91-1.62 1.8-3.29 2.64-5l1.91 1c-.81 1.68-1.72 3.38-2.64 5.03zm3.94-7.61-1.93-.93c.8-1.68 1.58-3.41 2.31-5.13l2 .84c-.73 1.73-1.52 3.48-2.34 5.2zm3.44-7.87-2-.79c.69-1.73 1.35-3.51 2-5.27l2 .71c-.58 1.77-1.26 3.57-1.96 5.37zm2.91-8.07-2-.66c.58-1.77 1.12-3.58 1.62-5.39l2.07.58c-.51 1.81-1.06 3.65-1.65 5.45zm2.38-8.23-2.08-.53c.18-.7.36-1.41.52-2.11.27-1.12.52-2.26.75-3.37l2.1.43c-.24 1.14-.49 2.29-.76 3.43-.13.69-.31 1.47-.49 2.13zm1.85-8.38-2.11-.4c.34-1.83.65-3.7.91-5.55l2.12.3c-.22 1.86-.54 3.76-.85 5.63zm1.29-8.49-2.13-.25c.23-1.86.41-3.74.55-5.6l2.14.16c-.1 1.88-.29 3.79-.52 5.67zm.74-8.55-2.14-.11c.1-1.86.16-3.76.18-5.63h2.14c.02 1.9-.04 3.83-.14 5.72zm-2-8.55c0-1.87-.09-3.76-.19-5.63l2.14-.12c.11 1.9.17 3.82.2 5.72zm-.39-8.44c-.14-1.86-.33-3.74-.56-5.6l2.13-.26c.23 1.89.42 3.8.57 5.69zm-.94-8.39c-.27-1.84-.59-3.71-.94-5.54l2.11-.41c.36 1.87.68 3.76.95 5.64zm-1.5-8.3c-.39-1.83-.83-3.67-1.3-5.48l2.08-.54c.48 1.84.92 3.71 1.32 5.57zm-2-8.2c-.51-1.79-1.07-3.6-1.66-5.37l2-.68c.6 1.8 1.17 3.64 1.69 5.47zm-2.57-8c-.63-1.75-1.31-3.52-2-5.25l2-.81c.71 1.76 1.4 3.56 2 5.34zm-3.1-7.85c-.74-1.71-1.53-3.43-2.35-5.11l1.93-.94c.83 1.71 1.63 3.46 2.39 5.2zm-3.6-7.63c-.86-1.66-1.76-3.33-2.68-5l1.87-1.06c.93 1.65 1.85 3.34 2.72 5zm-4.1-7.38c-1-1.61-2-3.21-3-4.77l1.79-1.18c1 1.59 2.07 3.22 3 4.85zm-4.56-7.1c-1.06-1.54-2.17-3.08-3.3-4.56l1.71-1.3c1.14 1.52 2.27 3.08 3.35 4.64z" fill="#5b9bd3"></path><path d="m234.19 49.55c-.59-.74-1.19-1.48-1.79-2.21l1.65-1.34c.61.74 1.22 1.5 1.82 2.25z" fill="#5b9bd3"></path><path d="m159.65 248.58-.36-1.68a118.65 118.65 0 0 0 -1.86-232.55 117.85 117.85 0 0 0 -47.1.4 119.35 119.35 0 0 0 -27.61 9.47 117.74 117.74 0 0 0 -23.72 15.33 119.63 119.63 0 0 0 -33.07 44.18l-1.58-.73a121.39 121.39 0 0 1 33.56-44.77 120.37 120.37 0 1 1 101.74 210.35z" fill="#5b9bd3"></path><path d="m189.81 230.22h-110.25l-55.12-95.47 55.12-95.47h110.25l55.12 95.47zm-109.42-1.43h108.61l54.29-94-54.29-94.08h-108.61l-54.3 94z" fill="#fff"></path><path d="m133.19 205.12a71.82 71.82 0 0 1 -71.87-71.88h2a69.91 69.91 0 1 0 69.87-69.87v-2a71.88 71.88 0 1 1 0 143.75z" fill="#1a3967"></path><g fill="#dcdbdb"><path d="m129.57 197.11 1.78.08v-18.72a68.31 68.31 0 0 0 -12.9 1.2 113 113 0 0 0 11.12 17.44z"></path><path d="m106.16 183.08a123 123 0 0 0 14.39 12.92c1.34.27 2.7.48 4.06.66a114 114 0 0 1 -9.89-16.17 84.08 84.08 0 0 0 -8.56 2.59z"></path><path d="m109.66 155.08a98.33 98.33 0 0 0 7.11 21.16 71.82 71.82 0 0 1 14.58-1.46v-22.78a85.58 85.58 0 0 0 -21.69 3.06z"></path><path d="m102.45 184.53q-2.42 1-4.83 2.14a64.32 64.32 0 0 0 14.25 7 118.9 118.9 0 0 1 -9.42-9.14z"></path><path d="m117.67 88.48a128.62 128.62 0 0 0 -6.62 19.31c-.16.64-.31 1.28-.47 1.92a86.9 86.9 0 0 0 9 1.86 84.59 84.59 0 0 0 11.81 1v-22.8h-.24a71.54 71.54 0 0 1 -13.48-1.29z"></path><path d="m119.23 85a69.34 69.34 0 0 0 12.12 1.06v-19.21c-.62 0-1.24 0-1.86.08a121.23 121.23 0 0 0 -10.26 18.07z"></path><path d="m108.72 150 .24 1.49a88.72 88.72 0 0 1 22.39-3.11v-14.52h-23.78a98.82 98.82 0 0 0 1.15 16.14z"></path><path d="m109.79 113.32a108.25 108.25 0 0 0 -2.11 16.85h23.67v-14a86.75 86.75 0 0 1 -12.27-1 90 90 0 0 1 -9.29-1.85z"></path><path d="m106.23 112.31a96.93 96.93 0 0 1 -14.23-5.63q-.8 1.78-1.5 3.57a72.84 72.84 0 0 0 -4.85 19.92h18.35a112.85 112.85 0 0 1 2.23-17.86z"></path><path d="m167.11 85.89a113.69 113.69 0 0 1 9.34 15.41 91.46 91.46 0 0 0 10.44-6.3 66.61 66.61 0 0 0 -16.59-16.61q-3.17 1.83-6.29 3.34c.99 1.32 2.06 2.71 3.1 4.16z"></path><path d="m85.42 137.3a60.06 60.06 0 0 0 4.58 21.58 97.91 97.91 0 0 1 15.4-6.39c-.12-.68-.24-1.37-.34-2.06a102.47 102.47 0 0 1 -1.18-16.57h-18.45c-.03 1.14-.04 2.3-.01 3.44z"></path><path d="m115.48 84.25a128.53 128.53 0 0 1 9.24-16.88c-1.39.17-2.76.4-4.12.66a121.11 121.11 0 0 0 -13.12 13.9 81.53 81.53 0 0 0 8 2.32z"></path><path d="m113.09 177.08a101.39 101.39 0 0 1 -7-20.94 94.23 94.23 0 0 0 -14.6 6.12 79.62 79.62 0 0 0 12 17.88 86.65 86.65 0 0 1 9.6-3.06z"></path><path d="m105.07 85c-.77 1-1.55 2.05-2.32 3.13a110 110 0 0 0 -9.16 15.21 92 92 0 0 0 13.41 5.35c.15-.65.31-1.29.48-1.94a133.09 133.09 0 0 1 6.52-19.07 84.87 84.87 0 0 1 -8.93-2.68z"></path><path d="m99.81 85.89c.56-.78 1.11-1.54 1.67-2.28-2.57-1-5.14-2.22-7.72-3.52a65.91 65.91 0 0 0 -14.24 14.91 108.1 108.1 0 0 0 10.78 6.65 113.34 113.34 0 0 1 9.51-15.76z"></path><path d="m87.11 108.84c.51-1.28 1-2.56 1.62-3.85a110.25 110.25 0 0 1 -11.23-6.91 64.73 64.73 0 0 0 -9.5 32.09h14a76.39 76.39 0 0 1 5.11-21.33z"></path><path d="m113.27 69.91a64.74 64.74 0 0 0 -16.1 7.74c2.23 1.08 4.44 2 6.65 2.92a134.44 134.44 0 0 1 9.45-10.66z"></path><path d="m81.72 137.37c0-1.17 0-2.33 0-3.51h-13.72a64.84 64.84 0 0 0 9.7 32.45q4.45-3.09 9-5.66a63.88 63.88 0 0 1 -4.98-23.28z"></path><path d="m88.25 164c-2.86 1.63-5.7 3.41-8.49 5.36a65.08 65.08 0 0 0 7.33 8.73 66 66 0 0 0 7.08 6.13q2.85-1.42 5.7-2.65a82.45 82.45 0 0 1 -11.62-17.57z"></path><path d="m136.18 178.67-1.14-.08v18.6c.78 0 1.56-.06 2.34-.11a113 113 0 0 0 10.56-16.39 65.94 65.94 0 0 0 -11.76-2.02z"></path><path d="m155.41 193.35a65.55 65.55 0 0 0 11-5.17c-1.2-.66-2.39-1.27-3.58-1.86q-3.47 3.57-7.42 7.03z"></path><path d="m159.23 184.67a77.89 77.89 0 0 0 -7.67-2.92 116.51 116.51 0 0 1 -9.19 14.82c1.41-.2 2.81-.44 4.19-.73a124.65 124.65 0 0 0 12.67-11.17z"></path><path d="m149.64 177.32a98.38 98.38 0 0 0 7.52-21.77c-.8-.23-1.6-.44-2.42-.65a90.76 90.76 0 0 0 -19.7-2.84v22.83l1.44.1a69.65 69.65 0 0 1 13.16 2.33z"></path><path d="m185.2 137.37a63.72 63.72 0 0 1 -5.14 23.63 89.62 89.62 0 0 1 8.63 5.32 64.67 64.67 0 0 0 9.67-32.41h-13.18c.04 1.09.04 2.29.02 3.46z"></path><path d="m178.05 104.67c.62 1.39 1.21 2.78 1.76 4.17a76.39 76.39 0 0 1 5.19 21.33h13.4a64.66 64.66 0 0 0 -9.45-32 94.43 94.43 0 0 1 -10.9 6.5z"></path><path d="m165.4 183.5c1.49.76 3 1.56 4.5 2.42a66.2 66.2 0 0 0 16.75-16.56 89.47 89.47 0 0 0 -8.14-5 84.08 84.08 0 0 1 -13.11 19.14z"></path><path d="m157.87 151.91c.12-.65.23-1.3.33-2a98.82 98.82 0 0 0 1.15-16.09h-24.35v14.51a93.8 93.8 0 0 1 20.76 3z"></path><path d="m174.73 106.31a106.11 106.11 0 0 1 -14.14 5.52 112.17 112.17 0 0 1 2.35 18.34h18.32a73.23 73.23 0 0 0 -4.86-19.92c-.52-1.31-1.07-2.63-1.67-3.94z"></path><path d="m181.5 137.3c0-1.14 0-2.29 0-3.44h-18.5a102.47 102.47 0 0 1 -1.18 16.57c-.13.85-.27 1.7-.43 2.55a105.93 105.93 0 0 1 15.34 6.25 60.11 60.11 0 0 0 4.77-21.93z"></path><path d="m161.93 181.83a81.43 81.43 0 0 0 13.31-19.21 103.67 103.67 0 0 0 -14.54-6 101.45 101.45 0 0 1 -7.49 21.77 82.36 82.36 0 0 1 8.72 3.44z"></path><path d="m164.17 88.12c-1.21-1.69-2.42-3.29-3.61-4.79a84.1 84.1 0 0 1 -8.16 3.08 132.22 132.22 0 0 1 7 20.34c.13.49.25 1 .37 1.46a102 102 0 0 0 13.37-5.21 109.25 109.25 0 0 0 -8.97-14.88z"></path><path d="m166.81 76.12a64.83 64.83 0 0 0 -12.91-6c2.19 2.24 4.87 5.13 7.74 8.61q2.57-1.18 5.17-2.61z"></path><path d="m147.23 84a121.31 121.31 0 0 0 -9.77-17c-.81 0-1.61-.09-2.42-.11v19.11l1.14-.08a67.25 67.25 0 0 0 11.05-1.92z"></path><path d="m158.14 80.35a121.79 121.79 0 0 0 -11.66-12.18c-1.4-.29-2.8-.53-4.22-.72a128.66 128.66 0 0 1 8.61 15.55q3.62-1.1 7.27-2.65z"></path><path d="m156.23 109.25-.36-1.46a129.64 129.64 0 0 0 -7.07-20.34 70.58 70.58 0 0 1 -12.32 2.11l-1.44.1v22.82a90.74 90.74 0 0 0 19.7-2.83z"></path><path d="m157 112.86-1.24.33a95 95 0 0 1 -20.76 3v14h24.21a110.68 110.68 0 0 0 -2.21-17.33z"></path></g><circle cx="115.5" cy="85.96" fill="#929598" r="9.85" transform="matrix(.16022575 -.9870804 .9870804 .16022575 12.15 186.19)"></circle><circle cx="94.04" cy="189.19" fill="#5b9bd3" r="6.74" transform="matrix(.07097518 -.99747808 .99747808 .07097518 -101.35 269.58)"></circle><path d="m184 96.92a6.58 6.58 0 1 1 6.58 6.58 6.58 6.58 0 0 1 -6.58-6.58z" fill="#929598"></path><path d="m73.93 122.84-1-1.07 3.85-3.41 1 1.07zm6-5.31-1-1.07 3.89-3.46 1 1.07zm6-5.32-1-1.06 3.85-3.42 1 1.07zm6-5.31-1-1.07 3.85-3.42 1 1.07zm6-5.31-1-1.07 3.85-3.42.95 1.07zm6-5.32-.95-1.07 3.85-3.41 1 1.07z" fill="#5a5a5c"></path><path d="m193.61 172-2.07-.77.33-.89-.59-.59 1-1 2.07 2.09zm-4.75-1.76-4.86-1.79.5-1.34 4.83 1.79zm.4-2.52-3.62-3.66 1-1 3.63 3.65zm-7.91-.27-4.83-1.79.5-1.34 4.83 1.79zm-7.51-2.78-4.84-1.79.49-1.34 4.83 1.79zm9.78-2.64-3.62-3.65 1-1 3.63 3.66zm-17.29-.15-4.82-1.79.5-1.34 4.82 1.79zm-7.5-2.78-4.83-1.79.5-1.34 4.82 1.79zm19.17-2.75-3.62-3.65 1-1 3.63 3.65zm-26.66 0-4.83-1.79.5-1.34 4.83 1.79zm-7.51-2.78-.19-.07.5-1.34.19.07zm28.53-2.86-3.65-3.71 1-1 3.63 3.66zm-5.66-5.71-3.63-3.65 1-1 3.62 3.65zm-5.64-5.68-3.63-3.65 1-1 3.62 3.65zm-5.64-5.68-3.63-3.64 1-1 3.62 3.66zm-5.64-5.69-3.63-3.65 1-1 3.62 3.65zm-5.64-5.68-3.63-3.66 1-1 3.63 3.65zm-5.65-5.69-3.62-3.65 1-1 3.63 3.66zm-5.64-5.68-3.62-3.65 1-1 3.63 3.65zm-5.64-5.68-3.62-3.66 1-1 3.63 3.65zm-5.64-5.69-3.57-3.67 1-1 3.63 3.66z" fill="#5a5a5c"></path><path d="m100.15 181.82h2.57v1.43h-2.57z" fill="#5a5a5c" transform="matrix(.72103502 -.69289862 .69289862 .72103502 -98.18 121.19)"></path><path d="m104.83 180.26-1-1 3.55-3.41 1 1zm5.52-5.3-1-1 3.55-3.41 1 1zm5.52-5.3-1-1 3.55-3.41 1 1zm5.52-5.31-1-1 3.55-3.41 1 1zm5.52-5.3-1-1 3.54-3.41 1 1z" fill="#5a5a5c"></path><path d="m131.57 151.62h2.57v1.43h-2.57z" fill="#5a5a5c" transform="matrix(.72103502 -.69289862 .69289862 .72103502 -68.49 134.54)"></path><path d="m128.92 149.22-1.77-.51.39-1.37 1.78.51zm-4.52-1.29-5-1.42.4-1.37 4.94 1.41zm-7.7-2.21-5-1.41.4-1.38 4.95 1.42zm-7.7-2.2-5-1.41.4-1.38 5 1.42zm-7.7-2.2-5-1.41.4-1.38 5 1.42zm-7.69-2.2-5-1.42.39-1.37 5 1.42zm-7.7-2.2-5-1.42.39-1.37 5 1.41zm-7.7-2.2-4.95-1.42.39-1.37 4.95 1.41z" fill="#5a5a5c"></path><path d="m127.64 150.17a8.83 8.83 0 1 1 8.83 8.83 8.83 8.83 0 0 1 -8.83-8.83z" fill="#929598"></path><path d="m181 99-1.06-.23.31-1.4 1.06.24zm-3.85-.85-5-1.11.31-1.4 5 1.12zm-7.82-1.73-5-1.11.31-1.39 5 1.11zm-7.82-1.72-5-1.11.31-1.4 5 1.11zm-7.83-1.7-5-1.11.31-1.4 5 1.11zm-7.82-1.73-5-1.11.31-1.4 5 1.11zm-7.86-1.78-5-1.11.31-1.39 5 1.11zm-7.82-1.73-5-1.11.3-1.39 5 1.11z" fill="#5a5a5c"></path><path d="m73.66 133.3-.41-1.37 4.94-1.46.4 1.37zm7.68-2.3-.41-1.37 4.94-1.46.4 1.37zm7.66-2.24-.41-1.37 4.94-1.46.4 1.38zm7.68-2.26-.41-1.38 4.94-1.45.4 1.37zm7.68-2.27-.41-1.37 4.94-1.46.4 1.37zm7.68-2.27-.41-1.37 4.94-1.46.4 1.37zm7.68-2.27-.41-1.37 4.94-1.46.4 1.37zm7.68-2.27-.41-1.37 5.01-1.45.4 1.37zm7.68-2.26-.41-1.37 4.94-1.46.4 1.37zm7.68-2.27-.41-1.37 4.94-1.46.4 1.37zm7.67-2.27-.4-1.37 4.94-1.46.4 1.37zm7.68-2.27-.4-1.37 4.94-1.46.4 1.38zm7.68-2.26-.4-1.38 4.94-1.45.4 1.37zm7.68-2.27-.4-1.37 4.93-1.45.4 1.37zm7.68-2.27-.4-1.37 3-.9.4 1.37z" fill="#5a5a5c"></path><circle cx="65.16" cy="131.94" fill="#5b9bd3" r="11.05"></circle><path d="m192 154.31a14.92 14.92 0 1 0 14.92 14.92 14.92 14.92 0 0 0 -14.92-14.92zm0 22.48a7.56 7.56 0 1 1 7.56-7.56 7.55 7.55 0 0 1 -7.56 7.56z" fill="#5b9bd3"></path><path d="m130.81 66.6a4.23 4.23 0 1 1 4.19-4.23 4.24 4.24 0 0 1 -4.19 4.23zm0-6.46a2.23 2.23 0 1 0 2.19 2.23 2.24 2.24 0 0 0 -2.19-2.23z" fill="#5b9bd3"></path><path d="m159.28 241.47-10.16 8.13 12.58 3.33z" fill="#5b9bd3"></path><path d="m240.04 46.86-11.81-5.47 2.63 12.74z" fill="#5b9bd3"></path></svg>