<svg xmlns="http://www.w3.org/2000/svg" viewBox="0 0 274.57 265.27"><path d="m140.39 169.27h-6.03v-27.15h-6.04v-6.03h12.07z" fill="#1a3967"></path><path d="m128.33 166.25h18.1v6.03h-18.1z" fill="#1a3967"></path><path d="m86.1 214.51h-24.1v-7.64l16.82-11.21a2.88 2.88 0 0 0 -1.6-5.28h-6.3a2.88 2.88 0 0 0 -2.92 2.88v3.16h-6v-3.16a8.93 8.93 0 0 1 8.92-8.91h6.3a8.91 8.91 0 0 1 4.95 16.32l-11.71 7.81h15.64z" fill="#1a3967"></path><path d="m203.74 214.51h-6a9.06 9.06 0 0 1 -9-9h6a3 3 0 0 0 3 3h6a3 3 0 0 0 0-6h-6v-6h6a3 3 0 0 0 0-6h-6a3 3 0 0 0 -3 3h-6a9.06 9.06 0 0 1 9-9.05h6a9.05 9.05 0 0 1 6.74 15.08 9.05 9.05 0 0 1 -6.74 15.08z" fill="#1a3967"></path><path d="m158.49 72.74v-27.15h-42.23v27.15a21.12 21.12 0 1 0 42.23 0z" fill="#5b9bd3"></path><path d="m95.14 60.68a18.12 18.12 0 0 0 15.73 17.92 27 27 0 0 1 -.64-5.86v-21.11h-15.09z" fill="#5b9bd3"></path><path d="m179.6 60.68v-9h-15.08v21.06a27 27 0 0 1 -.64 5.86 18.11 18.11 0 0 0 15.72-17.92z" fill="#5b9bd3"></path><path d="m137.37 99.89a27.19 27.19 0 0 1 -3-.17v24.28h6v-24.28a27.37 27.37 0 0 1 -3 .17z" fill="#5b9bd3"></path><path d="m176.59 172.28v-48.28h-30.17v3h-6v-3h-6v3h-6v-3h-30.26v48.26h-54.29v54.3h187v-54.3zm48.26 48.27h-174.95v-42.23h54.29v-48.27h66.37v48.27h54.29z" fill="#1a3967"></path><path d="m134.36 96.87v2.85a26.82 26.82 0 0 0 6 0v-2.85h6v1.46a27.3 27.3 0 0 0 15.33-13.53h-.18v-6a18.62 18.62 0 0 0 2.37-.18 27 27 0 0 0 .64-5.86v-21.13h-3v-6h3v-6h-54.29v6h3v6h-3v21.11a27 27 0 0 0 .64 5.86 18.62 18.62 0 0 0 2.37.18v6h-.18a27.3 27.3 0 0 0 15.27 13.53v-1.44zm-18.1-24.13v-27.15h42.23v27.15a21.12 21.12 0 1 1 -42.23 0z" fill="#1a3967"></path><path d="m134.36 96.87h-6.04v1.46 25.69 3.02h6.04v-3.02-24.3z" fill="#1a3967"></path><path d="m146.42 96.87h-6.03v2.85 24.3 3.02h6.03v-3.02-25.69z" fill="#1a3967"></path><path d="m161.51 51.63h18.09v9a18.11 18.11 0 0 1 -15.72 17.97 18.62 18.62 0 0 1 -2.37.18v6h.18a24.15 24.15 0 0 0 23.95-24.12v-15.07h-24.13z" fill="#1a3967"></path><path d="m113.24 78.78a18.62 18.62 0 0 1 -2.37-.18 18.12 18.12 0 0 1 -15.73-17.92v-9h18.1v-6h-24.13v15a24.15 24.15 0 0 0 24 24.12h.18z" fill="#1a3967"></path><path d="m152.46 111.96h6.03v6.03h-6.03z" fill="#1a3967"></path><path d="m164.52 111.96h6.03v6.03h-6.03z" fill="#1a3967"></path><path d="m116.26 111.96h6.03v6.03h-6.03z" fill="#1a3967"></path><path d="m104.19 111.96h6.03v6.03h-6.03z" fill="#1a3967"></path><path d="m134.36 51.63h6.03v12.07h-6.03z" fill="#fff"></path><path d="m129.13 54.64h6.03v12.07h-6.03z" fill="#fff" transform="matrix(.5 -.87 .87 .5 13.53 144.78)"></path><path d="m126.12 63.69h12.07v6.03h-12.07z" fill="#fff" transform="matrix(.86611266 -.49984884 .49984884 .86611266 -15.65 75)"></path><path d="m134.36 63.69h6.03v12.07h-6.03z" fill="#fff"></path><path d="m139.58 60.68h6.03v12.07h-6.03z" fill="#fff" transform="matrix(.5 -.87 .87 .5 13.52 156.85)"></path><path d="m136.57 57.66h12.07v6.03h-12.07z" fill="#fff" transform="matrix(.86611266 -.49984884 .49984884 .86611266 -11.24 79.42)"></path><g fill="#1e243a"><path d="m70.84 83.8a1.48 1.48 0 0 1 -1.48-1.48v-8.87a1.48 1.48 0 1 1 3 0v8.87a1.48 1.48 0 0 1 -1.52 1.48z"></path><path d="m75.47 79.56h-8.87a1.48 1.48 0 1 1 0-3h8.87a1.48 1.48 0 1 1 0 3z"></path><path d="m5.72 241.73a1.48 1.48 0 0 1 -1.48-1.48v-8.87a1.48 1.48 0 0 1 3 0v8.87a1.48 1.48 0 0 1 -1.52 1.48z"></path><path d="m10.35 237.49h-8.87a1.48 1.48 0 1 1 0-3h8.87a1.48 1.48 0 1 1 0 3z"></path><path d="m268.46 228.13a1.48 1.48 0 0 1 -1.48-1.48v-8.87a1.48 1.48 0 0 1 3 0v8.87a1.48 1.48 0 0 1 -1.52 1.48z"></path><path d="m273.09 223.89h-8.87a1.48 1.48 0 0 1 0-3h8.87a1.48 1.48 0 1 1 0 3z"></path><path d="m176.13 11.83a1.48 1.48 0 0 1 -1.48-1.48v-8.87a1.48 1.48 0 0 1 3 0v8.87a1.48 1.48 0 0 1 -1.52 1.48z"></path><path d="m180.76 7.59h-8.87a1.48 1.48 0 1 1 0-3h8.87a1.48 1.48 0 1 1 0 3z"></path><path d="m91.92 34.89a2 2 0 0 1 -1.93-2 2 2 0 0 1 2.01-1.89 2 2 0 0 1 1.93 2 2 2 0 0 1 -2 1.93zm5.08-3.11a2 2 0 0 1 0-2.78 2 2 0 0 1 2.79.05 2 2 0 0 1 -.06 2.79 1.94 1.94 0 0 1 -1.36.55 2 2 0 0 1 -1.37-.61zm-12.77-.34a2 2 0 0 1 .09-2.78 2 2 0 0 1 2.78.08 2 2 0 0 1 -.1 2.79 2 2 0 0 1 -1.35.53 1.94 1.94 0 0 1 -1.43-.62zm16.9-5.44a2 2 0 0 1 -1.95-2 2 2 0 0 1 2-1.94 2 2 0 0 1 1.94 2 2 2 0 0 1 -2 1.95zm-18-.45a2 2 0 0 1 -1.9-2 2 2 0 0 1 2-1.9 2 2 0 0 1 1.9 2 2 2 0 0 1 -2 1.9h-.07zm14-6.55a2 2 0 0 1 0-2.79 2 2 0 0 1 2.79 0 2 2 0 0 1 0 2.79 2 2 0 0 1 -1.39.57 2 2 0 0 1 -1.37-.57zm-12.48-.36a2 2 0 0 1 .12-2.79 2 2 0 0 1 2.79.12 2 2 0 0 1 -.12 2.79 2 2 0 0 1 -1.33.52 2 2 0 0 1 -1.43-.6zm5.57-3.64a2 2 0 0 1 2-2 2 2 0 0 1 2 2 2 2 0 0 1 -2 2 2 2 0 0 1 -2-2z"></path><path d="m17.85 149a2 2 0 0 1 -1.92-2 2 2 0 0 1 2.07-2 2 2 0 0 1 1.92 2 2 2 0 0 1 -2 1.92zm5.07-3.11a2 2 0 0 1 .06-2.79 2 2 0 0 1 2.78.05 2 2 0 0 1 -.05 2.79 2 2 0 0 1 -1.37.55 2 2 0 0 1 -1.42-.64zm-12.76-.34a2 2 0 0 1 .08-2.78 2 2 0 0 1 2.79.08 2 2 0 0 1 -.09 2.79 1.94 1.94 0 0 1 -1.35.53 1.92 1.92 0 0 1 -1.43-.66zm16.9-5.4a2 2 0 0 1 -1.95-2 2 2 0 0 1 2-2 2 2 0 0 1 1.95 2 2 2 0 0 1 -2 2zm-18-.45a2 2 0 0 1 -1.9-2 2 2 0 0 1 2-1.9 2 2 0 0 1 1.9 2 2 2 0 0 1 -2 1.9h.04zm14-6.54a2 2 0 0 1 0-2.79 2 2 0 0 1 2.79 0 2 2 0 0 1 0 2.79 2 2 0 0 1 -1.39.57 1.94 1.94 0 0 1 -1.36-.61zm-12.48-.37a2 2 0 0 1 .12-2.79 2 2 0 0 1 2.79.12 2 2 0 0 1 -.13 2.79 1.94 1.94 0 0 1 -1.33.52 2 2 0 0 1 -1.41-.68zm5.53-3.68a2 2 0 0 1 2-2 2 2 0 0 1 2 2 2 2 0 0 1 -2 2 2 2 0 0 1 -1.96-2.04z"></path><path d="m123.27 265.27a2 2 0 0 1 -1.93-2 2 2 0 0 1 2-1.92 2 2 0 0 1 1.93 2 2 2 0 0 1 -2 1.92zm5.07-3.11a2 2 0 0 1 0-2.79 2 2 0 0 1 2.79.05 2 2 0 0 1 -.06 2.79 1.94 1.94 0 0 1 -1.36.55 2 2 0 0 1 -1.37-.6zm-12.77-.34a2 2 0 0 1 .09-2.78 2 2 0 0 1 2.78.08 2 2 0 0 1 -.08 2.79 2 2 0 0 1 -1.35.53 2 2 0 0 1 -1.44-.62zm16.91-5.4a2 2 0 0 1 -1.95-2 2 2 0 0 1 2-1.94 2 2 0 0 1 1.94 2 2 2 0 0 1 -2 2zm-18-.45a2 2 0 0 1 -1.9-2 2 2 0 0 1 2-1.9 2 2 0 0 1 1.9 2 2 2 0 0 1 -2 1.9h-.07zm14-6.55a2 2 0 0 1 0-2.79 2 2 0 0 1 2.79 0 2 2 0 0 1 0 2.79 2 2 0 0 1 -1.38.57 2 2 0 0 1 -1.38-.57zm-12.48-.36a2 2 0 0 1 .12-2.79 2 2 0 0 1 2.79.12 2 2 0 0 1 -.12 2.79 2 2 0 0 1 -1.33.52 2 2 0 0 1 -1.46-.64zm5.54-3.69a2 2 0 0 1 2-2 2 2 0 0 1 2 2 2 2 0 0 1 -2 2 2 2 0 0 1 -1.97-2z"></path><path d="m223.44 116.44a2 2 0 0 1 -1.92-2 2 2 0 0 1 2-1.93 2 2 0 0 1 1.92 2 2 2 0 0 1 -2 1.93h-.05zm5.07-3.11a2 2 0 0 1 .05-2.79 2 2 0 0 1 2.79 0 2 2 0 0 1 0 2.79 2 2 0 0 1 -1.37.55 2 2 0 0 1 -1.47-.55zm-12.77-.33a2 2 0 0 1 .09-2.79 2 2 0 0 1 2.79.09 2 2 0 0 1 -.09 2.79 2 2 0 0 1 -1.35.53 2 2 0 0 1 -1.44-.62zm16.91-5.4a2 2 0 0 1 -2-2 2 2 0 0 1 2-2 2 2 0 0 1 2 2 2 2 0 0 1 -2 2zm-18-.45a2 2 0 0 1 -1.89-2 2 2 0 0 1 2-1.89 2 2 0 0 1 1.9 2 2 2 0 0 1 -2 1.9h-.08zm14-6.55a2 2 0 0 1 0-2.79 2 2 0 0 1 2.78 0 2 2 0 0 1 0 2.79 2 2 0 0 1 -1.39.57 2 2 0 0 1 -1.35-.58zm-12.48-.36a2 2 0 0 1 .12-2.79 2 2 0 0 1 2.78.12 2 2 0 0 1 -.12 2.79 2 2 0 0 1 -1.33.52 2 2 0 0 1 -1.41-.65zm5.53-3.69a2 2 0 0 1 2-2 2 2 0 0 1 2 2 2 2 0 0 1 -2 2 2 2 0 0 1 -1.96-2.01z"></path></g><path d="m168.38 130.05v48.27" fill="none" stroke="#5b9bd3" stroke-miterlimit="10" stroke-width="5"></path><path d="m222.63 178.32v42.23" fill="none" stroke="#5b9bd3" stroke-miterlimit="10" stroke-width="5"></path></svg>