<svg xmlns="http://www.w3.org/2000/svg" viewBox="0 0 206.37 301.79"><path d="m103 167.65h-1.5v-3h1.5zm0-6h-1.5v-3h1.5zm0-6h-1.5v-3h1.5zm0-6h-1.5v-3h1.5zm0-6h-1.5v-3h1.5zm0-6h-1.5v-3h1.5zm0-6h-1.5v-3h1.5zm0-6h-1.5v-3h1.5zm0-6h-1.5v-3h1.5zm0-6h-1.5v-3h1.5zm0-6h-1.5v-3h1.5zm0-6h-1.5v-3h1.5zm0-6h-1.5v-3h1.5zm0-6h-1.5v-3h1.5zm0-6h-1.5v-3h1.5zm0-6h-1.5v-3h1.5zm0-6h-1.5v-3h1.5zm0-6h-1.5v-3h1.5zm0-6h-1.5v-3h1.5zm0-6h-1.5v-3h1.5zm0-6h-1.5v-3h1.5z" fill="#1a3a67"></path><path d="m112.7 171.19-1.08-1 .8-.82 1.07 1zm2.88-3-1.07-1 2.09-2.19 1.07 1zm4.18-4.31-1.07-1 2.09-2.15 1.08 1zm4.19-4.3-1.08-1.05 2.09-2.15 1.08 1.05zm4.18-4.3-1.08-1 2.09-2.15 1.08 1zm4.18-4.31-1.07-1 2.09-2.15 1.07 1zm4.18-4.3-1.07-1 2.09-2.16 1.08 1.05zm4.19-4.3-1.08-1 2.09-2.15 1.08 1zm4.18-4.3-1.08-1.05 2.09-2.15 1.08 1zm4.14-4.27-1.07-1 2.09-2.15 1.07 1zm4.18-4.3-1.07-1.05 2.09-2.15 1.08 1zm4.19-4.3-1.08-1 2.09-2.15 1.08 1zm4.18-4.31-1.08-1 2.09-2.15 1.08 1zm4.18-4.3-1.07-1 2.09-2.16 1.07 1zm4.18-4.3-1.07-1.05 2.09-2.15 1.07 1z" fill="#1a3a67"></path><path d="m93.62 171.19-.79-.81 1.07-1 .8.82zm-2.88-3-2.09-2.16 1.07-1 2.09 2.15zm-4.19-4.31-2.09-2.15 1.08-1 2.09 2.15zm-4.18-4.3-2.09-2.15 1.08-1.05 2.09 2.15zm-4.18-4.3-2.09-2.15 1.07-1 2.1 2.15zm-4.19-4.28-2.09-2.15 1.07-1 2.1 2.15zm-4.18-4.3-2.1-2.15 1.08-1.05 2.09 2.16zm-4.19-4.3-2.09-2.15 1.08-1 2.09 2.15zm-4.18-4.3-2.08-2.1 1.07-1 2.1 2.15zm-4.18-4.31-2.09-2.15 1.07-1 2.09 2.15zm-4.18-4.3-2.09-2.14 1.08-1 2.09 2.15zm-4.19-4.3-2.09-2.15 1.08-1 2.11 2.11zm-4.18-4.31-2.09-2.15 1.07-1 2.1 2.15zm-4.18-4.3-2.09-2.15 1.07-1 2.09 2.16zm-4.18-4.3-2.1-2.15 1.08-1 2.09 2.15z" fill="#1a3a67"></path><circle cx="104.23" cy="36.5" fill="#fff" r="35.88"></circle><circle cx="104.23" cy="36.5" fill="#fff" r="30.16"></circle><path d="m205.25 106.33a35.38 35.38 0 1 1 -35.38-35.33 35.38 35.38 0 0 1 35.38 35.33z" fill="#fff"></path><path d="m200 106.33a30.16 30.16 0 1 1 -30.16-30.16 30.15 30.15 0 0 1 30.16 30.16z" fill="#5b9bd3"></path><path d="m71.43 106.33a34.93 34.93 0 1 1 -34.93-34.93 34.92 34.92 0 0 1 34.93 34.93z" fill="#fff"></path><path d="m66.66 106.33a30.16 30.16 0 1 1 -30.16-30.16 30.15 30.15 0 0 1 30.16 30.16z" fill="#5b9bd3"></path><path d="m36.5 142.83a36.51 36.51 0 1 1 36.5-36.5 36.54 36.54 0 0 1 -36.5 36.5zm0-70.76a34.26 34.26 0 1 0 34.25 34.26 34.3 34.3 0 0 0 -34.25-34.26z" fill="#1a3a67"></path><rect fill="#d9e5ed" height="88.54" rx="3.94" width="125.75" x="41.62" y="173.02"></rect><path d="m163.43 262.69h-117.87a5.07 5.07 0 0 1 -5.07-5.06v-80.63a5.07 5.07 0 0 1 5.07-5.06h117.87a5.07 5.07 0 0 1 5.06 5.06v80.67a5.07 5.07 0 0 1 -5.06 5.02zm-117.87-88.54a2.82 2.82 0 0 0 -2.82 2.85v80.67a2.82 2.82 0 0 0 2.82 2.81h117.87a2.81 2.81 0 0 0 2.81-2.81v-80.67a2.81 2.81 0 0 0 -2.81-2.81z" fill="#1a3a67"></path><path d="m189 261.29.07-.13-.07-4.05h-169v4.05s0 .09 0 .13l.42.76c2.17 3.52 6 4.15 10.47 4.15h147.18c4.44 0 8.31-.63 10.47-4.15z" fill="#fff"></path><path d="m178.07 267.33h-147.16c-4.44 0-8.89-.57-11.42-4.69l-.45-.79a1.41 1.41 0 0 1 -.15-.77v-5.08h171.19l.09 5.44-.22.43-.43.76c-2.52 4.13-7.01 4.7-11.45 4.7zm-156.93-6.33.28.49c1.83 3 5.12 3.59 9.49 3.59h147.16c4.38 0 7.67-.62 9.51-3.62l.33-.58v-2.65h-166.77z" fill="#1a3a67"></path><path d="m93 257.11v.52a1.76 1.76 0 0 0 1.76 1.77h19.44a1.77 1.77 0 0 0 1.77-1.77v-.52z" fill="#1a3a67"></path><path d="m127.18 278a22.66 22.66 0 1 1 -22.66-22.66 22.65 22.65 0 0 1 22.66 22.66z" fill="#fff"></path><path d="m104.52 301.79a23.78 23.78 0 1 1 23.78-23.79 23.81 23.81 0 0 1 -23.78 23.79zm0-45.31a21.53 21.53 0 1 0 21.53 21.52 21.56 21.56 0 0 0 -21.53-21.52z" fill="#1a3a67"></path><path d="m67.56 278a22.66 22.66 0 1 1 -22.66-22.65 22.66 22.66 0 0 1 22.66 22.65z" fill="#fff"></path><path d="m44.9 301.79a23.78 23.78 0 1 1 23.78-23.79 23.81 23.81 0 0 1 -23.78 23.79zm0-45.31a21.53 21.53 0 1 0 21.53 21.52 21.56 21.56 0 0 0 -21.53-21.52z" fill="#1a3a67"></path><path d="m186.8 278a22.66 22.66 0 1 1 -22.65-22.66 22.65 22.65 0 0 1 22.65 22.66z" fill="#fff"></path><path d="m164.15 301.79a23.78 23.78 0 1 1 23.78-23.79 23.81 23.81 0 0 1 -23.78 23.79zm0-45.31a21.53 21.53 0 1 0 21.53 21.52 21.56 21.56 0 0 0 -21.53-21.52z" fill="#1a3a67"></path><path d="m169.87 117.44a3.18 3.18 0 1 1 3.18-3.18 3.18 3.18 0 0 1 -3.18 3.18zm0-4.24a1.06 1.06 0 0 0 0 2.12 1.06 1.06 0 0 0 0-2.12z" fill="#fff"></path><path d="m171.88 109h-4l-1.3-11.64h6.6zm-2.12-2.12h.24l.83-7.4h-1.87z" fill="#fff"></path><path d="m183.21 121.67h-26.68a3.59 3.59 0 0 1 -3.59-3.59 3.51 3.51 0 0 1 .44-1.71l12.44-23a4.61 4.61 0 0 1 8.11 0l12.44 23a3.6 3.6 0 0 1 -3.16 5.3zm-13.34-28.57a2.5 2.5 0 0 0 -2.19 1.3l-12.44 23a1.4 1.4 0 0 0 -.18.7 1.47 1.47 0 0 0 1.47 1.47h26.68a1.47 1.47 0 0 0 1.48-1.47 1.4 1.4 0 0 0 -.18-.7l-12.44-23a2.51 2.51 0 0 0 -2.2-1.3z" fill="#fff"></path><path d="m102.52 25a6.65 6.65 0 0 0 -6.64 6.64v2.81a3 3 0 0 0 -1.88 2.69v9.22a3 3 0 0 0 2.95 3h11.07a3 3 0 0 0 3-3v-9.22a3 3 0 0 0 -1.84-2.73v-2.81a6.65 6.65 0 0 0 -6.66-6.6zm-4.42 9.18v-2.58a4.43 4.43 0 0 1 8.85 0v2.58zm10.69 12.18a.73.73 0 0 1 -.73.73h-11.06a.73.73 0 0 1 -.73-.73v-9.22a.74.74 0 0 1 .73-.74h11.07a.74.74 0 0 1 .73.74z" fill="#1a3967"></path><path d="m102.52 37.87a2.95 2.95 0 0 0 -1.11 5.68v2.07h2.22v-2.07a2.95 2.95 0 0 0 -1.11-5.68zm0 3.69a.74.74 0 1 1 .74-.74.74.74 0 0 1 -.74.74z" fill="#1a3967"></path><path d="m102.52 15.74a21.4 21.4 0 1 0 21.4 21.4 21.42 21.42 0 0 0 -21.4-21.4zm19.18 21.4a19.18 19.18 0 1 1 -19.18-19.14 19.19 19.19 0 0 1 19.18 19.14z" fill="#1a3967"></path><path d="m87 37.14a15.47 15.47 0 0 1 25.53-11.77l.14.12 1.45-1.69-.15-.12a17.69 17.69 0 0 0 -24.94 25l.12.14 1.69-1.44-.13-.15a15.49 15.49 0 0 1 -3.71-10.09z" fill="#1a3967"></path><path d="m115.86 25.5-1.69 1.5.12.14a15.47 15.47 0 0 1 -21.81 21.77l-.15-.13-1.44 1.69.15.12a17.69 17.69 0 0 0 24.96-24.94z" fill="#1a3967"></path><path d="m32.17 288.43a3.48 3.48 0 1 1 3.47-3.43 3.48 3.48 0 0 1 -3.47 3.43zm0-4.63a1.16 1.16 0 1 0 1.15 1.2 1.16 1.16 0 0 0 -1.15-1.2z" fill="#5b9bd3"></path><path d="m40.27 276.85a3.47 3.47 0 1 1 3.47-3.47 3.47 3.47 0 0 1 -3.47 3.47zm0-4.63a1.16 1.16 0 1 0 1.16 1.16 1.16 1.16 0 0 0 -1.16-1.16z" fill="#5b9bd3"></path><path d="m49.53 285a3.48 3.48 0 1 1 3.47-3.52 3.48 3.48 0 0 1 -3.47 3.52zm0-4.64a1.16 1.16 0 1 0 1.16 1.16 1.16 1.16 0 0 0 -1.16-1.2z" fill="#5b9bd3"></path><path d="m57.63 274.54a3.48 3.48 0 1 1 3.48-3.48 3.48 3.48 0 0 1 -3.48 3.48zm0-4.63a1.16 1.16 0 1 0 1.16 1.15 1.15 1.15 0 0 0 -1.16-1.15z" fill="#5b9bd3"></path><path d="m30.76 278.01h10.92v2.32h-10.92z" fill="#5b9bd3" transform="matrix(.53036323 -.84777051 .84777051 .53036323 -219.66 161.82)"></path><path d="m43.74 272.91h2.32v9.04h-2.32z" fill="#5b9bd3" transform="matrix(.64024378 -.76817179 .76817179 .64024378 -196.97 134.32)"></path><path d="m48.6 275.12h9.96v2.31h-9.96z" fill="#5b9bd3" transform="matrix(.58127117 -.81370991 .81370991 .58127117 -202.37 159.29)"></path><path d="m178.77 282.13v-8.25h-3a12.63 12.63 0 0 0 -.5-1.2l2.1-2.1-5.84-5.83-2.09 2.1a11.81 11.81 0 0 0 -1.21-.5v-3h-8.23v3a12.63 12.63 0 0 0 -1.2.5l-2.1-2.1-5.83 5.83 2.09 2.1a12.57 12.57 0 0 0 -.49 1.2h-3v8.25h3a11.76 11.76 0 0 0 .49 1.21l-2.09 2.09 5.83 5.84 2.1-2.1a12.63 12.63 0 0 0 1.2.5v3h8.25v-3a11.81 11.81 0 0 0 1.21-.5l2.09 2.1 5.84-5.84-2.1-2.09a11.81 11.81 0 0 0 .5-1.21zm-4.64-2.25-.23.83a9.79 9.79 0 0 1 -1 2.28l-.42.75 1.7 1.69-2.66 2.66-1.69-1.7-.75.43a10.14 10.14 0 0 1 -2.28.94l-.8.24v2.4h-3.75v-2.4l-.82-.23a10 10 0 0 1 -2.29-.94l-.74-.43-1.7 1.7-2.65-2.66 1.7-1.69-.43-.75a9.77 9.77 0 0 1 -.94-2.28l-.23-.83h-2.4v-3.75h2.4l.23-.82a10 10 0 0 1 .94-2.29l.43-.74-1.7-1.7 2.65-2.65 1.7 1.7.74-.43a10 10 0 0 1 2.29-.94l.82-.23v-2.4h3.75v2.36l.83.23a10.14 10.14 0 0 1 2.28.94l.75.43 1.69-1.7 2.66 2.65-1.7 1.7.42.74a10.05 10.05 0 0 1 1 2.29l.23.82h2.39v3.75z" fill="#5b9bd3"></path><path d="m164.15 271.63a6.38 6.38 0 1 0 6.37 6.38 6.38 6.38 0 0 0 -6.37-6.38zm4.12 6.38a4.13 4.13 0 1 1 -4.12-4.13 4.13 4.13 0 0 1 4.12 4.12z" fill="#5b9bd3"></path><path d="m169.87 142.83a36.51 36.51 0 1 1 36.5-36.5 36.54 36.54 0 0 1 -36.5 36.5zm0-70.76a34.26 34.26 0 1 0 34.25 34.26 34.3 34.3 0 0 0 -34.25-34.26z" fill="#1a3a67"></path><path d="m102.23 73a36.51 36.51 0 1 1 36.5-36.51 36.54 36.54 0 0 1 -36.5 36.51zm0-70.76a34.26 34.26 0 1 0 34.25 34.26 34.29 34.29 0 0 0 -34.25-34.25z" fill="#5b9bd3"></path><path d="m22.61 106.43a7.72 7.72 0 1 1 12.39-9.27l-2.1 1.55a5.15 5.15 0 0 0 -8.24 6.17z" fill="#fff"></path><path d="m26.21 114.66h-3.86a6.44 6.44 0 0 1 0-12.87v2.58a3.86 3.86 0 0 0 0 7.72h3.86z" fill="#fff"></path><path d="m49.37 114.66h-2.58v-2.57h2.58a5.15 5.15 0 1 0 -3.09-9.27l-1.55-2a7.72 7.72 0 1 1 4.64 13.89z" fill="#fff"></path><path d="m50.55 100.69-2.55-.37a8 8 0 0 0 .08-1.1 7.72 7.72 0 0 0 -15.08-2.22l-2.46-.74a10.3 10.3 0 0 1 20 4.41z" fill="#fff"></path><path d="m40.36 123.67h-2.57v-11.58h2.82l-4.11-6.58-4.11 6.58h2.83v11.58h-2.58v-9.01h-4.89l8.75-14.01 8.76 14.01h-4.9z" fill="#fff"></path><path d="m46.69 180.08h114.97v69.85h-114.97z" fill="#fff" stroke="#5381ae" stroke-width="2"></path><path d="m46.69 179.08h114.97v8.25h-114.97z" fill="#d9e5ed" stroke="#5381ae" stroke-width="2"></path><path d="m49.04 183.63h2.1" fill="#d9e5ed" stroke="#5381ae" stroke-width="3"></path><path d="m53.14 183.63h2.1" fill="#d9e5ed" stroke="#5381ae" stroke-width="3"></path><path d="m57.25 183.63h2.1" fill="#d9e5ed" stroke="#5381ae" stroke-width="3"></path><path d="m157.78 241.44h-76.05v-49.08" fill="none" stroke="#b1d9ee" stroke-miterlimit="10"></path><path d="m64.12 215a10.33 10.33 0 0 1 -6.86-2.58l7.2-7.19h10a10.39 10.39 0 0 1 -10.34 9.77z" fill="#b1d9ee"></path><path d="m64.79 203.62v-9.4a10.31 10.31 0 0 1 9.67 9.4z" fill="#5b9bd3"></path><path d="m64.68 192.05a12.56 12.56 0 1 1 -8.94 21.95" fill="none" stroke="#5381ae" stroke-width="2"></path><path d="m54.25 212.1a12.36 12.36 0 0 1 8.07-19.75v11.51z" fill="#fff"></path><path d="m61.49 193.34v10.18l-7.14 7.29a11.54 11.54 0 0 1 7.14-17.47m1.66-1.91a13.2 13.2 0 0 0 -9 21.91l9-9.14z" fill="#487da8"></path><g fill="none"><path d="m54.43 223.81h5.51" stroke="#5b9bd3" stroke-width="2"></path><path d="m74.22 223.81h-11.73" stroke="#5381ae" stroke-width="2"></path><path d="m54.43 228.36h5.51" stroke="#b5d2e9" stroke-width="2"></path><path d="m74.22 228.36h-11.73" stroke="#5381ae" stroke-width="2"></path><path d="m54.43 232.91h5.51" stroke="#5b9bd3" stroke-width="2"></path><path d="m74.22 232.91h-11.73" stroke="#5381ae" stroke-width="2"></path><path d="m81.73 196.8h72.88" stroke="#d9e5ed" stroke-miterlimit="10"></path><path d="m81.73 203.35h72.88" stroke="#d9e5ed" stroke-miterlimit="10"></path><path d="m81.73 209.89h72.88" stroke="#d9e5ed" stroke-miterlimit="10"></path><path d="m81.73 216.43h72.88" stroke="#d9e5ed" stroke-miterlimit="10"></path><path d="m81.73 222.98h72.88" stroke="#d9e5ed" stroke-miterlimit="10"></path><path d="m81.73 229.52h72.88" stroke="#d9e5ed" stroke-miterlimit="10"></path><path d="m81.73 236.07h72.88" stroke="#d9e5ed" stroke-miterlimit="10"></path><path d="m125.41 241.53v2.63" stroke="#d9e5ed" stroke-miterlimit="10"></path><path d="m119.08 241.53v2.63" stroke="#d9e5ed" stroke-miterlimit="10"></path><path d="m112.74 241.53v2.63" stroke="#d9e5ed" stroke-miterlimit="10"></path><path d="m106.4 241.53v2.63" stroke="#d9e5ed" stroke-miterlimit="10"></path><path d="m100.06 241.53v2.63" stroke="#d9e5ed" stroke-miterlimit="10"></path><path d="m93.73 241.53v2.63" stroke="#d9e5ed" stroke-miterlimit="10"></path><path d="m87.39 241.53v2.63" stroke="#d9e5ed" stroke-miterlimit="10"></path><path d="m157.1 241.53v2.63" stroke="#d9e5ed" stroke-miterlimit="10"></path><path d="m150.76 241.53v2.63" stroke="#d9e5ed" stroke-miterlimit="10"></path><path d="m144.43 241.53v2.63" stroke="#d9e5ed" stroke-miterlimit="10"></path><path d="m138.09 241.53v2.63" stroke="#d9e5ed" stroke-miterlimit="10"></path><path d="m131.75 241.53v2.63" stroke="#d9e5ed" stroke-miterlimit="10"></path><path d="m85.81 235.13 28.81-18.23 17.88 5.61 16.93-15.2" stroke="#5b9bd3" stroke-miterlimit="10" stroke-width="3"></path><path d="m85.81 226.72 15.61-8.42 14.94 10.52 16.98-18.23 14.93 5.61" stroke="#b5d2e9" stroke-miterlimit="10" stroke-width="2"></path></g><path d="m117.6 286.38-.74-.37a2.69 2.69 0 0 0 .39-1.37v-1.27a2.82 2.82 0 0 0 -5.61 0v1.27a2.69 2.69 0 0 0 .36 1.36l-.74.37a3.93 3.93 0 0 0 -1.8 2.75 4 4 0 0 0 -1.81-2.75l-.74-.37a2.69 2.69 0 0 0 .39-1.37v-1.27a2.82 2.82 0 0 0 -5.6 0v1.27a2.6 2.6 0 0 0 .39 1.37l-.74.37a3.89 3.89 0 0 0 -1.81 2.75 3.89 3.89 0 0 0 -1.81-2.75l-.73-.37a2.61 2.61 0 0 0 .4-1.37v-1.27a2.82 2.82 0 0 0 -5.61 0v1.27a2.69 2.69 0 0 0 .41 1.37l-.74.37a4.3 4.3 0 0 0 -1.9 3.6 1 1 0 0 0 1 1h8.11a1 1 0 0 0 .9-.58 1 1 0 0 0 .9.58h8.11a1 1 0 0 0 .91-.58 1 1 0 0 0 .9.58h8.11a1 1 0 0 0 1-1 4.29 4.29 0 0 0 -1.9-3.59zm-23.79-3c0-.24.34-.51.8-.51s.81.27.81.51v1.27a.81.81 0 0 1 -1.61 0zm-2 5.61a1.52 1.52 0 0 1 .58-.81l1.59-.8h1.33l1.59.8a1.52 1.52 0 0 1 .58.81zm12-5.61c0-.24.34-.51.8-.51s.8.27.8.51v1.27a.8.8 0 0 1 -1.6 0zm-2 5.61a1.52 1.52 0 0 1 .58-.81l1.59-.8h1.33l1.6.8a1.56 1.56 0 0 1 .57.81zm12-5.61c0-.24.34-.51.8-.51s.81.27.81.51v1.27a.81.81 0 0 1 -1.61 0zm-2 5.61a1.52 1.52 0 0 1 .58-.81l1.59-.8h1.33l1.59.8a1.52 1.52 0 0 1 .58.81z" fill="#5b9bd3"></path><path d="m95.61 278.81h7.92v1.25h2v-1.25h7.91v1.25h2v-2.25a1 1 0 0 0 -1-1h-8.91v-1.26h-2v1.26h-8.92a1 1 0 0 0 -1 1v2.25h2z" fill="#5b9bd3"></path><path d="m98.67 274.75h11.72a1 1 0 0 0 1-1v-1.35a3.22 3.22 0 0 0 -1.82-3.18l-.09-.05-2.48-1.1a3.74 3.74 0 0 0 .78-2.29v-1.52a3.26 3.26 0 0 0 -6.51 0v1.52a3.75 3.75 0 0 0 .73 2.22l-2.43 1.16-.1.05a3.21 3.21 0 0 0 -1.81 3.18v1.35a1 1 0 0 0 1.01 1.01zm4.6-10.49a1.26 1.26 0 0 1 2.51 0v1.52a1.28 1.28 0 1 1 -2.51 0zm-3.6 8.14c0-.9.19-1.08.78-1.43l3.54-1.69a2.42 2.42 0 0 0 .54.06 2.2 2.2 0 0 0 .36 0l3.71 1.66c.6.35.79.53.79 1.43v.35h-9.72z" fill="#5b9bd3"></path></svg>