<svg xmlns="http://www.w3.org/2000/svg" viewBox="0 0 42.24 42.24"><g fill="#1b3a69"><path d="m25.57 16.36-5.54 7.91-2.74-2.06-.68.91 3.68 2.76 6.21-8.87z"></path><path d="m6.44 20.31h1.56v-.5a13.12 13.12 0 0 1 9.22-11.25l.18-.06 3.12-4.67-4.52-3.2-.26.06a21.1 21.1 0 0 0 -15.74 19.02v.6h1.43l3.13-2.5zm-5.24-1.25.14-.95a20 20 0 0 1 14.24-16.22h.18l3.24 2.23-2.31 3.43h-.12a14.26 14.26 0 0 0 -9.45 10.76l-.12.82-2.2-2.92z"></path><path d="m20.31 35.8v-1.54h-.5a13.11 13.11 0 0 1 -11.25-9.26l-.06-.19-4.67-3.09-3.21 4.55.07.25a21.08 21.08 0 0 0 19 15.68h.6v-1.39l-2.5-3.13zm-1.25 5.2-.95-.14a20 20 0 0 1 -16.22-14.2v-.17l2.28-3.23 3.43 2.29v.12a14.26 14.26 0 0 0 10.72 9.45l.82.16-2.92 2.2z"></path><path d="m35.8 21.93h-1.54v.51a13.11 13.11 0 0 1 -9.26 11.24l-.19.06-3.12 4.67 4.55 3.21.25-.07a21.09 21.09 0 0 0 15.68-19v-.6h-1.36l-3.13 2.51zm5.2 1.25-.14.95a20 20 0 0 1 -14.2 16.22h-.18l-3.22-2.28 2.29-3.42.12-.05a14.26 14.26 0 0 0 9.45-10.72l.16-.82 2.2 2.94z"></path><path d="m21.93 6.44v1.56h.51a13.13 13.13 0 0 1 11.24 9.18l.06.19 4.67 3.12 3.21-4.49-.07-.25a21.08 21.08 0 0 0 -19.02-15.75h-.6v1.43l2.51 3.13zm1.25-5.24.95.14a20 20 0 0 1 16.22 14.24v.18l-2.23 3.24-3.42-2.31-.05-.12a14.26 14.26 0 0 0 -10.72-9.45l-.82-.12 2.89-2.24z"></path><path d="m21.12 10.27a10.85 10.85 0 1 0 10.88 10.85 10.87 10.87 0 0 0 -10.88-10.85zm0 20.58a9.73 9.73 0 1 1 9.73-9.73 9.74 9.74 0 0 1 -9.73 9.73z"></path></g></svg>