<svg xmlns="http://www.w3.org/2000/svg" viewBox="0 0 72 72"><g fill="#5b9bd3"><path d="m32 60h2v6h-2z"></path><path d="m16 60h2v6h-2z"></path><path d="m12 65h26v2h-26z"></path><path d="m40 61h-30c-2.8 0-5-2.2-5-5v-3h40v3c0 2.8-2.2 5-5 5zm-33-6v1c0 1.7 1.3 3 3 3h30c1.7 0 3-1.3 3-3v-1z"></path><path d="m45 51h-2v-16c0-1.7-1.3-3-3-3h-5v-2h5c2.8 0 5 2.2 5 5z"></path><path d="m7 51h-2v-16c0-2.4 1.7-4.4 4-4.9v2.1c-1.2.4-2 1.5-2 2.8z"></path><path d="m62 55h-15v-2h15c1.7 0 3-1.3 3-3v-40c0-1.7-1.3-3-3-3h-20c-1.7 0-3 1.3-3 3v18h-2v-18c0-2.8 2.2-5 5-5h20c2.8 0 5 2.2 5 5v40c0 2.8-2.2 5-5 5z"></path><path d="m41 6h2v22h-2z"></path><path d="m61 6h2v48h-2z"></path><path d="m59 23h-14v-14h14zm-12-2h10v-10h-10z"></path><path d="m59 39h-12v-2h10v-10h-10v3h-2v-5h14z"></path><path d="m47 41h12v2h-12z"></path><path d="m47 45h12v2h-12z"></path><path d="m47 49h12v2h-12z"></path><path d="m46 13h12v2h-12z"></path><path d="m49 29h6v2h-6z"></path><path d="m49 33h6v2h-6z"></path><path d="m24 47h2v2h-2z"></path><path d="m28 47h2v2h-2z"></path><path d="m20 47h2v2h-2z"></path><path d="m33.4 25.5c-.1-.9-.3-1.8-.7-2.6-.2-.6-.5-1.1-.8-1.6-.1-.2-.4-.4-.7-.5s-.6 0-.8.1c-.5.3-.7 1-.4 1.5.2.4.5.9.6 1.3.3.7.4 1.4.5 2.1.1.4.1.8.1 1.3 0 5.2-4.2 9.4-9.4 9.4s-9.4-4.2-9.4-9.4 4.2-9.4 9.4-9.4c1.6 0 3.3.4 4.7 1.2.5.3 1.2.1 1.5-.4.1-.2.2-.5.1-.8s-.3-.5-.5-.7c-1.6-1-3.6-1.5-5.6-1.5-6.4 0-11.5 5.2-11.5 11.5s5.1 11.5 11.5 11.5 11.5-5.1 11.5-11.5c0-.5 0-1-.1-1.5z"></path><path d="m25.4 24.1-4.8 4.9-2-2c-.4-.4-1.1-.4-1.5 0-.2.2-.3.5-.3.8s.1.6.3.8l2.8 2.8c.2.2.5.3.8.3s.6-.1.8-.3l5.6-5.6c.2-.2.3-.5.3-.8s-.1-.6-.3-.8c-.6-.5-1.3-.5-1.7-.1z"></path></g></svg>