<svg xmlns="http://www.w3.org/2000/svg" viewBox="0 0 44.5 44.76"><g fill="#1b3a69"><path d="m11.62 44.76h-5.81v-1.71l-1.2 1.21-4.11-4.11 1.2-1.15h-1.7v-5.86h1.7l-1.2-1.21 4.11-4.11 1.2 1.18v-1.7h5.81v1.7l1.2-1.21 4.11 4.11-1.2 1.21h1.7v5.89h-1.7l1.2 1.2-4.11 4.11-1.2-1.21zm-4.36-1.46h2.91v-1.62l.48-.17c.19-.07.38-.14.57-.23l.46-.22 1.14 1.14 2.06-2.05-1.15-1.15.22-.46a5.55 5.55 0 0 0 .24-.56l.17-.49h1.64v-2.9h-1.64l-.17-.49a5.55 5.55 0 0 0 -.24-.56l-.22-.46 1.15-1.15-2.06-2.05-1.14 1.12-.46-.22-.57-.23-.48-.17v-1.6h-2.91v1.62l-.48.17-.57.23-.46.2-1.14-1.12-2.06 2.05 1.15 1.15-.22.46a5.55 5.55 0 0 0 -.24.56l-.17.49h-1.62v2.9h1.62l.17.49a5.55 5.55 0 0 0 .24.56l.22.46-1.15 1.15 2.06 2.05 1.14-1.14.46.22c.19.09.38.16.57.23l.48.17z"></path><path d="m8.72 39.67a3.63 3.63 0 1 1 3.63-3.67 3.64 3.64 0 0 1 -3.63 3.67zm0-5.81a2.18 2.18 0 1 0 2.17 2.14 2.18 2.18 0 0 0 -2.17-2.14z"></path><path d="m9.44 36h-1.44v-.22a32.46 32.46 0 0 1 32.45-32.42h2.4v1.45h-2.4a31 31 0 0 0 -31 31z"></path><path d="m41.24 8.17-1.14-.91 2.55-3.18-2.55-3.17 1.14-.91 3.27 4.08z"></path><path d="m39.22 20.06a3.63 3.63 0 1 1 3.63-3.63 3.64 3.64 0 0 1 -3.63 3.63zm0-5.81a2.18 2.18 0 1 0 2.18 2.18 2.19 2.19 0 0 0 -2.18-2.18z"></path><path d="m9.44 10.62a3.63 3.63 0 1 1 3.63-3.62 3.64 3.64 0 0 1 -3.63 3.62zm0-5.81a2.18 2.18 0 1 0 2.18 2.19 2.19 2.19 0 0 0 -2.18-2.19z"></path><g transform="matrix(.70710678 -.70710678 .70710678 .70710678 -13.29 28.37)"><path d="m26.87 26.12h1.45v8.22h-1.45z"></path><path d="m23.49 29.5h8.22v1.45h-8.22z"></path></g></g></svg>