<svg xmlns="http://www.w3.org/2000/svg" viewBox="0 0 59 59"><g fill="#1b3a69"><path d="m58.74 25.56a29.45 29.45 0 0 0 -1.74-6.67 28.15 28.15 0 0 0 -2-4.11 1.43 1.43 0 0 0 -.84-.65 1.39 1.39 0 0 0 -1 .14 1.35 1.35 0 0 0 -.64.84 1.31 1.31 0 0 0 .14 1 27.17 27.17 0 0 1 1.78 3.73 26.09 26.09 0 0 1 1.56 6.09 26.72 26.72 0 1 1 -13.15-19.62 1.37 1.37 0 1 0 1.37-2.38 29.5 29.5 0 1 0 14.78 25.57 30.43 30.43 0 0 0 -.26-3.94z"></path><path d="m42.12 23.88a1.38 1.38 0 0 0 -.4-1 1.4 1.4 0 0 0 -1.94 0l-14 14-6.56-6.48a1.38 1.38 0 0 0 -1.94 0 1.39 1.39 0 0 0 0 2l7.5 7.5a1.4 1.4 0 0 0 1.94 0l15-15a1.37 1.37 0 0 0 .4-1.02z"></path></g></svg>