<svg xmlns="http://www.w3.org/2000/svg" viewBox="0 0 72 72"><g fill="#5b9bd3"><path d="M35.9 51.4c-8 0-14.5-6.5-14.5-14.5 0-4.3 1.9-8.3 5.2-11.1l1.2 1.5c-2.9 2.4-4.5 5.9-4.5 9.6 0 6.9 5.6 12.6 12.6 12.6s12.6-5.6 12.6-12.6c0-3.7-1.6-7.2-4.5-9.6l1.2-1.5c3.3 2.8 5.2 6.8 5.2 11.1 0 8-6.5 14.5-14.5 14.5zM38.6 24.6c-1.8-.4-3.6-.4-5.4 0l-.4-1.9a13 13 0 016.2 0z"></path><path d="M35.9 47.5c-5.9 0-10.6-4.8-10.6-10.6 0-1.6.4-3.2 1.1-4.6l1.7.8c-.6 1.2-.9 2.5-.9 3.8 0 4.8 3.9 8.7 8.7 8.7s8.7-3.9 8.7-8.7c0-1.3-.3-2.6-.9-3.8l1.7-.8c.7 1.5 1.1 3 1.1 4.6 0 5.9-4.7 10.6-10.6 10.6zM38.5 28.6a9.2 9.2 0 00-5.2 0l-.6-1.8c2.1-.6 4.3-.6 6.4 0zM35.9 66.9c-2.7 0-4.8-2.2-4.8-4.8V49.5H33V62c0 1.6 1.3 2.9 2.9 2.9s2.9-1.3 2.9-2.9V49.5h1.9V62c0 2.7-2.1 4.9-4.8 4.9z"></path><path d="M29.1 52.4h13.5v1.9H29.1zM22.3 37.9h-7.7V27.2h7.7zm-5.8-2h3.9v-6.8h-3.9zM34 37.9h-7.7V15.6H34zm-5.8-2H32V17.5h-3.9v18.4zM45.6 37.9h-7.7V19.5h7.7zm-5.8-2h3.9V21.4h-3.9zM57.2 37.9h-7.7V10.8h7.7zm-5.8-2h3.9V12.7h-3.9z"></path><path d="M15.842 65.274l15.91-15.91 1.344 1.344-15.91 15.91zM6.204 55.526l15.91-15.91 1.343 1.344-15.91 15.91zM65.9 30.5l-6.3-6.3-2.7 2.7-1.4-1.3 4.1-4.1 4.4 4.3v-17H46.9l4.4 4.4-7.9 7.9-1.4-1.4 6.6-6.5-6.3-6.3h23.6zM9.12 62.31l14.496-14.496 1.343 1.344-14.495 14.495zM6.22 65.22l1.91-1.91 1.343 1.343-1.91 1.91z"></path><path d="M46.854 24.627l2.9-2.9 1.343 1.344-2.9 2.9z"></path></g></svg>