<svg xmlns="http://www.w3.org/2000/svg" viewBox="0 0 44.76 44.76"><g fill="#5b9bd3"><path d="m44.76 44.76h-33.21v-3.73h1.44v2.28h30.32v-35.07l-6.79-6.8h-23.53v19.61h-1.44v-21.05h25.56l7.65 7.64z"></path><path d="m44.03 8.66h-7.94v-7.94h1.45v6.5h6.49z"></path><path d="m10.83 41.87a10.83 10.83 0 1 1 10.83-10.87 10.84 10.84 0 0 1 -10.83 10.87zm0-20.21a9.38 9.38 0 1 0 9.38 9.34 9.4 9.4 0 0 0 -9.38-9.34z"></path><path d="m11.55 37.54h-1.44"></path><path d="m15.88 21.92h-1.44v-19.03h22.37v1.44h-20.93z"></path><path d="m41.87 24.54h-23.98v-1.44h22.53v-15.16h1.45z"></path><path d="m17.32 20.21h21.66v1.44h-21.66z"></path><path d="m21.66 20.93h-1.45v-6.49h-1.44v6.49h-1.45v-7.94h4.34z"></path><path d="m27.43 20.93h-1.44v-10.82h-1.45v10.82h-1.44v-12.27h4.33z"></path><path d="m30.32 20.93h-1.45v-15.15h4.33v9.38h-1.44v-7.94h-1.44z"></path><path d="m31.76 16.6h1.44v4.33h-1.44z"></path><path d="m38.98 20.93h-1.44v-9.38h-1.45v9.38h-1.44v-10.82h4.33z"></path><path d="m30.32 41.87h-15.88v-1.71h1.44v.26h12.99v-12.99h-8.92v-1.44h10.37z"></path><path d="m31.76 25.99h10.11v1.44h-10.11z"></path><path d="m31.76 28.87h10.11v1.44h-10.11z"></path><path d="m31.76 31.76h10.11v1.44h-10.11z"></path><path d="m31.76 34.65h10.11v1.44h-10.11z"></path><path d="m31.76 37.54h10.11v1.44h-10.11z"></path><path d="m40.42 40.42h1.44v1.44h-1.44z"></path><path d="m31.76 40.42h7.22v1.44h-7.22z"></path><path d="m21.29 33.48h1.44v3.06h-1.44z" transform="matrix(.70710678 -.70710678 .70710678 .70710678 -18.31 25.82)"></path><path d="m26.92 35.88-1.95-1.95h-.93l-1.98 1.32-.81-1.2 2.35-1.57h1.96l2.38 2.38z"></path><path d="m9.86 35.95.62-.89 5.47-7.81.1-.14-1.6-1.12-5.14 7.33-2.54-1.9-1.16 1.56 4.15 3.11z"></path></g></svg>