<svg xmlns="http://www.w3.org/2000/svg" viewBox="0 0 44.24 44.24"><g fill="#1b3a69"><path d="m36.39 27.11a7.85 7.85 0 1 1 7.85-7.85 7.86 7.86 0 0 1 -7.85 7.85zm0-14.27a6.43 6.43 0 1 0 6.42 6.42 6.43 6.43 0 0 0 -6.42-6.42z"></path><path d="m22.12 34.25a7.85 7.85 0 1 1 7.88-7.85 7.86 7.86 0 0 1 -7.88 7.85zm0-14.27a6.42 6.42 0 1 0 6.42 6.42 6.43 6.43 0 0 0 -6.42-6.4z"></path><path d="m7.85 41.38a7.85 7.85 0 1 1 7.85-7.85 7.86 7.86 0 0 1 -7.85 7.85zm0-14.27a6.43 6.43 0 1 0 6.42 6.42 6.43 6.43 0 0 0 -6.42-6.42z"></path><path d="m44.24 44.24h-44.24v-10.71h1.43v9.28h41.38v-23.55h1.43z"></path><path d="m14.27 26.4h1.43v17.12h-1.43z"></path><path d="m28.54 19.26h1.43v24.26h-1.43z"></path><path d="m-.29 9.63h40.54v1.43h-40.54z" transform="matrix(.87973157 -.47547067 .47547067 .87973157 -2.52 10.74)"></path><path d="m35.58 6.06-1.24-.71 2.25-3.92h-4.48v-1.43h6.94z"></path><path d="m14.27 10a2.86 2.86 0 1 1 2.85-2.86 2.86 2.86 0 0 1 -2.85 2.86zm0-4.28a1.43 1.43 0 1 0 1.43 1.41 1.43 1.43 0 0 0 -1.43-1.42z"></path><path d="m2.94 9.63h10.53v1.43h-10.53z" transform="matrix(.88080811 -.4734734 .4734734 .88080811 -3.92 5.12)"></path><path d="m.63 13.2h1.6v1.43h-1.6z" transform="matrix(.89438856 -.44729085 .44729085 .89438856 -6.07 2.11)"></path><path d="m24.26 16.41a2.86 2.86 0 1 1 2.85-2.85 2.86 2.86 0 0 1 -2.85 2.85zm0-4.28a1.43 1.43 0 1 0 1.43 1.43 1.43 1.43 0 0 0 -1.43-1.43z"></path><path d="m12.93 16.05h10.53v1.43h-10.53z" transform="matrix(.88080811 -.4734734 .4734734 .88080811 -5.77 10.61)"></path><path d="m10.62 19.62h1.6v1.43h-1.6z" transform="matrix(.89438856 -.44729085 .44729085 .89438856 -7.89 7.25)"></path><path d="m6.42 37.69-3.36-2.85.93-1.09 2.31 1.96 5.34-5.82 1.06.96z"></path><path d="m20.55 30.55-3.36-2.85.92-1.09 2.31 1.97 5.34-5.83 1.06.96z"></path><path d="m34.96 23.42-3.35-2.85.92-1.09 2.31 1.96 5.34-5.82 1.05.96z"></path></g></svg>