<svg xmlns="http://www.w3.org/2000/svg" viewBox="0 0 72 72"><circle cx="35.8" cy="36.1" fill="#5b9bd3" r="35.2"></circle><g fill="#fff"><path d="m25.7 58.3h-5.7v-1.7l-1.2 1.2-4-4 1.2-1.2h-1.7v-5.7h1.7l-1.2-1.2 4-4 1.2 1.2v-1.7h5.7v1.7l1.2-1.2 4 4-1.2 1.2h1.7v5.7h-1.7l1.2 1.2-4 4-1.2-1.2zm-4.2-1.4h2.8v-1.6l.5-.2c.2-.1.4-.1.6-.2l.5-.2 1.1 1.1 2-2-1.1-1.1.2-.5c.1-.2.2-.4.2-.6l.2-.5h1.5v-2.8h-1.6l-.2-.5c-.1-.2-.1-.4-.2-.6l-.2-.5 1.1-1.1-2-2-1.1 1.1-.5-.2c-.2-.1-.4-.2-.6-.2l-.5-.2v-1.6h-2.8v1.6l-.4.3c-.2.1-.4.1-.6.2l-.4.3-1.1-1.1-2 2 1.1 1.1-.2.5c-.1.2-.2.4-.2.6l-.2.5h-1.6v2.8h1.6l.2.5c.1.2.1.4.2.6l.2.5-1.1 1.1 2 2 1.1-1.1.5.2c.2.1.4.2.6.2l.5.2v1.4z"></path><path d="m22.9 53.4c-2 0-3.6-1.6-3.6-3.6s1.6-3.6 3.6-3.6 3.6 1.6 3.6 3.6c-.1 2-1.7 3.6-3.6 3.6zm0-5.7c-1.2 0-2.1 1-2.1 2.1 0 1.2 1 2.1 2.1 2.1 1.2 0 2.1-1 2.1-2.1 0-1.2-.9-2.1-2.1-2.1z"></path><path d="m23.6 49.8h-1.4v-.2c0-9.9 4.7-19.4 12.6-25.3 5.5-4.2 12.3-6.5 19.2-6.5h2.3v1.4h-2.3c-6.6 0-13.1 2.2-18.4 6.2-7.5 5.7-12 14.8-12 24.2z"></path><path d="m54.7 22.5-1.1-.9 2.5-3.1-2.5-3.1 1.1-.9 3.2 4z"></path><path d="m52.8 34.1c-2 0-3.6-1.6-3.6-3.6s1.6-3.6 3.6-3.6 3.6 1.6 3.6 3.6-1.7 3.6-3.6 3.6zm0-5.7c-1.2 0-2.1 1-2.1 2.1s1 2.1 2.1 2.1c1.2 0 2.1-1 2.1-2.1s-1-2.1-2.1-2.1z"></path><path d="m23.6 24.9c-2 0-3.6-1.6-3.6-3.6s1.6-3.6 3.6-3.6 3.6 1.6 3.6 3.6-1.6 3.6-3.6 3.6zm0-5.7c-1.2 0-2.1 1-2.1 2.1 0 1.2 1 2.1 2.1 2.1 1.2 0 2.1-1 2.1-2.1s-.9-2.1-2.1-2.1z"></path><path d="m40.7 40.1h1.4v8.1h-1.4z" transform="matrix(.7071 -.7071 .7071 .7071 -19.0655 42.1778)"></path><path d="m37.4 43.4h8.1v1.4h-8.1z" transform="matrix(.7071 -.7071 .7071 .7071 -19.0655 42.1778)"></path></g></svg>