<svg xmlns="http://www.w3.org/2000/svg" viewBox="0 0 60 60"><g fill="#5b9bd3"><path d="m16.24 31.11h-7.77v-10.69h7.77zm-5.83-1.94h3.89v-6.81h-3.89z"></path><path d="m29.9 22.38a7.25 7.25 0 0 0 -2 .29v1.87a5.5 5.5 0 0 1 2-.38 5.29 5.29 0 0 1 1.9.35v-1.84a6.9 6.9 0 0 0 -1.9-.29z"></path><path d="m20.13 31.08a5.87 5.87 0 0 0 3.51 10.59h3.36v-1.77h-3.36a4.11 4.11 0 0 1 -.85-8.14l.31-.07.1.3a8 8 0 0 0 .8 1.52l1.42-1.06a5.25 5.25 0 0 1 -.62-1.34h-4.67z"></path><path d="m33.75 20.91v4.89l.25.2 1.38-1a7.19 7.19 0 0 0 -1.12-1.08l-.26-.22.14-.27a8 8 0 0 1 3.5-3.43v-1.92a9.77 9.77 0 0 0 -3.89 2.83z"></path><path d="m51.25 27.53v1.81a5.36 5.36 0 0 1 -1.34 10.56h-2.14v1.77h2.14a7.13 7.13 0 0 0 1.34-14.14z"></path><path d="m45.41 18.39v2a7.85 7.85 0 0 1 3.59 6.61v.4l-.31.07a7.07 7.07 0 0 0 -2.79 1.12l.43.56h2.97v-7.25a9.62 9.62 0 0 0 -3.89-3.51z"></path><path d="m22.77 29.17h1.78a5.26 5.26 0 0 1 1.45-3.29v-2.31a7.15 7.15 0 0 0 -3.23 5.6z"></path><path d="m41.15 17.38a9.17 9.17 0 0 0 -1.57.15v1.81a7.57 7.57 0 0 1 1.57-.19 8 8 0 0 1 2.32.35v-1.83a9.83 9.83 0 0 0 -2.32-.29z"></path><path d="m29.55 41.67h4.46v8.76h1.78v-10.53h-3.04l4.65-7.45 4.66 7.45h-3.04v10.53h1.77v-8.76h4.47l-6.6-10.56h-2.51z"></path><path d="m37.36 29.17h.08l-.04-.06z"></path><path d="m22.77 30v-.31a.49.49 0 0 0 0-.11c0-.12 0-.24 0-.36h-.69v-18.52h3.92v12.87a7.15 7.15 0 0 1 1.94-.9v-13.92h-7.81v22.33a5.76 5.76 0 0 1 2.34-1.08z"></path><path d="m26 23.57v2.31a5.45 5.45 0 0 1 1.94-1.34v-1.87a7.15 7.15 0 0 0 -1.94.9z"></path><path d="m24.55 29.17h-1.78v.36a.49.49 0 0 1 0 .11v.36l-.3.06a5.76 5.76 0 0 0 -2.34 1.07h4.64a5.22 5.22 0 0 1 -.24-1.58c0-.14.01-.26.02-.38z"></path><path d="m32.46 22.86.14-.28a10.1 10.1 0 0 1 1.15-1.67v-6.32h3.89v3.49a9.17 9.17 0 0 1 1.94-.55v-4.89h-7.78v10c.12 0 .25 0 .37.09z"></path><path d="m37.64 18.08v1.92a7.71 7.71 0 0 1 1.94-.68v-1.79a9.17 9.17 0 0 0 -1.94.55z"></path><path d="m33.75 25.8v-4.89a10.1 10.1 0 0 0 -1.15 1.67l-.14.28-.29-.1c-.12 0-.25-.06-.37-.09v1.84a5.36 5.36 0 0 1 1.95 1.29z"></path><path d="m37.36 29.17-1.21 1.94h2.51l-1.22-1.94z"></path><path d="m45.41 5.83h3.89v16.07a9.61 9.61 0 0 1 1.5 5.1v.4l.31.06a.76.76 0 0 1 .16 0v-23.57h-7.8v13.78a9.2 9.2 0 0 1 1.94.72z"></path><path d="m45.41 18.39a9.2 9.2 0 0 0 -1.94-.72v1.83a7.69 7.69 0 0 1 1.94.92z"></path><path d="m51.09 27.5-.31-.06v-.4a9.61 9.61 0 0 0 -1.5-5.14v7.27h-2.93l.65.83a5.29 5.29 0 0 1 2.92-.87 5.41 5.41 0 0 1 1.34.18v-1.78a.76.76 0 0 0 -.17-.03z"></path><path d="m11.1 60-1.38-1.37 16.01-16.02h2.75z"></path><path d="m-3.61 38.24h29.34v1.94h-29.34z" transform="matrix(.70710678 -.70710678 .70710678 .70710678 -24.49 19.31)"></path><path d="m60 23.74-6.32-6.32-2.72 2.71-1.37-1.37 4.09-4.09 4.37 4.37v-17.09h-17.09l4.37 4.37-7.98 7.98-1.37-1.37 6.6-6.61-6.32-6.32h23.74z"></path><path d="m.18 47.17h23.35v1.94h-23.35z" transform="matrix(.70710678 -.70710678 .70710678 .70710678 -30.57 22.49)"></path><path d="m.28 57.37h2.75v1.94h-2.75z" transform="matrix(.70710678 -.70710678 .70710678 .70710678 -40.77 18.26)"></path><path d="m40.92 16.04h4.13v1.94h-4.13z" transform="matrix(.70710678 -.70710678 .70710678 .70710678 .56 35.38)"></path></g></svg>