<svg xmlns="http://www.w3.org/2000/svg" viewBox="0 0 57.52 57.84"><g fill="#1b3a69"><path d="m28.76 29.08a3.71 3.71 0 0 0 -2.76 6.16v5h5.56v-5a3.71 3.71 0 0 0 -2.78-6.16zm1.24 5.09-.3.27v3.92h-1.87v-3.92l-.3-.27a1.83 1.83 0 0 1 -.62-1.37 1.86 1.86 0 1 1 3.71 0 1.81 1.81 0 0 1 -.62 1.37z"></path><path d="m27.83 9.6v2.84a8.35 8.35 0 0 0 -7.42 8.29v4.81a2.78 2.78 0 0 0 -1.85 2.62v13a2.78 2.78 0 0 0 2.78 2.78h6.49v6.49h1.86v-6.5h6.49a2.79 2.79 0 0 0 2.82-2.78v-13a2.79 2.79 0 0 0 -1.86-2.62v-4.8a8.35 8.35 0 0 0 -7.42-8.29v-2.84zm9.28 31.55a.93.93 0 0 1 -.93.92h-14.84a.93.93 0 0 1 -.93-.92v-13a.93.93 0 0 1 .93-.93h14.84a.93.93 0 0 1 .93.93zm-5.57-15.78h-5.54v-4.64a2.78 2.78 0 1 1 5.56 0zm3.72-4.64v4.64h-1.86v-4.64a4.64 4.64 0 0 0 -9.28 0v4.64h-1.85v-4.64a6.5 6.5 0 0 1 13 0z"></path><path d="m56.59 9.6c-17 0-27.11-8.95-27.21-9l-.62-.6-.62.56c-.14.09-10.14 9.04-27.21 9.04h-.93v.93c0 24.32 14 47.31 28.76 47.31s28.76-23 28.76-47.31v-.93zm-27.83 46.4c-13.4 0-26.55-21.93-26.9-44.55 15-.27 24.45-7 26.9-9 2.45 2 11.9 8.72 26.9 9-.35 22.62-13.5 44.55-26.9 44.55z"></path><path d="m28.23 5.16a47.22 47.22 0 0 1 -20.92 7.75l.23 1.85a49.59 49.59 0 0 0 21.22-7.71 49.59 49.59 0 0 0 21.24 7.71l.22-1.85a47.22 47.22 0 0 1 -20.93-7.75l-.53-.37z"></path><path d="m28.76 52.28c-5 0-10.63-4.46-15.17-11.92a58.11 58.11 0 0 1 -7.95-27.09l-1.85.09a60 60 0 0 0 8.21 28c4.88 8 11.15 12.81 16.76 12.81s11.88-4.79 16.76-12.81a60.15 60.15 0 0 0 8.22-28l-1.86-.09a58.11 58.11 0 0 1 -8 27.09c-4.49 7.46-10.16 11.92-15.12 11.92z"></path></g></svg>