<svg xmlns="http://www.w3.org/2000/svg" viewBox="0 0 60 60"><g fill="#5b9bd3"><path d="m31 60h-1a30 30 0 0 1 0-60h1zm-2-58a28.07 28.07 0 0 0 0 56.1z"></path><path d="m.97 29.03h24.19v1.94h-24.19z"></path><path d="m27.1 29.03h2.9v1.94h-2.9z"></path><path d="m30 18.39c-17.14 0-20.16-9-20.28-9.39l1.85-.59c.1.33 2.82 8 18.43 8z"></path><path d="m18.21 18.79-1.84-.61a35.75 35.75 0 0 1 13.11-18.03l1.05 1.63a34.47 34.47 0 0 0 -12.32 17.01z"></path><path d="m29.48 59.85a36.9 36.9 0 0 1 -14.96-29.85 40 40 0 0 1 .21-4l1.92.2c-.13 1.32-.2 2.58-.2 3.85a34.91 34.91 0 0 0 14.07 28.17z"></path><path d="m11.57 51.58-1.85-.58c.07-.23 1.87-5.65 10.54-8.15l.54 1.86c-7.68 2.21-9.22 6.83-9.23 6.87z"></path><path d="m28.1 43.59-.1-1.93h2v1.94c-.66-.05-1.28-.03-1.9-.01z"></path><path d="m16.45 27.1a4.84 4.84 0 1 1 4.84-4.84 4.84 4.84 0 0 1 -4.84 4.84zm0-7.75a2.91 2.91 0 1 0 2.9 2.91 2.91 2.91 0 0 0 -2.9-2.91z"></path><path d="m24.19 47.42a4.84 4.84 0 1 1 4.81-4.84 4.85 4.85 0 0 1 -4.81 4.84zm0-7.74a2.9 2.9 0 1 0 2.91 2.9 2.9 2.9 0 0 0 -2.91-2.9z"></path><path d="m30 54.19v-1.93a22.26 22.26 0 0 0 0-44.52v-1.93a24.19 24.19 0 0 1 0 48.38z"></path><path d="m34.35 41.61h-4.35v-1.93h4.35a3.39 3.39 0 0 0 0-6.78h-4.35v-1.9h4.35a5.32 5.32 0 1 1 0 10.64z"></path><path d="m34.84 49.35h-4.84v-1.93h2.9v-3.87h1.45a7.26 7.26 0 0 0 0-14.52h-4.35v-1.93h4.35a9.19 9.19 0 0 1 .49 18.37z"></path><path d="m43.55 27.1h-5.81v-3.39a3.39 3.39 0 0 0 -3.39-3.39h-4.35v-1.93h4.35a5.33 5.33 0 0 1 5.33 5.32v1.45h1.93v-1.45a7.27 7.27 0 0 0 -7.26-7.26h-1.45v-3.87h-2.9v-1.93h4.84v3.88a9.2 9.2 0 0 1 8.71 9.18z"></path><path d="m49.35 55.16a3.87 3.87 0 1 1 3.88-3.87 3.87 3.87 0 0 1 -3.88 3.87zm0-5.81a1.94 1.94 0 1 0 1.94 1.94 1.94 1.94 0 0 0 -1.94-1.94z"></path><path d="m52.06 50.34-1.43-1.34a28.06 28.06 0 0 0 -12.21-45.77l.58-1.85a30 30 0 0 1 13.06 49z"></path><path d="m36.55 2.72c-.69-.17-1.3-.29-1.87-.39l.32-1.91c.61.11 1.27.24 2 .42z"></path></g></svg>