<svg xmlns="http://www.w3.org/2000/svg" viewBox="0 0 44.47 44.24"><g fill="#5b9bd3"><path d="m10.22 15.7h1.43v1.43h-1.43z"></path><path d="m15.93 15.7h1.43v1.43h-1.43z"></path><path d="m13.07 22.83h1.43a2.14 2.14 0 0 0 2.14-2.14h-1.43a.71.71 0 0 1 -.71.71h-1.43a.71.71 0 0 1 -.71-.71h-1.43a2.14 2.14 0 0 0 2.14 2.14z"></path><path d="m35.49 0h-28.12v6.17a5.17 5.17 0 0 0 -2.86 4.6v7.07a2.87 2.87 0 0 0 2.87 2.85h.12a6.44 6.44 0 0 0 2.69 3.9v.53l-3.67.66a6.47 6.47 0 0 0 -5 4.57l-1.52 5.32h7.37v8.57h37.1v-35.24zm-15.26 19.25v-2.88a1.45 1.45 0 0 1 0 2.89zm-.52-15h14.77v5.75h5.71v2.85h-17.13v-2.15a7.85 7.85 0 0 0 -3.35-6.42zm16.2 4.28v-6.09l6.09 6.12zm-1.43-7.1v1.42h-21.48a5.13 5.13 0 0 0 -4.21 2.15v-3.57zm-28.48 16.38a1.45 1.45 0 0 1 1.41-1.44v2.88a1.46 1.46 0 0 1 -1.41-1.44zm1.37-4.81v1.92a2.78 2.78 0 0 0 -1.43.42v-4.57a3.74 3.74 0 0 1 3-3.65l.34-.07.36-.71a3.71 3.71 0 0 1 3.36-2.06h2.25a6.43 6.43 0 0 1 6.43 6.42v4.64a2.93 2.93 0 0 0 -1.41-.4v-2.38h-.71a2.86 2.86 0 0 1 -2.88-1.45l-.44-.94-.72.76c-1.83 1.89-5.81 2.07-7.44 2.07zm1.42 6.23v-4.79c2.07-.07 5.08-.44 7.05-1.93a4.11 4.11 0 0 0 3 1.44v5.3a5 5 0 0 1 -10 0zm17.59 12.16h8.1v1.85l-3.57 3.57-2.35-2.35-1 1 3.36 3.35 3.57-3.56v4.75h-8.57v-4.33h1.65zm-3.45 2.86-.59-3-1.4.28.54 2.72h-5l-.48-2.71.72-1.07 1.06.42 1.61-4 1.3.2a5 5 0 0 1 4 3.6l1 3.58zm-9.27-7.17-2-1.72v-.05a6.35 6.35 0 0 0 2.15.38 6.47 6.47 0 0 0 2.07-.35zm-.93 1.09-2.12.83-.94-2.36 1.09-.2zm1 1.14 1.62.63-.5.74h-2.11l-.51-.77zm-.77 2.8h1.69l.43 2.14h-2.56zm4-3.06-2.32-.91 2.13-1.68 1.16.18zm-14.07 1.69a5 5 0 0 1 3.92-3.56l1.43-.25 1.58 4 1.06-.43.72 1.07-.54 2.71h-5l.54-2.72-1.4-.28-.6 3h-2.71zm5.9 12.07v-7.14h15.7v5.71h11.42v-7.55l5.49-5.5-1-1-4.49 4.49v-1.82h-9.91a6.42 6.42 0 0 0 -5.08-4.31l-3.56-.56v-.48a6.42 6.42 0 0 0 2.72-3.93h.12a2.88 2.88 0 0 0 2.88-2.85v-3.6h18.53v-4.27h1.39v32.81z"></path><path d="m27.34 15.7h14.27v1.43h-14.27z"></path><path d="m24.49 15.7h1.43v1.43h-1.43z"></path><path d="m24.49 18.55h17.12v1.43h-17.12z"></path><path d="m24.49 21.4h17.12v1.43h-17.12z"></path><path d="m28.06 24.26h10.7v1.43h-10.7z"></path><path d="m40.19 24.26h1.43v1.43h-1.43z"></path></g></svg>