<svg xmlns="http://www.w3.org/2000/svg" xmlns:xlink="http://www.w3.org/1999/xlink" id="Layer_1" x="0px" y="0px" viewBox="0 0 72 72" style="enable-background:new 0 0 72 72;" xml:space="preserve"> <style type="text/css"> .st0{fill:#5B9BD3;} </style> <g> <g> <rect x="29" y="6" class="st0" width="2" height="48"></rect> </g> <g> <rect x="6" y="29" class="st0" width="39" height="2"></rect> </g> <g> <rect x="47" y="29" class="st0" width="7" height="2"></rect> </g> <g> <path class="st0" d="M30.3,55H30C16.2,55,5,43.8,5,30S16.2,5,30,5c13.8,0,25,11.2,25,25c0,4.9-1.4,9.7-4.2,13.8l-1.7-1.1 C51.7,38.9,53,34.5,53,30c0-11.6-8.6-21.2-19.8-22.8C36.9,10.5,43,17.8,43,30c0,17-12,24.5-12.5,24.9L30.3,55z M29.7,7 C17.2,7.2,7,17.4,7,30s10.2,22.8,22.7,23C31.3,51.9,41,44.6,41,30C41,15.3,31.3,8.1,29.7,7z"></path> </g> <g> <path class="st0" d="M30,21c-11.8,0-18.4-6-18.7-6.3l1.4-1.5C12.7,13.3,19,19,30,19c11,0,17.3-5.7,17.3-5.7l1.4,1.5 C48.4,15,41.8,21,30,21z"></path> </g> <g> <path class="st0" d="M12.7,46.7l-1.4-1.5C11.6,45,18.2,39,30,39c6.5,0,11.5,1.9,14.5,3.5l-0.9,1.8C40.7,42.8,36.1,41,30,41 C19,41,12.7,46.7,12.7,46.7z"></path> </g> <g> <path class="st0" d="M37,56c-1.7,0-3-1.3-3-3c0-1.7,1.3-3,3-3c1.7,0,3,1.3,3,3C40,54.7,38.7,56,37,56z M37,52c-0.6,0-1,0.4-1,1 c0,0.6,0.4,1,1,1c0.6,0,1-0.4,1-1C38,52.5,37.6,52,37,52z"></path> </g> <g> <path class="st0" d="M46,45c-1.7,0-3-1.3-3-3c0-1.7,1.3-3,3-3c1.7,0,3,1.3,3,3C49,43.7,47.7,45,46,45z M46,41c-0.6,0-1,0.4-1,1 c0,0.6,0.4,1,1,1c0.6,0,1-0.4,1-1C47,41.4,46.6,41,46,41z"></path> </g> <g> <path class="st0" d="M55,49c-1.7,0-3-1.3-3-3s1.3-3,3-3c1.7,0,3,1.3,3,3S56.7,49,55,49z M55,45c-0.6,0-1,0.4-1,1s0.4,1,1,1 c0.6,0,1-0.4,1-1S55.6,45,55,45z"></path> </g> <g> <path class="st0" d="M64,38c-1.7,0-3-1.3-3-3s1.3-3,3-3c1.7,0,3,1.3,3,3S65.7,38,64,38z M64,34c-0.6,0-1,0.4-1,1s0.4,1,1,1 c0.6,0,1-0.4,1-1S64.6,34,64,34z"></path> </g> <g> <rect x="35.8" y="46.5" transform="matrix(0.6143 -0.7891 0.7891 0.6143 -21.4761 51.0705)" class="st0" width="11.4" height="2"></rect> </g> <g> <rect x="49.5" y="41.3" transform="matrix(0.3714 -0.9285 0.9285 0.3714 -9.1078 74.5515)" class="st0" width="2" height="5.4"></rect> </g> <g> <rect x="53.8" y="39.5" transform="matrix(0.6143 -0.7891 0.7891 0.6143 -9.0066 62.5768)" class="st0" width="11.4" height="2"></rect> </g> <g> <rect x="36" y="55" class="st0" width="2" height="11"></rect> </g> <g> <rect x="45" y="44" class="st0" width="2" height="22"></rect> </g> <g> <rect x="54" y="48" class="st0" width="2" height="18"></rect> </g> <g> <rect x="63" y="37" class="st0" width="2" height="29"></rect> </g> <g> <rect x="24" y="65" class="st0" width="43" height="2"></rect> </g> <g> <path class="st0" d="M27,61c-1.7,0-3-1.3-3-3s1.3-3,3-3c1.7,0,3,1.3,3,3S28.7,61,27,61z M27,57c-0.6,0-1,0.4-1,1s0.4,1,1,1 c0.6,0,1-0.4,1-1S27.5,57,27,57z"></path> </g> <g> <rect x="26" y="60" class="st0" width="2" height="7"></rect> </g> <g> <rect x="28.7" y="54.5" transform="matrix(0.9192 -0.3937 0.3937 0.9192 -19.2292 17.2797)" class="st0" width="7.6" height="2"></rect> </g> <g> <path class="st0" d="M29.5,54.9C29,54.5,17,47,17,30c0-5.2,1.1-10.1,3.4-14.5l1.8,0.9C20.1,20.5,19,25.1,19,30 c0,15.9,11.4,23.1,11.5,23.2L29.5,54.9z"></path> </g> <g> <path class="st0" d="M23.3,14.5l-1.7-1.1c3.5-5.6,7.7-8.2,7.9-8.3l1,1.7C30.5,6.9,26.5,9.3,23.3,14.5z"></path> </g> </g> </svg>