<svg xmlns="http://www.w3.org/2000/svg" viewBox="0 0 31.13 41.76"><g fill="#1b3a69"><path d="m29.71 36.67-5-10.18.51-.07a4 4 0 0 0 2.94-1.32c.68-1 .47-2.19.26-3.37a4.79 4.79 0 0 1 -.11-1.85 4.28 4.28 0 0 1 1.08-1.34 4.47 4.47 0 0 0 1.73-3 4.45 4.45 0 0 0 -1.73-3 4.31 4.31 0 0 1 -1.08-1.34 4.74 4.74 0 0 1 .11-1.84c.21-1.19.42-2.41-.26-3.39a4.11 4.11 0 0 0 -3.05-1.27 4.25 4.25 0 0 1 -1.65-.43 4.48 4.48 0 0 1 -.9-1.52c-.48-1-1-2.24-2.17-2.63s-2.23.24-3.2.78a4.06 4.06 0 0 1 -1.62.69 4.15 4.15 0 0 1 -1.57-.68c-1-.55-2.14-1.17-3.26-.79s-1.67 1.53-2.17 2.63a4.48 4.48 0 0 1 -.9 1.52 4.2 4.2 0 0 1 -1.67.43 4.13 4.13 0 0 0 -3 1.3 4.39 4.39 0 0 0 -.3 3.4 4.84 4.84 0 0 1 .11 1.86 4.24 4.24 0 0 1 -1.08 1.34 4.42 4.42 0 0 0 -1.73 3 4.47 4.47 0 0 0 1.73 3 4.13 4.13 0 0 1 1.08 1.34 4.73 4.73 0 0 1 -.11 1.84c-.21 1.19-.42 2.4.26 3.38a4 4 0 0 0 3 1.32l.51.07-5 10.18a.94.94 0 0 0 1 1.35l4.68-.85 2.35 4.11a1 1 0 0 0 .83.48.94.94 0 0 0 .85-.53l5.24-10.69a1 1 0 0 0 0-.13l.09-.52.57.24c1.05.59 2.15 1.21 3.27.83s1.67-1.53 2.17-2.64l.47-1 4.13 8.43-3.48-.64a.94.94 0 0 0 -1 .46l-1.79 3.14-1.81-3.7a.93.93 0 0 0 -.55-.48 1.06 1.06 0 0 0 -.31-.05.92.92 0 0 0 -.42.1.91.91 0 0 0 -.48.54 1 1 0 0 0 .05.73l2.67 5.32a1 1 0 0 0 .82.53 1 1 0 0 0 .86-.48l2.32-4.11 4.68.85a.91.91 0 0 0 .93-.36.94.94 0 0 0 .1-.99zm-19.46 2.11-1.8-3.15a.92.92 0 0 0 -1-.46l-3.45.64 4.14-8.43.46 1c.51 1.11 1 2.25 2.17 2.64a3.84 3.84 0 0 0 2.89-.62l1-.58zm12.06-13.43a5.57 5.57 0 0 0 -1.48 2.24l-.34-.16.34.16c-.51 1.1-.74 1.47-1 1.6h-.09-.1a5.49 5.49 0 0 1 -1.52-.65 5.49 5.49 0 0 0 -2.56-.93 5.48 5.48 0 0 0 -2.57.93l-.22.13a3.09 3.09 0 0 1 -1.25.54.45.45 0 0 1 -.16 0c-.32-.14-.57-.53-1.07-1.62a5.55 5.55 0 0 0 -1.47-2.24 5.46 5.46 0 0 0 -2.54-.8c-1.18-.17-1.59-.29-1.76-.54s-.17-.73 0-2a6 6 0 0 0 0-2.74 5.42 5.42 0 0 0 -1.55-2.12c-.8-.79-1.17-1.23-1.17-1.62s.37-.83 1.16-1.61a5.48 5.48 0 0 0 1.56-2.14 6 6 0 0 0 0-2.74c-.22-1.23-.23-1.7 0-2s.57-.37 1.74-.53a5.58 5.58 0 0 0 2.56-.8 5.65 5.65 0 0 0 1.48-2.16c.51-1.1.74-1.48 1-1.6h.17a4 4 0 0 1 1.53.61 5.48 5.48 0 0 0 2.57.93 5.58 5.58 0 0 0 2.56-.92c1.21-.68 1.46-.67 1.54-.67h.14c.3.14.57.62 1 1.58a5.59 5.59 0 0 0 1.49 2.27 5.37 5.37 0 0 0 2.53.79c1.19.17 1.6.3 1.77.54s.16.73-.06 2a6 6 0 0 0 -.05 2.74 5.55 5.55 0 0 0 1.57 2.18c.79.79 1.17 1.23 1.17 1.62s-.38.83-1.17 1.62a5.52 5.52 0 0 0 -1.56 2.12 6 6 0 0 0 .05 2.74c.22 1.23.23 1.71.05 2s-.58.37-1.76.54a5.38 5.38 0 0 0 -2.53.71z"></path><path d="m15.57 6.64a8.93 8.93 0 1 0 8.92 8.93 8.95 8.95 0 0 0 -8.92-8.93zm0 15.94a7 7 0 1 1 7-7 7 7 0 0 1 -7 7z"></path></g></svg>