<svg xmlns="http://www.w3.org/2000/svg" viewBox="0 0 63.42 60"><g fill="#5b9bd3"><path d="m8.9 21.36a4.4 4.4 0 0 0 -.42-1.85l16.13-11.78a4.33 4.33 0 0 0 5.21.54l5.62 5.31a4.45 4.45 0 1 0 7.43 0l5.61-5.31a4.39 4.39 0 0 0 2.24.63 4.49 4.49 0 1 0 -3.57-1.82l-5.53 5.24a4.43 4.43 0 0 0 -4.93 0l-5.54-5.24a4.38 4.38 0 0 0 .85-2.63 4.45 4.45 0 1 0 -8.45 1.85l-16.12 11.78a4.43 4.43 0 0 0 -7.43 3.28 4.45 4.45 0 0 0 8.9 0zm41.82-19.58a2.67 2.67 0 1 1 -2.67 2.67 2.68 2.68 0 0 1 2.67-2.67zm-11.57 11.57a2.67 2.67 0 1 1 -2.67 2.65 2.67 2.67 0 0 1 2.67-2.65zm-11.56-11.57a2.67 2.67 0 1 1 -2.67 2.67 2.68 2.68 0 0 1 2.67-2.67zm-23.14 22.22a2.67 2.67 0 1 1 2.67-2.67 2.68 2.68 0 0 1 -2.67 2.67z"></path><path d="m42.47 20.66-1.29 1.22a18.6 18.6 0 0 1 4.48 8.12 16.4 16.4 0 0 0 1.63-.8 20.32 20.32 0 0 0 -4.82-8.54z"></path><path d="m30.38 53.17a24.68 24.68 0 0 0 4.62-5.83c0-.23 0-.45 0-.69v-3.47c-.18.47-.36.92-.56 1.35a23.62 23.62 0 0 0 -5.91-.9v-8h6.47v-1.82h-6.52v-8a24.13 24.13 0 0 0 5.91-.89 22.82 22.82 0 0 1 1.88 6.64h1.8a25 25 0 0 0 -2-7.22 20 20 0 0 0 2.8-1.34l-.87-1.53a17.62 17.62 0 0 1 -2.65 1.22 25 25 0 0 0 -5-6.47 19.27 19.27 0 0 1 2.8.65l.53-1.7a20.47 20.47 0 1 0 2.74 38 13.29 13.29 0 0 1 -.68-1.65 18.79 18.79 0 0 1 -5.36 1.65zm-1.9-36.23a23.78 23.78 0 0 1 5.09 6.31 21.74 21.74 0 0 1 -5.09.74zm-3.71-.69a24.87 24.87 0 0 0 -4.94 6.44 16.58 16.58 0 0 1 -4.26-2.28 18.65 18.65 0 0 1 9.2-4.16zm-10.53 5.4a18.06 18.06 0 0 0 4.81 2.66 25.11 25.11 0 0 0 -2.12 9.5h-8a18.65 18.65 0 0 1 5.31-12.16zm-5.3 13.94h8a25.12 25.12 0 0 0 2.12 9.51 18.06 18.06 0 0 0 -4.81 2.66 18.65 18.65 0 0 1 -5.31-12.17zm6.63 13.41a17.33 17.33 0 0 1 4.26-2.27 24.87 24.87 0 0 0 4.94 6.44 18.58 18.58 0 0 1 -9.2-4.17zm11.13 3.46a23.34 23.34 0 0 1 -5.1-6.3 22.34 22.34 0 0 1 5.1-.75zm0-8.83a24.11 24.11 0 0 0 -5.92.9 23.31 23.31 0 0 1 -2.07-8.94h8zm0-9.82h-8a23.3 23.3 0 0 1 2.07-8.93 24.59 24.59 0 0 0 5.92.9zm0-9.81a22.34 22.34 0 0 1 -5.1-.75 23.18 23.18 0 0 1 5.1-6.25zm1.78 28.46v-7.06a22.73 22.73 0 0 1 5.1.75 23.45 23.45 0 0 1 -5.1 6.31z"></path><path d="m61.83 33.3a20.21 20.21 0 0 1 -11.26-3.41l-.49-.32-.5.32a20.15 20.15 0 0 1 -11.26 3.41h-1.59v13.35a13.35 13.35 0 1 0 26.69 0v-13.35zm-.19 1.78v11.57a11.57 11.57 0 0 1 -10.38 11.51 11.56 11.56 0 0 1 -12.69-10.33 11.51 11.51 0 0 1 -.06-1.18v-11.57q.77 0 1.53-.06c.37 0 .73-.08 1.1-.13s1-.15 1.54-.25a3 3 0 0 0 .32-.06c.6-.13 1.18-.28 1.76-.46l.55-.18c.43-.14.85-.3 1.27-.47l.53-.22c.56-.24 1.12-.51 1.67-.8s.87-.49 1.3-.76c.42.27.85.52 1.29.76s1.11.56 1.67.8l.53.22c.42.17.84.32 1.27.47l.55.18c.58.18 1.16.33 1.76.46a3 3 0 0 0 .32.06c.51.1 1 .19 1.54.25a19.27 19.27 0 0 0 2.63.19z"></path><path d="m56.3 54.2a9.79 9.79 0 0 0 3.12-4.64 9.67 9.67 0 0 0 .44-2.91v-9.85l-.78-.09a23.6 23.6 0 0 1 -8.58-2.71l-.42-.23-.43.23a23.43 23.43 0 0 1 -4.16 1.77 24.37 24.37 0 0 1 -4.41.94l-.79.09v9.85a9.67 9.67 0 0 0 .44 2.91 9.79 9.79 0 0 0 3.12 4.64 10.21 10.21 0 0 0 1.56 1.06 9.81 9.81 0 0 0 9.33 0 10.21 10.21 0 0 0 1.56-1.06zm-14.23-7.55v-8.28c.7-.1 1.39-.23 2.08-.39a25.5 25.5 0 0 0 5.93-2.19 25.05 25.05 0 0 0 4.13 1.69l.17.05c.54.16 1.08.32 1.63.45s1.37.29 2.07.39v8.28a8 8 0 1 1 -16 0z"></path><path d="m48.98 48.06-2.82-2.12-1.07 1.42 4.3 3.23 6.75-9.66-1.45-1.02z"></path></g></svg>