<svg xmlns="http://www.w3.org/2000/svg" viewBox="0 0 85.43 84.5"><g fill="#5b9bd3"><path d="m63.38 84.5h-41.33v-17.91h2.75v15.16h35.83v-15.16h2.75z"></path><path d="m70.09 68h-17.09l-4.77-7.16-4.78 7.16h-28.11l7.35-11h24.8l.74-1.11.77 1.11h13.74zm-15.62-2.79h10.47l-3.67-5.51h-10.47zm-34 0h21.53l3.67-5.51h-21.51z"></path><path d="m46.85 58.32h2.76v24.8h-2.76z"></path><path d="m55.11 40.41h-24.8v-21.41a17.91 17.91 0 0 1 6.12-13.5l6.28-5.5 6.29 5.5a17.9 17.9 0 0 1 6.11 13.5zm-22-2.75h19.25v-18.66a15.17 15.17 0 0 0 -5.18-11.43l-4.47-3.91-4.47 3.91a15.19 15.19 0 0 0 -5.17 11.43z"></path><path d="m33.07 45.92h-9.34l-1.39-5.55a9.44 9.44 0 0 1 -.29-2.37 9.73 9.73 0 0 1 4.34-8.11l4.54-3 1.53 2.3-4.54 3a7 7 0 0 0 -3.12 5.81 6.88 6.88 0 0 0 .2 1.7l.87 3.47h4.43v-4.17h2.76z"></path><path d="m61.7 45.92h-9.34v-6.92h2.75v4.14h4.44l.87-3.47a6.88 6.88 0 0 0 .21-1.7 7 7 0 0 0 -3.12-5.82l-4.54-3 1.53-2.3 4.54 3a9.73 9.73 0 0 1 4.34 8.15 9.92 9.92 0 0 1 -.29 2.37z"></path><path d="m42.71 25.26a6.89 6.89 0 1 1 6.89-6.89 6.91 6.91 0 0 1 -6.89 6.89zm0-11a4.14 4.14 0 1 0 4.14 4.14 4.14 4.14 0 0 0 -4.14-4.17z"></path><path d="m41.34 39.03h2.76v15.16h-2.76z"></path><path d="m46.85 39.03h2.76v9.65h-2.76z"></path><path d="m46.85 51.43h2.76v2.76h-2.76z"></path><path d="m35.82 39.03h2.76v9.65h-2.76z"></path><path d="m35.82 51.43h2.76v2.76h-2.76z"></path><path d="m71 54.19h-3.48v-2.76h3.48a4.82 4.82 0 0 0 4.82-4.82v-3.44a4.13 4.13 0 1 0 -8.26 0v4.13h-2.8v-4.13a6.89 6.89 0 1 1 13.78 0v3.44a7.59 7.59 0 0 1 -7.54 7.58z"></path><path d="m62 51.43h2.76v2.76h-2.76z"></path><path d="m59.25 54.19h-2.76a4.13 4.13 0 0 1 -4.13-4.13v-1.38h2.75v1.38a1.37 1.37 0 0 0 1.38 1.37h2.76z"></path><path d="m70.27 44.55h2.76v2.76h-2.76z"></path><path d="m77.85 72.1h-6.2v-2.75h6.2a4.83 4.83 0 0 0 4.82-4.83v-3.44a4.13 4.13 0 0 0 -8.26 0v4.13h-2.76v-4.13a6.89 6.89 0 0 1 13.78 0v3.44a7.59 7.59 0 0 1 -7.58 7.58z"></path><path d="m77.16 62.46h2.76v2.76h-2.76z"></path><path d="m28.94 54.19h-14.47a7.59 7.59 0 0 1 -7.58-7.58v-3.44a6.89 6.89 0 0 1 13.78 0v4.13h-2.76v-4.13a4.13 4.13 0 1 0 -8.26 0v3.44a4.82 4.82 0 0 0 4.82 4.82h14.47a1.37 1.37 0 0 0 1.37-1.37v-1.38h2.76v1.38a4.14 4.14 0 0 1 -4.13 4.13z"></path><path d="m12.4 44.55h2.76v2.76h-2.76z"></path><path d="m8.27 72.1h-.69a7.59 7.59 0 0 1 -7.58-7.58v-3.44a6.89 6.89 0 0 1 13.78 0v4.13h-2.78v-4.13a4.13 4.13 0 0 0 -8.26 0v3.44a4.83 4.83 0 0 0 4.82 4.83h.69z"></path><path d="m11.02 69.35h2.76v2.76h-2.76z"></path><path d="m5.51 62.46h2.76v2.76h-2.76z"></path></g></svg>