<svg xmlns="http://www.w3.org/2000/svg" viewBox="0 0 44.71 45"><g fill="#689bce"><path d="M34.85 16.91a12.68 12.68 0 00-.62-1.22l1.25-.69q.38.66.69 1.35zm-25 0l-1.31-.59A14.21 14.21 0 019.23 15l1.25.72c-.22.35-.43.77-.62 1.18zm23.63-2.36c-.26-.37-.55-.73-.85-1.08l1.08-1a13.27 13.27 0 01.94 1.19zm-22.27 0l-1.17-.84c.29-.41.61-.8.94-1.18l1.08 1c-.29.27-.57.63-.84 1zm20.47-2c-.34-.31-.69-.61-1.05-.88l.87-1.15a13.37 13.37 0 011.16 1zM13 12.48l-1-1.06c.37-.34.76-.67 1.16-1l.87 1.14c-.32.31-.67.61-1.03.92zm16.48-1.66q-.59-.36-1.2-.66l.63-1.3c.45.22.9.47 1.33.73zm-14.31 0l-.75-1.23c.43-.26.87-.51 1.32-.73l.63 1.3q-.58.3-1.17.66zm11.89-1.19a12.4 12.4 0 00-1.31-.41l.36-1.39a14.9 14.9 0 011.44.44zm-9.4 0l-.49-1.35c.47-.17 1-.32 1.45-.45L19 9.22c-.47.11-.91.25-1.34.4zM24.41 9a12.51 12.51 0 00-1.36-.13l.07-1.44a12.49 12.49 0 011.5.15zm-4.1 0l-.21-1.48c.5-.07 1-.12 1.5-.14l.08 1.44a12.46 12.46 0 00-1.37.18zM23.1 37.62l-.1-1.44a12.69 12.69 0 001.37-.13l.21 1.43c-.47.07-.98.12-1.48.14zm-1.51 0a12.49 12.49 0 01-1.5-.15l.21-1.42a12.51 12.51 0 001.36.13zm4.5-.44l-.35-1.4c.44-.11.88-.25 1.3-.4l.5 1.35c-.47.17-.96.32-1.45.45zm-7.49 0a14.9 14.9 0 01-1.44-.44l.49-1.36a12.4 12.4 0 001.31.41zm10.34-1l-.63-1.3c.4-.2.81-.42 1.2-.66l.75 1.23c-.43.22-.87.47-1.32.69zm-13.18 0c-.44-.22-.89-.47-1.32-.73l.76-1.23c.38.24.79.46 1.19.66zm15.75-1.59l-.87-1.14c.36-.28.71-.58 1-.89l1 1.06c-.34.3-.73.63-1.13.93zm-18.32 0a14.92 14.92 0 01-1.15-1l1-1c.34.31.69.61 1.05.88zm20.53-2.06l-1.08-1c.3-.34.58-.7.85-1.07l1.17.84c-.29.42-.61.81-.94 1.19zM11 32.49c-.33-.38-.64-.78-.93-1.19l1.17-.84c.26.37.55.73.85 1.08zM35.48 30l-1.25-.72c.22-.39.43-.81.62-1.22l1.31.59a14.21 14.21 0 01-.68 1.35zM9.23 30q-.37-.66-.69-1.35l1.32-.59a10.74 10.74 0 00.62 1.22zM22.35 31.15A8.65 8.65 0 1131 22.5a8.66 8.66 0 01-8.65 8.65zm0-15.86a7.21 7.21 0 107.22 7.21 7.22 7.22 0 00-7.22-7.21z"></path><path d="M22.35 31.15A27.67 27.67 0 013.07 23l-.44-.49.44-.51a27.67 27.67 0 0119.28-8.16A27.67 27.67 0 0141.64 22l.44.49-.44.49a27.67 27.67 0 01-19.29 8.17zM4.63 22.5a26.61 26.61 0 0017.72 7.21 26.6 26.6 0 0017.73-7.21 26.65 26.65 0 00-17.73-7.21A26.59 26.59 0 004.63 22.5zM26.28 4.35l-3.93-2.62-3.92 2.62-.8-1.2L22.35 0l4.73 3.15z"></path><path d="M21.63.87h1.44v5.05h-1.44zM6.75 12.44l-1.42-.28 1.12-5.57 5.56-1.11.29 1.41-4.63.93z"></path><path d="M6.54 7.706l1.018-1.018 3.57 3.57-1.017 1.02zM12.01 39.52l-5.56-1.11-1.12-5.57 1.42-.28.92 4.62 4.63.93z"></path><path d="M6.553 37.285l3.57-3.571 1.019 1.018-3.571 3.571zM22.35 45l-4.72-3.15.8-1.2 3.92 2.62 3.93-2.62.8 1.2z"></path><path d="M21.63 39.09h1.44v5.05h-1.44zM32.69 39.52l-.28-1.41 4.63-.93.92-4.62 1.42.28-1.12 5.57z"></path><path d="M33.576 34.736l1.018-1.018 3.57 3.57-1.017 1.02zM37.96 12.44l-.92-4.62-4.63-.93.28-1.41 5.57 1.11 1.12 5.57z"></path><path d="M33.573 10.263l3.57-3.571 1.019 1.018-3.571 3.571zM40.38 26.83a4.34 4.34 0 01-2.88-1.12l1-1.07a2.84 2.84 0 001.91.74 2.88 2.88 0 100-5.76 2.84 2.84 0 00-1.91.74l-1-1.07a4.32 4.32 0 112.88 7.54zM4.33 26.83a4.33 4.33 0 112.87-7.54l-1 1.07a2.88 2.88 0 100 4.28l1 1.07a4.3 4.3 0 01-2.87 1.12zM22.35 27.55A5.05 5.05 0 1126.72 25l-1.25-.73a3.61 3.61 0 10-1.12 1.2l.79 1.21a5 5 0 01-2.79.87z"></path></g></svg>