<svg xmlns="http://www.w3.org/2000/svg" viewBox="0 0 120.2 125.41"><defs><style>.cls-1{fill:#1b3a69;}.cls-2{fill:#cbcbca;}.cls-3{fill:#fff;}</style></defs><g id="Layer_2" data-name="Layer 2"><g id="Layer_1-2" data-name="Layer 1"><path class="cls-1" d="M83.63,39.75v3.81H81.06V39.75Zm0,7.63V51.2H81.06V47.38Zm0,7.64v3.81H81.06V55Zm0,7.63v3.82H81.06V62.65ZM90.12,55v3.81H87.55V55Zm0-7.57v3.82H87.55V47.45Zm0,15.2v3.82H87.55V62.65Zm6.31,0v3.82H93.86V62.65Zm-6.31,6.66v3.82H87.55V69.31Zm6.31,0v3.82H93.86V69.31ZM90.12,76v3.81H87.55V76Zm6.31,0v3.81H93.86V76ZM59,99.24v3.81H56.45V99.24Zm6.31,0v3.81H62.76V99.24ZM59,105.9v3.82H56.45V105.9Zm6.31,0v3.82H62.76V105.9Z"></path><path class="cls-2" d="M63.91,116.35a44.19,44.19,0,1,1,28.92-10.78h0A44,44,0,0,1,63.91,116.35Zm-.06-84.87a40.69,40.69,0,1,0,26.69,71.44h0A40.69,40.69,0,0,0,63.85,31.48Z"></path><path class="cls-1" d="M63.8,119.59a47.11,47.11,0,0,1-33-13.53,1.75,1.75,0,1,1,2.45-2.5,43.57,43.57,0,0,0,54.11,5.62,1.75,1.75,0,1,1,1.88,3A47.25,47.25,0,0,1,63.8,119.59Z"></path><polygon class="cls-1" points="50.46 101.34 50.58 104.84 33.3 105.42 35.13 122.61 31.64 122.98 29.41 102.04 50.46 101.34"></polygon><path class="cls-1" d="M108.71,67.51A1.76,1.76,0,0,1,107,66,43.81,43.81,0,0,0,69.36,28.37a1.76,1.76,0,0,1,.46-3.48,47.36,47.36,0,0,1,40.63,40.64,1.76,1.76,0,0,1-1.51,2Z"></path><polygon class="cls-1" points="92.04 57.13 94.11 54.3 108.08 64.49 117.22 49.82 120.2 51.68 109.05 69.55 92.04 57.13"></polygon><rect class="cls-2" x="1.75" y="1.75" width="73.6" height="87.18"></rect><rect class="cls-3" x="6.43" y="6.43" width="64.24" height="77.23"></rect><path class="cls-1" d="M77.11,90.69H0V0H77.11ZM3.51,87.18H73.6V3.51H3.51Z"></path><rect class="cls-2" x="13.6" y="53.92" width="16.82" height="8.48"></rect><rect class="cls-2" x="30.42" y="62.5" width="16.82" height="13.87"></rect><rect class="cls-2" x="46.36" y="53.92" width="16.82" height="8.48"></rect><path class="cls-1" d="M66.41,12.82a2,2,0,1,0-2,2A2,2,0,0,0,66.41,12.82Z"></path><path class="cls-3" d="M25.79,16.14h0Z"></path><path class="cls-1" d="M51.32,17.89H25.79a1.75,1.75,0,1,1,0-3.5H51.32a1.75,1.75,0,1,1,0,3.5Z"></path><path class="cls-3" d="M19.06,34.4h0Z"></path><path class="cls-1" d="M46.61,36.15H19.06a1.76,1.76,0,1,1,0-3.51H46.61a1.76,1.76,0,0,1,0,3.51Z"></path><path class="cls-3" d="M15,25.27h0Z"></path><path class="cls-1" d="M62.14,27H15a1.76,1.76,0,0,1,0-3.51H62.14a1.76,1.76,0,0,1,0,3.51Z"></path><path class="cls-3" d="M15,43.53h0Z"></path><path class="cls-1" d="M46.08,45.28H15a1.76,1.76,0,0,1,0-3.51H46.08a1.76,1.76,0,0,1,0,3.51Z"></path><path class="cls-2" d="M55,38.44A4.94,4.94,0,1,0,61.52,36,4.94,4.94,0,0,0,55,38.44Z"></path><path class="cls-1" d="M59.49,47.17a6.77,6.77,0,0,1-2.75-.59,6.7,6.7,0,1,1,5.12.15A6.5,6.5,0,0,1,59.49,47.17Zm0-9.88a3.18,3.18,0,1,0,1.12,6.16,3.14,3.14,0,0,0,1.78-1.67,3.19,3.19,0,0,0-2.9-4.49Z"></path><rect class="cls-1" x="1.75" y="87.18" width="73.6" height="3.51"></rect><path class="cls-1" d="M64.94,78.2H12.29V60.65H64.94ZM15.79,74.69H61.43V64.16H15.79Z"></path><path class="cls-1" d="M64.94,64.16H12.29V51.88H64.94ZM15.79,60.65H61.43V55.39H15.79Z"></path><path class="cls-1" d="M30.42,77.81a1.75,1.75,0,0,1-1.75-1.76V54.41a1.75,1.75,0,1,1,3.5,0V76.05A1.75,1.75,0,0,1,30.42,77.81Z"></path><path class="cls-1" d="M46.85,77.81a1.75,1.75,0,0,1-1.75-1.76V54.41a1.76,1.76,0,1,1,3.51,0V76.05A1.76,1.76,0,0,1,46.85,77.81Z"></path><path class="cls-1" d="M62.41,77.81a1.76,1.76,0,0,1-1.76-1.76V54.41a1.76,1.76,0,1,1,3.51,0V76.05A1.76,1.76,0,0,1,62.41,77.81Z"></path><path class="cls-2" d="M111.41,110.14l-2.51-2.08a14.68,14.68,0,0,0-.22-4.59l2.31-2.33a18,18,0,0,0-2-4.32l-3.25.31A14.59,14.59,0,0,0,102.28,94V90.77a17.27,17.27,0,0,0-4.5-1.61l-2.08,2.5a14.16,14.16,0,0,0-4.6.24l-2.32-2.31a17.7,17.7,0,0,0-4.33,2l.31,3.25a14.74,14.74,0,0,0-3.09,3.4H78.4a16.07,16.07,0,0,0-1,2.2,15.36,15.36,0,0,0-.65,2.31l2.5,2.07a14.75,14.75,0,0,0,.23,4.6l-2.31,2.31a17.72,17.72,0,0,0,2.05,4.33l3.25-.31a14.47,14.47,0,0,0,3.41,3.11v3.25a17.44,17.44,0,0,0,2.2,1,15.9,15.9,0,0,0,2.31.65l2.07-2.52a14.75,14.75,0,0,0,4.6-.22l2.31,2.3a17.83,17.83,0,0,0,4.33-2l-.3-3.26a14.81,14.81,0,0,0,3.09-3.41h3.25a16.82,16.82,0,0,0,1.62-4.5Z"></path><path class="cls-1" d="M87.63,124.53a18.38,18.38,0,0,1-2.39-1l-.78-.42V119.7a15.92,15.92,0,0,1-2.57-2.34l-3.37.32-.49-.75a19.59,19.59,0,0,1-2.21-4.69l-.27-.85L77.93,109a15.94,15.94,0,0,1-.17-3.45l-2.59-2.15.17-.87a18.15,18.15,0,0,1,.71-2.51,18.38,18.38,0,0,1,1-2.39l.41-.78h3.37a16.14,16.14,0,0,1,2.33-2.56l-.32-3.38.75-.48a19.52,19.52,0,0,1,4.69-2.22l.85-.26,2.4,2.38a16.07,16.07,0,0,1,3.47-.17l2.15-2.59.86.17a18.39,18.39,0,0,1,4.9,1.76l.79.42v3.37a15.71,15.71,0,0,1,2.56,2.33l3.38-.32.48.75a19.16,19.16,0,0,1,2.22,4.68l.27.85L110.27,104a16.73,16.73,0,0,1,.17,3.46l2.59,2.15-.18.86a18.73,18.73,0,0,1-.7,2.51,18.38,18.38,0,0,1-1.05,2.39l-.42.78h-3.37a16.64,16.64,0,0,1-2.32,2.57l.31,3.38-.75.49a19.49,19.49,0,0,1-4.69,2.2L99,125l-2.39-2.39a16.73,16.73,0,0,1-3.46.17L91,125.41l-.87-.18A17.72,17.72,0,0,1,87.63,124.53Zm-.23-3.27a16.65,16.65,0,0,0,2.48.89l2-2.43.79.09a13.4,13.4,0,0,0,4.14-.2l.78-.17,2.22,2.22a16.74,16.74,0,0,0,2.39-1.12l-.3-3.13.62-.5a13.34,13.34,0,0,0,2.79-3.07l.43-.66h3.14c.18-.4.34-.8.49-1.22s.28-.84.39-1.26l-2.41-2,.09-.79a13.05,13.05,0,0,0-.21-4.13l-.16-.78,2.22-2.23a15.72,15.72,0,0,0-1.13-2.38l-3.13.29-.49-.61a13.34,13.34,0,0,0-3.07-2.79l-.66-.44V91.69a16.65,16.65,0,0,0-2.48-.89l-2,2.42-.79-.09a13,13,0,0,0-4.13.21l-.78.17-2.24-2.23A17.22,17.22,0,0,0,86,92.41l.29,3.13-.62.49a13.51,13.51,0,0,0-2.78,3.07l-.44.66H79.32c-.18.4-.35.81-.5,1.23s-.28.83-.39,1.25l2.41,2-.08.79a13.41,13.41,0,0,0,.2,4.14l.16.78-2.21,2.22A16.81,16.81,0,0,0,80,114.57l3.14-.3.5.63a12.75,12.75,0,0,0,3.06,2.79l.66.43Z"></path><path class="cls-3" d="M100.31,108.7a6.6,6.6,0,1,0-8.44,4A6.6,6.6,0,0,0,100.31,108.7Z"></path><path class="cls-1" d="M91.37,114.07a8.07,8.07,0,1,1,10.33-4.87A8.07,8.07,0,0,1,91.37,114.07Zm4.46-12.42a5.13,5.13,0,1,0,3.09,6.55A5.13,5.13,0,0,0,95.83,101.65Z"></path><path class="cls-3" d="M83.69,81l-2.43-1.08a11.91,11.91,0,0,0-1.2-3.58L81.37,74a14.25,14.25,0,0,0-2.57-3l-2.49,1a12.11,12.11,0,0,0-3.37-1.69l-.73-2.57a13.53,13.53,0,0,0-1.94-.28,13,13,0,0,0-2,0l-1.08,2.43a11.81,11.81,0,0,0-3.58,1.2L61.3,69.8a14.51,14.51,0,0,0-3,2.57l1,2.5a11.59,11.59,0,0,0-1.69,3.37L55,79a13.67,13.67,0,0,0-.28,2,12.82,12.82,0,0,0,0,2L57.19,84a11.91,11.91,0,0,0,1.2,3.58l-1.31,2.33a14.3,14.3,0,0,0,2.57,3l2.49-1a11.67,11.67,0,0,0,3.38,1.7l.72,2.56a13.67,13.67,0,0,0,2,.28,12.82,12.82,0,0,0,2,0L71.24,94a11.92,11.92,0,0,0,3.57-1.19l2.34,1.31a14.77,14.77,0,0,0,3-2.56l-1-2.51a11.94,11.94,0,0,0,1.7-3.36l2.56-.73A13.73,13.73,0,0,0,83.69,83,13,13,0,0,0,83.69,81Z"></path><path class="cls-1" d="M65.07,97.38l-.76-2.67A13.38,13.38,0,0,1,62,93.52l-2.61,1-.67-.59a16.21,16.21,0,0,1-2.83-3.27l-.49-.75,1.38-2.44A13.24,13.24,0,0,1,55.9,85l-2.55-1.13L53.29,83a15.86,15.86,0,0,1,0-2.18,16.76,16.76,0,0,1,.31-2.16l.19-.86L56.47,77a13.16,13.16,0,0,1,1.18-2.34l-1-2.62.59-.67a16.22,16.22,0,0,1,3.27-2.83l.75-.48,2.43,1.37a13.61,13.61,0,0,1,2.5-.84l1.14-2.54L68.2,66a15.71,15.71,0,0,1,2.17,0,15.18,15.18,0,0,1,2.16.31l.86.19.76,2.68a13.5,13.5,0,0,1,2.34,1.18l2.62-1,.67.59a16.38,16.38,0,0,1,2.83,3.26l.49.75-1.38,2.45a13.24,13.24,0,0,1,.83,2.49L85.1,80l.06.88a15.86,15.86,0,0,1,0,2.18,16.76,16.76,0,0,1-.31,2.16l-.19.86L82,86.87a13.16,13.16,0,0,1-1.18,2.34l1,2.63-.59.67A16.3,16.3,0,0,1,78,95.33l-.75.48-2.44-1.37a12.91,12.91,0,0,1-2.48.83l-1.14,2.55-.88.06a14.42,14.42,0,0,1-2.18,0,13.92,13.92,0,0,1-2.15-.31Zm1.65-5,.69,2.45c.29,0,.59.07.88.09l.89,0,1-2.32.79-.13a10.48,10.48,0,0,0,3.14-1l.7-.36,2.22,1.24a13.35,13.35,0,0,0,1.35-1.16l-.92-2.38.47-.64a11.09,11.09,0,0,0,1.48-3l.24-.76,2.44-.69c0-.29.08-.58.1-.88s0-.6,0-.89l-2.32-1-.13-.78a10.38,10.38,0,0,0-1-3.14l-.36-.71,1.24-2.22a11.37,11.37,0,0,0-1.16-1.34l-2.37.91-.65-.46a10.43,10.43,0,0,0-3-1.49l-.75-.24L71.05,69c-.29,0-.59-.07-.89-.09s-.59,0-.88,0l-1,2.32-.78.13a10.27,10.27,0,0,0-3.14,1l-.71.38-2.22-1.25A12.29,12.29,0,0,0,60,72.71L61,75.08l-.46.64a10.83,10.83,0,0,0-1.49,3l-.24.76-2.44.69c0,.29-.08.58-.1.88s0,.6,0,.89l2.32,1,.13.78a10.38,10.38,0,0,0,1.05,3.14l.36.71-1.24,2.22A13.6,13.6,0,0,0,60,91.12l2.38-.91.65.47A10.09,10.09,0,0,0,66,92.16Z"></path><circle class="cls-2" cx="69.4" cy="81.78" r="5.41"></circle><path class="cls-1" d="M66.91,88.42a6.88,6.88,0,1,1,9.18-6h0a6.88,6.88,0,0,1-7.36,6.37A6.78,6.78,0,0,1,66.91,88.42Zm3.65-10.18a4.18,4.18,0,0,0-1-.22,3.93,3.93,0,1,0,3.64,4.21h0a3.95,3.95,0,0,0-2.59-4Z"></path></g></g></svg>