<svg xmlns="http://www.w3.org/2000/svg" viewBox="0 0 288.62 396.78"><g fill="#1a3967"><path d="m183.09 199.28a40.46 40.46 0 1 0 -40.45 40.41 40.44 40.44 0 0 0 40.45-40.41zm-4 0a36.5 36.5 0 1 1 -36.49-36.54 36.5 36.5 0 0 1 36.53 36.54z"></path><path d="m92.65 88.13a23.89 23.89 0 1 0 -23.88 23.87 23.88 23.88 0 0 0 23.88-23.87zm-2.34 0a21.55 21.55 0 1 1 -21.54-21.58 21.55 21.55 0 0 1 21.54 21.58z" opacity=".9"></path><path d="m272.16 347a23.89 23.89 0 1 0 -23.89 23.86 23.89 23.89 0 0 0 23.89-23.86zm-2.34 0a21.55 21.55 0 1 1 -21.55-21.58 21.55 21.55 0 0 1 21.55 21.58z" opacity=".8"></path><path d="m125 338.75a32.77 32.77 0 1 0 -32.77 32.72 32.77 32.77 0 0 0 32.77-32.72zm-3.21 0a29.56 29.56 0 1 1 -29.56-29.6 29.56 29.56 0 0 1 29.57 29.6z" opacity=".9"></path><path d="m260.42 109.53a23.89 23.89 0 1 0 -23.89 23.86 23.89 23.89 0 0 0 23.89-23.86zm-2.34 0a21.55 21.55 0 1 1 -21.55-21.53 21.55 21.55 0 0 1 21.55 21.53z" opacity=".8"></path><path d="m194.22 29.45a29.49 29.49 0 1 0 -29.49 29.45 29.48 29.48 0 0 0 29.49-29.45zm-2.89 0a26.6 26.6 0 1 1 -26.6-26.64 26.6 26.6 0 0 1 26.6 26.64z" opacity=".9"></path><path d="m47.78 231.73a23.89 23.89 0 1 0 -23.89 23.86 23.89 23.89 0 0 0 23.89-23.86zm-2.34 0a21.55 21.55 0 1 1 -21.55-21.57 21.55 21.55 0 0 1 21.55 21.57z" opacity=".8"></path><path d="m288.62 235.19a26.55 26.55 0 1 0 -26.54 26.51 26.54 26.54 0 0 0 26.54-26.51zm-2.6 0a23.95 23.95 0 1 1 -23.94-24 23.94 23.94 0 0 1 23.92 24z" opacity=".9"></path><path d="m183.39 291.11a19.35 19.35 0 1 0 -19.39 19.32 19.35 19.35 0 0 0 19.39-19.32zm-1.9 0a17.46 17.46 0 1 1 -17.49-17.48 17.45 17.45 0 0 1 17.49 17.48z" opacity=".6"></path><path d="m168.89 108.15a19.35 19.35 0 1 0 -19.35 19.33 19.35 19.35 0 0 0 19.35-19.33zm-1.89 0a17.46 17.46 0 1 1 -17.46-17.47 17.46 17.46 0 0 1 17.46 17.47z" opacity=".7"></path><path d="m235.86 176.5a19.35 19.35 0 1 0 -19.35 19.33 19.35 19.35 0 0 0 19.35-19.33zm-1.89 0a17.46 17.46 0 1 1 -17.46-17.5 17.46 17.46 0 0 1 17.49 17.5z" opacity=".6"></path><path d="m92.26 164.77a19.35 19.35 0 1 0 -19.35 19.32 19.35 19.35 0 0 0 19.35-19.32zm-1.9 0a17.46 17.46 0 1 1 -17.45-17.48 17.45 17.45 0 0 1 17.45 17.48z" opacity=".5"></path><path d="m109.52 262.8a19.35 19.35 0 1 0 -19.35 19.33 19.35 19.35 0 0 0 19.35-19.33zm-1.9 0a17.46 17.46 0 1 1 -17.45-17.47 17.46 17.46 0 0 1 17.45 17.47z" opacity=".7"></path></g><path d="m264.85 289.76a4.85 4.85 0 1 0 -4.85 4.84 4.85 4.85 0 0 0 4.85-4.84zm-5.52-150.51a4.85 4.85 0 1 0 -4.86 4.84 4.85 4.85 0 0 0 4.86-4.84zm-31.06 133.93a4.86 4.86 0 1 0 -4.86 4.84 4.85 4.85 0 0 0 4.86-4.84zm-10.37-54.54a4.85 4.85 0 1 0 -4.85 4.84 4.85 4.85 0 0 0 4.85-4.84zm-.69-74.57a4.85 4.85 0 1 0 -4.84 4.85 4.84 4.84 0 0 0 4.84-4.85zm-6.21-91.82a4.85 4.85 0 1 0 -4.84 4.84 4.84 4.84 0 0 0 4.84-4.84zm-2.07 324.49a4.85 4.85 0 1 0 -4.84 4.84 4.84 4.84 0 0 0 4.83-4.84zm-4.13-135a8 8 0 1 0 -8 7.94 8 8 0 0 0 7.99-7.91zm-6.22-110.74a4.86 4.86 0 1 0 -4.86 4.84 4.85 4.85 0 0 0 4.86-4.84zm-1 23.46a8 8 0 1 0 -8 7.94 8 8 0 0 0 7.97-7.98zm-16.96 219.54a4.85 4.85 0 1 0 -4.86 4.84 4.85 4.85 0 0 0 4.86-4.84zm-6.21-27.62a4.86 4.86 0 1 0 -4.85 4.84 4.85 4.85 0 0 0 4.85-4.85zm-18.64 45.57a4.86 4.86 0 1 0 -4.86 4.84 4.85 4.85 0 0 0 4.86-4.85zm-20-117.73a8 8 0 1 0 -8 7.94 8 8 0 0 0 7.98-7.95zm-11 21.07a4.86 4.86 0 1 0 -4.86 4.84 4.85 4.85 0 0 0 4.8-4.85zm-2.83-156.39a8 8 0 1 0 -8 7.94 8 8 0 0 0 8-7.94zm-6.94-21.75a4.85 4.85 0 1 0 -4.84 4.84 4.84 4.84 0 0 0 4.84-4.84zm-2.75-83.53a4.85 4.85 0 1 0 -4.86 4.84 4.85 4.85 0 0 0 4.88-4.84zm-13.79 101.49a4.85 4.85 0 1 0 -4.86 4.89 4.85 4.85 0 0 0 4.86-4.89zm-7.24 78.67a8 8 0 1 0 -8 7.94 8 8 0 0 0 8-7.94zm-17.6 17.29a4.86 4.86 0 1 0 -4.86 4.85 4.85 4.85 0 0 0 4.86-4.85zm-8.29-23.47a4.86 4.86 0 1 0 -4.86 4.84 4.85 4.85 0 0 0 4.86-4.84zm-11.74 84.93a4.85 4.85 0 1 0 -4.86 4.82 4.85 4.85 0 0 0 4.86-4.82zm-17.95-170.53a4.86 4.86 0 1 0 -4.86 4.85 4.86 4.86 0 0 0 4.86-4.85zm-3.14 24.9a4.86 4.86 0 1 0 -4.86 4.84 4.84 4.84 0 0 0 4.86-4.84zm-.31 166.33a4.85 4.85 0 1 0 -4.86 4.84 4.85 4.85 0 0 0 4.86-4.84zm-1.38-30.39a4.86 4.86 0 1 0 -4.81 4.85 4.85 4.85 0 0 0 4.81-4.85z" fill="#cbcbca" opacity=".5"></path><path d="m254.51 286.62-1.06-.48-.48 1.07 1.06.49zm-3.21-1.45-1.06-.47-.48 1.06 1.06.48zm-3.21-1.45-1.06-.47-.48 1.06 1.06.48zm-3.19-1.44-1.08-.5-.48 1.08 1.06.48zm-3.21-1.45-1.08-.5-.48 1.07 1.07.49zm-3.21-1.47-1.08-.48-.48 1.07 1.07.49zm-3.21-1.45-1.06-.48-.5 1.07 1.07.47zm-3.21-1.45-1.06-.46-.5 1.06 1.09.48zm-3.21-1.46-.8-.38a4.81 4.81 0 0 1 -.5 1.08l.83.37zm-8.12-5.9-.77-.9-.9.75.77.9.15-.11a4 4 0 0 1 .44-.38zm-2.27-2.7-.78-.9-.89.77.77.9zm-2.28-2.68-.77-.89-.9.75.77.9zm-2.27-2.72-.77-.9-.9.77.77.88zm-2.28-2.68-.77-.9-.9.76.77.89zm-2.14-33.61-1-.68-.67 1 .95.66zm-.13 30.92-.77-.9-.9.75.77.9zm-1.89-28-1-.68-.68 1 1 .68zm-.38 25.37-.78-.88-.89.75.77.9zm-.9-105.45-.48-1.06-1.08.48.49 1.08zm-.76 83-1-.67-.68 1 1 .68zm-.62 19.78-.77-.9-.9.76.77.89zm-1.39-16.91-1-.66-.67 1 1 .68zm-.42-84.42-.48-1.06-1.06.49.47 1.07zm-.44 98.63-.15-.17a7.32 7.32 0 0 1 -.9.77l.15.17zm-2.77-97.16-.48-1.07-1.06.48.47 1.06zm-1.89 225.11-1.16-.11-.12 1.17 1.17.11zm-3.5-.33-1.18-.13-.11 1.17 1.18.11zm-1-238.85-1.16-.2-.22 1.16 1.16.2zm-.63 3.47-1.15-.2-.2 1.15 1.15.2zm-.6 3.46-1.16-.2-.2 1.16 1.16.22zm-1.27 231.57-1.17-.11-.11 1.17 1.17.11zm-3.5-.35-1.17-.11-.11 1.17 1.17.11zm-3.5-.33-1.18-.11-.11 1.15 1.18.11zm-8.9-6.22-.26-1.14-1.15.26.25 1.14zm-.77-3.43-.28-1.14-1.13.26.25 1.14zm-.79-3.43-.26-1.15-1.13.25.25 1.16zm-.77-3.45-.26-1.13-1.13.25.25 1.14zm-.51 19.61-.13-.17-.37-.55-.18-.23-1 .69.68 1zm-.26-23-.26-1.14-1.13.25.25 1.14zm-2.59 25.1-.69-.95-1 .68.7 1zm-2.86 2.06-.69-1-.94.7.68.95zm-2.86 2.05-.68-.94-.95.68.68 1zm-2.84 2.07-.7-1-1 .68.7 1zm-2.86 2.06-.68-1-1 .7.68 1zm-32.34-105.8a8.1 8.1 0 0 1 -1.1-.43l-.11.28 1.1.42zm-.93 2.47-1.1-.42-.43 1.1 1.1.42zm-1.25 3.28-1.1-.4-.42 1.1 1.1.4zm-1.25 3.3-1.1-.42v.09a5 5 0 0 1 1.1.43zm-8.91-159.89v-.07l-1.17.2v.09a7.55 7.55 0 0 1 1.17-.22zm-.42-2.39-.2-1.15-1.18.2.2 1.16zm-.63-3.46-.16-1.15-1.15.21.2 1.15zm-7.53 11.41-1.16-.21-.22 1.14 1.16.22zm-3.47-.65-1.16-.22-.2 1.16 1.16.22zm-22.63 84.44-.9-.76-.77.9.9.75zm-2.27 2.65-.9-.75-.75.9.89.75zm-.9-12-1.14-.31-.31 1.13 1.14.32zm-1.36 14.74-.9-.75-.75.89.9.76zm-2-15.63-1.12-.31-.31 1.14 1.13.31zm-3.4-.93-1.13-.3-.36 1.12 1.13.31zm-24.44 88.59-.82-.84-.85.81.83.84zm-.69-8.12-1.09-.46-.45 1.08 1.08.46zm-1.84 10.56-.82-.84-.85.82.83.85zm-1.41-11.94-1.08-.46-.46 1.09 1.08.45zm-1.12 14.4-.82-.85-.85.81.83.85zm-2.1-15.77-1.08-.46-.46 1.08 1.08.46zm-.42 18.21-.82-.85-.85.83.83.84zm-2.58 2.45-.83-.84-.84.81.83.84zm-.29-22-1.09-.46-.45 1.08 1.08.46zm-2.2 24.44-.83-.84-.31.31a4.77 4.77 0 0 1 .83.85zm-.94-181.64-1.17-.15-.15 1.16 1.18.14zm-.44 3.48-1.13-.14-.15 1.17 1.15.13zm-.44 3.51-1.17-.15-.15 1.15 1.18.15zm-.44 3.48-1.17-.15-.15 1.18 1.18.14z" fill="#1a3967" opacity=".3"></path><path d="m246.77 213.54-.53-.68-.7.55.51.66zm-1.17.9-.52-.68-.69.55.53.68c.22-.19.45-.37.68-.55zm-.81-3.43-1.43-1.85-.7.55 1.43 1.85zm-1.16.9-1.43-1.85-.69.55 1.43 1.85zm-1.72-4.6-1.43-1.86-.7.54 1.43 1.85zm-1.15.9-1.44-1.86-.69.53 1.43 1.86zm-1.76-4.61-1.43-1.85-.7.53 1.43 1.85zm-1.15.9-1.43-1.85-.7.53 1.43 1.85zm-1.73-4.6-1.4-1.9-.7.55 1.44 1.85zm-1.15.88-1.43-1.85-.7.55 1.43 1.85zm-1.73-4.61-1.43-1.85-.69.55 1.43 1.86zm-1.15.9-1.43-1.85-.7.55 1.43 1.85zm-1.29-64.37-.84-.23-.38 1.24.86.26zm-.44 59.77-1.09-1.47c-.22.2-.44.38-.67.57l1.1 1.43zm-.6-56.26-.85-.26-.67 2.26.84.25zm-.35-3.91-.84-.27-.39 1.26.84.26zm-.2 61.07-1.1-1.43c-.24.18-.47.36-.72.53l1.12 1.45zm-.33 139.39-2-1.3-.5.73 2 1.31zm-.46-192.06-.84-.26-.68 2.26.84.26zm-.06-4.91-.86-.26-.66 2.25.85.26zm-.28 198.21-2-1.3-.48.73 2 1.3zm-1-188.78-.84-.26-.66 2.24.84.26zm-.08-4.92-.85-.26-.67 2.24.86.25zm-1.29 9.4-.84-.25-.68 2.25.85.26zm-.05-4.91-.84-.26-.68 2.26.84.26zm-.66 185.39-2-1.31-.5.74 2 1.3zm-.58-176-.85-.26-.68 2.26.85.25zm-.06-4.92-.86-.25-.66 2.25.84.26zm-.18 182.13-2-1.31-.47.72 2 1.3zm-1.18-177.6-.86-.25-.68 2.23.86.26zm-1.94 173.78-2-1.3-.49.73 2 1.31zm-.81 1.23-2-1.3-.48.73 2 1.3zm-3.1-3.83-2-1.29-.48.74 2 1.28zm-.82 1.23-1.95-1.29-.47.72 1.94 1.3zm-3.08-3.82-2-1.3-.49.73 2 1.31zm-.83 1.23-1.94-1.3-.5.73 2 1.29zm-3.1-3.83-1.94-1.3-.5.75 2 1.28zm-.81 1.23-2-1.31-.48.74 2 1.3zm-3.1-3.82-1.94-1.3-.49.73 1.94 1.31zm-.8 1.21-2-1.28-.48.71 1.94 1.31zm-3.1-3.81-2-1.3-.48.73 1.94 1.3zm-.81 1.23-2-1.3-.48.73 1.95 1.3zm-2.31-132.5c-.1-.27-.2-.55-.29-.83l-1.54.48.25.84zm-.48-1.38c-.08-.28-.15-.57-.22-.86l-1.57.48.25.86zm-.31 130-2-1.28-.5.73 2 1.31zm-.82 1.23-2-1.3-.49.73 2 1.31zm-2.22-128.72-.26-.82-2.24.68.26.84zm-.44-1.39-.26-.84-2.24.69.26.85zm-.44 126.3-1.95-1.3-.49.73 2 1.3zm-.81 1.23-1.94-1.3-.5.73 2 1.28zm-2.77-124.7-.25-.85-2.26.7.26.84zm-.31 120.9-2-1.3-.48.74 2 1.3zm-.13-122.3-.25-.86-2.24.7.26.84zm-.66 123.51-2-1.3-.47.73 1.94 1.31zm-3.09-3.81-2-1.3-.49.73 2 1.3zm-.28-116.95-.26-.82-2.23.68.25.84zm-.44-1.39-.26-.85-2.23.7.25.85zm-.09 119.55-2-1.3-.5.73 2 1.3zm-3.1-3.8-1.21-.8c-.15.26-.3.52-.46.77l1.17.77zm-.81 1.23-1.19-.83c-.17.25-.35.48-.53.72l1.21.81zm-20.87-244.27c-.29 0-.59-.09-.88-.15l-.24 1.25.86.17zm0 211.34-.53-2.3-.84.21.53 2.29zm-.68-207.76-.86-.17-.44 2.29.86.17zm-.38 203.17-.53-2.27-.85.2.52 2.27zm-.37-207-.86-.2-.24 1.27.86.16zm0 211.91-.53-2.3-.86.21.55 2.29zm-.13-203.49-.88-.17-.44 2.32.87.16zm-.55-4.9-.88-.16-.46 2.33.87.16zm0 198.91-.54-2.3-.86.21.53 2.29zm-.33-189.41-.87-.16-.44 2.31.87.16zm0 194.3-.53-2.27-.87.2.54 2.27zm-.58-199.17-.87-.16-.43 2.31.87.17zm-.19 189.72-.53-2.29-.86.2.53 2.29zm-.11-180.18-.89-.16-.44 2.29.87.17zm-.22 185.12-.54-2.3-.86.21.53 2.29zm-.34-190-.88-.17-.44 2.31.87.17zm-.34 9.5-.87-.17-.45 2.31.88.17zm0 171-.53-2.27-.87.2.54 2.28zm-.37 4.92-.53-2.29-.86.2.53 2.29zm-.16-180.82-.87-.17-.44 2.3.87.16zm-.33 9.5-.88-.17-.44 2.3.86.16zm-.24 161.78-.53-2.29-.86.2.53 2.29zm-.36-166.74-.86-.16-.44 2.31.86.16zm0 171.63-.53-2.27-.87.2.54 2.28zm-.72-9.46-.53-2.29-.84.2.53 2.29zm-.18-157.53-.86-.17-.44 2.27.86.17zm-.19 162.46-.53-2.28-.86.21.53 2.27zm-1.06-4.57-.49-2.29-.86.2.53 2.29zm-3.23-115.31h-.88l-.11 1.65.86.07zm-.31 4-.86-.05-.18 2.33.88.07zm-.33 171.27c-.18-.24-.36-.47-.53-.72l-1.49 1 .5.73zm0-166.57-.86-.07-.18 2.32.86.08zm-.35 4.68-.88-.08-.16 2.35.86.05zm-.36 4.67-.86-.07-.19 2.35.88.07zm-.09-18.14c-.3 0-.59-.07-.88-.11l-.13 1.69.88.07zm0 174.17c-.16-.25-.31-.51-.46-.77l-1.52 1 .49.73zm-.24-151.35-.88-.06-.17 2.33.87.08zm0-18.84h-.88l-.18 2.33.88.07zm-.31 23.53-.88-.07-.18 2.35.88.05zm-.05-18.83-.88-.07-.17 2.32.88.08zm-.35 4.68-.88-.08-.19 2.35.88.05zm-.35 4.67-.88-.07-.18 2.35.88.07zm-.37 4.68-.88-.06-.16 2.33.88.08zm-.35 4.69-.88-.07-.18 2.35h.88zm-.58 150.27-.5-.73-1.94 1.3.47.73zm-.81-1.23-.5-.73-1.94 1.3.48.73zm-3.1 3.82-.49-.74-2 1.3.48.74zm-.81-1.21-.49-.74-2.01 1.3.49.75zm-3.11 3.81-.48-.73-2 1.3.49.73zm-.89-1.25-.48-.73-2 1.3.5.73zm-3.1 3.82-.48-.74-2 1.3.48.74zm-.81-1.21-.49-.74-1.95 1.3.48.74zm-2-209.4-2.28-.56-.22.86 2.28.57zm-.35 1.43-2.28-.56-.22.84 2.28.57zm-.74 211.78-.49-.73-2 1.3.49.73zm-.8-1.23-.5-.73-2 1.3.49.73zm-2.7-213.08-2.27-.55-.22.84 2.27.57zm-.35 1.43-2.27-.57-.22.86 2.27.57zm-.09 215.51-.48-.73-2 1.28.5.74zm-.81-1.22-.47-.74-2 1.3.5.74zm-3.1 3.81-.47-.73-1.49 1c.16.24.31.49.46.73zm-.19-220.64-2.27-.57-.22.86 2.27.55zm-.35 1.41-2.27-.55-.22.84 2.27.57zm-.25 218-.5-.73-1.5 1 .51.71zm-4-220.56-2.27-.57-.22.86 2.29.57zm-.25 133.76-.68-.56-1.5 1.81.69.57zm-.09-132.33-2.28-.57-.22.86 2.29.55zm-1 131.4-.7-.57-1.48 1.82.68.56zm-1.87 4.55-.68-.55-1.49 1.79.68.57zm-1.14-.92-.68-.57-1.48 1.8.68.57zm-.16-137.58-2.28-.57-.22.87 2.28.55zm-.35 1.41-2.28-.56-.22.86 2.28.57zm-1.34 140.72-.68-.57-1.5 1.81.68.56zm-1.14-.94-.68-.57-1.48 1.82.68.57zm-1.74-142.32-2.27-.6-.22.86 2.29.57zm-.11 146.87-.68-.57-1.5 1.82.68.57zm-.24-145.47-2.27-.57-.22.84 2.29.57zm-.88 144.51-.7-.57-1.48 1.81.68.57zm-1.87 4.54-.68-.55-1.3 1.58c.22.19.45.37.66.57zm-1.12-.91-.69-.57-1.31 1.59.7.55zm-.33-150.71-2.23-.52-.22.84 2.27.57zm-.35 1.43-2.27-.57-.22.86 2.27.57zm-4.21-2.55-2.28-.57-.22.86 2.29.55zm-.35 1.41-2.32-.54-.22.87 2.3.56zm-4.2-2.55-1.91-.47c-.06.29-.13.57-.2.86l1.89.47zm-.35 1.43-1.89-.47c-.08.29-.15.57-.24.86l1.91.47zm-20.77 50.85-.09-1.83h-.87l.1 1.8h.73zm-.2-4.18-.13-2.35-.88.06.13 2.34zm-.26-4.7-.13-2.34-.88.05.13 2.35zm-.26-4.67-.13-2.35-.88.06.13 2.34zm-.25-4.7-.13-2.34h-.88l.13 2.35zm-.26-4.69-.13-2.33h-.86l.11 2.34zm-.06 130.37-2.12-1-.37.81 2.13 1zm-.16-107.39-.09-1.8-.88.05.09 1.84zm0-27.66-.11-2.35-.88.06.13 2.35zm-.18 23.51-.14-2.34-.88.06.13 2.35zm-.06-28.2-.07-1.29-.88.08.07 1.26zm-.19 141.06-2.13-1-.36.79 2.12 1zm0-117.55-.12-2.35h-.88l.13 2.35zm-.27-4.65-.13-2.35-.88.06.16 2.29zm-.26-4.69-.13-2.35h-.88l.13 2.35zm-.24-4.7-.13-2.33h-.88l.11 2.35zm-.26-4.68-.09-2.37h-.88l.12 2.35zm-.25-4.69-.08-1.27c-.29 0-.58 0-.88 0l.08 1.29zm-2.33 137.64-2.13-1-.38.79 2.12 1zm-.63 1.34-2.12-1-.39.81 2.13 1zm-3.63-3.34-2.12-1-.39.81 2.13 1zm-.64 1.34-2.11-1-.38.79 2.13 1zm-3.61-3.32-2.13-1-.36.81 2.12 1zm-.62 1.34-2.13-1-.37.79 2.12.97zm-3.64-3.34-2.12-1-.37.79 2.13 1zm-.62 1.34-2.13-1-.36.81 2.12 1zm-3.63-3.34-2.13-1-.36.81 2.12 1zm-.62 1.34-2.13-1-.37.79 2.13 1zm-3.62-3.32-.25-.13c-.12.28-.25.54-.37.81l.24.11zm-.62 1.34-.24-.11-.4.77.26.13z" fill="#1a3967" opacity=".8"></path><g fill="#5b9bd3"><path d="m73.15 84.91h-8.5v-3.81a3.81 3.81 0 0 1 7.62 0v.9h1.73v-.9a5.57 5.57 0 0 0 -11.14 0v3.9l-.19.07a3.23 3.23 0 0 0 -2.15 3v9.37a3.22 3.22 0 0 0 3.22 3.22h9.38a3.22 3.22 0 0 0 3.22-3.22v-9.3a3.23 3.23 0 0 0 -3.19-3.23zm1.46 12.6a1.46 1.46 0 0 1 -1.46 1.49h-9.38a1.47 1.47 0 0 1 -1.47-1.47v-9.39a1.47 1.47 0 0 1 1.47-1.47h9.38a1.46 1.46 0 0 1 1.46 1.47z"></path><path d="m71.68 91.65a3.22 3.22 0 1 0 -4.3 3l.2.07v2.46h1.76v-2.42l.19-.07a3.23 3.23 0 0 0 2.15-3.04zm-3.22 1.47a1.47 1.47 0 1 1 0-2.93 1.47 1.47 0 0 1 0 2.93z"></path><path d="m138.55 206.7a1.18 1.18 0 1 0 1.18 1.18 1.18 1.18 0 0 0 -1.18-1.18z"></path><path d="m166.37 193.4h-5.28v-10.07a3.08 3.08 0 0 0 -3.08-3.08h-38.91a3.08 3.08 0 0 0 -3.08 3.08v21.88a.47.47 0 0 0 0 .17.5.5 0 0 0 0 .13v3.08a2.9 2.9 0 0 0 2.9 2.89h12.57a11.56 11.56 0 0 1 -.19 2.33 3.76 3.76 0 0 1 -2.08 2.47 1 1 0 0 0 -.58 1.19 1.16 1.16 0 0 0 1.16.86h17.51a1.16 1.16 0 0 0 1.16-.86 1 1 0 0 0 -.58-1.19 3.76 3.76 0 0 1 -2.08-2.47 11.56 11.56 0 0 1 -.19-2.33h6.86v5a1.84 1.84 0 0 0 1.84 1.84h12.05a1.85 1.85 0 0 0 1.84-1.84v-21.24a1.84 1.84 0 0 0 -1.84-1.84zm-34.17 16.6h-13.28a1.4 1.4 0 0 1 -1.4-1.4v-2.94h35v4.34zm27.39-16.59h-5.27a1.84 1.84 0 0 0 -1.84 1.84v8.92h-35v-20.84a1.59 1.59 0 0 1 1.58-1.59h38.94a1.59 1.59 0 0 1 1.58 1.59zm-5.59 17.33v-15.5a.35.35 0 0 1 .35-.35h12.05a.35.35 0 0 1 .34.35v16.38h-12.74zm0 2.37h12.74v3.38a.34.34 0 0 1 -.34.34h-12.08a.35.35 0 0 1 -.35-.34zm-9.62 1a4.78 4.78 0 0 0 1.69 2.73h-15a4.78 4.78 0 0 0 1.69-2.73 12.35 12.35 0 0 0 .22-2.62h11.15a12.35 12.35 0 0 0 .22 2.61z"></path><path d="m160.34 216.27a1.13 1.13 0 1 0 -1.13-1.13 1.14 1.14 0 0 0 1.13 1.13z"></path><path d="m161.75 195.91h-2.82a.75.75 0 0 0 0 1.5h2.82a.75.75 0 0 0 0-1.5z"></path><path d="m262.07 223.57a11.63 11.63 0 1 1 -8.21 3.4 11.59 11.59 0 0 1 8.21-3.4zm-.53 21.43v-3.77a10 10 0 0 0 -3 .62l-.4.16c.08.17.16.33.25.49a6.3 6.3 0 0 0 2.08 2.37c.36.06.72.1 1.09.13zm7.46-16.76-.24-.24a10.92 10.92 0 0 1 -1.37.87 17.65 17.65 0 0 1 1.09 5.79h3.39a9.83 9.83 0 0 0 -2.87-6.42zm-1.09-.94a10.22 10.22 0 0 0 -2-1.16 11 11 0 0 1 .78 1.21l.27.54c.33-.19.64-.38.95-.59zm-4.24-1.81a9.82 9.82 0 0 0 -1.09-.12v3.76a10 10 0 0 0 3-.62l.4-.15c-.08-.18-.17-.34-.25-.5a6.3 6.3 0 0 0 -2.08-2.37zm-2.16-.12a9.82 9.82 0 0 0 -1.09.12 6.3 6.3 0 0 0 -2.08 2.37c-.09.16-.17.32-.25.5l.4.15a10 10 0 0 0 3 .62v-3.76zm-3.33.77a10.22 10.22 0 0 0 -2 1.16c.3.21.62.4 1 .59.08-.19.18-.37.27-.54a9.67 9.67 0 0 1 .78-1.21zm-2.82 1.86-.24.24a9.83 9.83 0 0 0 -2.87 6.42h3.39a17.91 17.91 0 0 1 1.09-5.79 10.24 10.24 0 0 1 -1.37-.87zm-3.11 7.73a9.87 9.87 0 0 0 2.87 6.42l.24.23a12.19 12.19 0 0 1 1.37-.87 17.85 17.85 0 0 1 -1.09-5.78zm4 7.36a10.18 10.18 0 0 0 2 1.15 9.53 9.53 0 0 1 -.78-1.2c-.09-.18-.19-.36-.27-.54a8.38 8.38 0 0 0 -1 .59zm6.4 1.93c.37 0 .73-.07 1.09-.13a6.3 6.3 0 0 0 2.08-2.37c.08-.16.17-.32.25-.49l-.4-.16a10 10 0 0 0 -3-.62v3.75zm3.33-.78a10.18 10.18 0 0 0 2-1.15 7.16 7.16 0 0 0 -.95-.59l-.27.54a10.79 10.79 0 0 1 -.78 1.2zm2.85-1.86.24-.23a9.87 9.87 0 0 0 2.87-6.42h-3.39a17.59 17.59 0 0 1 -1.09 5.78 12.19 12.19 0 0 1 1.37.87zm-2.34-13-.44.17a11.31 11.31 0 0 1 -3.4.7v4.45h4.82a16.52 16.52 0 0 0 -1-5.32zm-4.91.87a11.31 11.31 0 0 1 -3.4-.7l-.44-.17a16.52 16.52 0 0 0 -1 5.32h4.83v-4.45zm0 10v-4.45h-4.83a16.85 16.85 0 0 0 1 5.32l.44-.18a11 11 0 0 1 3.4-.69zm1.07 0a10.88 10.88 0 0 1 3.39.69c.15.06.3.11.45.18a16.58 16.58 0 0 0 1-5.32h-4.82z"></path><path d="m250.25 351.73-2.58-2a3.82 3.82 0 0 1 -5.34 0 3.79 3.79 0 0 1 0-5.34 3.79 3.79 0 0 1 5.38 0l2.58-2a2.79 2.79 0 1 1 .51.64l-2.59 2a3.77 3.77 0 0 1 .59 2 3.82 3.82 0 0 1 -.59 2l2.59 2a2.7 2.7 0 0 1 1.88-.75 2.74 2.74 0 0 1 1.94 4.69 2.74 2.74 0 0 1 -3.89 0 2.71 2.71 0 0 1 -.81-1.94 2.77 2.77 0 0 1 .36-1.37zm3.38.38a1.39 1.39 0 0 0 -2 0 1.39 1.39 0 1 0 2 2 1.37 1.37 0 0 0 .41-1 1.4 1.4 0 0 0 -.41-1zm-6.95-6.81a2.46 2.46 0 0 0 -3.46 0 2.45 2.45 0 0 0 0 3.44 2.46 2.46 0 0 0 1.73.72 2.49 2.49 0 0 0 1.71-.69 2.45 2.45 0 0 0 0-3.44zm6.95-5.31a1.39 1.39 0 0 0 -2 0 1.39 1.39 0 0 0 0 2 1.43 1.43 0 0 0 1 .41 1.39 1.39 0 0 0 1-2.38z"></path><path d="m160.92 283h5.71a.7.7 0 0 1 .7.7v5.22h3.4a.7.7 0 0 1 .7.7.68.68 0 0 1 -.2.49l-7 7a.71.71 0 0 1 -1 0l-7-6.94a.71.71 0 0 1 0-1 .74.74 0 0 1 .5-.2h3.4v-5.27a.7.7 0 0 1 .7-.7zm-4.1 16.22a.7.7 0 1 1 0-1.4h13.91a.7.7 0 0 1 0 1.4zm9.11-14.82h-4.31v5.22a.7.7 0 0 1 -.7.69h-2.41l5.27 5.27 5.27-5.27h-2.42a.7.7 0 0 1 -.7-.69z"></path><path d="m243.5 114.06v-1.71h-7v1.71h1.5a.81.81 0 0 1 .82.81v4a.82.82 0 0 1 -.82.82h-4a.82.82 0 0 1 -.82-.82v-4a.82.82 0 0 1 .82-.81h1.53v-1.71h-6.85v1.71h1.53a.82.82 0 0 1 .82.81v4a.82.82 0 0 1 -.82.82h-4a.82.82 0 0 1 -.82-.82v-4a.82.82 0 0 1 .82-.81h1.53v-2.19a.49.49 0 0 1 .49-.49h7.34v-3.44h-2.82a.83.83 0 0 1 -.83-.82v-6.63a.83.83 0 0 1 .83-.82h6.62a.82.82 0 0 1 .82.82v6.63a.82.82 0 0 1 -.82.82h-2.82v3.44h7.45a.49.49 0 0 1 .49.49v2.2h1.35a.81.81 0 0 1 .82.81v4a.82.82 0 0 1 -.82.82h-4a.82.82 0 0 1 -.82-.82v-4a.82.82 0 0 1 .82-.81h1.7zm1.5 1.64h-2.39v2.39h2.39zm-15.65 0h-2.35v2.39h2.39v-2.39zm7.83 0h-2.4v2.39h2.4zm1.29-14.4h-5v5h5z"></path><path d="m165.6 31.44a4 4 0 1 0 2.85 1.18 4 4 0 0 0 -2.85-1.18zm2.3 4a2.3 2.3 0 0 1 -2.3 2.3 2.29 2.29 0 0 1 -2.3-2.3 2.3 2.3 0 0 1 2.3-2.3 2.32 2.32 0 0 1 2.3 2.3zm-2.15-9.54a13.87 13.87 0 0 0 -9.82 4.1l-.15.16a.87.87 0 0 0 0 1.22.86.86 0 0 0 1.22 0l.14-.14a12.1 12.1 0 0 1 8.59-3.55 12.1 12.1 0 0 1 8.59 3.55.87.87 0 0 0 1.24-1.24 13.86 13.86 0 0 0 -9.82-4.07zm0-5.85a19.67 19.67 0 0 0 -13.95 5.78l-.13.14a.85.85 0 0 0 0 1.22.87.87 0 0 0 1.22 0l.12-.13a18 18 0 0 1 25.45 0 .87.87 0 0 0 1.23-1.22 19.71 19.71 0 0 0 -13.96-5.76z"></path><path d="m102.4 327.4h-21a.87.87 0 0 0 -.87.87v21a.88.88 0 0 0 .87.88h21a.88.88 0 0 0 .87-.88v-21a.87.87 0 0 0 -.87-.87zm-.87 21h-19.2v-14.16h19.2zm0-15.16h-19.2v-4h1.67v1.3a.88.88 0 0 0 1.75 0v-1.3h2.93v1.3a.87.87 0 0 0 1.74 0v-1.3h2.93v1.3a.88.88 0 0 0 1.75 0v-1.3h2.92v1.3a.88.88 0 0 0 1.75 0v-1.3h1.72zm-16.7 9.19a1.5 1.5 0 0 0 1 .44 1.48 1.48 0 0 0 1.05-.44 1.47 1.47 0 0 0 0-2.1 1.47 1.47 0 0 0 -1.05-.43 1.49 1.49 0 0 0 -1 .43 1.5 1.5 0 0 0 0 2.1zm.74-1.36a.44.44 0 0 1 .31-.13.41.41 0 0 1 .31.13.48.48 0 0 1 .12.31.44.44 0 0 1 -.12.31.41.41 0 0 1 -.31.13.44.44 0 0 1 -.31-.13.41.41 0 0 1 -.13-.31.44.44 0 0 1 .13-.38zm11.35 1.36a1.47 1.47 0 0 0 2.1 0 1.47 1.47 0 0 0 0-2.1 1.5 1.5 0 0 0 -2.1 0 1.47 1.47 0 0 0 0 2.1zm.74-1.36a.41.41 0 0 1 .31-.13.44.44 0 0 1 .31.13.44.44 0 0 1 .13.31.41.41 0 0 1 -.13.31.44.44 0 0 1 -.31.13.41.41 0 0 1 -.31-.13.41.41 0 0 1 -.13-.31.44.44 0 0 1 .13-.38zm-12.83 5.32a1.53 1.53 0 0 0 1 .43 1.52 1.52 0 0 0 1.05-.43 1.46 1.46 0 0 0 .44-1 1.48 1.48 0 0 0 -.44-1.05 1.48 1.48 0 0 0 -1.05-.44 1.5 1.5 0 0 0 -1 .44 1.47 1.47 0 0 0 -.43 1.05 1.45 1.45 0 0 0 .43 1zm.74-1.36a.48.48 0 0 1 .31-.12.44.44 0 0 1 .31.12.44.44 0 0 1 .12.31.43.43 0 0 1 -.12.3.4.4 0 0 1 -.31.12.43.43 0 0 1 -.31-.12.4.4 0 0 1 -.13-.3.41.41 0 0 1 .13-.34zm3.29 1.36a1.5 1.5 0 0 0 2.1 0 1.46 1.46 0 0 0 .44-1 1.48 1.48 0 0 0 -.44-1.05 1.47 1.47 0 0 0 -2.1 0 1.47 1.47 0 0 0 -.43 1.05 1.45 1.45 0 0 0 .43 1zm.74-1.39a.46.46 0 0 1 .62 0 .41.41 0 0 1 .13.31.4.4 0 0 1 -.13.3.46.46 0 0 1 -.62 0 .4.4 0 0 1 -.13-.3.41.41 0 0 1 .13-.31zm7.32-6.55a1.48 1.48 0 1 0 2.1-2.1 1.47 1.47 0 0 0 -2.1 0 1.47 1.47 0 0 0 0 2.1zm.74-1.36a.41.41 0 0 1 .31-.13.44.44 0 0 1 .31.13.44.44 0 0 1 -.31.75.41.41 0 0 1 -.31-.13.43.43 0 0 1 0-.62zm-8.8 1.36a1.48 1.48 0 1 0 2.1-2.1 1.47 1.47 0 0 0 -2.1 0 1.5 1.5 0 0 0 0 2.1zm.74-1.36a.43.43 0 0 1 .62 0 .44.44 0 1 1 -.62 0zm3.29 9.27a1.5 1.5 0 0 0 2.1 0 1.45 1.45 0 0 0 .43-1 1.47 1.47 0 0 0 -.43-1.05 1.47 1.47 0 0 0 -2.1 0 1.48 1.48 0 0 0 -.44 1.05 1.46 1.46 0 0 0 .44 1zm.74-1.36a.46.46 0 0 1 .62 0 .41.41 0 0 1 .13.31.4.4 0 0 1 -.13.3.46.46 0 0 1 -.62 0 .4.4 0 0 1 -.13-.3.41.41 0 0 1 .13-.31zm-.74-2.6a1.47 1.47 0 0 0 2.1 0 1.5 1.5 0 0 0 0-2.1 1.5 1.5 0 0 0 -2.1 0 1.47 1.47 0 0 0 0 2.1zm.74-1.36a.43.43 0 0 1 .62 0 .44.44 0 0 1 .13.31.41.41 0 0 1 -.13.31.43.43 0 0 1 -.62 0 .41.41 0 0 1 -.13-.31.44.44 0 0 1 .13-.35zm-.74-2.59a1.48 1.48 0 0 0 2.1-2.1 1.47 1.47 0 0 0 -2.1 0 1.47 1.47 0 0 0 0 2.1zm.74-1.36a.43.43 0 0 1 .62 0 .44.44 0 1 1 -.62 0zm-4.77 5.31a1.47 1.47 0 0 0 2.1 0 1.47 1.47 0 0 0 0-2.1 1.5 1.5 0 0 0 -2.1 0 1.5 1.5 0 0 0 0 2.1zm.74-1.4a.43.43 0 0 1 .62 0 .44.44 0 0 1 .13.31.41.41 0 0 1 -.13.31.43.43 0 0 1 -.62 0 .41.41 0 0 1 -.13-.31.44.44 0 0 1 .13-.31z"></path><path d="m223.49 171.75a15.22 15.22 0 0 0 -.33-1.71.64.64 0 0 0 -.63-.52h-13a.64.64 0 0 0 -.61.47 16.59 16.59 0 0 0 -.34 1.76 13.73 13.73 0 0 0 1.87 8.93 12.15 12.15 0 0 0 5.34 4.76.67.67 0 0 0 .52 0 12.2 12.2 0 0 0 5.34-4.76 13.65 13.65 0 0 0 2-7.13 15.53 15.53 0 0 0 -.16-1.8zm-3 8.27a10.84 10.84 0 0 1 -4.52 4.14 10.84 10.84 0 0 1 -4.47-4.16 12.7 12.7 0 0 1 -1.7-8.11 10.5 10.5 0 0 1 .2-1.12h12a10.47 10.47 0 0 1 .19 1.12 12.48 12.48 0 0 1 -1.69 8.11zm.4-6.92c0-.16 0-.31 0-.43a.38.38 0 0 0 -.38-.35h-9a.39.39 0 0 0 -.39.36v.43.43a10.86 10.86 0 0 0 1.28 5.12 9.62 9.62 0 0 0 3.45 3.69.38.38 0 0 0 .4 0 9.62 9.62 0 0 0 3.45-3.69 10.86 10.86 0 0 0 1.28-5.12c0-.13 0-.28 0-.45zm-9.09.45c0-.16 0-.3 0-.41v-.06h7.26l-6.1 5.21a10.07 10.07 0 0 1 -1.11-4.74zm7.16 4.76a9 9 0 0 1 -3 3.28 8.53 8.53 0 0 1 -2.33-2.23l6.49-5.55a10.27 10.27 0 0 1 -1.12 4.5z"></path><path d="m94.31 259.19h-7.57v-3.39a3.4 3.4 0 1 1 6.79 0v.78h1.56v-.78a5 5 0 1 0 -9.92 0v3.5l-.17.06a2.87 2.87 0 0 0 -1.92 2.7v8.36a2.88 2.88 0 0 0 2.92 2.87h8.36a2.88 2.88 0 0 0 2.87-2.87v-8.36a2.88 2.88 0 0 0 -2.92-2.87zm1.31 11.23a1.31 1.31 0 0 1 -1.31 1.31h-8.31a1.31 1.31 0 0 1 -1.3-1.31v-8.36a1.3 1.3 0 0 1 1.3-1.3h8.36a1.31 1.31 0 0 1 1.31 1.3z"></path><path d="m93 265.2a2.87 2.87 0 1 0 -3.83 2.7l.18.06v2.2h1.56v-2.16l.18-.06a2.88 2.88 0 0 0 1.91-2.74zm-2.87 1.3a1.31 1.31 0 0 1 0-2.61 1.31 1.31 0 1 1 0 2.61z"></path><path d="m151.52 112.85-2.58-2a3.82 3.82 0 0 1 -5.34 0 3.8 3.8 0 0 1 0-5.34 3.8 3.8 0 0 1 5.39 0l2.58-2a2.83 2.83 0 0 1 -.35-1.36 2.75 2.75 0 1 1 .86 2l-2.59 2a3.79 3.79 0 0 1 0 4.06l2.59 2a2.7 2.7 0 0 1 1.88-.75 2.73 2.73 0 0 1 2.75 2.75 2.7 2.7 0 0 1 -.8 1.94 2.74 2.74 0 0 1 -3.89 0 2.7 2.7 0 0 1 -.8-1.94 2.87 2.87 0 0 1 .35-1.37zm3.38.38a1.39 1.39 0 0 0 -2 0 1.42 1.42 0 0 0 -.41 1 1.39 1.39 0 0 0 .41 1 1.39 1.39 0 0 0 2 0 1.35 1.35 0 0 0 .4-1 1.42 1.42 0 0 0 -.41-1zm-7-6.8a2.4 2.4 0 0 0 -1.73-.72 2.43 2.43 0 0 0 -1.73.72 2.44 2.44 0 0 0 0 3.43 2.48 2.48 0 0 0 1.73.72 2.43 2.43 0 0 0 1.71-.69 2.42 2.42 0 0 0 .72-1.73 2.46 2.46 0 0 0 -.68-1.71zm7-5.32a1.39 1.39 0 1 0 -2 2 1.35 1.35 0 0 0 1 .41 1.39 1.39 0 0 0 1-2.38z"></path><path d="m80.28 160a13.1 13.1 0 0 0 -.28-1.7.65.65 0 0 0 -.63-.52h-13a.64.64 0 0 0 -.61.48 13.71 13.71 0 0 0 -.34 1.76 13.34 13.34 0 0 0 -.12 1.79 13.54 13.54 0 0 0 2 7.13 12.1 12.1 0 0 0 5.34 4.76.61.61 0 0 0 .51 0 12.17 12.17 0 0 0 5.35-4.76 13.62 13.62 0 0 0 2-7.13 13.34 13.34 0 0 0 -.22-1.81zm-2.94 8.26a10.93 10.93 0 0 1 -4.52 4.15 11 11 0 0 1 -4.53-4.15 12.75 12.75 0 0 1 -1.69-8.11 10.5 10.5 0 0 1 .2-1.12h12c.08.37.14.74.19 1.12a12.48 12.48 0 0 1 -1.69 8.11zm.4-6.92c0-.16 0-.31 0-.44a.38.38 0 0 0 -.38-.35h-9a.38.38 0 0 0 -.38.37v.42.43a10.94 10.94 0 0 0 1.27 5.12 9.58 9.58 0 0 0 3.46 3.69.37.37 0 0 0 .39 0 9.51 9.51 0 0 0 3.46-3.69 10.94 10.94 0 0 0 1.28-5.12c0-.13 0-.28 0-.45zm-9.09.45v-.41-.06h7.26l-6.1 5.21a10 10 0 0 1 -1.16-4.72zm7.15 4.76a8.78 8.78 0 0 1 -3 3.28 8.65 8.65 0 0 1 -2.33-2.22l6.53-5.53a10.1 10.1 0 0 1 -1.2 4.49z"></path><path d="m31.4 236.1v-1.71h-7v1.71h1.5a.82.82 0 0 1 .82.82v4a.82.82 0 0 1 -.82.82h-4a.82.82 0 0 1 -.82-.82v-4a.82.82 0 0 1 .82-.82h1.52v-1.71h-6.87v1.71h1.53a.82.82 0 0 1 .82.82v4a.82.82 0 0 1 -.82.82h-4.08a.82.82 0 0 1 -.82-.82v-4a.82.82 0 0 1 .82-.82h1.52v-2.19a.5.5 0 0 1 .5-.49h7.33v-3.42h-2.78a.82.82 0 0 1 -.82-.82v-6.63a.82.82 0 0 1 .82-.82h6.63a.82.82 0 0 1 .82.82v6.63a.82.82 0 0 1 -.82.82h-2.82v3.44h7.51a.49.49 0 0 1 .49.49v2.2h1.35a.82.82 0 0 1 .82.82v4a.82.82 0 0 1 -.82.82h-4a.82.82 0 0 1 -.82-.82v-4a.82.82 0 0 1 .82-.82h1.7zm1.51 1.64h-2.39v2.39h2.39zm-15.65 0h-2.4v2.39h2.4zm7.82 0h-2.39v2.39h2.39zm1.3-14.4h-5v5h5z"></path></g></svg>