<svg xmlns="http://www.w3.org/2000/svg" viewBox="0 0 242.6 237.1"><path d="m83.6 133.1 32.2-17.4.4.2c2 1 4.1 1.6 6.4 1.8l.7.1v13c.1.7.7 1.3 1.4 1.2.6-.1 1.1-.6 1.2-1.2v-13l.7-.1c2.2-.2 4.4-.9 6.3-1.8l.4-.2 18.6 11.9c.6.4 1.4.2 1.8-.4.2-.3.3-.6.2-.9s-.3-.6-.6-.8l-17.6-11.3.9-.7c4.1-3.4 6.5-8.4 6.5-13.7 0-10-37.2-10-37.2 0 0 5.2 2.4 10.2 6.4 13.6l.9.8-31 16.8c-.3.2-.5.4-.6.8-.1.3-.1.7.1.9.5.5 1.3.7 1.9.4zm25-33.3c0-8.6 32-8.6 32 0-.5 8.8-8 15.6-16.9 15.1-8.1-.4-14.6-6.9-15.1-15.1z" fill="#1a3967"></path><path d="m78.4 145.3c0-2.6-.7-5.1-2-7.3l-.4-.7 9.8-5.3c.3-.2.5-.4.6-.8.1-.3.1-.6-.1-.9-.4-.6-1.2-.8-1.8-.5l-10 5.4-.4-.4-.2-.2-.1-.1c-6.3-5.8-15.9-5.8-22.2 0-2.9 2.8-4.6 6.7-4.6 10.7v.7l-30.7 3-.3-.2c-3.9-3.2-9.6-2.9-13.2.5-3.7 3.6-3.8 9.5-.2 13.2.1.1.2.2.2.2 1.9 1.8 4.3 2.8 6.9 2.8s5.1-1 6.9-2.8c2.8-2.7 3.6-6.9 2.1-10.4l-.4-1 29-2.8.2.7c.5 2 1.5 3.9 2.8 5.5l.5.6-14 13.7-.5-.4c-3.9-2.5-9-2-12.3 1.2-3.7 3.6-3.8 9.5-.2 13.2.1.1.2.2.2.2 3.9 3.7 10 3.7 13.9 0 1.8-1.8 2.9-4.2 2.9-6.7 0-1.9-.5-3.7-1.6-5.3l-.4-.6 14-13.7.6.4c1.7 1.3 3.6 2.2 5.6 2.7l.7.2-2.9 28.3-1-.4c-1.2-.5-2.5-.8-3.8-.8-2.6 0-5.1 1-6.9 2.8-3.7 3.6-3.8 9.5-.2 13.2l.2.2c3.9 3.7 10 3.7 13.9 0 3.6-3.4 3.8-9.1.5-12.8l-.2-.3 3.1-29.9h.7c4.1 0 8.1-1.6 11-4.5 2.7-2.7 4.3-6.6 4.3-10.6zm-63.5 15.6c-2.8 2.7-7.3 2.7-10.1 0s-2.9-7-.2-9.8l.2-.2c2.8-2.7 7.3-2.7 10.1 0s2.9 7 .2 9.8c-.1.1-.2.1-.2.2zm21 20.5c-2.8 2.7-7.3 2.7-10.1 0-2.7-2.7-2.8-7-.2-9.8l.2-.2c2.8-2.7 7.3-2.7 10.1 0 2.7 2.7 2.8 7 .2 9.8-.1.1-.2.1-.2.2zm21 20.4c-2.8 2.7-7.3 2.7-10.2 0-2.7-2.7-2.8-7-.2-9.8l.2-.2c2.8-2.7 7.3-2.7 10.2 0 2.7 2.7 2.8 7.1.1 9.8 0 .1-.1.2-.1.2zm5.8-43.9c-3.4 0-6.8-1.2-9.2-3.6-5-4.8-5.1-12.7-.3-17.7.1-.1.2-.2.3-.3 5.2-5 13.3-5 18.5 0 5 4.8 5.1 12.7.3 17.7-.1.1-.2.2-.3.3-2.5 2.4-5.8 3.7-9.3 3.6z" fill="#1a3967"></path><path d="m124.6 137.7c-.7 0-1.3.5-1.3 1.2v8.1c.1.7.7 1.3 1.4 1.2.6-.1 1.1-.6 1.2-1.2v-8.1c-.1-.7-.6-1.2-1.3-1.2z" fill="#1a3967"></path><path d="m239.7 149.2c-3.7-3.4-9.3-3.6-13.2-.5l-.3.2-30.7-3v-.7c0-4-1.7-7.9-4.6-10.7-6.2-6-16-6-22.2 0l-.1.1-.5.4-20.2-12.8c-.2-.1-.5-.2-.7-.2-.4 0-.8.2-1.1.6-.2.3-.3.6-.2.9s.3.6.6.8l20.1 12.8-.4.7c-3.6 6-2.5 13.6 2.4 18.4 2.9 2.9 6.9 4.5 11 4.5h.7l3.1 29.9-.2.3c-3.3 3.7-3 9.4.5 12.8 3.9 3.7 10 3.7 13.9 0 3.7-3.6 3.8-9.5.2-13.2-.1-.1-.1-.1-.2-.2-2.9-2.7-7.1-3.5-10.8-2l-1 .4-2.9-28.4.7-.2c2-.5 4-1.4 5.6-2.7l.6-.4 14 13.7-.4.6c-1.1 1.5-1.6 3.4-1.6 5.2 0 2.5 1 5 2.9 6.7 3.9 3.7 10 3.7 13.9 0 3.7-3.6 3.8-9.5.2-13.2-.1-.1-.2-.2-.2-.2-3.3-3.2-8.4-3.7-12.3-1.2l-.6.4-14.1-13.7.5-.6c1.3-1.6 2.2-3.5 2.8-5.5l.2-.7 29 2.8-.4 1c-1.5 3.6-.7 7.7 2.1 10.4 3.9 3.7 10 3.7 13.9 0 3.7-3.6 3.8-9.5.2-13.2-.1-.2-.2-.3-.2-.3zm-54 42.7c.3-.2.5-.5.8-.7l.1-.1c2.9-2 6.7-1.7 9.2.8 2.7 2.7 2.8 7 .2 9.8-.1.1-.1.1-.2.2-2.9 2.6-7.3 2.6-10.1 0-2.7-2.7-2.8-7-.2-9.8.1-.1.2-.2.2-.2zm21-20.5c2.8-2.7 7.3-2.7 10.1 0 2.7 2.7 2.8 7 .2 9.8-.1.1-.1.1-.2.2-2.8 2.7-7.3 2.7-10.1 0-2.7-2.7-2.8-7-.2-9.8.1-.1.2-.1.2-.2zm-17.6-17.1c-5.2 4.8-13.3 4.8-18.5 0-5-4.8-5.1-12.8-.3-17.8.1-.1.2-.2.3-.3 5.2-5 13.3-5 18.5 0 5 4.8 5.1 12.7.3 17.7-.1.2-.2.3-.3.4zm48.8 6.6c-2.8 2.7-7.3 2.7-10.1 0s-2.9-7-.2-9.8c.1-.1.1-.1.2-.2 2.8-2.7 7.3-2.7 10.1 0s2.9 7 .2 9.8c-.1.1-.2.1-.2.2z" fill="#1a3967"></path><path d="m164 227.6c-.1-5-4-9.1-8.9-9.4h-.3l-20.3-24.2.6-.5c3.3-2.8 5.1-6.9 5.2-11.2-.1-7.7-6-14.2-13.7-15.1l-.7-.1v-13.5c-.1-.7-.7-1.3-1.4-1.2-.6.1-1.1.6-1.2 1.2v13.5l-.7.1c-7.7.9-13.6 7.3-13.7 15.1 0 4.3 1.9 8.4 5.1 11.2l.6.5-20.2 24.1h-.4c-5 .3-8.9 4.4-8.9 9.4.2 5.4 4.7 9.7 10.1 9.5 5.2-.2 9.3-4.3 9.5-9.5 0-3.9-2.5-7.4-6.1-8.8l-1.1-.4 19.2-22.9.6.3c1.6.8 3.4 1.4 5.2 1.6l.7.1v20.7l-.7.1c-5.3 1.1-8.7 6.3-7.6 11.6s6.3 8.7 11.6 7.6 8.7-6.3 7.6-11.6c-.8-3.8-3.8-6.8-7.6-7.6l-.7-.1v-20.7l.7-.1c1.8-.2 3.6-.8 5.2-1.6l.6-.3 19.2 22.9-1.1.4c-3.7 1.4-6.1 4.9-6.1 8.8.2 5.4 4.7 9.7 10.1 9.5 5.3-.1 9.5-4.3 9.6-9.4zm-62 0c.1 4-3 7.3-7 7.4s-7.3-3-7.4-7 3-7.3 7-7.4h.2c.3 0 .7 0 1 .1h.2c3.5.4 6 3.4 6 6.9zm29.7 0c.1 4-3 7.3-7 7.4s-7.3-3-7.4-7 3-7.3 7-7.4h.2c3.9-.1 7.2 3 7.2 7 0-.1 0 0 0 0zm-7.1-32.6c-7.1-.2-12.6-6-12.5-13.1.2-7.1 6-12.6 13.1-12.5 6.9.2 12.5 5.8 12.5 12.8-.2 7.2-6 12.9-13.1 12.8zm29.6 39.6c-3.9.1-7.1-2.9-7.2-6.8-.1-3.5 2.5-6.6 6-7.1l.5-.1c.2 0 .5-.1.7-.1 3.9 0 7 3.1 7 7s-3.1 7.1-7 7.1z" fill="#1a3967"></path><path d="m86.9 100.8s8.4-16 38.3-16c0 0 26.4-1.9 38.3 16 0 0-14.5 16.2-38.3 15.5 0 0-23.6.9-38.3-15.5z" fill="#5b9bd3"></path><path d="m86.9 21.6s8.6 16 38.3 16c0 0 29.3.9 38.3-16 0 0-15-16-38.3-15.5 0 0-22.8-1.1-38.3 15.5z" fill="#5b9bd3"></path><g fill="#1a3967"><path d="m94.2 62.7c0-.2 0-.4 0-.6-.2.2-.4.3-.6.5.1.1.4.1.6.1z"></path><path d="m97.2 61.3v1.5h26.5v-1.3c0-.1 0-.1 0-.2v-1.5h-27.3l-.2.2c.6.2.9.7 1 1.3z"></path><path d="m153.2 59.7h-26.5v1.3.2 1.5h26.5c0-.5 0-1 0-1.5 0-.5 0-1 0-1.5z"></path><path d="m156.2 59.7v1.5 1.5h22.6c0-.5 0-.9 0-1.4s0-1.1 0-1.6z"></path><path d="m126.7 36v-27.4c-.7-.4-1.2-.6-1.5-.8-.3.2-.9.4-1.5.8v27.4h1.5c.5.1 1 .1 1.5 0z"></path><path d="m123.7 61.3v.2-.2c0-.9.6-1.6 1.4-1.6s1.5.6 1.6 1.4v-22.1c-.5 0-1 0-1.5 0-.5 0-1 0-1.5 0z"></path><path d="m125.5 4.7h.2.1c2 .9 3.9 2.1 5.7 3.3 11.3 1.3 21.8 6.2 30.1 13.9.2-.3.4-.7.6-1 .4-.7 1.3-1 2-.7-10.5-10-24.4-15.6-38.9-15.6h.1z"></path><path d="m88.2 21c.2.3.4.6.6 1 8.3-7.7 18.8-12.6 30.1-14 1.8-1.3 3.7-2.4 5.7-3.3h.2.1.2.1c-14.5 0-28.5 5.6-39 15.7h.1c.6-.3 1.5-.1 1.9.6z"></path><path d="m78 35.9c2.3-4.3 5.2-8.3 8.6-11.8-.4-.6-.8-1.2-1.1-1.8-.2-.5-.2-1 .1-1.5-5.4 5.3-9.7 11.5-12.6 18.4 1.4-1.4 3.1-2.5 5-3.3z"></path><path d="m70.1 59.8c.8 0 1.5.7 1.5 1.5 0-.6 0-1.2 0-1.8-1.2-1.6-2.1-3.4-2.6-5.4-.3 2.4-.5 4.8-.5 7.2 0-.9.7-1.5 1.6-1.5z"></path><path d="m164.8 22.3c-.3.6-.7 1.2-1.1 1.8 9.3 9.6 14.6 22.3 15 35.6v1.6c0-.8.7-1.5 1.5-1.5s1.5.7 1.5 1.5c0-15.2-6.2-29.7-17-40.3.3.3.3.8.1 1.3z"></path><path d="m99.2 43c.6-2.7 1.4-5.4 2.4-8-1-.4-1.9-.8-2.8-1.2-.9 2.3-1.6 4.7-2.2 7.1.8 1 1.4 2.2 1.9 3.4.4-.4.6-.8.7-1.3z"></path><path d="m123.7 8.5c.6-.3 1.2-.6 1.5-.8l-.6-.3c-.8-.3-1.1-1.2-.8-1.9.2-.4.5-.8 1-.9h-.2c-2 .9-3.9 2-5.7 3.3-8.4 5.7-14.9 13.6-19 22.9.9.4 1.8.9 2.8 1.3 4.2-9.9 11.6-18.2 21-23.6z"></path><path d="m125.3 4.6h-.1z"></path><path d="m124.9 4.7h.2z"></path><path d="m125.6 4.7h-.2z"></path><path d="m153.2 61.2c0-.8.7-1.5 1.5-1.5s1.5.7 1.5 1.5c0-.5 0-1 0-1.5 0-8.8-1.6-17.6-4.7-25.9-.9.4-1.8.8-2.8 1.2 2.9 7.9 4.4 16.2 4.5 24.7z"></path><path d="m124.9 4.7h-.1c-.8.2-1.3 1-1 1.8.1.4.5.8.9 1l.6.3c.3.2.8.4 1.5.8 4.3 2.4 14.4 9.3 20.9 23.7 1-.4 1.9-.8 2.8-1.2-4-9.3-10.5-17.2-18.8-23-1.8-1.3-3.7-2.4-5.7-3.3h-.1-.2-.1-.2-.1z"></path><path d="m85.5 22.3c.3.6.7 1.2 1.1 1.8 3.2 4.2 7.3 7.5 12.1 9.7.9.4 1.8.8 2.8 1.2 5.5 2.2 12.7 3.9 22.1 4h1.5c-.8 0-1.5-.7-1.5-1.5s.7-1.5 1.5-1.5c-.5 0-1 0-1.5 0-7.2 0-14.3-1.3-21-3.9-1-.4-1.9-.8-2.8-1.3-6.6-3.3-9.9-7.2-11.1-9-.2-.3-.4-.6-.6-1-.4-.7-1.3-1-2-.7h-.1c-.2.1-.4.3-.5.5-.2.6-.2 1.2 0 1.7z"></path><path d="m162.1 21c-.2.3-.4.7-.6 1-1.2 1.8-4.5 5.8-11.3 9.1-.9.4-1.8.8-2.8 1.2-6.7 2.5-13.7 3.8-20.9 3.8-.5 0-1 0-1.5 0-.8 0-1.5.7-1.5 1.5s.7 1.5 1.5 1.5h1.5c9.3-.2 16.5-1.8 22-4 1-.4 1.9-.8 2.8-1.2 4.8-2.2 9-5.6 12.2-9.8.4-.6.8-1.2 1.1-1.8.2-.4.2-1 0-1.4-.1-.3-.4-.5-.6-.6-.6-.3-1.5 0-1.9.7z"></path><path d="m123.7 86.4v27.5c.6.3 1.1.6 1.5.8.3-.2.9-.4 1.5-.8v-27.5c-.5 0-1 0-1.5 0-.5 0-1 0-1.5 0z"></path><path d="m126.7 61.2c0-.1 0-.1 0-.2 0-.8-.8-1.5-1.6-1.4-.8 0-1.5.8-1.4 1.6v22.2h1.5 1.5z"></path><path d="m124.7 117.8c-2.1-.9-4-2-5.8-3.3-11.3-1.3-21.8-6.2-30.1-13.9-.2.3-.4.7-.6 1-.3.5-.8.8-1.3.8-.2 0-.5-.1-.7-.2l-.1-.1c10.5 10.1 24.5 15.7 39.1 15.7-.2.1-.3.1-.5 0z"></path><path d="m163.5 102.3c-.6 0-1.1-.3-1.3-.8 0 0-.2-.4-.6-1-8.3 7.7-18.8 12.6-30.1 13.9-1.8 1.3-3.7 2.4-5.7 3.3h-.1-.1c-.1 0-.3.1-.4.1 14.6 0 28.6-5.6 39.1-15.7l-.1.1c-.2 0-.5.1-.7.1z"></path><path d="m181.8 61.3c0-.8-.7-1.5-1.5-1.5s-1.5.7-1.5 1.5v1.4c-.3 13.4-5.7 26.1-15 35.7.4.6.8 1.1 1.1 1.8.2.5.2 1.1-.1 1.5 10.9-10.6 17-25.1 17-40.3z"></path><path d="m85.5 100.2c.3-.6.7-1.2 1.1-1.8-6-6.2-10.4-13.7-12.8-22-.9.4-1.8.8-2.8 1.1 2.8 9.2 7.8 17.5 14.7 24.2-.4-.4-.4-1-.2-1.5z"></path><path d="m71.6 61.3c0-.8-.7-1.5-1.5-1.5s-1.5.7-1.5 1.5c0 4.7.6 9.3 1.7 13.9 1-.3 1.9-.7 2.8-1.1-1-4.3-1.5-8.5-1.5-12.8z"></path><path d="m126.7 113.9c-.7.4-1.2.6-1.5.8l.6.3c.8.3 1.2 1.2.9 1.9v.1c-.2.4-.5.7-.9.9h.1c2-.9 3.9-2 5.7-3.3 8.3-5.8 14.8-13.7 18.8-23-.9-.4-1.8-.8-2.8-1.2-6.5 14.2-16.6 21.1-20.9 23.5z"></path><path d="m156.2 61.3c0-.8-.7-1.5-1.5-1.5s-1.5.7-1.5 1.5v1.5c0 8.4-1.5 16.8-4.5 24.7 1 .4 1.9.8 2.8 1.2 3.1-8.3 4.7-17.1 4.7-25.9 0-.6 0-1 0-1.5z"></path><path d="m125.2 117.8c.1 0 .3 0 .4-.1-.2.1-.3.1-.4.1z"></path><path d="m97.2 61.3c0-.6-.3-1.1-.8-1.3-.6.8-1.4 1.5-2.1 2.2v.6c0 8.8 1.6 17.6 4.7 25.9.9-.4 1.8-.8 2.8-1.2-2.9-7.9-4.5-16.3-4.5-24.7-.1-.6-.1-1-.1-1.5z"></path><path d="m125.6 117.8c.5-.1.8-.5 1-.9.3-.8 0-1.6-.8-2 0 0 0 0-.1 0l-.6-.3c-.3-.2-.8-.4-1.5-.8-4.3-2.4-14.4-9.3-20.9-23.7-1 .4-1.9.8-2.8 1.2 4 9.3 10.6 17.2 18.8 23 1.8 1.3 3.7 2.4 5.7 3.3h.1.1c.1 0 .3.1.4.1.3.1.4.1.6.1z"></path><path d="m164.8 100.2c-.3-.6-.7-1.2-1.1-1.8-3.2-4.2-7.4-7.6-12.3-9.8-.9-.4-1.8-.8-2.8-1.2-7-2.7-14.5-4-22-4-.5 0-1 0-1.5 0 .8 0 1.5.7 1.5 1.5s-.7 1.5-1.5 1.5h1.5c7.1 0 14.2 1.3 20.8 3.8 1 .4 1.9.8 2.8 1.2 6.7 3.3 10 7.3 11.3 9.1.4.6.6.9.6 1 .3.5.8.8 1.3.8.2 0 .5-.1.7-.2l.1-.1c.2-.1.3-.3.4-.4.5-.3.5-.9.2-1.4z"></path><path d="m86.9 102.3c.6 0 1.1-.3 1.3-.8.2-.3.4-.7.6-1 1.2-1.8 4.5-5.8 11.3-9.1.9-.4 1.8-.8 2.8-1.2 6.7-2.5 13.7-3.8 20.9-3.8h1.5c.8 0 1.5-.7 1.5-1.5s-.7-1.5-1.5-1.5c-.5 0-1 0-1.5 0-9.3.2-16.5 1.8-22 4-1 .4-1.9.8-2.8 1.2-4.8 2.2-9.1 5.6-12.3 9.8-.4.6-.8 1.1-1.1 1.8-.2.5-.2 1.1.1 1.5.1.2.3.3.4.4l.1.1c.2.1.4.1.7.1z"></path><path d="m46.2 50.2c.6 0 1.2.5 1.2 1.1 4.2-2.3 27-15.4 27-32.2 0-9-6.9-16.4-15.4-16.6.4.7.7 1.6.7 2.4 6.8.6 12.2 6.7 12.2 14.1 0 15.3-21.9 28-25.7 30.1-5.9-3.3-11.4-7.3-16.3-12-.5-.5-1.3-.5-1.8 0s-.5 1.3 0 1.8c5 4.8 10.7 9 16.8 12.3.1-.5.7-1 1.3-1z"></path><path d="m20.5 19.1c0-7.5 5.4-13.6 12.3-14.1 0-.9.2-1.7.7-2.4-8.6.1-15.5 7.5-15.5 16.5.1 4.1 1.3 8.1 3.5 11.5h2.9c-2.4-3.4-3.8-7.4-3.9-11.5z"></path><path d="m32.7 5c0 2.7 2.2 4.9 5 4.9 2.7 0 4.9-2.2 4.9-5 0-2.7-2.2-4.9-5-4.9-1.8 0-3.4.9-4.3 2.5-.4.8-.6 1.6-.6 2.5zm4.9-2.5c1.4 0 2.4 1.1 2.4 2.5s-1 2.4-2.4 2.4-2.4-1.1-2.4-2.5c0-1.4 1.1-2.4 2.4-2.4z"></path><path d="m59 2.5c-1.3-2.3-4.3-3.1-6.6-1.8s-3.2 4.3-1.9 6.6 4.3 3.1 6.6 1.8c1.5-.8 2.4-2.4 2.5-4.1.1-.9-.2-1.8-.6-2.5zm-4.2 4.8c-1.4 0-2.5-1.1-2.5-2.5s1.1-2.4 2.5-2.4 2.5 1.1 2.5 2.5-1.2 2.4-2.5 2.4z"></path><path d="m83.9 65.8c1-2.4 1.5-5 1.5-7.6v-1.8-.1c-.8.2-1.6.2-2.4 0v.1 1.8c0 6.7-3.8 12.8-9.8 15.8-.9.5-1.8.9-2.8 1.2-9.5 2.8-19.4-2.5-22.2-11.9-.5-1.7-.8-3.4-.8-5.2v-6.7-.1c0-.7-.5-1.2-1.2-1.2s-1.2.5-1.2 1.2v.1 6.7c0 11.1 9 20.2 20.1 20.2 2 0 4-.3 5.9-.9 1-.3 1.9-.7 2.8-1.1 4.6-2.1 8.1-5.9 10.1-10.5z"></path><path d="m78.7 61.2c.5.4 1.3.3 1.7-.3.4-.5.3-1.3-.3-1.7-.1-.1-.2-.2-.3-.2-4.8-2.4-6.8-8.3-4.4-13.1s8.3-6.8 13.1-4.4 6.8 8.3 4.4 13.1c-1 1.9-2.5 3.5-4.4 4.4-.6.4-.8 1.1-.4 1.7.3.5.9.7 1.5.5 6.1-3 8.5-10.4 5.5-16.4-3-6.1-10.4-8.5-16.4-5.5s-8.5 10.4-5.5 16.4c1.2 2.4 3.1 4.3 5.5 5.5z"></path><path d="m90.2 50.2c0-3.4-2.7-6.1-6.1-6.1s-6.1 2.7-6.1 6.1c0 2.9 2.1 5.4 4.9 6 .8.2 1.6.2 2.4 0 2.9-.6 4.9-3.1 4.9-6zm-6.1 3.7c-2 0-3.7-1.6-3.7-3.7 0-2 1.6-3.7 3.7-3.7 2 0 3.7 1.6 3.7 3.7 0 2-1.6 3.7-3.7 3.7z"></path></g><path d="m31.3 32.5 2.5-4.2 5.2 10.2c.2.4.6.7 1.1.7h.1c.5 0 .9-.4 1.1-.8l6.2-17.8 4.9 11.8c.2.5.6.8 1.1.8h7.3v-2.4h-6.5l-5.8-13.9c-.2-.5-.7-.8-1.2-.8s-1 .3-1.1.8l-6.4 18.1-4.8-9.8c-.2-.4-.6-.6-1-.7-.4 0-.9.2-1.1.6l-3.3 5.5h-11.6v2.5h12.3c.4 0 .8-.3 1-.6z" fill="#5b9bd3"></path><path d="m124.6 192c-5.3 0-9.7-4.3-9.7-9.6s4.3-9.7 9.6-9.7 9.7 4.3 9.7 9.6c0 5.4-4.3 9.7-9.6 9.7zm0-16.8c-3.9 0-7.2 3.2-7.2 7.1s3.2 7.2 7.1 7.2 7.2-3.2 7.2-7.1c0-4-3.2-7.1-7.1-7.2z" fill="#1a3967"></path><path d="m179.9 154.6c-5.3 0-9.6-4.3-9.6-9.6s4.3-9.6 9.6-9.6 9.6 4.3 9.6 9.6c0 5.3-4.3 9.6-9.6 9.6zm0-16.7c-3.9 0-7.2 3.2-7.2 7.1s3.2 7.2 7.1 7.2 7.2-3.2 7.2-7.1c0-4-3.2-7.2-7.1-7.2z" fill="#1a3967"></path><path d="m62.6 154.6c-5.3 0-9.6-4.3-9.6-9.6s4.3-9.6 9.7-9.6c5.3 0 9.6 4.3 9.6 9.6-.1 5.3-4.4 9.6-9.7 9.6zm0-16.7c-3.9 0-7.1 3.2-7.1 7.1s3.2 7.1 7.2 7.1c3.9 0 7.1-3.2 7.1-7.1-.1-3.9-3.3-7.1-7.2-7.1z" fill="#1a3967"></path></svg>