<svg xmlns="http://www.w3.org/2000/svg" viewBox="0 0 318.66 345.32"><defs><style>.cls-1{fill:#cbcbca;}.cls-2,.cls-6{fill:#1a3967;}.cls-3{fill:#b8dae8;}.cls-4{fill:#5b9bd3;}.cls-5{fill:#fff;stroke:#fff;}.cls-10,.cls-11,.cls-12,.cls-5,.cls-6,.cls-7,.cls-8,.cls-9{stroke-miterlimit:10;}.cls-10,.cls-11,.cls-12,.cls-6,.cls-7,.cls-8,.cls-9{stroke:#1a3967;}.cls-10,.cls-11,.cls-12,.cls-13,.cls-7,.cls-8,.cls-9{fill:none;}.cls-10,.cls-11,.cls-12,.cls-7,.cls-8,.cls-9{stroke-linecap:round;stroke-width:2px;}.cls-8{stroke-dasharray:3.21 5.34;}.cls-9{stroke-dasharray:2.88 4.8;}.cls-10{stroke-dasharray:2.64 4.4;}.cls-11{stroke-dasharray:3.36 5.6;}.cls-12{stroke-dasharray:3.58 5.96;}</style></defs><g id="Layer_2" data-name="Layer 2"><g id="Layer_1-2" data-name="Layer 1"><rect class="cls-1" x="219.68" y="55.89" width="23.49" height="13.81"></rect><rect class="cls-1" x="219.68" y="74.76" width="23.49" height="6.44"></rect><path class="cls-2" d="M243.18,70.47h-23.5a.76.76,0,0,1-.77-.77V55.89a.77.77,0,0,1,.77-.78h23.5a.78.78,0,0,1,.78.78V69.7A.77.77,0,0,1,243.18,70.47Zm-22.72-1.55H242.4V56.67H220.46Z"></path><rect class="cls-1" x="219.68" y="36.8" width="23.49" height="13.81"></rect><path class="cls-2" d="M243.18,51.39h-23.5a.77.77,0,0,1-.77-.78V36.8a.77.77,0,0,1,.77-.78h23.5a.78.78,0,0,1,.78.78V50.61A.78.78,0,0,1,243.18,51.39Zm-22.72-1.56H242.4V37.58H220.46Z"></path><path class="cls-2" d="M243.18,82a.77.77,0,0,1-.78-.77V75.54H220.46v5.67a.77.77,0,0,1-.78.77.76.76,0,0,1-.77-.77V74.76a.77.77,0,0,1,.77-.78h23.5a.78.78,0,0,1,.78.78v6.45A.77.77,0,0,1,243.18,82Z"></path><path class="cls-2" d="M273.46,41.7H249a.78.78,0,1,1,0-1.56h24.48a.78.78,0,0,1,0,1.56Z"></path><path class="cls-2" d="M288.61,47.71H249a.77.77,0,0,1-.78-.77.78.78,0,0,1,.78-.78h39.63a.77.77,0,0,1,.77.78A.76.76,0,0,1,288.61,47.71Z"></path><path class="cls-2" d="M273.46,60.58H249A.78.78,0,0,1,249,59h24.48a.78.78,0,0,1,0,1.56Z"></path><path class="cls-2" d="M288.61,66.59H249a.77.77,0,0,1-.78-.77A.78.78,0,0,1,249,65h39.63a.77.77,0,0,1,.77.78A.76.76,0,0,1,288.61,66.59Z"></path><path class="cls-2" d="M273.46,78.73H249a.78.78,0,1,1,0-1.56h24.48a.78.78,0,0,1,0,1.56Z"></path><path class="cls-2" d="M317.89,86.28h-7.61a.22.22,0,0,0,0-.08V29.89a5.13,5.13,0,0,0-5.3-5.31H211.56a5.13,5.13,0,0,0-5.3,5.31v2.24a.88.88,0,0,0,0,.16v54h-7a.78.78,0,0,0-.78.78v2.12a5.2,5.2,0,0,0,5.19,5.19H313.47a5.2,5.2,0,0,0,5.19-5.19V87.06A.77.77,0,0,0,317.89,86.28ZM207.8,86.2h0V29.89a3.58,3.58,0,0,1,3.74-3.75H305a3.58,3.58,0,0,1,3.74,3.75V86.2a.22.22,0,0,0,0,.08H207.8Zm42.94,1.64h15.15v2H250.74Zm66.37,1.34a3.64,3.64,0,0,1-3.64,3.63H203.63A3.64,3.64,0,0,1,200,89.18V87.84h49.2v2.77a.78.78,0,0,0,.78.78h16.7a.78.78,0,0,0,.78-.78V87.84h49.66Z"></path><path class="cls-2" d="M302.87,31.33H213.76a.74.74,0,0,0-.77.7v.07h0v0h0V81.55a.78.78,0,0,0,.77.81h0l89.1-.06a.79.79,0,0,0,.78-.79V32.1A.77.77,0,0,0,302.87,31.33Zm-.78,49.4-87.55,0V32.88h87.55Z"></path><path class="cls-2" d="M6.91,133.2a1.45,1.45,0,0,1-1.45-1.46V123a1.45,1.45,0,0,1,2.9,0v8.71A1.45,1.45,0,0,1,6.91,133.2Z"></path><path class="cls-2" d="M11.27,128.84H2.55a1.45,1.45,0,0,1,0-2.9h8.72a1.45,1.45,0,0,1,0,2.9Z"></path><path class="cls-2" d="M72,146.4a2.09,2.09,0,0,1,2.06-2.14h0a2.08,2.08,0,0,1,2.16,2h0a2.06,2.06,0,0,1-2,2.13h-.06A2.08,2.08,0,0,1,72,146.4Zm-6.25-1.17h0a2.1,2.1,0,0,1-.05-3h0a2.1,2.1,0,0,1,3-.06h0a2.12,2.12,0,0,1,.06,3h0a2.15,2.15,0,0,1-1.52.64h0A2.09,2.09,0,0,1,65.76,145.23Zm13.67-.32a2.12,2.12,0,0,1-.09-3h0a2.11,2.11,0,0,1,3-.09h0a2.12,2.12,0,0,1,.09,3h0a2.2,2.2,0,0,1-1.54.66h0A2.13,2.13,0,0,1,79.43,144.91ZM62.18,137a2.13,2.13,0,0,1,2.08-2.16h0A2.14,2.14,0,0,1,66.4,137h0a2.13,2.13,0,0,1-2.09,2.17h0A2.15,2.15,0,0,1,62.18,137Zm19.18-.5a2.09,2.09,0,0,1,2-2.17h0a2.08,2.08,0,0,1,2.19,2h0a2.06,2.06,0,0,1-2,2.17h-.08A2.09,2.09,0,0,1,81.36,136.49Zm-15.79-4.93a2.12,2.12,0,0,1,0-3h0a2.12,2.12,0,0,1,3,0h0a2.1,2.1,0,0,1,0,3h0a2.1,2.1,0,0,1-1.5.63h0A2.1,2.1,0,0,1,65.57,131.56Zm13.37-.28h0a2.11,2.11,0,0,1-.13-3h0a2.11,2.11,0,0,1,3-.13h0a2.11,2.11,0,0,1,.13,3h0a2.1,2.1,0,0,1-1.56.69h0A2.09,2.09,0,0,1,78.94,131.28Zm-7.17-4.08a2.12,2.12,0,0,1,2.11-2.11h0A2.12,2.12,0,0,1,76,127.2h0a2.12,2.12,0,0,1-2.12,2.12h0A2.12,2.12,0,0,1,71.77,127.2Z"></path><path class="cls-2" d="M92.08,312.47A1.45,1.45,0,0,1,90.63,311V302.3a1.46,1.46,0,0,1,2.91,0V311A1.46,1.46,0,0,1,92.08,312.47Z"></path><path class="cls-2" d="M96.44,308.11H87.73a1.46,1.46,0,1,1,0-2.91h8.71a1.46,1.46,0,0,1,0,2.91Z"></path><path class="cls-2" d="M237.6,181.78a2.09,2.09,0,0,1,2.05-2.14h0a2.09,2.09,0,0,1,2.17,2h0a2.07,2.07,0,0,1-2.06,2.13h-.06A2.06,2.06,0,0,1,237.6,181.78Zm-6.26-1.17h0a2.12,2.12,0,0,1-.05-3h0a2.1,2.1,0,0,1,3-.05h0a2.1,2.1,0,0,1,.06,3h0a2.12,2.12,0,0,1-1.52.65h0A2.13,2.13,0,0,1,231.34,180.61Zm13.67-.32a2.12,2.12,0,0,1-.09-3h0a2.12,2.12,0,0,1,3-.09h0a2.13,2.13,0,0,1,.09,3h0a2.2,2.2,0,0,1-1.54.66h0A2.13,2.13,0,0,1,245,180.29Zm-17.25-7.92a2.12,2.12,0,0,1,2.08-2.16h0a2.14,2.14,0,0,1,2.14,2.12h0a2.12,2.12,0,0,1-2.08,2.17h0A2.15,2.15,0,0,1,227.76,172.37Zm19.18-.51a2.11,2.11,0,0,1,2-2.17h0a2.09,2.09,0,0,1,2.18,2h0a2.06,2.06,0,0,1-2,2.17h-.08A2.1,2.1,0,0,1,246.94,171.86Zm-15.78-4.92a2.12,2.12,0,0,1,0-3h0a2.1,2.1,0,0,1,3,0h0a2.12,2.12,0,0,1,0,3h0a2.1,2.1,0,0,1-1.5.63h0A2.1,2.1,0,0,1,231.16,166.94Zm13.36-.28h0a2.11,2.11,0,0,1-.13-3h0a2.11,2.11,0,0,1,3-.13h0a2.11,2.11,0,0,1,.13,3h0a2.09,2.09,0,0,1-1.55.68h0A2.11,2.11,0,0,1,244.52,166.66Zm-7.17-4.08a2.12,2.12,0,0,1,2.12-2.11h0a2.12,2.12,0,0,1,2.11,2.11h0a2.11,2.11,0,0,1-2.11,2.11h0A2.11,2.11,0,0,1,237.35,162.58Z"></path><path class="cls-2" d="M216.11,127.87a1.45,1.45,0,0,1-1.46-1.45V117.7a1.46,1.46,0,0,1,2.91,0v8.72A1.45,1.45,0,0,1,216.11,127.87Z"></path><path class="cls-2" d="M220.46,123.51h-8.71a1.45,1.45,0,1,1,0-2.9h8.71a1.45,1.45,0,1,1,0,2.9Z"></path><path class="cls-2" d="M109.41,102.36a1.45,1.45,0,0,1-1.45-1.45V92.19a1.45,1.45,0,0,1,2.9,0v8.72A1.45,1.45,0,0,1,109.41,102.36Z"></path><path class="cls-2" d="M113.77,98h-8.71a1.45,1.45,0,1,1,0-2.9h8.71a1.45,1.45,0,0,1,0,2.9Z"></path><path class="cls-2" d="M113,223.46a1.45,1.45,0,0,1-1.45-1.45v-8.72a1.45,1.45,0,0,1,2.9,0V222A1.45,1.45,0,0,1,113,223.46Z"></path><path class="cls-2" d="M117.36,219.1h-8.72a1.45,1.45,0,0,1,0-2.9h8.72a1.45,1.45,0,0,1,0,2.9Z"></path><circle class="cls-1" cx="278.54" cy="147.21" r="16.49"></circle><path class="cls-2" d="M277,153.84a1,1,0,0,1-.7-.3l-7.47-7.46a1,1,0,0,1,0-1.42,1,1,0,0,1,1.41,0l6.76,6.76,9.86-9.85a1,1,0,0,1,1.41,0,1,1,0,0,1,0,1.42L277.7,153.54A1,1,0,0,1,277,153.84Z"></path><path class="cls-2" d="M278.54,164.71A17.5,17.5,0,1,1,296,147.21,17.51,17.51,0,0,1,278.54,164.71Zm0-33A15.5,15.5,0,1,0,294,147.21,15.51,15.51,0,0,0,278.54,131.72Z"></path><path class="cls-1" d="M54.26,174.21A1.27,1.27,0,0,0,53,172.94H49.58A1.6,1.6,0,0,1,48,171.75,15.49,15.49,0,0,0,47,169a1.63,1.63,0,0,1,.31-1.84l2.32-2.32a1.27,1.27,0,0,0,0-1.79L46,159.41a1.26,1.26,0,0,0-1.78,0l-2,2a1.57,1.57,0,0,1-1.93.24,17.17,17.17,0,0,0-3-1.39,1.61,1.61,0,0,1-1.1-1.52V156.1a1.27,1.27,0,0,0-1.27-1.27h-5.2a1.26,1.26,0,0,0-1.26,1.27v2.31A1.61,1.61,0,0,1,27.23,160a17.49,17.49,0,0,0-3.35,1.34A1.61,1.61,0,0,1,22,161l-1.61-1.61a1.27,1.27,0,0,0-1.79,0l-3.74,3.75a1.24,1.24,0,0,0,0,1.78l1.62,1.62a1.6,1.6,0,0,1,.29,1.86,18.4,18.4,0,0,0-1.34,3.39A1.6,1.6,0,0,1,13.88,173H11.56a1.26,1.26,0,0,0-1.26,1.27v5.19a1.27,1.27,0,0,0,1.27,1.26h2.64a1.59,1.59,0,0,1,1.52,1.09,17.26,17.26,0,0,0,1.39,3,1.6,1.6,0,0,1-.24,1.93l-2,2a1.26,1.26,0,0,0,0,1.79l3.66,3.66a1.27,1.27,0,0,0,1.79,0l2.34-2.34a1.61,1.61,0,0,1,1.84-.31,16.37,16.37,0,0,0,2.73,1,1.61,1.61,0,0,1,1.2,1.55v3.39a1.27,1.27,0,0,0,1.26,1.26h5.21a1.26,1.26,0,0,0,1.26-1.26v-3.69a1.62,1.62,0,0,1,1.1-1.53,16.1,16.1,0,0,0,2.35-1,1.61,1.61,0,0,1,1.89.28l2.63,2.63a1.27,1.27,0,0,0,1.79,0l3.75-3.75a1.26,1.26,0,0,0,0-1.78L47,186.05a1.62,1.62,0,0,1-.27-1.9,16,16,0,0,0,1-2.38,1.61,1.61,0,0,1,1.52-1.1H53a1.25,1.25,0,0,0,1.26-1.26Zm-15.32,9.26a10.26,10.26,0,1,1,0-14.51A10.26,10.26,0,0,1,38.94,183.47Z"></path><path class="cls-2" d="M31.69,187.47a11.25,11.25,0,0,1-8-3.29h0a11.27,11.27,0,1,1,8,3.29Zm-6.55-4.71a9.26,9.26,0,1,0,0-13.09,9.28,9.28,0,0,0,0,13.09Z"></path><path class="cls-2" d="M34.88,199.78H29.67a2.27,2.27,0,0,1-2.26-2.26v-3.39a.63.63,0,0,0-.46-.59,17.05,17.05,0,0,1-2.9-1.07.6.6,0,0,0-.7.11L21,194.92a2.27,2.27,0,0,1-3.2,0l-3.66-3.67a2.21,2.21,0,0,1-.66-1.6,2.25,2.25,0,0,1,.66-1.6l2-2a.59.59,0,0,0,.08-.72,18.43,18.43,0,0,1-1.46-3.2.61.61,0,0,0-.57-.42H11.56A2.21,2.21,0,0,1,10,181a2.26,2.26,0,0,1-.67-1.6v-5.19a2.21,2.21,0,0,1,.66-1.61,2.29,2.29,0,0,1,1.6-.66h2.32a.6.6,0,0,0,.58-.43A18.45,18.45,0,0,1,15.88,168a.61.61,0,0,0-.12-.7l-1.62-1.62a2.27,2.27,0,0,1,0-3.2l3.75-3.75a2.27,2.27,0,0,1,3.2,0l1.61,1.61a.59.59,0,0,0,.71.1A18.36,18.36,0,0,1,27,159a.6.6,0,0,0,.46-.59V156.1a2.21,2.21,0,0,1,.66-1.6,2.26,2.26,0,0,1,1.6-.67h5.2a2.27,2.27,0,0,1,2.27,2.27v2.64a.62.62,0,0,0,.42.58,18.17,18.17,0,0,1,3.21,1.47.6.6,0,0,0,.72-.08l2-2a2.27,2.27,0,0,1,3.2,0l3.66,3.67a2.25,2.25,0,0,1,0,3.2L48,167.88a.62.62,0,0,0-.11.71,18.56,18.56,0,0,1,1.07,2.9.6.6,0,0,0,.58.45H53a2.27,2.27,0,0,1,2.26,2.27v5.2A2.25,2.25,0,0,1,53,181.67H49.27a.61.61,0,0,0-.57.42,17.82,17.82,0,0,1-1.08,2.53.6.6,0,0,0,.1.72L50.35,188a2.25,2.25,0,0,1,0,3.2l-3.74,3.75a2.27,2.27,0,0,1-3.2,0l-2.64-2.63a.6.6,0,0,0-.72-.1,16.79,16.79,0,0,1-2.49,1.06.62.62,0,0,0-.42.58v3.68a2.25,2.25,0,0,1-2.26,2.27ZM23.77,190.4a2.68,2.68,0,0,1,1.14.26,16.15,16.15,0,0,0,2.57,1,2.62,2.62,0,0,1,1.93,2.51v3.39a.26.26,0,0,0,.26.26h5.21a.26.26,0,0,0,.19-.08.25.25,0,0,0,.07-.18v-3.69a2.6,2.6,0,0,1,1.78-2.47,15.52,15.52,0,0,0,2.2-1,2.62,2.62,0,0,1,3.07.46l2.63,2.63a.26.26,0,0,0,.37,0l3.75-3.74a.28.28,0,0,0,0-.38l-2.63-2.63a2.59,2.59,0,0,1-.46-3.06,15.37,15.37,0,0,0,.95-2.24,2.62,2.62,0,0,1,2.47-1.78H53a.27.27,0,0,0,.26-.26v-5.2a.26.26,0,0,0-.08-.19.25.25,0,0,0-.18-.08H49.58A2.61,2.61,0,0,1,47.07,172a14.78,14.78,0,0,0-1-2.56,2.63,2.63,0,0,1,.5-3l2.32-2.32a.27.27,0,0,0,0-.37l-3.66-3.66a.27.27,0,0,0-.38,0l-2,2a2.6,2.6,0,0,1-3.14.4,16.28,16.28,0,0,0-2.85-1.31,2.62,2.62,0,0,1-1.77-2.47V156.1a.27.27,0,0,0-.27-.27h-5.2a.22.22,0,0,0-.18.08.26.26,0,0,0-.08.19v2.31a2.63,2.63,0,0,1-1.92,2.52,15.55,15.55,0,0,0-3.15,1.25,2.61,2.61,0,0,1-3.07-.45l-1.61-1.61a.26.26,0,0,0-.37,0l-3.75,3.74a.28.28,0,0,0,0,.38l1.62,1.62a2.57,2.57,0,0,1,.48,3,17,17,0,0,0-1.26,3.2A2.63,2.63,0,0,1,13.88,174H11.56a.26.26,0,0,0-.19.08.25.25,0,0,0-.07.18v5.2a.27.27,0,0,0,.26.26h2.66a2.6,2.6,0,0,1,2.46,1.77A17.76,17.76,0,0,0,18,184.3a2.59,2.59,0,0,1-.4,3.14l-2,2a.24.24,0,0,0-.07.18.27.27,0,0,0,.07.19h0l3.67,3.66a.26.26,0,0,0,.37,0l2.34-2.34A2.65,2.65,0,0,1,23.77,190.4Z"></path><circle class="cls-1" cx="25.46" cy="38.02" r="4.96"></circle><circle class="cls-1" cx="25.46" cy="80.56" r="4.96" transform="translate(-58.14 92.79) rotate(-80.78)"></circle><path class="cls-2" d="M81.27,52.31H26.46a14.16,14.16,0,1,1,0-28.31H81.27a14.16,14.16,0,1,1,0,28.31ZM26.46,26a12.16,12.16,0,1,0,0,24.31H81.27a12.16,12.16,0,1,0,0-24.31Z"></path><path class="cls-2" d="M81.27,94.66H26.46a14.16,14.16,0,0,1,0-28.32H81.27a14.16,14.16,0,1,1,0,28.32ZM26.46,68.34a12.16,12.16,0,0,0,0,24.32H81.27a12.16,12.16,0,1,0,0-24.32Z"></path><path class="cls-2" d="M25.46,44a6,6,0,1,1,5.95-6A6,6,0,0,1,25.46,44Zm0-9.91a4,4,0,1,0,3.95,4A4,4,0,0,0,25.46,34.07Z"></path><path class="cls-2" d="M25.46,86.52a6,6,0,1,1,5.95-6A6,6,0,0,1,25.46,86.52Zm0-9.91a4,4,0,1,0,3.95,4A4,4,0,0,0,25.46,76.61Z"></path><path class="cls-2" d="M54,39.06H46.24a1,1,0,0,1,0-2H54a1,1,0,1,1,0,2Z"></path><path class="cls-2" d="M72.17,39.06H65.83a1,1,0,0,1,0-2h6.34a1,1,0,0,1,0,2Z"></path><path class="cls-2" d="M54,81.6H46.24a1,1,0,0,1,0-2H54a1,1,0,1,1,0,2Z"></path><path class="cls-2" d="M72.17,81.6H65.83a1,1,0,0,1,0-2h6.34a1,1,0,0,1,0,2Z"></path><path class="cls-2" d="M91.06,68.44a1,1,0,0,1-1-1V51.22a1,1,0,0,1,2,0V67.44A1,1,0,0,1,91.06,68.44Z"></path><path class="cls-2" d="M84.33,68.44a1,1,0,0,1-1-1V51.22a1,1,0,0,1,2,0V67.44A1,1,0,0,1,84.33,68.44Z"></path><path class="cls-2" d="M23.78,68.44a1,1,0,0,1-1-1V51.22a1,1,0,0,1,2,0V67.44A1,1,0,0,1,23.78,68.44Z"></path><path class="cls-2" d="M17.06,68.44a1,1,0,0,1-1-1V51.22a1,1,0,0,1,2,0V67.44A1,1,0,0,1,17.06,68.44Z"></path><path class="cls-3" d="M34.13,228.8,45.2,239.17A23.6,23.6,0,0,0,34.13,228.8Z"></path><path class="cls-1" d="M89.27,236.27v6.86a30.78,30.78,0,0,0-57-16.09l1.89,1.76A23.6,23.6,0,0,1,45.2,239.17L34.13,228.8a23.43,23.43,0,1,0-9.62,44.8H89.27a18.67,18.67,0,1,0,0-37.33Z"></path><path class="cls-2" d="M89.27,274.68H75.11a1.08,1.08,0,0,1,0-2.15H89.27a17.6,17.6,0,1,0,0-35.19,1.08,1.08,0,0,1,0-2.15,19.75,19.75,0,0,1,0,39.49Z"></path><path class="cls-2" d="M31.1,274.68H24.51a24.51,24.51,0,1,1,21.64-36,1.09,1.09,0,0,1-.45,1.46,1.07,1.07,0,0,1-1.45-.44,22.36,22.36,0,1,0-19.74,32.85H31.1a1.08,1.08,0,0,1,0,2.15Z"></path><path class="cls-2" d="M89.27,244.2a1.07,1.07,0,0,1-1.07-1.07,29.71,29.71,0,0,0-55-15.53,1.08,1.08,0,0,1-1.84-1.13,32.12,32.12,0,0,1,11.38-11,31.86,31.86,0,0,1,47.65,27.68A1.07,1.07,0,0,1,89.27,244.2Z"></path><path class="cls-2" d="M67.92,301.7H41.09A1.07,1.07,0,0,1,40,300.63v-7.86a1.08,1.08,0,0,1,2.15,0v6.78H66.85v-6.78a1.08,1.08,0,0,1,2.15,0v7.86A1.08,1.08,0,0,1,67.92,301.7Z"></path><path class="cls-2" d="M63.58,277.16a1.06,1.06,0,0,1-.76-.31l-8.31-8.31-8.31,8.31a1.07,1.07,0,1,1-1.52-1.52l9.07-9.07a1.07,1.07,0,0,1,.76-.32,1.09,1.09,0,0,1,.76.32l9.07,9.07a1.07,1.07,0,0,1-.76,1.83Z"></path><path class="cls-2" d="M54.59,294.65a1.08,1.08,0,0,1-1.08-1.08V267.52a1.08,1.08,0,0,1,2.15,0v26.05A1.07,1.07,0,0,1,54.59,294.65Z"></path><circle class="cls-4" cx="155.88" cy="154.9" r="46.79"></circle><path class="cls-5" d="M154.81,189.94A35.51,35.51,0,0,1,124.44,173a1,1,0,1,1,1.7-1,33.71,33.71,0,1,0-5-17.73,1,1,0,0,1-2,0,35.71,35.71,0,1,1,35.7,35.71Z"></path><path class="cls-5" d="M120,155.24a1,1,0,0,1-.75-.35l-6.46-7.42a1,1,0,1,1,1.51-1.31l5.8,6.67,6.67-5.8a1,1,0,0,1,1.31,1.51L120.7,155A1,1,0,0,1,120,155.24Z"></path><path class="cls-6" d="M155.88,212.53a57.63,57.63,0,0,1,0-115.25,1,1,0,0,1,0,2,55.63,55.63,0,1,0,55.6,55.64,1,1,0,1,1,2,0A57.69,57.69,0,0,1,155.88,212.53Z"></path><line class="cls-7" x1="138.11" y1="92.87" x2="138.11" y2="91.37"></line><line class="cls-8" x1="138.11" y1="86.03" x2="138.11" y2="63.04"></line><polyline class="cls-7" points="138.11 60.37 138.11 58.87 136.61 58.87"></polyline><line class="cls-9" x1="131.81" y1="58.87" x2="103.51" y2="58.87"></line><line class="cls-7" x1="101.11" y1="58.87" x2="99.61" y2="58.87"></line><line class="cls-7" x1="172.61" y1="92.87" x2="172.61" y2="91.37"></line><line class="cls-8" x1="172.61" y1="86.03" x2="172.61" y2="63.04"></line><polyline class="cls-7" points="172.61 60.37 172.61 58.87 174.11 58.87"></polyline><line class="cls-10" x1="178.5" y1="58.87" x2="197.41" y2="58.87"></line><line class="cls-7" x1="199.61" y1="58.87" x2="201.11" y2="58.87"></line><line class="cls-7" x1="172.61" y1="220.2" x2="172.61" y2="221.7"></line><line class="cls-8" x1="172.61" y1="227.05" x2="172.61" y2="250.03"></line><polyline class="cls-7" points="172.61 252.7 172.61 254.2 174.11 254.2"></polyline><line class="cls-11" x1="179.7" y1="254.2" x2="194.81" y2="254.2"></line><line class="cls-7" x1="197.61" y1="254.2" x2="199.11" y2="254.2"></line><line class="cls-7" x1="138.11" y1="220.2" x2="138.11" y2="221.7"></line><line class="cls-8" x1="138.11" y1="227.05" x2="138.11" y2="250.03"></line><polyline class="cls-7" points="138.11 252.7 138.11 254.2 136.61 254.2"></polyline><line class="cls-12" x1="130.65" y1="254.2" x2="124.09" y2="254.2"></line><line class="cls-7" x1="121.11" y1="254.2" x2="119.61" y2="254.2"></line><path class="cls-1" d="M312,209.84a1.43,1.43,0,0,0-1.43,1.43v2.62a1.82,1.82,0,0,1-1.34,1.76,18.38,18.38,0,0,0-3.79,1.51,1.82,1.82,0,0,1-2.14-.32L301.46,215a1.44,1.44,0,0,0-2,0l-4.23,4.24a1.42,1.42,0,0,0,0,2l1.83,1.83a1.82,1.82,0,0,1,.33,2.11,20.21,20.21,0,0,0-1.51,3.83,1.81,1.81,0,0,1-1.75,1.31h-2.62a1.42,1.42,0,0,0-1.43,1.43v5.88a1.41,1.41,0,0,0,1.43,1.42h3a1.82,1.82,0,0,1,1.72,1.24,19.28,19.28,0,0,0,1.57,3.43,1.8,1.8,0,0,1-.28,2.18l-2.29,2.3a1.42,1.42,0,0,0,0,2l4.14,4.14a1.42,1.42,0,0,0,2,0l2.65-2.64a1.83,1.83,0,0,1,2.08-.35,19,19,0,0,0,3.1,1.15,1.83,1.83,0,0,1,1.35,1.75v3.84a1.43,1.43,0,0,0,1.43,1.42h2.53V209.84Zm-5.93,32.4a11.61,11.61,0,0,1,8.2-19.81v23.21A11.53,11.53,0,0,1,306.05,242.24Z"></path><path class="cls-1" d="M312.63,197.54H228.77a2.25,2.25,0,0,0-2.29,2.25v6.26h88.44v-6.26A2.26,2.26,0,0,0,312.63,197.54Zm-81.44,5.56a1.51,1.51,0,1,1,1.51-1.51A1.51,1.51,0,0,1,231.19,203.1Zm6.08,0a1.51,1.51,0,1,1,1.51-1.51A1.52,1.52,0,0,1,237.27,203.1Z"></path><path class="cls-2" d="M306.07,206.65H226.48a.65.65,0,1,1,0-1.29h79.59a.65.65,0,0,1,0,1.29Z"></path><path class="cls-2" d="M242,205.92a.64.64,0,0,1-.64-.64v-7.22a.65.65,0,1,1,1.29,0v7.22A.65.65,0,0,1,242,205.92Z"></path><path class="cls-2" d="M231.19,203.74a2.16,2.16,0,1,1,2.15-2.15A2.16,2.16,0,0,1,231.19,203.74Zm0-3a.87.87,0,1,0,.87.87A.87.87,0,0,0,231.19,200.72Z"></path><path class="cls-2" d="M237.27,203.74a2.16,2.16,0,1,1,2.15-2.15A2.16,2.16,0,0,1,237.27,203.74Zm0-3a.87.87,0,1,0,.86.87A.87.87,0,0,0,237.27,200.72Z"></path><path class="cls-2" d="M292.57,200.89H245.39a.65.65,0,1,1,0-1.29h47.18a.65.65,0,1,1,0,1.29Z"></path><path class="cls-2" d="M270.74,203.9H245.39a.65.65,0,1,1,0-1.29h25.35a.65.65,0,1,1,0,1.29Z"></path><path class="cls-2" d="M314.92,206.65h-2.84a.65.65,0,0,1,0-1.29h2.84a.65.65,0,0,1,0,1.29Z"></path><path class="cls-2" d="M314.25,246.29a12.25,12.25,0,1,1,0-24.5.64.64,0,1,1,0,1.28,11,11,0,0,0,0,21.93.64.64,0,0,1,.65.64A.65.65,0,0,1,314.25,246.29Z"></path><path class="cls-2" d="M314.5,260.21H312a2.07,2.07,0,0,1-2.07-2.07V254.3a1.19,1.19,0,0,0-.87-1.13,18.59,18.59,0,0,1-3.2-1.19,1.18,1.18,0,0,0-1.35.22l-2.65,2.65a2.08,2.08,0,0,1-2.94,0l-4.14-4.14a2.1,2.1,0,0,1-.61-1.47,2.06,2.06,0,0,1,.61-1.47l2.3-2.3a1.17,1.17,0,0,0,.17-1.4,19.81,19.81,0,0,1-1.62-3.54,1.19,1.19,0,0,0-1.11-.81h-3a2.06,2.06,0,0,1-1.46-.61,2,2,0,0,1-.61-1.46v-5.88a2.1,2.1,0,0,1,.61-1.47,2.06,2.06,0,0,1,1.47-.6h2.62a1.16,1.16,0,0,0,1.13-.84,20.66,20.66,0,0,1,1.56-4,1.16,1.16,0,0,0-.22-1.35l-1.83-1.83a2.08,2.08,0,0,1,0-2.94l4.24-4.24a2.09,2.09,0,0,1,2.93,0l1.82,1.83a1.19,1.19,0,0,0,1.39.2A19,19,0,0,1,309,215a1.2,1.2,0,0,0,.87-1.14v-2.62a2.09,2.09,0,0,1,.6-1.47,2.13,2.13,0,0,1,1.47-.61h2.52a.64.64,0,0,1,.64.65.63.63,0,0,1-.64.64H312a.83.83,0,0,0-.56.23.78.78,0,0,0-.22.56v2.62a2.49,2.49,0,0,1-1.82,2.38,18,18,0,0,0-3.66,1.46,2.47,2.47,0,0,1-2.9-.43L301,215.48a.79.79,0,0,0-.56-.23.76.76,0,0,0-.55.23l-4.24,4.23a.8.8,0,0,0,0,1.12l1.83,1.83a2.44,2.44,0,0,1,.46,2.85,19.75,19.75,0,0,0-1.47,3.71A2.47,2.47,0,0,1,294.1,231h-2.62a.79.79,0,0,0-.56.23.75.75,0,0,0-.23.55v5.88a.82.82,0,0,0,.24.55.75.75,0,0,0,.55.23h3a2.47,2.47,0,0,1,2.33,1.67,19,19,0,0,0,1.51,3.31,2.44,2.44,0,0,1-.37,3l-2.3,2.3a.79.79,0,0,0-.23.56.75.75,0,0,0,.23.55l4.15,4.15a.78.78,0,0,0,1.11,0l2.65-2.65a2.48,2.48,0,0,1,2.81-.47,18.15,18.15,0,0,0,3,1.11,2.47,2.47,0,0,1,1.82,2.37v3.84a.78.78,0,0,0,.78.78h2.53a.65.65,0,1,1,0,1.29Z"></path><path class="cls-2" d="M254.07,240.7a6,6,0,1,1,6-6A6,6,0,0,1,254.07,240.7Zm0-10.7a4.71,4.71,0,1,0,4.71,4.7A4.71,4.71,0,0,0,254.07,230Z"></path><path class="cls-2" d="M254.38,248.64a.64.64,0,0,1,0-1.28,13.83,13.83,0,0,0,2-.21.64.64,0,0,1,.24,1.26,13,13,0,0,1-2.24.23Zm-3.82-.46-.17,0a14.94,14.94,0,0,1-2.12-.77.65.65,0,0,1-.31-.86.64.64,0,0,1,.85-.31,12.91,12.91,0,0,0,1.92.69.65.65,0,0,1-.17,1.27Zm9.6-1a.65.65,0,0,1-.29-1.22,13.5,13.5,0,0,0,1.73-1.08.64.64,0,0,1,.77,1,13.52,13.52,0,0,1-1.91,1.19A.67.67,0,0,1,260.16,247.18Zm-14.85-1.83a.66.66,0,0,1-.43-.16,13.19,13.19,0,0,1-1.56-1.61.65.65,0,0,1,.08-.91.64.64,0,0,1,.91.09,12.24,12.24,0,0,0,1.42,1.46.64.64,0,0,1,.06.91A.61.61,0,0,1,245.31,245.35Zm19.41-2a.63.63,0,0,1-.39-.13.65.65,0,0,1-.13-.9,11.88,11.88,0,0,0,1.09-1.72.65.65,0,0,1,.87-.28.64.64,0,0,1,.27.87,13,13,0,0,1-1.2,1.91A.65.65,0,0,1,264.72,243.32Zm-22.91-2.8a.64.64,0,0,1-.59-.39,13.72,13.72,0,0,1-.7-2.14.63.63,0,0,1,.47-.78.65.65,0,0,1,.78.47,11.91,11.91,0,0,0,.64,1.94.65.65,0,0,1-.35.85A.7.7,0,0,1,241.81,240.52Zm25.33-2.65H267a.64.64,0,0,1-.51-.75,12.6,12.6,0,0,0,.22-2,.65.65,0,1,1,1.29,0,14,14,0,0,1-.24,2.24A.64.64,0,0,1,267.14,237.87Zm-26.35-3.23h0a.64.64,0,0,1-.61-.68,12.61,12.61,0,0,1,.29-2.22.66.66,0,0,1,.77-.5.64.64,0,0,1,.49.77,13.62,13.62,0,0,0-.27,2A.63.63,0,0,1,240.79,234.64Zm26.14-2.73a.65.65,0,0,1-.63-.48,12.18,12.18,0,0,0-.68-1.92.64.64,0,0,1,1.17-.53,13.39,13.39,0,0,1,.76,2.12.64.64,0,0,1-.46.79A.44.44,0,0,1,266.93,231.91Zm-24.5-3a.68.68,0,0,1-.31-.08.64.64,0,0,1-.25-.88,14.43,14.43,0,0,1,1.24-1.87.64.64,0,1,1,1,.8,12.24,12.24,0,0,0-1.13,1.7A.63.63,0,0,1,242.43,228.91Zm21.7-2.27a.64.64,0,0,1-.49-.22,12.24,12.24,0,0,0-1.45-1.43.64.64,0,0,1,.82-1,13.35,13.35,0,0,1,1.61,1.58.65.65,0,0,1-.07.91A.66.66,0,0,1,264.13,226.64Zm-17.72-2.17a.62.62,0,0,1-.52-.27.64.64,0,0,1,.15-.9,14.56,14.56,0,0,1,1.94-1.15.65.65,0,0,1,.86.3.64.64,0,0,1-.3.86,13.55,13.55,0,0,0-1.76,1A.63.63,0,0,1,246.41,224.47Zm12.91-1.35a.8.8,0,0,1-.26-.05,11.84,11.84,0,0,0-1.93-.65.64.64,0,0,1-.47-.78.63.63,0,0,1,.78-.47,14.38,14.38,0,0,1,2.13.71.65.65,0,0,1-.25,1.24Zm-7.39-.9a.64.64,0,0,1-.63-.55.63.63,0,0,1,.53-.73,14,14,0,0,1,2.24-.18.64.64,0,0,1,.65.64.65.65,0,0,1-.65.65,12.54,12.54,0,0,0-2,.16Z"></path><path class="cls-2" d="M254.07,253.66a.64.64,0,0,1,0-1.28,17.7,17.7,0,0,0,17.68-17.68.64.64,0,0,1,1.28,0,18.95,18.95,0,0,1-19,19Z"></path><path class="cls-2" d="M235.75,235.35a.65.65,0,0,1-.64-.65,18.95,18.95,0,0,1,19-19,.65.65,0,1,1,0,1.29A17.69,17.69,0,0,0,236.4,234.7.65.65,0,0,1,235.75,235.35Z"></path><path class="cls-13" d="M220,265.47h-4.9v4.9H220Zm-.68,3.66a.56.56,0,0,1-.56.56h-2.42a.56.56,0,0,1-.56-.56v-2.42a.56.56,0,0,1,.56-.56h2.42a.56.56,0,0,1,.56.56Z"></path><path class="cls-13" d="M215.08,288.56H220v-4.9h-4.9Zm.68-3.66a.56.56,0,0,1,.56-.56h2.42a.56.56,0,0,1,.56.56v2.42a.56.56,0,0,1-.56.56h-2.42a.56.56,0,0,1-.56-.56Z"></path><rect class="cls-13" x="216.88" y="285.46" width="1.31" height="1.31"></rect><rect class="cls-13" x="216.88" y="267.27" width="1.31" height="1.31"></rect><path class="cls-13" d="M241.71,245.92v5.94a.49.49,0,0,1,0,.21.54.54,0,0,1,0,.22V264h70.34a2.16,2.16,0,0,0,2.18-2.14V200a1.89,1.89,0,0,0-1.89-1.88H228.92a1.93,1.93,0,0,0-1.93,1.92v43.59h12.45A2.27,2.27,0,0,1,241.71,245.92Z"></path><rect class="cls-13" x="215.08" y="274.56" width="4.91" height="4.91"></rect><path class="cls-13" d="M226.66,298.44a.81.81,0,1,0-.81.81A.81.81,0,0,0,226.66,298.44Z"></path><path class="cls-2" d="M312.34,196.85H228.92a3.22,3.22,0,0,0-3.22,3.21v43.59H227V200.06a1.93,1.93,0,0,1,1.93-1.92h83.42a1.89,1.89,0,0,1,1.89,1.88v61.82a2.16,2.16,0,0,1-2.18,2.14H241.71v1.29h70.34a3.45,3.45,0,0,0,3.47-3.43V200A3.18,3.18,0,0,0,312.34,196.85Z"></path><rect class="cls-1" x="215.08" y="256.37" width="4.91" height="4.91"></rect><path class="cls-2" d="M241.71,252.29a.56.56,0,0,1-.52.34h-.6v41.43h.31a.56.56,0,0,1,0,1.12h-.31v5.43a1.15,1.15,0,0,1-1.15,1.15H219.11a.55.55,0,0,0-.56.55.56.56,0,0,0,.56.56h20.33a2.27,2.27,0,0,0,2.27-2.26V252.29Z"></path><path class="cls-2" d="M209.92,252.13V291a.56.56,0,0,0,1.12,0V252.63h-.57A.55.55,0,0,1,209.92,252.13Z"></path><path class="cls-2" d="M210.47,251.51H211v-5.59a1.15,1.15,0,0,1,1.15-1.15h27.25a1.14,1.14,0,0,1,1.15,1.15v5.59h.6a.57.57,0,0,1,.52.35v-5.94a2.27,2.27,0,0,0-2.27-2.27H212.19a2.27,2.27,0,0,0-2.27,2.27V252A.56.56,0,0,1,210.47,251.51Z"></path><path class="cls-2" d="M240.59,252.63h.6a.56.56,0,0,0,.52-.34.54.54,0,0,0,0-.22.49.49,0,0,0,0-.21.57.57,0,0,0-.52-.35H210.47a.56.56,0,0,0-.55.51s0,0,0,0,0,0,0,.06a.55.55,0,0,0,.55.5h30.12Z"></path><path class="cls-2" d="M241.45,294.62a.56.56,0,0,0-.55-.56H218.8a.56.56,0,0,0,0,1.12h22.1A.56.56,0,0,0,241.45,294.62Z"></path><path class="cls-2" d="M223,247.57a.56.56,0,0,0,0,1.12h5.73a.56.56,0,0,0,0-1.12H223Z"></path><path class="cls-2" d="M227.78,298.44a1.93,1.93,0,1,0-1.93,1.93A1.94,1.94,0,0,0,227.78,298.44Zm-2.74,0a.81.81,0,1,1,.81.81A.81.81,0,0,1,225,298.44Z"></path><path class="cls-2" d="M214.52,262.39h6a.56.56,0,0,0,.56-.55v-6a.56.56,0,0,0-.56-.55h-6a.56.56,0,0,0-.56.55v6A.56.56,0,0,0,214.52,262.39Zm.56-6H220v4.91h-4.9Z"></path><path class="cls-2" d="M232.57,258.06a.56.56,0,0,0,0-1.11H223a.56.56,0,1,0,0,1.11h9.6Z"></path><path class="cls-2" d="M237.1,260.74a.56.56,0,0,0,0-1.12H223a.56.56,0,0,0,0,1.12H237.1Z"></path><path class="cls-2" d="M214,270.93a.56.56,0,0,0,.56.56h6a.56.56,0,0,0,.56-.56v-6a.56.56,0,0,0-.56-.56h-6a.56.56,0,0,0-.56.56Zm1.12-5.46H220v4.9h-4.9Z"></path><path class="cls-2" d="M223,267.14h9.6a.56.56,0,0,0,0-1.12H223a.56.56,0,0,0,0,1.12Z"></path><path class="cls-2" d="M223,269.89H237.1a.56.56,0,0,0,0-1.12H223a.56.56,0,0,0,0,1.12Z"></path><path class="cls-2" d="M214,280a.56.56,0,0,0,.56.55h6a.56.56,0,0,0,.56-.55v-6a.56.56,0,0,0-.56-.56h-6a.56.56,0,0,0-.56.56Zm1.12-5.47H220v4.91h-4.9Z"></path><path class="cls-2" d="M223,276.14h9.6a.56.56,0,0,0,0-1.12H223a.56.56,0,0,0,0,1.12Z"></path><path class="cls-2" d="M223,279H237.1a.56.56,0,1,0,0-1.12H223a.56.56,0,1,0,0,1.12Z"></path><path class="cls-2" d="M221.1,289.12v-6a.56.56,0,0,0-.56-.56h-6a.56.56,0,0,0-.56.56v6a.56.56,0,0,0,.56.56h6A.56.56,0,0,0,221.1,289.12Zm-1.12-.56h-4.9v-4.9H220Z"></path><path class="cls-2" d="M223,285.29h9.6a.56.56,0,0,0,0-1.12H223a.56.56,0,1,0,0,1.12Z"></path><path class="cls-2" d="M223,288.11H237.1a.56.56,0,1,0,0-1.11H223a.56.56,0,1,0,0,1.11Z"></path><path class="cls-2" d="M218.74,266.15h-2.42a.56.56,0,0,0-.56.56v2.42a.56.56,0,0,0,.56.56h2.42a.56.56,0,0,0,.56-.56v-2.42A.56.56,0,0,0,218.74,266.15Zm-.56,2.42h-1.3v-1.3h1.3Z"></path><path class="cls-2" d="M216.32,287.88h2.42a.56.56,0,0,0,.56-.56V284.9a.56.56,0,0,0-.56-.56h-2.42a.56.56,0,0,0-.56.56v2.42A.56.56,0,0,0,216.32,287.88Zm.56-2.42h1.3v1.3h-1.3Z"></path><path class="cls-2" d="M115,21.31A2.08,2.08,0,0,1,117,19.17h0a2.08,2.08,0,0,1,2.16,2h0a2.06,2.06,0,0,1-2.06,2.13h0A2.08,2.08,0,0,1,115,21.31Zm-6.25-1.17h0a2.12,2.12,0,0,1-.06-3h0a2.12,2.12,0,0,1,3,0h0a2.1,2.1,0,0,1,0,3h0a2.11,2.11,0,0,1-1.52.65h0A2.11,2.11,0,0,1,108.73,20.14Zm13.67-.33a2.11,2.11,0,0,1-.1-3h0a2.12,2.12,0,0,1,3-.09h0a2.12,2.12,0,0,1,.09,3h0a2.19,2.19,0,0,1-1.54.66h0A2.05,2.05,0,0,1,122.4,19.81ZM105.14,11.9a2.13,2.13,0,0,1,2.09-2.16h0a2.13,2.13,0,0,1,2.13,2.12h0A2.12,2.12,0,0,1,107.28,14h0A2.16,2.16,0,0,1,105.14,11.9Zm19.19-.51a2.09,2.09,0,0,1,2-2.17h0a2.1,2.1,0,0,1,2.19,2h0a2.08,2.08,0,0,1-2,2.17h-.08A2.09,2.09,0,0,1,124.33,11.39ZM108.54,6.47a2.12,2.12,0,0,1,0-3h0a2.1,2.1,0,0,1,3,0h0a2.12,2.12,0,0,1,0,3h0a2.1,2.1,0,0,1-1.5.63h0A2.12,2.12,0,0,1,108.54,6.47Zm13.36-.28h0a2.12,2.12,0,0,1-.13-3h0a2.13,2.13,0,0,1,3-.12h0a2.11,2.11,0,0,1,.13,3h0a2.13,2.13,0,0,1-1.56.68h0A2.12,2.12,0,0,1,121.9,6.19Zm-7.16-4.08A2.11,2.11,0,0,1,116.85,0h0A2.12,2.12,0,0,1,119,2.11h0a2.11,2.11,0,0,1-2.11,2.11h0A2.1,2.1,0,0,1,114.74,2.11Z"></path><path class="cls-2" d="M279,343.31a2.08,2.08,0,0,1,2.06-2.14h0a2.08,2.08,0,0,1,2.16,2h0a2.06,2.06,0,0,1-2.06,2.13h-.05A2.08,2.08,0,0,1,279,343.31Zm-6.25-1.17h0a2.12,2.12,0,0,1-.06-3h0a2.12,2.12,0,0,1,3,0h0a2.1,2.1,0,0,1,0,3h0a2.11,2.11,0,0,1-1.52.65h0A2.11,2.11,0,0,1,272.73,342.14Zm13.67-.33a2.11,2.11,0,0,1-.1-3h0a2.12,2.12,0,0,1,3-.09h0a2.12,2.12,0,0,1,.09,3h0a2.19,2.19,0,0,1-1.54.66h0A2.05,2.05,0,0,1,286.4,341.81Zm-17.26-7.91a2.13,2.13,0,0,1,2.09-2.16h0a2.13,2.13,0,0,1,2.13,2.12h0a2.12,2.12,0,0,1-2.08,2.17h0A2.16,2.16,0,0,1,269.14,333.9Zm19.19-.51a2.09,2.09,0,0,1,2-2.17h0a2.1,2.1,0,0,1,2.19,2h0a2.08,2.08,0,0,1-2,2.17h-.08A2.09,2.09,0,0,1,288.33,333.39Zm-15.79-4.92a2.12,2.12,0,0,1,0-3h0a2.1,2.1,0,0,1,3,0h0a2.12,2.12,0,0,1,0,3h0a2.1,2.1,0,0,1-1.5.63h0A2.12,2.12,0,0,1,272.54,328.47Zm13.36-.28h0a2.12,2.12,0,0,1-.13-3h0a2.13,2.13,0,0,1,3-.12h0a2.11,2.11,0,0,1,.13,3h0a2.13,2.13,0,0,1-1.56.68h0A2.12,2.12,0,0,1,285.9,328.19Zm-7.16-4.08a2.11,2.11,0,0,1,2.11-2.11h0a2.12,2.12,0,0,1,2.11,2.11h0a2.11,2.11,0,0,1-2.11,2.11h0A2.1,2.1,0,0,1,278.74,324.11Z"></path></g></g></svg>