<svg xmlns="http://www.w3.org/2000/svg" viewBox="0 0 448.7 549.8"><path d="m61.8 216.7-6.3-11-6.4 11h4.6v25.4h3.6v-25.4z" fill="#5c9ad2"></path><path d="m40.9 278.8c-7.1 0-12.8-5.7-12.8-12.8s5.7-12.8 12.8-12.8c2.5 0 4.8.7 6.8 1.9z" fill="#fff"></path><path d="m93.6 254.3c0-.4 0-.7 0-1.1 0-9.8-7.8-17.7-17.5-18-1.2-.3-2.4-.1-3.8.3-.1 0-.1 0-.2 0-.4 0-.8.1-1.1.3-2.4.6-4.6 1.7-6.4 3.1-.2.1-.4.2-.6.3-1.3-1-3-1.6-4.7-1.6-4.3 0-7.8 3.5-7.8 7.8-1.2-.4-2.4-.7-3.8-.7-5.4 0-9.8 3.9-10.7 9.1-5.1 1.7-8.9 6.5-8.9 12.2 0 7.1 5.7 12.8 12.8 12.8h47.5c7.1 0 12.8-5.7 12.8-12.8 0-5.2-3.2-9.7-7.6-11.7z" fill="#fff"></path><path d="m40.9 279.6c-7.5 0-13.6-6.1-13.6-13.6s6.1-13.6 13.6-13.6c2.6 0 5.1.7 7.2 2.1l-.9 1.4c-1.9-1.2-4.1-1.8-6.3-1.8-6.6 0-12 5.4-12 12s5.4 12 12 12z" fill="#1a3b6a"></path><path d="m88.4 279.6h-47.5c-7.5 0-13.6-6.1-13.6-13.6 0-5.8 3.6-10.8 9-12.8 1.1-5.4 5.8-9.3 11.4-9.3 1.4 0 2.8.2 4.1.7l-.6 1.5c-1.1-.4-2.3-.6-3.5-.6-4.9 0-9.1 3.5-9.9 8.4l-.1.5-.5.2c-5 1.6-8.3 6.2-8.3 11.4 0 6.6 5.4 12 12 12h47.5c6.6 0 12-5.4 12-12s-5.4-12-12-12v-1.6c7.5 0 13.6 6.1 13.6 13.6s-6.1 13.6-13.6 13.6z" fill="#1a3b6a"></path><path d="m51.2 248.4c-.4-1-.5-2-.5-3 0-4.8 3.9-8.6 8.6-8.6s8.6 3.9 8.6 8.6h-1.6c0-3.9-3.1-7-7-7s-7 3.1-7 7c0 .8.1 1.7.4 2.4z" fill="#1a3b6a"></path><path d="m94.4 254.4-1.6-.1c0-.4 0-.7 0-1.1 0-9.5-7.7-17.2-17.2-17.2v-1.6c10.4 0 18.9 8.5 18.9 18.9-.1.3-.1.7-.1 1.1z" fill="#1a3b6a"></path><path d="m64.6 239.9-1-1.3c2.4-2 5.2-3.3 8.2-3.9l.3 1.6c-2.7.6-5.3 1.8-7.5 3.6z" fill="#1a3b6a"></path><path d="m53.7 240.8c-.5 0-.8-.4-.8-.8v-23.3c0-.5.4-.8.8-.8.5 0 .8.4.8.8v23.3c0 .4-.4.8-.8.8z" fill="#1a3b6a"></path><path d="m57.3 238.6c-.5 0-.8-.4-.8-.8v-21.1c0-.5.4-.8.8-.8.5 0 .8.4.8.8v21.1c0 .5-.3.8-.8.8z" fill="#1a3b6a"></path><path d="m61.8 217.5h-4.5c-.5 0-.8-.4-.8-.8 0-.5.4-.8.8-.8h3l-4.9-8.5-4.9 8.5h3.1c.5 0 .8.4.8.8 0 .5-.4.8-.8.8h-4.5c-.3 0-.6-.2-.7-.4-.1-.3-.1-.6 0-.8l6.3-11c.1-.3.4-.4.7-.4s.6.2.7.4l6.3 11c.1.3.1.6 0 .8s-.3.4-.6.4z" fill="#1a3b6a"></path><path d="m75.6 252.2v-18.4h-3.7v18.4h-4.4l6.3 11 6.3-11z" fill="#fff"></path><path d="m75.6 253c-.5 0-.8-.4-.8-.8v-28.2c0-.5.4-.8.8-.8.5 0 .8.4.8.8v28.2c0 .4-.4.8-.8.8z" fill="#1a3b6a"></path><path d="m71.9 253c-.5 0-.8-.4-.8-.8v-28.2c0-.5.4-.8.8-.8.5 0 .8.4.8.8v28.2c.1.4-.3.8-.8.8z" fill="#1a3b6a"></path><path d="m73.8 264c-.3 0-.6-.2-.7-.4l-6.3-11c-.1-.3-.1-.6 0-.8.1-.3.4-.4.7-.4h4.5c.5 0 .8.4.8.8 0 .5-.4.8-.8.8h-3l4.9 8.5 4.9-8.5h-3.1c-.5 0-.8-.4-.8-.8 0-.5.4-.8.8-.8h4.5c.3 0 .6.2.7.4.1.3.1.6 0 .8l-6.3 11c-.2.3-.5.4-.8.4z" fill="#1a3b6a"></path><path d="m288 369.3h-43.4v-.8c0-3.8 3.1-6.8 6.8-6.8h29.7c3.8 0 6.8 3.1 6.8 6.8v.8zm-41.8-1.7h40c-.4-2.5-2.5-4.4-5.1-4.4h-29.7c-2.6 0-4.8 1.9-5.2 4.4z" fill="#193a68"></path><path d="m276.1 363.2h-19.7l3-15.5h13.7zm-17.7-1.6h15.7l-2.3-12.2h-11z" fill="#193a68"></path><path d="m303.3 341.9h-74v-34.1c0-1.7 1.4-3.2 3.2-3.2h67.7c1.7 0 3.2 1.4 3.2 3.2v34.1zm-73.7-.4h73.2v-33.7c0-1.5-1.2-2.8-2.8-2.8h-67.7c-1.5 0-2.8 1.2-2.8 2.8v33.7z" fill="#010101"></path><path d="m303.1 341.5v-33.7c0-1.6-1.3-3-3-3h-67.7c-1.6 0-3 1.3-3 3v33.7z" fill="#fff"></path><path d="m300.1 349.4h-67.7c-2.1 0-3.8-1.7-3.8-3.8v-37.8c0-2.1 1.7-3.8 3.8-3.8h67.7c2.1 0 3.8 1.7 3.8 3.8v37.8c0 2.1-1.7 3.8-3.8 3.8zm-67.7-43.7c-1.2 0-2.1 1-2.1 2.1v37.8c0 1.2 1 2.1 2.1 2.1h67.7c1.2 0 2.1-1 2.1-2.1v-37.8c0-1.2-1-2.1-2.1-2.1z" fill="#193a68"></path><path d="m303.1 342.3h-73.6c-.5 0-.8-.4-.8-.8 0-.5.4-.8.8-.8h73.6c.5 0 .8.4.8.8 0 .5-.4.8-.8.8z" fill="#1a3b6a"></path><path d="m292.6 344.1h6v1.6h-6z" fill="#1a3b6a"></path><path d="m292.7 368.4c0-2.9 2.3-5.2 5.2-5.2s5.2 2.3 5.2 5.2z" fill="#5c9ad2"></path><path d="m303.9 369.3h-12v-.8c0-3.3 2.7-6 6-6s6 2.7 6 6zm-10.3-1.7h8.6c-.4-2-2.2-3.5-4.3-3.5s-3.9 1.5-4.3 3.5z" fill="#193a68"></path><path d="m297.1 362.7h1.6v3.6h-1.6z" fill="#1a3b6a"></path><path d="m237.1 317h16.9v1.6h-16.9z" fill="#1a3b6a" transform="matrix(.7071 -.7071 .7071 .7071 -152.8164 266.7127)"></path><path d="m281.8 327.1h16.9v1.6h-16.9z" fill="#1a3b6a" transform="matrix(.7071 -.7071 .7071 .7071 -146.8505 301.278)"></path><path d="m232.5 320.7h31.6v1.6h-31.6z" fill="#1a3b6a" transform="matrix(.7071 -.7071 .7071 .7071 -154.6296 269.7747)"></path><path d="m290.6 330h6.6v1.6h-6.6z" fill="#1a3b6a" transform="matrix(.7071 -.7071 .7071 .7071 -147.8688 304.6982)"></path><path d="m117.6 235 7.5 7.7c1.8-2 4.5-3.3 7.4-3.3 2.8 0 5.4 1.2 7.2 3.1l7.6-7.6c-3.8-3.7-9.1-6-14.8-6-5.8.1-11.1 2.4-14.9 6.1z" fill="#5c9ad2"></path><path d="m132.5 213.4c10 0 19.1 4.1 25.7 10.6l-7.3 7.4c-4.7-4.7-11.2-7.6-18.4-7.6s-13.7 2.9-18.4 7.7l-7.3-7.4c6.6-6.7 15.7-10.7 25.7-10.7z" fill="#5c9ad2"></path><path d="m169.3 212.9-7.4 7.4c-7.5-7.5-17.9-12.2-29.4-12.2s-21.9 4.6-29.4 12.2l-7.3-7.4c9.4-9.4 22.4-15.1 36.7-15.1 14.4-.1 27.4 5.7 36.8 15.1z" fill="#5c9ad2"></path><circle cx="132.5" cy="248" fill="#fff" r="3.4"></circle><path d="m132.5 252.2c-2.3 0-4.2-1.9-4.2-4.2s1.9-4.2 4.2-4.2 4.2 1.9 4.2 4.2-1.9 4.2-4.2 4.2zm0-6.8c-1.4 0-2.6 1.1-2.6 2.6 0 1.4 1.1 2.6 2.6 2.6s2.6-1.1 2.6-2.6c0-1.4-1.2-2.6-2.6-2.6z" fill="#193a68"></path><path d="m150.9 232.2c-.2 0-.4-.1-.6-.2-4.8-4.8-11.1-7.4-17.9-7.4-6.7 0-13.1 2.6-17.9 7.4-.3.3-.8.3-1.2 0-.3-.3-.3-.8 0-1.2 5.1-5.1 11.8-7.9 19-7.9s13.9 2.8 19 7.9c.3.3.3.8 0 1.2.1.1-.1.2-.4.2z" fill="#1a3b6a"></path><path d="m147.3 235.9c-.2 0-.4-.1-.6-.2-3.8-3.8-8.8-5.9-14.2-5.9s-10.4 2.1-14.2 5.9c-.3.3-.8.3-1.2 0-.3-.3-.3-.8 0-1.2 4.1-4.1 9.5-6.4 15.3-6.4s11.2 2.3 15.3 6.4c.3.3.3.8 0 1.2 0 .1-.2.2-.4.2z" fill="#1a3b6a"></path><path d="m139.9 243.3c-.2 0-.4-.1-.6-.2-1.8-1.8-4.2-2.8-6.8-2.8s-5 1-6.8 2.8c-.3.3-.8.3-1.2 0-.3-.3-.3-.8 0-1.2 2.1-2.1 5-3.3 8-3.3s5.8 1.2 8 3.3c.3.3.3.8 0 1.2-.2.1-.4.2-.6.2z" fill="#1a3b6a"></path><path d="m158.3 224.8c-.2 0-.4-.1-.6-.2-6.7-6.7-15.7-10.5-25.2-10.5s-18.5 3.7-25.2 10.5c-.3.3-.8.3-1.2 0-.3-.3-.3-.8 0-1.2 7.1-7.1 16.4-10.9 26.4-10.9s19.3 3.9 26.4 10.9c.3.3.3.8 0 1.2-.2.2-.4.2-.6.2z" fill="#1a3b6a"></path><path d="m162 221.1c-.2 0-.4-.1-.6-.2-7.7-7.7-18-12-28.9-12s-21.2 4.3-28.9 12c-.3.3-.8.3-1.2 0-.3-.3-.3-.8 0-1.2 8-8 18.7-12.5 30.1-12.5s22.1 4.4 30.1 12.5c.3.3.3.8 0 1.2-.2.2-.4.2-.6.2z" fill="#1a3b6a"></path><path d="m169.4 213.8c-.2 0-.4-.1-.6-.2-9.7-9.7-22.6-15-36.3-15s-26.6 5.3-36.3 15c-.3.3-.8.3-1.2 0-.3-.3-.3-.8 0-1.2 10-10 23.3-15.5 37.5-15.5s27.5 5.5 37.5 15.5c.3.3.3.8 0 1.2-.2.1-.4.2-.6.2z" fill="#1a3b6a"></path><path d="m125.1 243.3c-.2 0-.4-.1-.6-.2l-7.4-7.4c-.3-.3-.3-.8 0-1.2.3-.3.8-.3 1.2 0l7.4 7.4c.3.3.3.8 0 1.2-.2.1-.4.2-.6.2z" fill="#1a3b6a"></path><path d="m103 221.1c-.2 0-.4-.1-.6-.2l-7.4-7.4c-.3-.3-.3-.8 0-1.2.3-.3.8-.3 1.2 0l7.4 7.4c.3.3.3.8 0 1.2-.2.2-.4.2-.6.2z" fill="#1a3b6a"></path><path d="m114.1 232.2c-.2 0-.4-.1-.6-.2l-7.4-7.4c-.3-.3-.3-.8 0-1.2.3-.3.8-.3 1.2 0l7.4 7.4c.3.3.3.8 0 1.2-.2.1-.4.2-.6.2z" fill="#1a3b6a"></path><path d="m150.9 232.2c-.2 0-.4-.1-.6-.2-.3-.3-.3-.8 0-1.2l7.4-7.4c.3-.3.8-.3 1.2 0 .3.3.3.8 0 1.2l-7.4 7.4c-.1.1-.3.2-.6.2z" fill="#1a3b6a"></path><path d="m139.9 243.3c-.2 0-.4-.1-.6-.2-.3-.3-.3-.8 0-1.2l7.4-7.4c.3-.3.8-.3 1.2 0 .3.3.3.8 0 1.2l-7.4 7.4c-.2.1-.4.2-.6.2z" fill="#1a3b6a"></path><path d="m162 221.1c-.2 0-.4-.1-.6-.2-.3-.3-.3-.8 0-1.2l7.4-7.4c.3-.3.8-.3 1.2 0 .3.3.3.8 0 1.2l-7.4 7.4c-.2.2-.4.2-.6.2z" fill="#1a3b6a"></path><path d="m193.6 143.4h-25.4c-5.1 0-9.2-4.1-9.2-9.2v-54.6c0-5.1 4.1-9.2 9.2-9.2h25.4c5.1 0 9.2 4.1 9.2 9.2v54.6c0 5-4.1 9.2-9.2 9.2z" fill="#5c9ad2"></path><path d="m199 144.2h-36.2c-2.6 0-4.6-2.1-4.6-4.6v-65.4c0-2.6 2.1-4.6 4.6-4.6h36.2c2.6 0 4.6 2.1 4.6 4.6v65.4c0 2.5-2.1 4.6-4.6 4.6zm-36.2-73c-1.7 0-3 1.3-3 3v65.4c0 1.7 1.3 3 3 3h36.2c1.7 0 3-1.3 3-3v-65.4c0-1.7-1.3-3-3-3z" fill="#193a68"></path><path d="m162.6 77.6h36.5v54.8h-36.5z" fill="#fff"></path><path d="m200 133.2h-38.2v-56.4h38.2zm-36.6-1.6h34.9v-53.1h-34.9z" fill="#193a68"></path><circle cx="180.9" cy="74" fill="#fff" r="1.7"></circle><path d="m180.9 76.5c-1.4 0-2.5-1.1-2.5-2.5s1.1-2.5 2.5-2.5 2.5 1.1 2.5 2.5-1.1 2.5-2.5 2.5zm0-3.4c-.5 0-.9.4-.9.9s.4.9.9.9.9-.4.9-.9-.4-.9-.9-.9z" fill="#193a68"></path><path d="m192.6 139.7h-3.7c-1 0-1.8-.8-1.8-1.8s.8-1.8 1.8-1.8h3.7c1 0 1.8.8 1.8 1.8s-.8 1.8-1.8 1.8z" fill="#fff"></path><path d="m192.6 140.5h-3.7c-1.5 0-2.6-1.2-2.6-2.6 0-1.5 1.2-2.6 2.6-2.6h3.7c1.5 0 2.6 1.2 2.6 2.6 0 1.5-1.2 2.6-2.6 2.6zm-3.7-3.6c-.6 0-1 .5-1 1 0 .6.5 1 1 1h3.7c.6 0 1-.5 1-1 0-.6-.5-1-1-1z" fill="#193a68"></path><path d="m173.4 139.7h-3.7c-1 0-1.8-.8-1.8-1.8s.8-1.8 1.8-1.8h3.7c1 0 1.8.8 1.8 1.8s-.8 1.8-1.8 1.8z" fill="#fff"></path><path d="m173.4 140.5h-3.7c-1.5 0-2.6-1.2-2.6-2.6 0-1.5 1.2-2.6 2.6-2.6h3.7c1.5 0 2.6 1.2 2.6 2.6 0 1.5-1.1 2.6-2.6 2.6zm-3.7-3.6c-.6 0-1 .5-1 1 0 .6.5 1 1 1h3.7c.6 0 1-.5 1-1 0-.6-.5-1-1-1z" fill="#193a68"></path><path d="m202 80.5h3v8.9h-3z" fill="#193a68"></path><ellipse cx="172.7" cy="86.7" fill="#fff" rx="6.4" ry="6.4" transform="matrix(.161 -.987 .987 .161 59.3199 243.2183)"></ellipse><path d="m172.7 94c-4 0-7.2-3.3-7.2-7.2 0-4 3.3-7.2 7.2-7.2 4 0 7.2 3.3 7.2 7.2.1 3.9-3.2 7.2-7.2 7.2zm0-12.9c-3.1 0-5.6 2.5-5.6 5.6s2.5 5.6 5.6 5.6 5.6-2.5 5.6-5.6-2.5-5.6-5.6-5.6z" fill="#193a68"></path><path d="m168.6 91.2-1.5-.7c.7-1.4 1.7-2.5 3-3.1-.4-.6-.7-1.3-.7-2 0-1.8 1.5-3.3 3.3-3.3s3.3 1.5 3.3 3.3c0 .7-.2 1.4-.7 2 1.3.6 2.3 1.7 3 3.1l-1.5.7c-.7-1.4-1.9-2.4-3.4-2.7l-.8-.1-.8.1c-1.3.3-2.5 1.3-3.2 2.7zm4.1-7.4c-.9 0-1.6.7-1.6 1.6 0 .7.4 1.3 1 1.5l.6.3.6-.3c.6-.3 1-.9 1-1.5.1-.9-.7-1.6-1.6-1.6z" fill="#1a3b6a"></path><path d="m183 84.1h12.5v1.6h-12.5z" fill="#1a3b6a"></path><path d="m183 87.8h12.5v1.6h-12.5z" fill="#1a3b6a"></path><path d="m188.2 128.8h-14.6c-2 0-3.7-1.6-3.7-3.7 0-2 1.6-3.7 3.7-3.7h14.6c2 0 3.7 1.6 3.7 3.7-.1 2-1.7 3.7-3.7 3.7z" fill="#fff"></path><path d="m188.2 129.6h-14.6c-2.5 0-4.5-2-4.5-4.5s2-4.5 4.5-4.5h14.6c2.5 0 4.5 2 4.5 4.5s-2 4.5-4.5 4.5zm-14.6-7.3c-1.6 0-2.8 1.3-2.8 2.8s1.3 2.8 2.8 2.8h14.6c1.6 0 2.8-1.3 2.8-2.8s-1.3-2.8-2.8-2.8z" fill="#193a68"></path><path d="m166.3 97.1h12.9v11h-12.9z" fill="#fff"></path><path d="m180 108.9h-14.5v-12.6h14.5zm-12.9-1.6h11.2v-9.3h-11.2z" fill="#193a68"></path><path d="m183 97.1h12.5v11h-12.5z" fill="#fff"></path><path d="m196.3 108.9h-14.2v-12.6h14.2zm-12.5-1.6h10.9v-9.3h-10.9z" fill="#193a68"></path><path d="m182.6 113.3h12.9v1.6h-12.9z" fill="#1a3b6a"></path><path d="m166.3 113.3h12.9v1.6h-12.9z" fill="#1a3b6a"></path><path d="m73.4 176.6h7.4v3.8h-7.4z" fill="#5c9ad2"></path><path d="m73.4 158.2h7.4v3.6h-7.4z" fill="#5c9ad2"></path><path d="m73.4 139.7h7.4v3.8h-7.4z" fill="#5c9ad2"></path><path d="m139.8 150.8-7.4-7.3h-18.4l-7.4 7.3z" fill="#5c9ad2"></path><path d="m139.8 151.7c-.2 0-.4-.1-.6-.2l-7.1-7.1h-17.8l-7.1 7.1c-.3.3-.8.3-1.2 0-.3-.3-.3-.8 0-1.2l7.4-7.4c.2-.2.4-.2.6-.2h18.4c.2 0 .4.1.6.2l7.4 7.4c.3.3.3.8 0 1.2-.2.1-.4.2-.6.2z" fill="#1a3b6a"></path><path d="m80.8 128.7v59h25.8v-59zm7.2 51.6h-3.5v-3.5h3.5zm0-7.3h-3.5v-3.7h3.5zm.1-14.7h-3.4v-3.6h3.4zm0-7.4h-3.7v-3.6h3.7zm.1-14.8h-3.6v-3.5h3.6zm7.3 36.9h-3.7v-3.7h3.7zm0-11.1v3.7h-3.6v-3.7zm-3.5-18.4v-3.7h3.5v3.7zm3.6-7.5h-3.7v-3.6h3.7zm3.6 3.8h3.7v3.8h-3.7zm3.7 7.4v3.7h-3.6v-3.7zm-3.7 14.7h3.7v3.8h-3.7zm3.8 18.4h-3.7v-3.5h3.7z" fill="#fff"></path><path d="m106.6 188.6h-25.8c-.5 0-.8-.4-.8-.8v-59c0-.5.4-.8.8-.8h25.8c.5 0 .8.4.8.8v59c0 .4-.3.8-.8.8zm-25-1.7h24.2v-57.4h-24.2z" fill="#193a68"></path><path d="m102.9 129.5h-18.4c-.5 0-.8-.4-.8-.8v-3.7c0-.5.4-.8.8-.8h18.4c.5 0 .8.4.8.8v3.7c0 .5-.3.8-.8.8zm-17.6-1.6h16.8v-2h-16.8z" fill="#193a68"></path><path d="m88.2 121.3h11.1v3.7h-11.1z" fill="#fff"></path><path d="m99.2 125.8h-11c-.5 0-.8-.4-.8-.8v-3.7c0-.5.4-.8.8-.8h11.1c.5 0 .8.4.8.8v3.7c0 .5-.4.8-.9.8zm-10.2-1.6h9.4v-2h-9.4z" fill="#193a68"></path><path d="m95.6 122.2h-3.7c-.5 0-.8-.4-.8-.8v-3.7c0-.5.4-.8.8-.8h3.7c.5 0 .8.4.8.8v3.7c0 .4-.4.8-.8.8zm-2.9-1.7h2v-2h-2z" fill="#193a68"></path><path d="m88.2 136.9h-3.7c-.5 0-.8-.4-.8-.8v-3.7c0-.5.4-.8.8-.8h3.7c.5 0 .8.4.8.8v3.7c0 .4-.4.8-.8.8zm-2.9-1.6h2v-2h-2z" fill="#193a68"></path><path d="m95.6 136.9h-3.7c-.5 0-.8-.4-.8-.8v-3.7c0-.5.4-.8.8-.8h3.7c.5 0 .8.4.8.8v3.7c0 .4-.4.8-.8.8zm-2.9-1.6h2v-2h-2z" fill="#193a68"></path><path d="m95.6 144.3h-3.7c-.5 0-.8-.4-.8-.8v-3.7c0-.5.4-.8.8-.8h3.7c.5 0 .8.4.8.8v3.7c0 .4-.4.8-.8.8zm-2.9-1.7h2v-2h-2z" fill="#193a68"></path><path d="m102.9 144.3h-3.7c-.5 0-.8-.4-.8-.8v-3.7c0-.5.4-.8.8-.8h3.7c.5 0 .8.4.8.8v3.7c0 .4-.3.8-.8.8zm-2.8-1.7h2v-2h-2z" fill="#193a68"></path><path d="m88.2 151.7h-3.7c-.5 0-.8-.4-.8-.8v-3.7c0-.5.4-.8.8-.8h3.7c.5 0 .8.4.8.8v3.7c0 .4-.4.8-.8.8zm-2.9-1.7h2v-2h-2z" fill="#193a68"></path><path d="m102.9 151.7h-3.7c-.5 0-.8-.4-.8-.8v-3.7c0-.5.4-.8.8-.8h3.7c.5 0 .8.4.8.8v3.7c0 .4-.3.8-.8.8zm-2.8-1.7h2v-2h-2z" fill="#193a68"></path><path d="m88.2 159h-3.7c-.5 0-.8-.4-.8-.8v-3.7c0-.5.4-.8.8-.8h3.7c.5 0 .8.4.8.8v3.7c0 .5-.4.8-.8.8zm-2.9-1.6h2v-2h-2z" fill="#193a68"></path><path d="m95.6 166.4h-3.7c-.5 0-.8-.4-.8-.8v-3.7c0-.5.4-.8.8-.8h3.7c.5 0 .8.4.8.8v3.7c0 .5-.4.8-.8.8zm-2.9-1.6h2v-2h-2z" fill="#193a68"></path><path d="m102.9 166.4h-3.7c-.5 0-.8-.4-.8-.8v-3.7c0-.5.4-.8.8-.8h3.7c.5 0 .8.4.8.8v3.7c0 .5-.3.8-.8.8zm-2.8-1.6h2v-2h-2z" fill="#193a68"></path><path d="m88.2 173.8h-3.7c-.5 0-.8-.4-.8-.8v-3.7c0-.5.4-.8.8-.8h3.7c.5 0 .8.4.8.8v3.7c0 .4-.4.8-.8.8zm-2.9-1.6h2v-2h-2z" fill="#193a68"></path><path d="m95.6 173.8h-3.7c-.5 0-.8-.4-.8-.8v-3.7c0-.5.4-.8.8-.8h3.7c.5 0 .8.4.8.8v3.7c0 .4-.4.8-.8.8zm-2.9-1.6h2v-2h-2z" fill="#193a68"></path><path d="m88.2 181.2h-3.7c-.5 0-.8-.4-.8-.8v-3.7c0-.5.4-.8.8-.8h3.7c.5 0 .8.4.8.8v3.7c0 .4-.4.8-.8.8zm-2.9-1.7h2v-2h-2z" fill="#193a68"></path><path d="m102.9 181.2h-3.7c-.5 0-.8-.4-.8-.8v-3.7c0-.5.4-.8.8-.8h3.7c.5 0 .8.4.8.8v3.7c0 .4-.3.8-.8.8zm-2.8-1.7h2v-2h-2z" fill="#193a68"></path><path d="m93.7 118.5c-.5 0-.8-.4-.8-.8v-3.7c0-.5.4-.8.8-.8.5 0 .8.4.8.8v3.7c0 .4-.3.8-.8.8z" fill="#1a3b6a"></path><path d="m80.8 184.9h-7.4c-.5 0-.8-.4-.8-.8v-48c0-.5.4-.8.8-.8h7.4c.5 0 .8.4.8.8 0 .5-.4.8-.8.8h-6.6v46.3h6.6c.5 0 .8.4.8.8 0 .5-.4.9-.8.9z" fill="#1a3b6a"></path><path d="m77.1 136.9c-.5 0-.8-.4-.8-.8v-11.1c0-.5.4-.8.8-.8.5 0 .8.4.8.8v11.1c0 .4-.3.8-.8.8z" fill="#1a3b6a"></path><path d="m78.6 125.8h-3c-.5 0-.8-.4-.8-.8 0-.5.4-.8.8-.8h3c.5 0 .8.4.8.8 0 .5-.4.8-.8.8z" fill="#1a3b6a"></path><path d="m106.6 150.8h33.2v36.9h-33.2z" fill="#5c9ad2"></path><path d="m139.8 188.6h-33.2c-.5 0-.8-.4-.8-.8v-36.9c0-.5.4-.8.8-.8h33.2c.5 0 .8.4.8.8v36.9c0 .4-.3.8-.8.8zm-32.4-1.7h31.6v-35.3h-31.6z" fill="#193a68"></path><path d="m117.7 176.7h11.1v11.1h-11.1z" fill="#fff"></path><path d="m128.8 188.6h-11.1c-.5 0-.8-.4-.8-.8v-11.1c0-.5.4-.8.8-.8h11.1c.5 0 .8.4.8.8v11.1c0 .4-.4.8-.8.8zm-10.3-1.7h9.4v-9.4h-9.4z" fill="#193a68"></path><path d="m110.3 169.3h11.1v3.7h-11.1z" fill="#fff"></path><path d="m121.4 173.8h-11.1c-.5 0-.8-.4-.8-.8v-3.7c0-.5.4-.8.8-.8h11.1c.5 0 .8.4.8.8v3.7c0 .4-.4.8-.8.8zm-10.3-1.6h9.4v-2h-9.4z" fill="#193a68"></path><path d="m125.1 169.3h11.1v3.7h-11.1z" fill="#fff"></path><path d="m136.1 173.8h-11.1c-.5 0-.8-.4-.8-.8v-3.7c0-.5.4-.8.8-.8h11.1c.5 0 .8.4.8.8v3.7c0 .4-.3.8-.8.8zm-10.2-1.6h9.4v-2h-9.4z" fill="#193a68"></path><path d="m110.3 161.9h11.1v3.7h-11.1z" fill="#fff"></path><path d="m121.4 166.4h-11.1c-.5 0-.8-.4-.8-.8v-3.7c0-.5.4-.8.8-.8h11.1c.5 0 .8.4.8.8v3.7c0 .5-.4.8-.8.8zm-10.3-1.6h9.4v-2h-9.4z" fill="#193a68"></path><path d="m125.1 161.9h11.1v3.7h-11.1z" fill="#fff"></path><path d="m136.1 166.4h-11.1c-.5 0-.8-.4-.8-.8v-3.7c0-.5.4-.8.8-.8h11.1c.5 0 .8.4.8.8v3.7c0 .5-.3.8-.8.8zm-10.2-1.6h9.4v-2h-9.4z" fill="#193a68"></path><path d="m110.3 154.5h11.1v3.7h-11.1z" fill="#fff"></path><path d="m121.4 159h-11.1c-.5 0-.8-.4-.8-.8v-3.7c0-.5.4-.8.8-.8h11.1c.5 0 .8.4.8.8v3.7c0 .5-.4.8-.8.8zm-10.3-1.6h9.4v-2h-9.4z" fill="#193a68"></path><path d="m125.1 154.5h11.1v3.7h-11.1z" fill="#fff"></path><path d="m136.1 159h-11.1c-.5 0-.8-.4-.8-.8v-3.7c0-.5.4-.8.8-.8h11.1c.5 0 .8.4.8.8v3.7c0 .5-.3.8-.8.8zm-10.2-1.6h9.4v-2h-9.4z" fill="#193a68"></path><path d="m132.4 176.7h3.7v7.4h-3.7z" fill="#fff"></path><path d="m136.1 184.9h-3.7c-.5 0-.8-.4-.8-.8v-7.4c0-.5.4-.8.8-.8h3.7c.5 0 .8.4.8.8v7.4c0 .4-.3.8-.8.8zm-2.8-1.7h2v-5.7h-2z" fill="#193a68"></path><path d="m110.3 176.7h3.7v7.4h-3.7z" fill="#fff"></path><path d="m114 184.9h-3.7c-.5 0-.8-.4-.8-.8v-7.4c0-.5.4-.8.8-.8h3.7c.5 0 .8.4.8.8v7.4c0 .4-.4.8-.8.8zm-2.9-1.7h2v-5.7h-2z" fill="#193a68"></path><path d="m128.8 136.1v3.7h14.8v40.6h3.6v-44.3z" fill="#fff"></path><path d="m147.2 181.2h-7.4c-.5 0-.8-.4-.8-.8 0-.5.4-.8.8-.8h6.6v-42.6h-16.8v6.6c0 .5-.4.8-.8.8-.5 0-.8-.4-.8-.8v-7.4c0-.5.4-.8.8-.8h18.4c.5 0 .8.4.8.8v44.3c0 .3-.4.7-.8.7z" fill="#1a3b6a"></path><path d="m110.3 132.4h14.8v7.5h-14.8z" fill="#fff"></path><path d="m110.3 148c-.5 0-.8-.4-.8-.8v-18.4c0-.5.4-.8.8-.8h14.8c.5 0 .8.4.8.8v14.8c0 .5-.4.8-.8.8-.5 0-.8-.4-.8-.8v-13.9h-13.1v17.6c-.1.3-.4.7-.9.7z" fill="#1a3b6a"></path><path d="m117.7 129.5c-.5 0-.8-.4-.8-.8v-3.7c0-.5.4-.8.8-.8.5 0 .8.4.8.8v3.7c0 .5-.4.8-.8.8z" fill="#1a3b6a"></path><path d="m114 129.5c-.5 0-.8-.4-.8-.8v-3.7c0-.5.4-.8.8-.8.5 0 .8.4.8.8v3.7c0 .5-.4.8-.8.8z" fill="#1a3b6a"></path><path d="m121.4 129.5c-.5 0-.8-.4-.8-.8v-3.7c0-.5.4-.8.8-.8.5 0 .8.4.8.8v3.7c0 .5-.4.8-.8.8z" fill="#1a3b6a"></path><path d="m125.1 133.2h-14.7c-.5 0-.8-.4-.8-.8 0-.5.4-.8.8-.8h14.7c.5 0 .8.4.8.8 0 .5-.4.8-.8.8z" fill="#1a3b6a"></path><path d="m125.1 140.6h-14.7c-.5 0-.8-.4-.8-.8 0-.5.4-.8.8-.8h14.7c.5 0 .8.4.8.8s-.4.8-.8.8z" fill="#1a3b6a"></path><path d="m147.2 144.3h-3.7c-.5 0-.8-.4-.8-.8v-2.9h-13.9c-.5 0-.8-.4-.8-.8 0-.5.4-.8.8-.8h14.7c.5 0 .8.4.8.8v2.9h2.9c.5 0 .8.4.8.8s-.4.8-.8.8z" fill="#1a3b6a"></path><path d="m143.5 166.4c-.5 0-.8-.4-.8-.8v-17.6h-6.6c-.5 0-.8-.4-.8-.8 0-.5.4-.8.8-.8h7.4c.5 0 .8.4.8.8v18.4c0 .5-.3.8-.8.8z" fill="#1a3b6a"></path><path d="m143.5 181.2c-.5 0-.8-.4-.8-.8v-14.8c0-.5.4-.8.8-.8h3.7c.5 0 .8.4.8.8 0 .5-.4.8-.8.8h-2.9v13.9c0 .5-.3.9-.8.9z" fill="#1a3b6a"></path><path d="m143.5 148c-.5 0-.8-.4-.8-.8v-3.7c0-.5.4-.8.8-.8.5 0 .8.4.8.8v3.7c0 .4-.3.8-.8.8z" fill="#1a3b6a"></path><path d="m80.8 140.6h-7.4c-.5 0-.8-.4-.8-.8 0-.5.4-.8.8-.8h7.4c.5 0 .8.4.8.8s-.4.8-.8.8z" fill="#1a3b6a"></path><path d="m80.8 144.3h-7.3c-.5 0-.8-.4-.8-.8 0-.5.4-.8.8-.8h7.3c.5 0 .8.4.8.8s-.4.8-.8.8z" fill="#1a3b6a"></path><path d="m80.8 181.2h-7.4c-.5 0-.8-.4-.8-.8 0-.5.4-.8.8-.8h7.4c.5 0 .8.4.8.8s-.4.8-.8.8z" fill="#1a3b6a"></path><path d="m80.8 177.5h-7.4c-.5 0-.8-.4-.8-.8 0-.5.4-.8.8-.8h7.4c.5 0 .8.4.8.8s-.4.8-.8.8z" fill="#1a3b6a"></path><path d="m80.8 159h-7.3c-.5 0-.8-.4-.8-.8 0-.5.4-.8.8-.8h7.3c.5 0 .8.4.8.8 0 .5-.4.8-.8.8z" fill="#1a3b6a"></path><path d="m80.8 162.7h-7.4c-.5 0-.8-.4-.8-.8 0-.5.4-.8.8-.8h7.4c.5 0 .8.4.8.8 0 .5-.4.8-.8.8z" fill="#1a3b6a"></path><path d="m244.3 162.8h-1.8l-3.7 11.1-3.7-11.1h-1.8c-1.4 0-2.7.5-3.7 1.4.7 1.1 1.1 2.3 1.2 3.7 0 .5 0 1-.1 1.5-.2 2.5-2 4.6-4.3 5.5.5-.2 1-.4 1.5-.7v2.8l-3.7 11.1-3.7-11.1v-2.7c-1.8-1.2-2.9-3.3-3-5.5 0 0 0 0 0-.1 0-.2-.1-.4-.1-.7-.1-1.4.4-2.7 1.2-3.8-1-.9-2.3-1.4-3.6-1.4h-1.8l-3.7 11.1-3.7-11.1h-1.8c-3.1 0-5.6 2.5-5.6 5.6v12.9h3.7v3.7h11.1v10.3h3.9v3.9h14.5v-3.8h3.7v-10.4h11.1v-3.7h3.7v-12.9c-.3-3.1-2.8-5.6-5.8-5.6z" fill="#5c9ad2"></path><path d="m221.4 179.6 2.6-2.6 2.6 2.6c-.7.7-1.7 1.1-2.6 1.1s-1.9-.4-2.6-1.1z" fill="#fff"></path><path d="m241.4 165.4-2.6-2.6-2.6 2.6c.7.7 1.7 1.1 2.6 1.1s1.8-.3 2.6-1.1z" fill="#fff"></path><path d="m211.9 165.4-2.6-2.6-2.6 2.6c.7.7 1.7 1.1 2.6 1.1s1.8-.3 2.6-1.1z" fill="#fff"></path><path d="m209.2 162c-4.2 0-7.7-3.4-7.7-7.7 0-4.2 3.4-7.7 7.7-7.7s7.7 3.4 7.7 7.7c0 4.2-3.4 7.7-7.7 7.7zm0-13.7c-3.3 0-6 2.7-6 6s2.7 6 6 6 6-2.7 6-6c.1-3.3-2.6-6-6-6z" fill="#193a68"></path><path d="m214.1 207.9h-9.7c-1.8 0-3.3-1.5-3.3-3.3v-19.6c0-.5.4-.8.8-.8h11.1c.5 0 .8.4.8.8 0 .5-.4.8-.8.8h-10.2v18.8c0 .9.8 1.7 1.7 1.7h9.7c.9 0 1.7-.7 1.7-1.7 0 0 0 0 0-.1v-19.5s0 0 0-.1c0-.5.4-.8.8-.8.5 0 .8.4.8.8v19.6.1c-.1 1.9-1.6 3.3-3.4 3.3z" fill="#1a3b6a"></path><path d="m209.2 207.9c-.5 0-.8-.4-.8-.8v-14.8c0-.5.4-.8.8-.8.5 0 .8.4.8.8v14.8c.1.5-.3.8-.8.8z" fill="#1a3b6a"></path><path d="m198.2 182.1c-.5 0-.8-.4-.8-.8v-12.9c0-3.5 2.9-6.4 6.4-6.4h11c1.6 0 3.2.6 4.4 1.7.3.3.3.8 0 1.2-.3.3-.8.3-1.2 0-.9-.8-2-1.3-3.2-1.3h-11c-2.6 0-4.7 2.1-4.7 4.7v12.9c-.1.5-.5.9-.9.9z" fill="#1a3b6a"></path><path d="m220.3 177.8c-.5 0-.8-.4-.8-.8v-2.8c0-.5.4-.8.8-.8.5 0 .8.4.8.8v2.8c0 .5-.3.8-.8.8z" fill="#1a3b6a"></path><path d="m209.2 174.7c-.4 0-.7-.2-.8-.6l-3.7-11.1c-.1-.4.1-.9.5-1s.9.1 1 .5l2.9 8.7 2.9-8.7c.1-.4.6-.7 1-.5.4.1.7.6.5 1l-3.7 11.1c.1.4-.2.6-.6.6z" fill="#1a3b6a"></path><path d="m216.6 178.1c-.5 0-.8-.4-.8-.8v-4c0-.5.4-.8.8-.8.5 0 .8.4.8.8v4c0 .5-.3.8-.8.8z" fill="#1a3b6a"></path><path d="m201.9 182.1h-3.7c-.5 0-.8-.4-.8-.8 0-.5.4-.8.8-.8h2.9v-10.2c0-.5.4-.8.8-.8.5 0 .8.4.8.8v11.1c0 .3-.4.7-.8.7z" fill="#1a3b6a"></path><path d="m201.9 185.8c-.5 0-.8-.4-.8-.8v-4c0-.5.4-.8.8-.8.5 0 .8.4.8.8v4c0 .4-.4.8-.8.8z" fill="#1a3b6a"></path><path d="m201.9 185.8c-1.2 0-2.3-.5-3.2-1.3-.9-.9-1.3-2-1.3-3.2 0-.5.4-.8.8-.8h3.7c.5 0 .8.4.8.8v3.7c0 .4-.4.8-.8.8zm-2.8-3.7c.1.5.4.9.7 1.2s.8.6 1.2.7v-1.9z" fill="#193a68"></path><path d="m209.2 168.1c-1.2 0-2.3-.5-3.2-1.3-.2-.2-.2-.4-.2-.6s.1-.4.2-.6l2.6-2.6c.3-.3.8-.3 1.2 0l2.6 2.6c.2.2.2.4.2.6s-.1.4-.2.6c-.8.8-2 1.3-3.2 1.3zm-1.3-2c.8.4 1.9.5 2.7 0l-1.4-1.4z" fill="#193a68"></path><path d="m238.8 162c-4.2 0-7.7-3.4-7.7-7.7 0-4.2 3.4-7.7 7.7-7.7 4.2 0 7.7 3.4 7.7 7.7-.1 4.2-3.5 7.7-7.7 7.7zm0-13.7c-3.3 0-6 2.7-6 6s2.7 6 6 6 6-2.7 6-6-2.7-6-6-6z" fill="#193a68"></path><path d="m243.6 207.9h-9.7c-1.8 0-3.3-1.4-3.3-3.2v-.1-19.6c0-.5.4-.8.8-.8.5 0 .8.4.8.8v.1 19.5.1c0 .9.8 1.7 1.7 1.7h9.7c.9 0 1.7-.8 1.7-1.7v-18.8h-10.2c-.5 0-.8-.4-.8-.8 0-.5.4-.8.8-.8h11.1c.5 0 .8.4.8.8v19.6c-.1 1.7-1.6 3.2-3.4 3.2z" fill="#1a3b6a"></path><path d="m238.8 207.9c-.5 0-.8-.4-.8-.8v-14.8c0-.5.4-.8.8-.8.5 0 .8.4.8.8v14.8c0 .5-.4.8-.8.8z" fill="#1a3b6a"></path><path d="m249.8 182.1c-.5 0-.8-.4-.8-.8v-12.9c0-2.6-2.1-4.7-4.7-4.7h-11c-1.2 0-2.4.5-3.2 1.3-.3.3-.8.3-1.2 0-.3-.3-.3-.8 0-1.2 1.2-1.1 2.7-1.7 4.4-1.7h11c3.5 0 6.4 2.9 6.4 6.4v12.9c-.1.3-.4.7-.9.7z" fill="#1a3b6a"></path><path d="m227.7 177.8c-.5 0-.8-.4-.8-.8v-2.8c0-.5.4-.8.8-.8.5 0 .8.4.8.8v2.8c0 .5-.4.8-.8.8z" fill="#1a3b6a"></path><path d="m238.7 174.7c-.4 0-.7-.2-.8-.6l-3.7-11.1c-.1-.4.1-.9.5-1s.9.1 1 .5l2.9 8.7 2.9-8.7c.1-.4.6-.7 1-.5.4.1.7.6.5 1l-3.7 11.1c.1.4-.2.6-.6.6z" fill="#1a3b6a"></path><path d="m231.4 178.1c-.5 0-.8-.4-.8-.8v-4c0-.5.4-.8.8-.8.5 0 .8.4.8.8v4c0 .5-.4.8-.8.8z" fill="#1a3b6a"></path><path d="m249.8 182.1h-3.7c-.5 0-.8-.4-.8-.8v-11.1c0-.5.4-.8.8-.8.5 0 .8.4.8.8v10.2h2.9c.5 0 .8.4.8.8 0 .5-.3.9-.8.9z" fill="#1a3b6a"></path><path d="m246.1 185.8c-.5 0-.8-.4-.8-.8v-4c0-.5.4-.8.8-.8.5 0 .8.4.8.8v4c0 .4-.3.8-.8.8z" fill="#1a3b6a"></path><path d="m246.1 185.8c-.5 0-.8-.4-.8-.8v-3.7c0-.5.4-.8.8-.8h3.7c.5 0 .8.4.8.8 0 1.2-.5 2.3-1.3 3.2-.8.8-2 1.3-3.2 1.3zm.9-3.7v1.9c.5-.1.9-.4 1.2-.7s.6-.8.7-1.2z" fill="#193a68"></path><path d="m238.8 168.1c-1.2 0-2.3-.5-3.2-1.3-.3-.3-.3-.8 0-1.2l2.6-2.6c.3-.3.8-.3 1.2 0l2.6 2.6c.2.2.2.4.2.6s-.1.4-.2.6c-.9.8-2 1.3-3.2 1.3zm-1.4-2c.8.5 1.9.4 2.7 0l-1.4-1.4z" fill="#193a68"></path><path d="m224 176.1c-1.5 0-2.9-.4-4.1-1.2-2.2-1.4-3.5-3.8-3.5-6.4 0-1.7.5-3.3 1.6-4.6.5-.7 1.1-1.2 1.8-1.7 1.3-.9 2.8-1.3 4.3-1.3 1.6 0 3 .5 4.3 1.3.7.5 1.3 1 1.8 1.7 1 1.3 1.6 2.9 1.6 4.6 0 2.6-1.3 5-3.5 6.4-1.4.8-2.8 1.2-4.3 1.2zm0-13.6c-1.2 0-2.4.4-3.4 1-.5.4-1 .8-1.4 1.3-.8 1.1-1.2 2.3-1.2 3.6 0 2.1 1 4 2.8 5.1 1 .6 2.1 1 3.2 1 1.2 0 2.3-.3 3.2-.9 1.7-1.1 2.8-3 2.8-5.1 0-1.3-.4-2.6-1.2-3.6-.4-.5-.9-1-1.4-1.3-1-.8-2.2-1.1-3.4-1.1z" fill="#193a68"></path><path d="m228.9 222.1h-9.7c-1.8 0-3.3-1.5-3.3-3.3v-19.6c0-.5.4-.8.8-.8h14.8c.5 0 .8.4.8.8v19.6c-.1 1.8-1.6 3.3-3.4 3.3zm-11.5-22.1v18.8c0 .9.8 1.7 1.7 1.7h9.7c.9 0 1.7-.8 1.7-1.7v-18.8z" fill="#193a68"></path><path d="m224 222.1c-.5 0-.8-.4-.8-.8v-14.8c0-.5.4-.8.8-.8.5 0 .8.4.8.8v14.8c0 .4-.3.8-.8.8z" fill="#1a3b6a"></path><path d="m235.1 196.3c-.5 0-.8-.4-.8-.8v-12.9c0-2-1.3-3.8-3.1-4.5-.5-.2-1-.3-1.6-.3h-11c-.6 0-1.1.1-1.6.3-1.9.7-3.2 2.5-3.2 4.5v12.9c0 .5-.4.8-.8.8-.5 0-.8-.4-.8-.8v-12.9c0-2.7 1.7-5.1 4.2-6 .7-.2 1.4-.4 2.1-.4h11c.7 0 1.5.1 2.1.4 2.5.9 4.2 3.3 4.2 6v12.9c.1.4-.3.8-.7.8z" fill="#1a3b6a"></path><path d="m224 188.9c-.4 0-.7-.2-.8-.6l-3.7-11.1c-.1-.4.1-.9.5-1s.9.1 1 .5l2.9 8.7 2.9-8.7.8.2.8.3-3.7 11c0 .5-.3.7-.7.7z" fill="#1a3b6a"></path><path d="m235.1 196.3h-3.7c-.5 0-.8-.4-.8-.8v-11.1c0-.5.4-.8.8-.8.5 0 .8.4.8.8v10.2h2.9c.5 0 .8.4.8.8 0 .5-.4.9-.8.9z" fill="#1a3b6a"></path><path d="m216.6 196.3h-3.7c-.5 0-.8-.4-.8-.8 0-.5.4-.8.8-.8h2.9v-10.2c0-.5.4-.8.8-.8.5 0 .8.4.8.8v11.1c0 .3-.3.7-.8.7z" fill="#1a3b6a"></path><path d="m216.6 200c-.5 0-.8-.4-.8-.8v-4c0-.5.4-.8.8-.8.5 0 .8.4.8.8v4c0 .4-.3.8-.8.8z" fill="#1a3b6a"></path><path d="m231.4 200c-.5 0-.8-.4-.8-.8v-3.7c0-.5.4-.8.8-.8.5 0 .8.4.8.8v3.7c0 .4-.4.8-.8.8z" fill="#1a3b6a"></path><path d="m231.4 200c-.5 0-.8-.4-.8-.8v-3.7c0-.5.4-.8.8-.8h3.7c.5 0 .8.4.8.8 0 1.2-.5 2.3-1.3 3.2-.9.8-2 1.3-3.2 1.3zm.8-3.7v1.9c.5-.1.9-.4 1.2-.7s.6-.8.7-1.2z" fill="#193a68"></path><path d="m216.6 200c-1.2 0-2.3-.5-3.2-1.3-.9-.9-1.3-2-1.3-3.2 0-.5.4-.8.8-.8h3.7c.5 0 .8.4.8.8v3.7c0 .4-.3.8-.8.8zm-2.7-3.7c.1.5.4.9.7 1.2s.8.6 1.2.7v-1.9z" fill="#193a68"></path><path d="m224 182.3c-1.2 0-2.3-.5-3.2-1.3-.3-.3-.3-.8 0-1.2l2.6-2.6c.3-.3.8-.3 1.2 0l2.6 2.6c.3.3.3.8 0 1.2-.9.8-2 1.3-3.2 1.3zm-1.4-2c.8.4 1.9.4 2.7 0l-1.4-1.4z" fill="#193a68"></path><path d="m50.5 188.3h8.3v8.3h-8.3z" fill="#5c9ad2"></path><path d="m251.9 217.9h8.3v8.3h-8.3z" fill="#5c9ad2"></path><g fill="#1a3b6a"><path d="m181.8 191.4h-2.9c-.5 0-.8-.4-.8-.8s.4-.8.8-.8h2.9c.5 0 .8.4.8.8s-.4.8-.8.8zm-8.3 0h-12.4c-.5 0-.8-.4-.8-.8s.4-.8.8-.8h12.4c.5 0 .8.4.8.8s-.4.8-.8.8zm-16.6 0h-2.5c-.5 0-.8-.4-.8-.8s.4-.8.8-.8h2.5c.5 0 .8.4.8.8s-.3.8-.8.8z"></path><path d="m439.3 220h-16.1c-.5 0-.8-.4-.8-.8s.4-.8.8-.8h16.1c.5 0 .8.4.8.8s-.4.8-.8.8z"></path><path d="m136.2 283.7h-2.9c-.5 0-.8-.4-.8-.8s.4-.8.8-.8h2.9c.5 0 .8.4.8.8s-.3.8-.8.8zm-7 0h-12.4c-.5 0-.8-.4-.8-.8s.4-.8.8-.8h12.4c.5 0 .8.4.8.8s-.4.8-.8.8zm-17.8 0h-2.9c-.5 0-.8-.4-.8-.8s.4-.8.8-.8h2.9c.5 0 .8.4.8.8s-.4.8-.8.8z"></path><path d="m148.6 292.4h-2.9c-.5 0-.8-.4-.8-.8 0-.5.4-.8.8-.8h2.9c.5 0 .8.4.8.8.1.5-.3.8-.8.8zm-8.2 0h-12.4c-.5 0-.8-.4-.8-.8 0-.5.4-.8.8-.8h12.4c.5 0 .8.4.8.8 0 .5-.4.8-.8.8zm-16.6 0h-2.9c-.5 0-.8-.4-.8-.8 0-.5.4-.8.8-.8h2.9c.5 0 .8.4.8.8 0 .5-.3.8-.8.8z"></path><path d="m191 184.8h-2.9c-.5 0-.8-.4-.8-.8s.4-.8.8-.8h2.9c.5 0 .8.4.8.8s-.3.8-.8.8zm-8.3 0h-12.4c-.5 0-.8-.4-.8-.8s.4-.8.8-.8h12.4c.5 0 .8.4.8.8s-.3.8-.8.8z"></path><path d="m46.4 289.5h-.8c-.5 0-.8-.4-.8-.8 0-.5.4-.8.8-.8h.8c.5 0 .8.4.8.8 0 .5-.4.8-.8.8zm-4.2 0h-6.2c-.2 0-.3 0-.4-.1-.1.1-.3.1-.4.1h-3.3c-.5 0-.8-.4-.8-.8 0-.5.4-.8.8-.8h3.3c.2 0 .3 0 .4.1.1-.1.3-.1.4-.1h6.2c.5 0 .8.4.8.8.1.5-.3.8-.8.8zm-16.5 0h-.8c-.5 0-.8-.4-.8-.8 0-.5.4-.8.8-.8h.8c.5 0 .8.4.8.8 0 .5-.4.8-.8.8z"></path><path d="m289.4 462.6h-7.9c-.5 0-.8-.4-.8-.8 0-.5.4-.8.8-.8h7.9c.5 0 .8.4.8.8s-.3.8-.8.8zm-13.2 0h-2.9c-.5 0-.8-.4-.8-.8 0-.5.4-.8.8-.8h2.9c.5 0 .8.4.8.8s-.4.8-.8.8z"></path><path d="m376.4 120.6h-7.5c-.5 0-.8-.4-.8-.8 0-.5.4-.8.8-.8h7.5c.5 0 .8.4.8.8s-.4.8-.8.8zm-12.9 0h-2.9c-.5 0-.8-.4-.8-.8 0-.5.4-.8.8-.8h2.9c.5 0 .8.4.8.8.1.4-.3.8-.8.8z"></path><path d="m336.2 314.8h-7.5c-.5 0-.8-.4-.8-.8 0-.5.4-.8.8-.8h7.5c.5 0 .8.4.8.8s-.3.8-.8.8zm-12.8 0h-2.9c-.5 0-.8-.4-.8-.8 0-.5.4-.8.8-.8h2.9c.5 0 .8.4.8.8s-.4.8-.8.8z"></path><path d="m428.5 330.1h-7.5c-.5 0-.8-.4-.8-.8 0-.5.4-.8.8-.8h7.5c.5 0 .8.4.8.8.1.4-.3.8-.8.8zm-12.8 0h-2.9c-.5 0-.8-.4-.8-.8 0-.5.4-.8.8-.8h2.9c.5 0 .8.4.8.8s-.4.8-.8.8z"></path><path d="m299.8 468.8h-2.9c-.5 0-.8-.4-.8-.8 0-.5.4-.8.8-.8h2.9c.5 0 .8.4.8.8s-.4.8-.8.8zm-8.3 0h-11.2c-.5 0-.8-.4-.8-.8 0-.5.4-.8.8-.8h11.2c.5 0 .8.4.8.8s-.4.8-.8.8z"></path><path d="m236 58.7h-7.9c-.5 0-.8-.4-.8-.8 0-.5.4-.8.8-.8h7.9c.5 0 .8.4.8.8 0 .5-.3.8-.8.8zm-13.2 0h-2.9c-.5 0-.8-.4-.8-.8 0-.5.4-.8.8-.8h2.9c.5 0 .8.4.8.8 0 .5-.4.8-.8.8z"></path><path d="m246.4 64.9h-2.9c-.5 0-.8-.4-.8-.8 0-.5.4-.8.8-.8h2.9c.5 0 .8.4.8.8 0 .5-.4.8-.8.8zm-8.3 0h-11.2c-.5 0-.8-.4-.8-.8 0-.5.4-.8.8-.8h11.2c.5 0 .8.4.8.8 0 .5-.4.8-.8.8z"></path><path d="m280.7 224.9h-31.1c-.5 0-.8-.4-.8-.8 0-.5.4-.8.8-.8h31.1c.5 0 .8.4.8.8 0 .5-.3.8-.8.8z"></path><path d="m375.1 426.2h-31.1c-.5 0-.8-.4-.8-.8 0-.5.4-.8.8-.8h31.1c.5 0 .8.4.8.8s-.3.8-.8.8z"></path><path d="m54.2 193.5h-17.8c-.5 0-.8-.4-.8-.8 0-.5.4-.8.8-.8h17.8c.5 0 .8.4.8.8.1.4-.3.8-.8.8z"></path><path d="m397.1 251.2h-2.5c-.5 0-.8-.4-.8-.8 0-.5.4-.8.8-.8h2.5c.5 0 .8.4.8.8 0 .5-.4.8-.8.8z"></path><path d="m391.3 251.2h-2.5c-.5 0-.8-.4-.8-.8 0-.5.4-.8.8-.8h2.5c.5 0 .8.4.8.8 0 .5-.4.8-.8.8z"></path><path d="m392.9 255.4c-.5 0-.8-.4-.8-.8v-2.5c0-.5.4-.8.8-.8.5 0 .8.4.8.8v2.5c0 .4-.3.8-.8.8z"></path><path d="m392.9 249.6c-.5 0-.8-.4-.8-.8v-2.5c0-.5.4-.8.8-.8.5 0 .8.4.8.8v2.5c0 .4-.3.8-.8.8z"></path><path d="m318.8 247.1h-2.5c-.5 0-.8-.4-.8-.8 0-.5.4-.8.8-.8h2.5c.5 0 .8.4.8.8s-.3.8-.8.8z"></path><path d="m313 247.1h-2.5c-.5 0-.8-.4-.8-.8 0-.5.4-.8.8-.8h2.5c.5 0 .8.4.8.8s-.3.8-.8.8z"></path><path d="m314.7 251.2c-.5 0-.8-.4-.8-.8v-2.5c0-.5.4-.8.8-.8.5 0 .8.4.8.8v2.5c0 .5-.4.8-.8.8z"></path><path d="m314.7 245.4c-.5 0-.8-.4-.8-.8v-2.5c0-.5.4-.8.8-.8.5 0 .8.4.8.8v2.5c0 .5-.4.8-.8.8z"></path><path d="m229.4 117.7h-2.5c-.5 0-.8-.4-.8-.8 0-.5.4-.8.8-.8h2.5c.5 0 .8.4.8.8s-.4.8-.8.8z"></path><path d="m223.6 117.7h-2.5c-.5 0-.8-.4-.8-.8 0-.5.4-.8.8-.8h2.5c.5 0 .8.4.8.8s-.4.8-.8.8z"></path><path d="m225.2 121.9c-.5 0-.8-.4-.8-.8v-2.5c0-.5.4-.8.8-.8s.8.4.8.8v2.5c.1.4-.3.8-.8.8z"></path><path d="m225.2 116.1c-.5 0-.8-.4-.8-.8v-2.5c0-.5.4-.8.8-.8s.8.4.8.8v2.5c.1.4-.3.8-.8.8z"></path><path d="m36.4 226.6h-2.4c-.5 0-.8-.4-.8-.8 0-.5.4-.8.8-.8h2.5c.5 0 .8.4.8.8s-.4.8-.9.8z"></path><path d="m30.6 226.6h-2.5c-.5 0-.8-.4-.8-.8 0-.5.4-.8.8-.8h2.5c.5 0 .8.4.8.8.1.4-.3.8-.8.8z"></path><path d="m32.3 230.8c-.5 0-.8-.4-.8-.8v-2.5c0-.5.4-.8.8-.8.5 0 .8.4.8.8v2.5c0 .4-.3.8-.8.8z"></path><path d="m32.3 225c-.5 0-.8-.4-.8-.8v-2.5c0-.5.4-.8.8-.8.5 0 .8.4.8.8v2.5c0 .4-.3.8-.8.8z"></path><path d="m325.8 352.5h-8.3c-.5 0-.8-.4-.8-.8 0-.5.4-.8.8-.8h8.3c.5 0 .8.4.8.8.1.4-.3.8-.8.8z"></path><path d="m321.7 356.6c-.5 0-.8-.4-.8-.8v-8.3c0-.5.4-.8.8-.8.5 0 .8.4.8.8v8.3c0 .4-.3.8-.8.8z"></path><path d="m56.7 170.3h-2.5c-.5 0-.8-.4-.8-.8s.4-.8.8-.8h2.5c.5 0 .8.4.8.8s-.3.8-.8.8z"></path><path d="m50.9 170.3h-2.5c-.5 0-.8-.4-.8-.8s.4-.8.8-.8h2.5c.5 0 .8.4.8.8s-.3.8-.8.8z"></path><path d="m52.6 174.4c-.5 0-.8-.4-.8-.8v-2.5c0-.5.4-.8.8-.8.5 0 .8.4.8.8v2.5c0 .5-.4.8-.8.8z"></path><path d="m52.6 168.6c-.5 0-.8-.4-.8-.8v-2.5c0-.5.4-.8.8-.8.5 0 .8.4.8.8v2.5c0 .5-.4.8-.8.8z"></path><path d="m32.3 315.6h-2.5c-.5 0-.8-.4-.8-.8 0-.5.4-.8.8-.8h2.5c.5 0 .8.4.8.8 0 .5-.3.8-.8.8z"></path><path d="m26.5 315.6h-2.5c-.5 0-.8-.4-.8-.8 0-.5.4-.8.8-.8h2.5c.5 0 .8.4.8.8 0 .5-.3.8-.8.8z"></path><path d="m28.2 319.8c-.5 0-.8-.4-.8-.8v-2.5c0-.5.4-.8.8-.8.5 0 .8.4.8.8v2.5c0 .4-.4.8-.8.8z"></path><path d="m28.2 314c-.5 0-.8-.4-.8-.8v-2.5c0-.5.4-.8.8-.8.5 0 .8.4.8.8v2.5c0 .4-.4.8-.8.8z"></path><path d="m352.3 410.4h-2.5c-.5 0-.8-.4-.8-.8 0-.5.4-.8.8-.8h2.5c.5 0 .8.4.8.8.1.5-.3.8-.8.8z"></path><path d="m346.5 410.4h-2.5c-.5 0-.8-.4-.8-.8 0-.5.4-.8.8-.8h2.5c.5 0 .8.4.8.8.1.5-.3.8-.8.8z"></path><path d="m348.2 414.6c-.5 0-.8-.4-.8-.8v-2.5c0-.5.4-.8.8-.8.5 0 .8.4.8.8v2.5c0 .4-.3.8-.8.8z"></path><path d="m348.2 408.8c-.5 0-.8-.4-.8-.8v-2.5c0-.5.4-.8.8-.8.5 0 .8.4.8.8v2.5c0 .4-.3.8-.8.8z"></path><path d="m148.2 83.8h-2.5c-.5 0-.8-.4-.8-.8 0-.5.4-.8.8-.8h2.5c.5 0 .8.4.8.8.1.4-.3.8-.8.8z"></path><path d="m142.4 83.8h-2.4c-.5 0-.8-.4-.8-.8 0-.5.4-.8.8-.8h2.5c.5 0 .8.4.8.8s-.4.8-.9.8z"></path><path d="m144.1 87.9c-.5 0-.8-.4-.8-.8v-2.5c0-.5.4-.8.8-.8s.8.4.8.8v2.5c0 .4-.4.8-.8.8z"></path><path d="m144.1 82.1c-.5 0-.8-.4-.8-.8v-2.5c0-.5.4-.8.8-.8s.8.4.8.8v2.5c0 .4-.4.8-.8.8z"></path><path d="m236 363.2h-2.5c-.5 0-.8-.4-.8-.8 0-.5.4-.8.8-.8h2.5c.5 0 .8.4.8.8 0 .5-.3.8-.8.8z"></path><path d="m230.2 363.2h-2.5c-.5 0-.8-.4-.8-.8 0-.5.4-.8.8-.8h2.5c.5 0 .8.4.8.8 0 .5-.3.8-.8.8z"></path><path d="m231.9 367.4c-.5 0-.8-.4-.8-.8v-2.5c0-.5.4-.8.8-.8s.8.4.8.8v2.5c0 .4-.4.8-.8.8z"></path><path d="m231.9 361.6c-.5 0-.8-.4-.8-.8v-2.5c0-.5.4-.8.8-.8s.8.4.8.8v2.5c0 .4-.4.8-.8.8z"></path><path d="m188.8 237h-2.5c-.5 0-.8-.4-.8-.8 0-.5.4-.8.8-.8h2.5c.5 0 .8.4.8.8s-.3.8-.8.8z"></path><path d="m183 237h-2.5c-.5 0-.8-.4-.8-.8 0-.5.4-.8.8-.8h2.5c.5 0 .8.4.8.8s-.3.8-.8.8z"></path><path d="m184.7 241.1c-.5 0-.8-.4-.8-.8v-2.5c0-.5.4-.8.8-.8s.8.4.8.8v2.5c0 .4-.4.8-.8.8z"></path><path d="m184.7 235.3c-.5 0-.8-.4-.8-.8v-2.5c0-.5.4-.8.8-.8s.8.4.8.8v2.5c0 .4-.4.8-.8.8z"></path><path d="m58.8 198.8h-12.4c-.5 0-.8-.4-.8-.8s.4-.8.8-.8h12.4c.5 0 .8.4.8.8s-.3.8-.8.8z"></path><path d="m264.2 218.7h-21.5c-.5 0-.8-.4-.8-.8s.4-.8.8-.8h21.5c.5 0 .8.4.8.8s-.4.8-.8.8z"></path><path d="m368.9 420.4h-11.6c-.5 0-.8-.4-.8-.8 0-.5.4-.8.8-.8h11.6c.5 0 .8.4.8.8s-.3.8-.8.8z"></path></g><path d="m168.9 458.7h20.7v4.1h-20.7z" fill="#5c9ad2"></path><path d="m328.6 321h20.7v4.1h-20.7z" fill="#5c9ad2"></path><path d="m166.9 170.1h20.7v4.1h-20.7z" fill="#5c9ad2"></path><ellipse cx="436" cy="315.3" fill="#5c9ad2" rx="4" ry="4" transform="matrix(.1602 -.9871 .9871 .1602 54.9056 695.1292)"></ellipse><path d="m434.1 320.4c-2.7 0-4.8-2.2-4.8-4.8 0-2.7 2.2-4.8 4.8-4.8s4.8 2.2 4.8 4.8c0 2.7-2.1 4.8-4.8 4.8zm0-8c-1.7 0-3.2 1.4-3.2 3.2s1.4 3.2 3.2 3.2 3.2-1.4 3.2-3.2-1.4-3.2-3.2-3.2z" fill="#193a68"></path><path d="m164 455.1h-2.9c-.5 0-.8-.4-.8-.8s.4-.8.8-.8h2.9c.5 0 .8.4.8.8s-.4.8-.8.8zm-8.3 0h-12.4c-.5 0-.8-.4-.8-.8s.4-.8.8-.8h12.4c.5 0 .8.4.8.8s-.4.8-.8.8zm-16.6 0h-1.7c-.5 0-.8-.4-.8-.8s.4-.8.8-.8h1.7c.5 0 .8.4.8.8s-.3.8-.8.8z" fill="#1a3b6a"></path><path d="m430.8 206.9h8.3v8.3h-8.3z" fill="#5c9ad2"></path><path d="m111.8 371.3h8.3v8.3h-8.3z" fill="#5c9ad2"></path><path d="m231 90.6h8.3v8.3h-8.3z" fill="#5c9ad2"></path><path d="m436 212.9h-26.5c-.5 0-.8-.4-.8-.8 0-.5.4-.8.8-.8h26.5c.5 0 .8.4.8.8 0 .5-.4.8-.8.8z" fill="#1a3b6a"></path><path d="m376.5 308.8c-.5 0-.8-.4-.8-.8v-.6c0-.1 0-.2.1-.3 0-.1-.1-.2-.1-.3v-2.6c0-.5.4-.8.8-.8.5 0 .8.4.8.8v2.6c0 .1 0 .2-.1.3 0 .1.1.2.1.3v.6c0 .4-.3.8-.8.8z" fill="#1a3b6a"></path><path d="m373.9 310.3c-.1 0-.3 0-.4-.1l-.5-.3c-.1-.1-.2-.1-.2-.2-.1 0-.2 0-.3-.1l-2.2-1.3c-.4-.2-.5-.7-.3-1.1s.7-.5 1.1-.3l2.2 1.3c.1.1.2.1.2.2.1 0 .2 0 .3.1l.5.3c.4.2.5.7.3 1.1-.1.3-.4.4-.7.4z" fill="#1a3b6a"></path><path d="m370.7 315.2c-.3 0-.6-.1-.7-.4-.2-.4-.1-.9.3-1.1l2.2-1.3c.1-.1.2-.1.3-.1.1-.1.1-.1.2-.2l.5-.3c.4-.2.9-.1 1.1.3s.1.9-.3 1.1l-.5.3c-.1.1-.2.1-.3.1-.1.1-.1.1-.2.2l-2.2 1.3c-.1.1-.3.1-.4.1z" fill="#1a3b6a"></path><path d="m376.6 318.6c-.5 0-.8-.4-.8-.8v-2.6c0-.1 0-.2.1-.3 0-.1-.1-.2-.1-.3v-.6c0-.5.4-.8.8-.8.5 0 .8.4.8.8v.6c0 .1 0 .2-.1.3 0 .1.1.2.1.3v2.6c0 .4-.4.8-.8.8z" fill="#1a3b6a"></path><path d="m382.4 315.2c-.1 0-.3 0-.4-.1l-2.2-1.3c-.1-.1-.2-.1-.2-.2-.1 0-.2 0-.3-.1l-.5-.3c-.4-.2-.5-.7-.3-1.1s.7-.5 1.1-.3l.5.3c.1.1.2.1.2.2.1 0 .2 0 .3.1l2.2 1.3c.4.2.5.7.3 1.1-.2.2-.4.4-.7.4z" fill="#1a3b6a"></path><path d="m379.1 310.3c-.3 0-.6-.1-.7-.4-.2-.4-.1-.9.3-1.1l.5-.3c.1-.1.2-.1.3-.1.1-.1.1-.1.2-.2l2.2-1.3c.4-.2.9-.1 1.1.3s.1.9-.3 1.1l-2.2 1.3c-.1.1-.2.1-.3.1-.1.1-.1.1-.2.2l-.5.3c-.1.1-.2.1-.4.1z" fill="#1a3b6a"></path><path d="m82.1 391.6c-.5 0-.8-.4-.8-.8v-.6c0-.1 0-.2.1-.3 0-.1-.1-.2-.1-.3v-2.6c0-.5.4-.8.8-.8s.8.4.8.8v2.6c0 .1 0 .2-.1.3 0 .1.1.2.1.3v.6c.1.5-.3.8-.8.8z" fill="#1a3b6a"></path><path d="m79.5 393.1c-.1 0-.3 0-.4-.1l-.5-.3c-.1-.1-.2-.1-.2-.2-.1 0-.2 0-.3-.1l-2.2-1.3c-.4-.2-.5-.7-.3-1.1s.7-.5 1.1-.3l2.3 1.3c.1.1.2.1.2.2.1 0 .2 0 .3.1l.5.3c.4.2.5.7.3 1.1-.2.3-.5.4-.8.4z" fill="#1a3b6a"></path><path d="m76.3 398c-.3 0-.6-.1-.7-.4-.2-.4-.1-.9.3-1.1l2.2-1.3c.1-.1.2-.1.3-.1l.2-.2.5-.3c.4-.2.9-.1 1.1.3s.1.9-.3 1.1l-.5.3c-.1.1-.2.1-.3.1-.1.1-.1.1-.2.2l-2.2 1.3c-.1.1-.2.1-.4.1z" fill="#1a3b6a"></path><path d="m82.2 401.4c-.5 0-.8-.4-.8-.8v-2.6c0-.1 0-.2.1-.3 0-.1-.1-.2-.1-.3v-.6c0-.5.4-.8.8-.8.5 0 .8.4.8.8v.6c0 .1 0 .2-.1.3 0 .1.1.2.1.3v2.6c0 .4-.4.8-.8.8z" fill="#1a3b6a"></path><path d="m88 398c-.1 0-.3 0-.4-.1l-2.2-1.3c-.1-.1-.2-.1-.2-.2-.1 0-.2 0-.3-.1l-.5-.3c-.4-.2-.5-.7-.3-1.1s.7-.5 1.1-.3l.5.3c.1.1.2.1.2.2.1 0 .2 0 .3.1l2.2 1.3c.4.2.5.7.3 1.1-.1.2-.4.4-.7.4z" fill="#1a3b6a"></path><path d="m84.8 393.1c-.3 0-.6-.1-.7-.4-.2-.4-.1-.9.3-1.1l.5-.3c.1-.1.2-.1.3-.1.1-.1.1-.1.2-.2l2.2-1.3c.4-.2.9-.1 1.1.3s.1.9-.3 1.1l-2.2 1.3c-.1.1-.2.1-.3.1-.1.1-.1.1-.2.2l-.5.3c-.2.1-.3.1-.4.1z" fill="#1a3b6a"></path><path d="m315.8 223.7c-.3 0-.7 0-1-.1-.2 0-.3-.1-.4-.2-.2 0-.3.1-.5 0-1.2-.4-2.3-1-3.2-2-.3-.3-.3-.9.1-1.2.3-.3.9-.3 1.2.1.6.7 1.5 1.2 2.4 1.5.1 0 .2.1.3.2.1 0 .2-.1.4 0 .2 0 .5.1.8.1 1.6 0 3-.7 4-1.9.3-.4.8-.4 1.2-.1s.4.8.1 1.2c-1.4 1.5-3.3 2.4-5.4 2.4zm6-5.2h-.1c-.5-.1-.8-.5-.7-.9 0-.2 0-.5 0-.7 0-.5.4-.8.8-.8.5 0 .8.4.8.8 0 .3 0 .6-.1.9.1.4-.3.7-.7.7zm-11.8-2.6c-.1 0-.2 0-.2 0-.4-.1-.7-.6-.6-1 .1-.3.2-.6.3-.9.2-.4.7-.6 1.1-.4s.6.7.4 1.1c-.1.2-.2.4-.2.7-.1.3-.4.5-.8.5zm11.2-.9c-.3 0-.6-.2-.7-.5-.4-.9-1.1-1.6-1.9-2.1-.1-.1-.2-.2-.3-.3-.1 0-.2 0-.4-.1-1.6-.8-3.6-.6-5.1.4-.4.3-.9.2-1.2-.2s-.2-.9.2-1.2c1.1-.8 2.5-1.2 3.8-1.2 1 0 2 .2 2.9.6.2.1.3.2.4.3.1 0 .3 0 .5.1 1.1.7 1.9 1.6 2.5 2.8.2.4 0 .9-.4 1.1 0 .3-.1.3-.3.3z" fill="#193a68"></path><path d="m147.3 382h-.8c-.5 0-.8-.4-.8-.8 0-.5.4-.8.8-.8h.8c.5 0 .8.4.8.8.1.4-.3.8-.8.8zm-4.1 0h-6.2c-.2 0-.3 0-.4-.1-.1.1-.3.1-.4.1h-3.3c-.5 0-.8-.4-.8-.8 0-.5.4-.8.8-.8h3.3c.2 0 .3 0 .4.1.1-.1.3-.1.4-.1h6.2c.5 0 .8.4.8.8s-.3.8-.8.8zm-16.6 0h-.8c-.5 0-.8-.4-.8-.8 0-.5.4-.8.8-.8h.8c.5 0 .8.4.8.8.1.4-.3.8-.8.8zm-4.1 0h-6.2c-.5 0-.8-.4-.8-.8 0 0 0 0 0-.1-.1-.1-.2-.3-.2-.6v-3.3c0-.5.4-.8.8-.8.5 0 .8.4.8.8v3.1h5.6c.5 0 .8.4.8.8 0 .5-.3.9-.8.9zm-10.1-6.4h-.8c-.5 0-.8-.4-.8-.8 0-.5.4-.8.8-.8h.8c.5 0 .8.4.8.8s-.4.8-.8.8zm-4.2 0h-6.2c-.5 0-.8-.4-.8-.8 0-.5.4-.8.8-.8h6.2c.5 0 .8.4.8.8s-.3.8-.8.8z" fill="#1a3b6a"></path><path d="m341.6 323.9h-2.9c-.5 0-.8-.4-.8-.8s.4-.8.8-.8h2.9c.5 0 .8.4.8.8s-.4.8-.8.8zm-8.3 0h-12.4c-.5 0-.8-.4-.8-.8s.4-.8.8-.8h12.4c.5 0 .8.4.8.8s-.3.8-.8.8zm-16.6 0h-2.9c-.5 0-.8-.4-.8-.8s.4-.8.8-.8h2.9c.5 0 .8.4.8.8s-.3.8-.8.8z" fill="#1a3b6a"></path><path d="m178 461.8h-10.4c-.5 0-.8-.4-.8-.8 0-.5.4-.8.8-.8h10.4c.5 0 .8.4.8.8.1.4-.3.8-.8.8zm-15.7 0h-2.9c-.5 0-.8-.4-.8-.8 0-.5.4-.8.8-.8h2.9c.5 0 .8.4.8.8s-.3.8-.8.8z" fill="#1a3b6a"></path><path d="m237.3 97.5h-10.1c-.5 0-.8-.4-.8-.8v-10.1c0-.5.4-.8.8-.8h10.1c.5 0 .8.4.8.8v10.1c.1.4-.3.8-.8.8zm-9.3-1.6h8.5v-8.5h-8.5z" fill="#193a68"></path><path d="m95.3 317.6h-44c-6.1 0-11.4 3.7-13.7 9.1h17.5c.7-.5 1.9-.2 2 .9 0 .6.5 1.3.8 1.9.3.3.6.7.9 1.1.1.2.3.7.5 1.1l.3.3h27.2c.6-1.7 2.2-2.8 2.9-4.5.1-.3.3-.5.5-.6v-.3h18.8c-2.3-5.3-7.5-9-13.7-9z" fill="#5c9ad2"></path><path d="m86.9 332.1h-27.4l-.2-.2c-.1-.1-.1-.1-.2-.2-.1-.2-.2-.3-.2-.5-.1-.3-.2-.5-.3-.6-.2-.3-.5-.6-.9-1.1-.4-.6-.8-1.3-.9-2 0-.5-.4-.8-.6-.9-.4-.2-.8-.1-1.1.1h-17.8l.1-.3c2.4-5.6 7.8-9.2 13.9-9.2h44c6 0 11.5 3.6 13.9 9.2l.1.3h-18.9v.2h-.1c-.2.1-.3.2-.4.5-.4.8-.9 1.5-1.4 2.1-.6.7-1.2 1.5-1.5 2.3zm-27.2-.4h27c.3-.9.9-1.6 1.5-2.3.5-.6 1-1.3 1.4-2.1.1-.3.3-.5.5-.6v-.3h18.6c-2.4-5.3-7.6-8.7-13.4-8.7h-44c-5.8 0-11 3.4-13.4 8.7h17.2c.4-.3 1-.3 1.4-.1.5.2.8.6.8 1.2s.4 1.2.8 1.8c.4.4.7.7.9 1.1.1.2.2.4.4.7.1.1.1.3.2.4 0 .1 0 .1.1.2z" fill="#193a68"></path><path d="m110.2 355.7h-14.8c-.5 0-.8-.4-.8-.8 0-.5.4-.8.8-.8h13.9v-21.2c0-7.8-6.3-14.1-14.1-14.1h-44c-7.8 0-14.1 6.3-14.1 14.1v21.1h13.9c.5 0 .8.4.8.8 0 .5-.4.8-.8.8h-14.6c-.5 0-.8-.4-.8-.8v-22c0-8.7 7-15.7 15.7-15.7h44c8.7 0 15.7 7 15.7 15.7v22c0 .5-.4.9-.8.9z" fill="#1a3b6a"></path><path d="m99.2 319.1c-.5 0-.8-.4-.8-.8v-21.7h-42.7v2.9c0 .5-.4.8-.8.8-.5 0-.8-.4-.8-.8v-3.7c0-.5.4-.8.8-.8h44.3c.5 0 .8.4.8.8v22.5c0 .5-.4.8-.8.8z" fill="#1a3b6a"></path><path d="m51.2 299.5h44.3v18.4h-44.3z" fill="#fff"></path><path d="m95.4 318.8h-44.2c-.5 0-.8-.4-.8-.8v-18.4c0-.5.4-.8.8-.8h44.3c.5 0 .8.4.8.8v18.4c-.1.4-.4.8-.9.8zm-43.4-1.7h42.6v-16.8h-42.6z" fill="#193a68"></path><path d="m51.2 348.3h44.3v17.6h-44.3z" fill="#fff"></path><path d="m95.4 366.7h-44.2c-.5 0-.8-.4-.8-.8v-17.6c0-.5.4-.8.8-.8.5 0 .8.4.8.8v16.8h42.6v-16.8c0-.5.4-.8.8-.8.5 0 .8.4.8.8v17.6c0 .5-.3.8-.8.8z" fill="#1a3b6a"></path><path d="m88 354.4h-29.5c-.5 0-.8-.4-.8-.8 0-.5.4-.8.8-.8h29.5c.5 0 .8.4.8.8.1.5-.3.8-.8.8z" fill="#1a3b6a"></path><path d="m88 358.1h-29.5c-.5 0-.8-.4-.8-.8 0-.5.4-.8.8-.8h29.5c.5 0 .8.4.8.8.1.5-.3.8-.8.8z" fill="#1a3b6a"></path><path d="m88 361.8h-29.5c-.5 0-.8-.4-.8-.8 0-.5.4-.8.8-.8h29.5c.5 0 .8.4.8.8.1.5-.3.8-.8.8z" fill="#1a3b6a"></path><path d="m99.1 352h-3.7c-.5 0-.8-.4-.8-.8 0-.5.4-.8.8-.8h2.9v-2h-50v2h2.9c.5 0 .8.4.8.8 0 .5-.4.8-.8.8h-3.7c-.5 0-.8-.4-.8-.8v-3.7c0-.5.4-.8.8-.8h51.6c.5 0 .8.4.8.8v3.7c0 .4-.3.8-.8.8z" fill="#1a3b6a"></path><path d="m109 327.8h-18.4c-.5 0-.8-.4-.8-.8 0-.5.4-.8.8-.8h18.4c.5 0 .8.4.8.8 0 .5-.4.8-.8.8z" fill="#1a3b6a"></path><path d="m56.1 327.8h-18.5c-.5 0-.8-.4-.8-.8 0-.5.4-.8.8-.8h18.5c.5 0 .8.4.8.8.1.5-.3.8-.8.8z" fill="#1a3b6a"></path><path d="m105.8 333.2c0 1.3-1 2.3-2.3 2.3s-2.3-1-2.3-2.3 1-2.3 2.3-2.3 2.3 1 2.3 2.3z" fill="#fff"></path><path d="m103.5 336.3c-1.7 0-3.1-1.4-3.1-3.1s1.4-3.1 3.1-3.1 3.1 1.4 3.1 3.1-1.4 3.1-3.1 3.1zm0-4.6c-.8 0-1.4.6-1.4 1.4s.6 1.4 1.4 1.4 1.4-.6 1.4-1.4c.1-.7-.6-1.4-1.4-1.4z" fill="#193a68"></path><path d="m97.7 333.2c0 1.3-1 2.3-2.3 2.3s-2.3-1-2.3-2.3 1-2.3 2.3-2.3 2.3 1 2.3 2.3z" fill="#5c9ad2"></path><path d="m95.4 336.3c-1.7 0-3.1-1.4-3.1-3.1s1.4-3.1 3.1-3.1 3.1 1.4 3.1 3.1-1.4 3.1-3.1 3.1zm0-4.6c-.8 0-1.4.6-1.4 1.4s.6 1.4 1.4 1.4 1.4-.6 1.4-1.4c.1-.7-.6-1.4-1.4-1.4z" fill="#193a68"></path><path d="m86.5 333.1h-26.6c-.3 0-.5-.1-.7-.4l-9.6-14.1c-.3-.4-.2-.9.2-1.1.4-.3.9-.2 1.1.2l9.4 13.7h26.2c.5 0 .8.4.8.8 0 .5-.3.9-.8.9z" fill="#1a3b6a"></path><path d="m86.9 333.1h-26.6c-.5 0-.8-.4-.8-.8 0-.5.4-.8.8-.8h26.2l9.4-13.7c.3-.4.8-.5 1.1-.2.4.3.5.8.2 1.1l-9.6 14.1c-.1.1-.4.3-.7.3z" fill="#1a3b6a"></path><path d="m251.7 117.5h73.8v22.1h-73.8z" fill="#5c9ad2"></path><path d="m325.5 140.4h-73.8c-.5 0-.8-.4-.8-.8v-22.1c0-.5.4-.8.8-.8h73.8c.5 0 .8.4.8.8v22.1c0 .5-.4.8-.8.8zm-73-1.6h72.1v-20.5h-72.1z" fill="#193a68"></path><path d="m270.1 144.1h-11.1c-.5 0-.8-.4-.8-.8v-3.7c0-.5.4-.8.8-.8h11.1c.5 0 .8.4.8.8v3.7c.1.4-.3.8-.8.8zm-10.2-1.6h9.4v-2h-9.4z" fill="#193a68"></path><path d="m318.1 144.1h-11.1c-.5 0-.8-.4-.8-.8v-3.7c0-.5.4-.8.8-.8h11.1c.5 0 .8.4.8.8v3.7c0 .4-.3.8-.8.8zm-10.2-1.6h9.4v-2h-9.4z" fill="#193a68"></path><path d="m321.8 125.7h-36.9c-.5 0-.8-.4-.8-.8 0-.5.4-.8.8-.8h36.9c.5 0 .8.4.8.8s-.4.8-.8.8z" fill="#1a3b6a"></path><path d="m321.8 133h-36.9c-.5 0-.8-.4-.8-.8 0-.5.4-.8.8-.8h36.9c.5 0 .8.4.8.8 0 .5-.4.8-.8.8z" fill="#1a3b6a"></path><path d="m255.4 132.2h25.8v3.7h-25.8z" fill="#fff"></path><path d="m281.2 136.7h-25.8c-.5 0-.8-.4-.8-.8v-3.7c0-.5.4-.8.8-.8h25.8c.5 0 .8.4.8.8v3.7c0 .5-.3.8-.8.8zm-25-1.6h24.2v-2h-24.2z" fill="#193a68"></path><path d="m255.4 121.2h25.8v3.7h-25.8z" fill="#fff"></path><path d="m281.2 125.7h-25.8c-.5 0-.8-.4-.8-.8v-3.7c0-.5.4-.8.8-.8h25.8c.5 0 .8.4.8.8v3.7c0 .4-.3.8-.8.8zm-25-1.7h24.2v-2h-24.2z" fill="#193a68"></path><path d="m268.3 106.4c-1 0-1.8.8-1.8 1.8v9.2h3.7v-9.2c-.1-1-.9-1.8-1.9-1.8z" fill="#5c9ad2"></path><path d="m270.1 118.3h-3.7c-.5 0-.8-.4-.8-.8v-9.2c0-1.5 1.2-2.7 2.7-2.7s2.7 1.2 2.7 2.7v9.2c0 .4-.4.8-.9.8zm-2.8-1.7h2v-8.4c0-.6-.5-1-1-1s-1 .5-1 1z" fill="#193a68"></path><path d="m268.3 107.2c-.5 0-.8-.4-.8-.8v-18.4c0-.5.4-.8.8-.8.5 0 .8.4.8.8v18.4c0 .5-.4.8-.8.8z" fill="#1a3b6a"></path><path d="m268.3 88c-1 0-1.8-.8-1.8-1.8s.8-1.8 1.8-1.8 1.8.8 1.8 1.8c0 .9-.8 1.8-1.8 1.8z" fill="#5c9ad2"></path><path d="m268.3 88.8c-1.5 0-2.7-1.2-2.7-2.7s1.2-2.7 2.7-2.7 2.7 1.2 2.7 2.7-1.2 2.7-2.7 2.7zm0-3.7c-.6 0-1 .5-1 1s.5 1 1 1 1-.5 1-1-.4-1-1-1z" fill="#193a68"></path><path d="m272.2 90.8c-.2 0-.4-.1-.6-.2-.3-.3-.3-.8 0-1.2 1.8-1.8 1.8-4.8 0-6.7-.3-.3-.3-.8 0-1.2.3-.3.8-.3 1.2 0 2.5 2.5 2.5 6.5 0 9-.2.3-.4.3-.6.3z" fill="#1a3b6a"></path><path d="m264.4 90.8c-.2 0-.4-.1-.6-.2-2.5-2.5-2.5-6.5 0-9 .3-.3.8-.3 1.2 0 .3.3.3.8 0 1.2-1.8 1.8-1.8 4.8 0 6.7.3.3.3.8 0 1.2-.2.1-.4.1-.6.1z" fill="#1a3b6a"></path><path d="m274.8 93.4c-.2 0-.4-.1-.6-.2-.3-.3-.3-.8 0-1.2 3.3-3.3 3.3-8.6 0-11.9-.3-.3-.3-.8 0-1.2.3-.3.8-.3 1.2 0 3.9 3.9 3.9 10.3 0 14.2-.2.3-.4.3-.6.3z" fill="#1a3b6a"></path><path d="m261.8 93.4c-.2 0-.4-.1-.6-.2-3.9-3.9-3.9-10.3 0-14.2.3-.3.8-.3 1.2 0 .3.3.3.8 0 1.2-3.3 3.3-3.3 8.6 0 11.9.3.3.3.8 0 1.2-.2.1-.4.1-.6.1z" fill="#1a3b6a"></path><path d="m277.4 96.1c-.2 0-.4-.1-.6-.2-.3-.3-.3-.8 0-1.2 4.7-4.7 4.7-12.4 0-17.1-.3-.3-.3-.8 0-1.2.3-.3.8-.3 1.2 0 5.4 5.4 5.4 14.1 0 19.4-.2.2-.4.3-.6.3z" fill="#1a3b6a"></path><path d="m259.2 96.1c-.2 0-.4-.1-.6-.2-5.4-5.4-5.4-14.1 0-19.4.3-.3.8-.3 1.2 0 .3.3.3.8 0 1.2-4.7 4.7-4.7 12.4 0 17.1.3.3.3.8 0 1.2-.2 0-.4.1-.6.1z" fill="#1a3b6a"></path><path d="m280 98.7c-.2 0-.4-.1-.6-.2-.3-.3-.3-.8 0-1.2 3-3 4.6-6.9 4.6-11.2 0-4.2-1.6-8.2-4.6-11.2-.3-.3-.3-.8 0-1.2.3-.3.8-.3 1.2 0 6.8 6.8 6.8 17.8 0 24.6-.1.3-.4.4-.6.4z" fill="#1a3b6a"></path><path d="m256.6 98.7c-.2 0-.4-.1-.6-.2-6.8-6.8-6.8-17.8 0-24.6.3-.3.8-.3 1.2 0 .3.3.3.8 0 1.2-3 3-4.6 6.9-4.6 11.2 0 4.2 1.6 8.2 4.6 11.2.3.3.3.8 0 1.2-.2-.1-.4 0-.6 0z" fill="#1a3b6a"></path><path d="m308.9 106.4c-1 0-1.8.8-1.8 1.8v9.2h3.7v-9.2c-.1-1-.9-1.8-1.9-1.8z" fill="#fff"></path><path d="m310.7 118.3h-3.7c-.5 0-.8-.4-.8-.8v-9.2c0-1.5 1.2-2.7 2.7-2.7s2.7 1.2 2.7 2.7v9.2c-.1.4-.4.8-.9.8zm-2.8-1.7h2v-8.4c0-.6-.5-1-1-1s-1 .5-1 1z" fill="#193a68"></path><path d="m308.9 107.2c-.5 0-.8-.4-.8-.8v-18.4c0-.5.4-.8.8-.8.5 0 .8.4.8.8v18.4c0 .5-.4.8-.8.8z" fill="#1a3b6a"></path><path d="m308.9 88c-1 0-1.8-.8-1.8-1.8s.8-1.8 1.8-1.8 1.8.8 1.8 1.8c0 .9-.8 1.8-1.8 1.8z" fill="#fff"></path><path d="m308.9 88.8c-1.5 0-2.7-1.2-2.7-2.7s1.2-2.7 2.7-2.7 2.7 1.2 2.7 2.7-1.3 2.7-2.7 2.7zm0-3.7c-.6 0-1 .5-1 1s.5 1 1 1 1-.5 1-1-.5-1-1-1z" fill="#193a68"></path><g fill="#1a3b6a"><path d="m312.8 90.8c-.2 0-.4-.1-.6-.2-.3-.3-.3-.8 0-1.2 1.8-1.8 1.8-4.8 0-6.7-.3-.3-.3-.8 0-1.2.3-.3.8-.3 1.2 0 2.5 2.5 2.5 6.5 0 9-.2.3-.4.3-.6.3z"></path><path d="m305 90.8c-.2 0-.4-.1-.6-.2-2.5-2.5-2.5-6.5 0-9 .3-.3.8-.3 1.2 0 .3.3.3.8 0 1.2-1.8 1.8-1.8 4.8 0 6.7.3.3.3.8 0 1.2-.2.1-.4.1-.6.1z"></path><path d="m315.4 93.4c-.2 0-.4-.1-.6-.2-.3-.3-.3-.8 0-1.2 3.3-3.3 3.3-8.6 0-11.9-.3-.3-.3-.8 0-1.2.3-.3.8-.3 1.2 0 3.9 3.9 3.9 10.3 0 14.2-.2.3-.4.3-.6.3z"></path><path d="m302.4 93.4c-.2 0-.4-.1-.6-.2-3.9-3.9-3.9-10.3 0-14.2.3-.3.8-.3 1.2 0 .3.3.3.8 0 1.2-3.3 3.3-3.3 8.6 0 11.9.3.3.3.8 0 1.2-.2.1-.4.1-.6.1z"></path><path d="m318 96.1c-.2 0-.4-.1-.6-.2-.3-.3-.3-.8 0-1.2 4.7-4.7 4.7-12.4 0-17.1-.3-.3-.3-.8 0-1.2.3-.3.8-.3 1.2 0 5.4 5.4 5.4 14.1 0 19.4-.2.2-.4.3-.6.3z"></path><path d="m299.7 96.1c-.2 0-.4-.1-.6-.2-5.4-5.4-5.4-14.1 0-19.4.3-.3.8-.3 1.2 0 .3.3.3.8 0 1.2-4.7 4.7-4.7 12.4 0 17.1.3.3.3.8 0 1.2-.1 0-.3.1-.6.1z"></path><path d="m320.6 98.7c-.2 0-.4-.1-.6-.2-.3-.3-.3-.8 0-1.2 3-3 4.6-6.9 4.6-11.2 0-4.2-1.6-8.2-4.6-11.2-.3-.3-.3-.8 0-1.2.3-.3.8-.3 1.2 0 6.8 6.8 6.8 17.8 0 24.6-.2.3-.4.4-.6.4z"></path><path d="m297.1 98.7c-.2 0-.4-.1-.6-.2-6.8-6.8-6.8-17.8 0-24.6.3-.3.8-.3 1.2 0 .3.3.3.8 0 1.2-3 3-4.6 6.9-4.6 11.2 0 4.2 1.6 8.2 4.6 11.2.3.3.3.8 0 1.2-.1-.1-.4 0-.6 0z"></path><path d="m288.6 136.7c-.5 0-.8-.4-.8-.8v-14.8c0-.5.4-.8.8-.8s.8.4.8.8v14.8c0 .5-.4.8-.8.8z"></path><path d="m292.3 136.7c-.5 0-.8-.4-.8-.8v-14.8c0-.5.4-.8.8-.8.5 0 .8.4.8.8v14.8c0 .5-.4.8-.8.8z"></path><path d="m296 136.7c-.5 0-.8-.4-.8-.8v-14.8c0-.5.4-.8.8-.8.5 0 .8.4.8.8v14.8c0 .5-.4.8-.8.8z"></path><path d="m299.7 136.7c-.5 0-.8-.4-.8-.8v-14.8c0-.5.4-.8.8-.8.5 0 .8.4.8.8v14.8c0 .5-.4.8-.8.8z"></path><path d="m303.3 136.7c-.5 0-.8-.4-.8-.8v-14.8c0-.5.4-.8.8-.8.5 0 .8.4.8.8v14.8c.1.5-.3.8-.8.8z"></path><path d="m307 136.7c-.5 0-.8-.4-.8-.8v-14.8c0-.5.4-.8.8-.8.5 0 .8.4.8.8v14.8c.1.5-.3.8-.8.8z"></path><path d="m310.7 136.7c-.5 0-.8-.4-.8-.8v-14.8c0-.5.4-.8.8-.8.5 0 .8.4.8.8v14.8c0 .5-.3.8-.8.8z"></path><path d="m314.4 136.7c-.5 0-.8-.4-.8-.8v-14.8c0-.5.4-.8.8-.8.5 0 .8.4.8.8v14.8c0 .5-.3.8-.8.8z"></path><path d="m318.1 136.7c-.5 0-.8-.4-.8-.8v-14.8c0-.5.4-.8.8-.8.5 0 .8.4.8.8v14.8c0 .5-.3.8-.8.8z"></path></g><path d="m375.8 343.5c5.1.2 9.9-.9 14.4-3.2 4-1.3 7.5-3.4 10.5-6.2 0 0-.1-.1-.1-.1-6.6-6-15.3-9.7-24.9-9.7-9.5 0-18.2 3.6-24.8 9.6 7 5.9 15.5 9.6 24.9 9.6z" fill="#5c9ad2"></path><path d="m377 343.7c-.4 0-.8 0-1.2 0-8.9 0-17.6-3.3-25.1-9.7l-.2-.1.2-.1c6.8-6.2 15.7-9.6 24.9-9.6 9.3 0 18.2 3.5 25.1 9.8l.2.2-.1.1c-3.1 2.9-6.6 5-10.6 6.2-4 2.1-8.5 3.2-13.2 3.2zm-25.8-9.8c7.4 6.2 15.9 9.5 24.7 9.5 5.1.2 9.9-.9 14.3-3.2 3.9-1.3 7.3-3.3 10.3-6-6.8-6.2-15.6-9.6-24.8-9.6-9.1-.1-17.8 3.2-24.5 9.3z" fill="#193a68"></path><path d="m401 388c0 .1 0 .1 0 0-7.1-6-15.5-9.7-25-9.7-5.1-.2-9.9.9-14.4 3.2-4.2 1.4-7.8 3.6-11 6.6s.1.1.1.1c6.6 6 15.3 9.7 24.9 9.7s18.4-3.7 24.9-9.7c.3.1.4-.1.5-.2z" fill="#5c9ad2"></path><path d="m375.7 398.3c-9.3 0-18.2-3.5-25.1-9.8l-.2-.2.1-.2c3.2-3.1 6.9-5.3 11-6.7 4.4-2.3 9.3-3.4 14.5-3.2 8.9 0 17.5 3.3 25 9.6l.1-.1.1.3v.1l-.5.4c-6.8 6.3-15.7 9.8-25 9.8zm-24.8-10.1c6.8 6.2 15.6 9.7 24.8 9.7s18-3.4 24.8-9.7l.2-.2c-7.4-6.2-15.9-9.5-24.7-9.5-5.1-.2-9.9.9-14.3 3.2-4.1 1.4-7.7 3.6-10.8 6.5z" fill="#193a68"></path><path d="m400.7 389.2c-.2 0-.4-.1-.6-.2-6.7-6.1-15.3-9.5-24.4-9.5s-17.7 3.4-24.4 9.5c-.3.3-.9.3-1.2 0s-.3-.9 0-1.2c7-6.4 16-9.9 25.5-9.9s18.5 3.5 25.5 9.9c.3.3.4.8 0 1.2.1.1-.2.2-.4.2z" fill="#1a3b6a"></path><path d="m375.8 344.5c-9.5 0-18.5-3.5-25.5-9.9-.3-.3-.4-.8 0-1.2.3-.3.8-.4 1.2 0 6.7 6.1 15.3 9.5 24.4 9.5s17.7-3.4 24.4-9.5c.3-.3.9-.3 1.2 0s.3.9 0 1.2c-7.2 6.4-16.3 9.9-25.7 9.9z" fill="#1a3b6a"></path><path d="m375.8 398.9c-.5 0-.8-.4-.8-.8v-27.4c0-.5.4-.8.8-.8.5 0 .8.4.8.8v27.4c0 .4-.4.8-.8.8z" fill="#1a3b6a"></path><path d="m375.8 352.5c-.5 0-.8-.4-.8-.8v-27.4c0-.5.4-.8.8-.8.5 0 .8.4.8.8v27.4c0 .4-.4.8-.8.8z" fill="#1a3b6a"></path><path d="m349 362h-10.1c-.5 0-.8-.4-.8-.8 0-.5.4-.8.8-.8h10.1c.5 0 .8.4.8.8s-.4.8-.8.8z" fill="#1a3b6a"></path><path d="m412.6 362h-9.5c-.5 0-.8-.4-.8-.8 0-.5.4-.8.8-.8h9.5c.5 0 .8.4.8.8s-.3.8-.8.8z" fill="#1a3b6a"></path><path d="m375.8 398.9c-.3 0-.5-.1-.7-.4-.3-.4-.2-.9.2-1.1 6-4.1 11-9.6 14.3-16.1 1.8-3.4 3.1-7 3.9-10.8.1-.4.5-.7 1-.6.4.1.7.5.6 1-.9 3.9-2.2 7.7-4 11.2-3.5 6.7-8.6 12.5-14.9 16.7-.1 0-.3.1-.4.1z" fill="#1a3b6a"></path><path d="m394.4 352.5c-.4 0-.7-.3-.8-.6-.8-3.7-2.1-7.4-3.9-10.8-3.3-6.5-8.3-12-14.3-16.1-.4-.3-.5-.8-.2-1.1.3-.4.8-.5 1.1-.2 6.3 4.2 11.4 10 14.9 16.7 1.8 3.5 3.2 7.3 4 11.2.1.4-.2.9-.6 1-.1-.1-.2-.1-.2-.1z" fill="#1a3b6a"></path><path d="m375.8 398.9c-.2 0-.3 0-.5-.1-6.3-4.2-11.4-10-14.9-16.7-1.8-3.5-3.2-7.3-4-11.2-.1-.4.2-.9.6-1s.9.2 1 .6c.8 3.8 2.1 7.4 3.9 10.8 3.4 6.5 8.3 12 14.3 16.1.4.3.5.8.2 1.1-.1.3-.4.4-.6.4z" fill="#1a3b6a"></path><path d="m357.2 352.5c-.1 0-.1 0-.2 0-.4-.1-.7-.5-.6-1 .8-3.9 2.2-7.6 4-11.2 3.5-6.7 8.6-12.5 14.9-16.7.4-.3.9-.2 1.1.2.3.4.2.9-.2 1.1-6 4.1-11 9.6-14.3 16.1-1.8 3.4-3.1 7-3.9 10.8-.1.4-.4.7-.8.7z" fill="#1a3b6a"></path><path d="m375.8 398.9c-9.5 0-18.5-3.5-25.5-9.9-7.8-7.1-12.2-17.2-12.2-27.8 0-10.5 4.5-20.7 12.2-27.8 7-6.4 16-9.9 25.5-9.9s18.5 3.5 25.5 9.9c7.8 7.1 12.2 17.2 12.2 27.8 0 10.5-4.5 20.7-12.2 27.8-7 6.4-16 9.9-25.5 9.9zm0-73.8c-9.1 0-17.7 3.4-24.4 9.5-7.4 6.8-11.7 16.5-11.7 26.6s4.3 19.8 11.7 26.6c6.7 6.1 15.3 9.5 24.4 9.5s17.7-3.4 24.4-9.5c7.4-6.8 11.7-16.5 11.7-26.6s-4.3-19.8-11.7-26.6c-6.7-6.1-15.4-9.5-24.4-9.5z" fill="#193a68"></path><path d="m356.5 367.1-1.6-.1-2.8-11.4 1.6-.4 2.1 8.6 2.7-8.6h1.5l2.6 8.6 2.2-8.6 1.6.4-3 11.5h-1.6l-2.6-8.9z" fill="#1a3b6a"></path><path d="m351.3 354.6h3.8v1.6h-3.8z" fill="#1a3b6a"></path><path d="m363.5 354.6h3.8v1.6h-3.8z" fill="#1a3b6a"></path><path d="m373.2 367.1-1.6-.1-2.8-11.4 1.6-.4 2.1 8.6 2.7-8.6h1.6l2.5 8.6 2.2-8.6 1.6.4-3 11.5h-1.6l-2.6-8.9z" fill="#1a3b6a"></path><path d="m368 354.6h3.8v1.6h-3.8z" fill="#1a3b6a"></path><path d="m380.2 354.6h3.8v1.6h-3.8z" fill="#1a3b6a"></path><path d="m389.9 367.1-1.6-.1-2.7-11.4 1.5-.4 2.1 8.6 2.7-8.6h1.6l2.5 8.6 2.2-8.6 1.6.4-3 11.5h-1.6l-2.5-8.9z" fill="#1a3b6a"></path><path d="m384.7 354.6h3.8v1.6h-3.8z" fill="#1a3b6a"></path><path d="m396.9 354.6h3.8v1.6h-3.8z" fill="#1a3b6a"></path><path d="m206.9 440.3h57.4v12.3h-57.4z" fill="#fff"></path><path d="m264.3 453.4h-57.4c-.5 0-.8-.4-.8-.8v-12.3c0-.5.4-.8.8-.8h57.4c.5 0 .8.4.8.8v12.3c0 .5-.3.8-.8.8zm-56.6-1.6h55.8v-10.7h-55.8z" fill="#193a68"></path><path d="m213 448.5c-1.1 0-2.1-.9-2.1-2.1 0-1.1.9-2.1 2.1-2.1 1.1 0 2.1.9 2.1 2.1s-.9 2.1-2.1 2.1z" fill="#5c9ad2"></path><path d="m213 449.3c-1.6 0-2.9-1.3-2.9-2.9s1.3-2.9 2.9-2.9 2.9 1.3 2.9 2.9-1.3 2.9-2.9 2.9zm0-4.1c-.7 0-1.2.6-1.2 1.2 0 .7.6 1.2 1.2 1.2.7 0 1.2-.6 1.2-1.2.1-.6-.5-1.2-1.2-1.2z" fill="#193a68"></path><path d="m243.8 444.4h16.4v4.1h-16.4z" fill="#5c9ad2"></path><path d="m260.2 449.3h-16.4c-.5 0-.8-.4-.8-.8v-4.1c0-.5.4-.8.8-.8h16.4c.5 0 .8.4.8.8v4.1c0 .5-.3.8-.8.8zm-15.6-1.6h14.8v-2.5h-14.8z" fill="#193a68"></path><path d="m235.6 445.2h-12.3c-.5 0-.8-.4-.8-.8 0-.5.4-.8.8-.8h12.3c.5 0 .8.4.8.8 0 .5-.4.8-.8.8z" fill="#1a3b6a"></path><path d="m235.6 449.3h-12.3c-.5 0-.8-.4-.8-.8 0-.5.4-.8.8-.8h12.3c.5 0 .8.4.8.8 0 .5-.4.8-.8.8z" fill="#1a3b6a"></path><path d="m206.9 456.7h57.4v12.3h-57.4z" fill="#fff"></path><path d="m264.3 469.8h-57.4c-.5 0-.8-.4-.8-.8v-12.3c0-.5.4-.8.8-.8h57.4c.5 0 .8.4.8.8v12.3c0 .5-.3.8-.8.8zm-56.6-1.6h55.8v-10.7h-55.8z" fill="#193a68"></path><path d="m213 464.9c-1.1 0-2.1-.9-2.1-2.1 0-1.1.9-2.1 2.1-2.1 1.1 0 2.1.9 2.1 2.1s-.9 2.1-2.1 2.1z" fill="#5c9ad2"></path><path d="m213 465.7c-1.6 0-2.9-1.3-2.9-2.9s1.3-2.9 2.9-2.9 2.9 1.3 2.9 2.9-1.3 2.9-2.9 2.9zm0-4.1c-.7 0-1.2.6-1.2 1.2 0 .7.6 1.2 1.2 1.2.7 0 1.2-.6 1.2-1.2.1-.6-.5-1.2-1.2-1.2z" fill="#193a68"></path><path d="m243.8 460.8h16.4v4.1h-16.4z" fill="#5c9ad2"></path><path d="m260.2 465.7h-16.4c-.5 0-.8-.4-.8-.8v-4.1c0-.5.4-.8.8-.8h16.4c.5 0 .8.4.8.8v4.1c0 .5-.3.8-.8.8zm-15.6-1.6h14.8v-2.5h-14.8z" fill="#193a68"></path><path d="m235.6 461.6h-12.3c-.5 0-.8-.4-.8-.8 0-.5.4-.8.8-.8h12.3c.5 0 .8.4.8.8 0 .5-.4.8-.8.8z" fill="#1a3b6a"></path><path d="m235.6 465.7h-12.3c-.5 0-.8-.4-.8-.8 0-.5.4-.8.8-.8h12.3c.5 0 .8.4.8.8 0 .5-.4.8-.8.8z" fill="#1a3b6a"></path><path d="m206.9 407.5h57.4v12.3h-57.4z" fill="#fff"></path><path d="m264.3 420.6h-57.4c-.5 0-.8-.4-.8-.8v-12.3c0-.5.4-.8.8-.8h57.4c.5 0 .8.4.8.8v12.3c0 .5-.3.8-.8.8zm-56.6-1.6h55.8v-10.7h-55.8z" fill="#193a68"></path><path d="m213 415.7c-1.1 0-2.1-.9-2.1-2.1 0-1.1.9-2.1 2.1-2.1 1.1 0 2.1.9 2.1 2.1s-.9 2.1-2.1 2.1z" fill="#5c9ad2"></path><path d="m213 416.5c-1.6 0-2.9-1.3-2.9-2.9s1.3-2.9 2.9-2.9 2.9 1.3 2.9 2.9-1.3 2.9-2.9 2.9zm0-4.1c-.7 0-1.2.6-1.2 1.2 0 .7.6 1.2 1.2 1.2.7 0 1.2-.6 1.2-1.2.1-.6-.5-1.2-1.2-1.2z" fill="#193a68"></path><path d="m243.8 411.6h16.4v4.1h-16.4z" fill="#5c9ad2"></path><path d="m260.2 416.5h-16.4c-.5 0-.8-.4-.8-.8v-4.1c0-.5.4-.8.8-.8h16.4c.5 0 .8.4.8.8v4.1c0 .5-.3.8-.8.8zm-15.6-1.6h14.8v-2.5h-14.8z" fill="#193a68"></path><path d="m235.6 412.4h-12.3c-.5 0-.8-.4-.8-.8 0-.5.4-.8.8-.8h12.3c.5 0 .8.4.8.8 0 .5-.4.8-.8.8z" fill="#1a3b6a"></path><path d="m235.6 416.5h-12.3c-.5 0-.8-.4-.8-.8 0-.5.4-.8.8-.8h12.3c.5 0 .8.4.8.8 0 .5-.4.8-.8.8z" fill="#1a3b6a"></path><path d="m206.9 423.9h57.4v12.3h-57.4z" fill="#fff"></path><path d="m264.3 437h-57.4c-.5 0-.8-.4-.8-.8v-12.3c0-.5.4-.8.8-.8h57.4c.5 0 .8.4.8.8v12.3c0 .5-.3.8-.8.8zm-56.6-1.6h55.8v-10.7h-55.8z" fill="#193a68"></path><path d="m213 432.1c-1.1 0-2.1-.9-2.1-2.1 0-1.1.9-2.1 2.1-2.1 1.1 0 2.1.9 2.1 2.1s-.9 2.1-2.1 2.1z" fill="#fff"></path><path d="m213 432.9c-1.6 0-2.9-1.3-2.9-2.9s1.3-2.9 2.9-2.9 2.9 1.3 2.9 2.9-1.3 2.9-2.9 2.9zm0-4.1c-.7 0-1.2.6-1.2 1.2 0 .7.6 1.2 1.2 1.2.7 0 1.2-.6 1.2-1.2.1-.6-.5-1.2-1.2-1.2z" fill="#193a68"></path><path d="m243.8 428h16.4v4.1h-16.4z" fill="#fff"></path><path d="m260.2 432.9h-16.4c-.5 0-.8-.4-.8-.8v-4.1c0-.5.4-.8.8-.8h16.4c.5 0 .8.4.8.8v4.1c0 .5-.3.8-.8.8zm-15.6-1.6h14.8v-2.5h-14.8z" fill="#193a68"></path><path d="m235.6 428.8h-12.3c-.5 0-.8-.4-.8-.8 0-.5.4-.8.8-.8h12.3c.5 0 .8.4.8.8 0 .5-.4.8-.8.8z" fill="#1a3b6a"></path><path d="m235.6 432.9h-12.3c-.5 0-.8-.4-.8-.8 0-.5.4-.8.8-.8h12.3c.5 0 .8.4.8.8 0 .5-.4.8-.8.8z" fill="#1a3b6a"></path><path d="m233.6 424.7c-.5 0-.8-.4-.8-.8v-4.1c0-.5.4-.8.8-.8.5 0 .8.4.8.8v4.1c0 .5-.4.8-.8.8z" fill="#1a3b6a"></path><path d="m233.5 441.1c-.5 0-.8-.4-.8-.8v-4.1c0-.5.4-.8.8-.8.5 0 .8.4.8.8v4.1c0 .5-.3.8-.8.8z" fill="#1a3b6a"></path><path d="m233.5 457.5c-.5 0-.8-.4-.8-.8v-4.1c0-.5.4-.8.8-.8.5 0 .8.4.8.8v4.1c0 .5-.3.8-.8.8z" fill="#1a3b6a"></path><path d="m233.6 473.9h-14.1c-.5 0-.8-.4-.8-.8 0-.5.4-.8.8-.8h13.3v-3.3c0-.5.4-.8.8-.8.5 0 .8.4.8.8v4.1c0 .2-.1.4-.2.6-.2.1-.4.2-.6.2z" fill="#1a3b6a"></path><path d="m237.6 424.7c-.5 0-.8-.4-.8-.8v-4.1c0-.5.4-.8.8-.8.5 0 .8.4.8.8v4.1c0 .5-.3.8-.8.8z" fill="#1a3b6a"></path><path d="m237.7 441.1c-.5 0-.8-.4-.8-.8v-4.1c0-.5.4-.8.8-.8.5 0 .8.4.8.8v4.1c0 .5-.4.8-.8.8z" fill="#1a3b6a"></path><path d="m237.7 457.5c-.5 0-.8-.4-.8-.8v-4.1c0-.5.4-.8.8-.8.5 0 .8.4.8.8v4.1c0 .5-.4.8-.8.8z" fill="#1a3b6a"></path><path d="m251.7 473.9h-14.1c-.2 0-.4-.1-.6-.2-.2-.2-.2-.4-.2-.6v-4.1c0-.4.4-.8.8-.8.5 0 .8.4.8.8v3.3h13.3c.5 0 .8.4.8.8.1.5-.3.8-.8.8z" fill="#1a3b6a"></path><path d="m233.5 482.1c-.5 0-.8-.4-.8-.8v-3.3h-13.3c-.5 0-.8-.4-.8-.8 0-.5.4-.8.8-.8h14.1c.2 0 .4.1.6.2.2.2.2.4.2.6v4.1c0 .4-.3.8-.8.8z" fill="#1a3b6a"></path><path d="m237.7 482.1c-.4 0-.8-.4-.8-.8v-4.1c0-.2.1-.4.2-.6.2-.2.4-.2.6-.2h14.1c.5 0 .8.4.8.8 0 .5-.4.8-.8.8h-13.3v3.3c0 .4-.4.8-.8.8z" fill="#1a3b6a"></path><path d="m335.2 189.6h18.4v18.4h-18.4z" fill="#fff"></path><path d="m353.6 208.8h-18.4c-.5 0-.8-.4-.8-.8v-18.4c0-.5.4-.8.8-.8h18.4c.5 0 .8.4.8.8v18.4c0 .5-.3.8-.8.8zm-17.6-1.6h16.8v-16.8h-16.8z" fill="#193a68"></path><path d="m390.5 189.6h18.4v18.4h-18.4z" fill="#fff"></path><path d="m409 208.8h-18.4c-.5 0-.8-.4-.8-.8v-18.4c0-.5.4-.8.8-.8h18.4c.5 0 .8.4.8.8v18.4c0 .5-.4.8-.8.8zm-17.7-1.6h16.8v-16.8h-16.8z" fill="#193a68"></path><path d="m362.8 189.6h18.4v18.4h-18.4z" fill="#5c9ad2"></path><path d="m381.3 208.8h-18.4c-.5 0-.8-.4-.8-.8v-18.4c0-.5.4-.8.8-.8h18.4c.5 0 .8.4.8.8v18.4c0 .5-.4.8-.8.8zm-17.6-1.6h16.8v-16.8h-16.8z" fill="#193a68"></path><path d="m355.5 134.2h33.2v33.2h-33.2z" fill="#5c9ad2"></path><path d="m388.7 168.3h-33.2c-.5 0-.8-.4-.8-.8v-33.2c0-.5.4-.8.8-.8h33.2c.5 0 .8.4.8.8v33.2c0 .4-.4.8-.8.8zm-32.4-1.7h31.6v-31.6h-31.6z" fill="#193a68"></path><path d="m359.1 137.9h25.8v25.8h-25.8z" fill="#fff"></path><path d="m385 164.6h-25.8c-.5 0-.8-.4-.8-.8v-25.8c0-.5.4-.8.8-.8h25.8c.5 0 .8.4.8.8v25.8c0 .4-.4.8-.8.8zm-25-1.7h24.2v-24.2h-24.2z" fill="#193a68"></path><path d="m372.1 189.3c-.5 0-.8-.4-.8-.8v-4.5c0-.5.4-.8.8-.8.5 0 .8.4.8.8v4.5c0 .4-.4.8-.8.8zm0-8.2c-.5 0-.8-.4-.8-.8v-4.5c0-.5.4-.8.8-.8.5 0 .8.4.8.8v4.5c0 .4-.4.8-.8.8zm0-8.2c-.5 0-.8-.4-.8-.8v-4.5c0-.5.4-.8.8-.8.5 0 .8.4.8.8v4.5c0 .4-.4.8-.8.8z" fill="#1a3b6a"></path><path d="m385 146.1c-.5 0-.9-.4-.9-.8 0-.5.4-.8.8-.8.5 0 .8.4.8.8.1.5-.3.8-.7.8z" fill="#1a3b6a"></path><path d="m399.7 188.7c-.5 0-.8-.4-.8-.8v-4.5c0-.5.4-.8.8-.8.5 0 .8.4.8.8v4.5c0 .5-.3.8-.8.8zm0-8.2c-.5 0-.8-.4-.8-.8v-4.5c0-.5.4-.8.8-.8.5 0 .8.4.8.8v4.5c0 .5-.3.8-.8.8zm0-8.2c-.5 0-.8-.4-.8-.8v-4.5c0-.5.4-.8.8-.8.5 0 .8.4.8.8v4.5c0 .5-.3.8-.8.8zm0-8.2c-.5 0-.8-.4-.8-.8v-4.5c0-.5.4-.8.8-.8.5 0 .8.4.8.8v4.5c0 .5-.3.8-.8.8zm0-8.2c-.5 0-.8-.4-.8-.8v-4.5c0-.5.4-.8.8-.8.5 0 .8.4.8.8v4.5c0 .5-.3.8-.8.8zm0-8.2c-.5 0-.8-.4-.8-.8v-.8h-2c-.5 0-.8-.4-.8-.8 0-.5.4-.8.8-.8h2.9c.5 0 .8.4.8.8v1.6c-.1.5-.4.8-.9.8zm-6.6-1.6h-4.5c-.5 0-.8-.4-.8-.8 0-.5.4-.8.8-.8h4.5c.5 0 .8.4.8.8.1.5-.3.8-.8.8z" fill="#1a3b6a"></path><path d="m359.2 146.1c-.5 0-.9-.4-.9-.8 0-.5.4-.8.8-.8.5 0 .8.4.8.8.1.5-.3.8-.7.8z" fill="#1a3b6a"></path><path d="m344.4 190.4c-.5 0-.8-.4-.8-.8v-4.5c0-.5.4-.8.8-.8.5 0 .8.4.8.8v4.5c0 .4-.4.8-.8.8zm0-8.2c-.5 0-.8-.4-.8-.8v-4.5c0-.5.4-.8.8-.8.5 0 .8.4.8.8v4.5c0 .4-.4.8-.8.8zm0-8.2c-.5 0-.8-.4-.8-.8v-4.5c0-.5.4-.8.8-.8.5 0 .8.4.8.8v4.5c0 .4-.4.8-.8.8zm0-8.2c-.5 0-.8-.4-.8-.8v-4.5c0-.5.4-.8.8-.8.5 0 .8.4.8.8v4.5c0 .4-.4.8-.8.8zm0-8.2c-.5 0-.8-.4-.8-.8v-4.5c0-.5.4-.8.8-.8.5 0 .8.4.8.8v4.5c0 .4-.4.8-.8.8zm0-8.2c-.5 0-.8-.4-.8-.8v-3.3c0-.5.4-.8.8-.8h1.2c.5 0 .8.4.8.8 0 .5-.4.8-.8.8h-.4v2.5c0 .4-.4.8-.8.8zm9.4-3.3h-4.5c-.5 0-.8-.4-.8-.8 0-.5.4-.8.8-.8h4.5c.5 0 .8.4.8.8 0 .5-.4.8-.8.8z" fill="#1a3b6a"></path><path d="m177.9 339.8-1.8 2.5 1 5.6-2 5.6-2.1-6 .9-5.4-1.2-2.4 2.6-.2z" fill="#fff"></path><path d="m175.1 354.1-2.3-6.6.9-5.4-1.2-2.6 2.9-.2 2.9.4-1.9 2.6.9 5.7zm-1.9-6.6 1.9 5.5 1.8-5-1-5.7 1.6-2.2-2.3-.3-2.3.2 1 2.2z" fill="#193a68"></path><path d="m183.7 343.2c-.7-.7-1.6-1.4-2.5-1.9-.5-.3-1-.5-1.6-.8l-4.3 12.7-4.7-12.7c-.6.3-1.3.6-1.8.9-3.4 2.1-5.7 6-5.7 10.3v8.1h24.3v-8.1c-.2-3.2-1.5-6.3-3.7-8.5z" fill="#5c9ad2"></path><path d="m187.4 360.1h-24.7v-8.3c0-4.3 2.2-8.2 5.8-10.5.6-.4 1.2-.7 1.9-1l.2-.1 4.6 12.4 4.2-12.4.2.1c.6.2 1.1.5 1.6.8.9.5 1.8 1.2 2.6 2 2.3 2.3 3.6 5.4 3.6 8.7zm-24.3-.3h23.9v-8c0-3.2-1.2-6.2-3.5-8.5-.7-.7-1.6-1.4-2.5-1.9-.4-.2-.9-.5-1.4-.7l-4.4 13-4.9-13c-.6.2-1.1.5-1.6.9-3.5 2.2-5.6 6-5.6 10.2z" fill="#193a68"></path><path d="m175.1 338.1c-4.9 0-8.9-4-8.9-8.9s4-8.9 8.9-8.9 8.9 4 8.9 8.9-4 8.9-8.9 8.9zm0-16.2c-4 0-7.3 3.3-7.3 7.3s3.3 7.3 7.3 7.3 7.3-3.3 7.3-7.3-3.3-7.3-7.3-7.3z" fill="#193a68"></path><path d="m187.2 360.8h-24.3c-.5 0-.8-.4-.8-.8v-8.1c0-4.5 2.3-8.6 6.1-11 1.8-1.1 3.9-1.8 6-1.9h1.8c2 .1 3.9.7 5.6 1.7 1 .6 1.9 1.3 2.7 2.1 2.4 2.5 3.8 5.7 3.8 9.2v8.1c0 .3-.4.7-.9.7zm-23.4-1.7h22.7v-7.3c0-3-1.2-5.9-3.3-8-.7-.7-1.5-1.3-2.3-1.8-1.5-.9-3.2-1.4-4.9-1.5-.5 0-1.1 0-1.5 0-1.9.1-3.7.7-5.2 1.7-3.3 2.1-5.3 5.7-5.3 9.6v7.3z" fill="#193a68"></path><path d="m175.1 354.6c-.4 0-.7-.2-.8-.6l-4.5-13.3c-.1-.4.1-.9.5-1s.9.1 1 .5l3.7 11 3.6-10.9c.1-.4.6-.7 1-.5.4.1.7.6.5 1l-4.4 13.2c.1.4-.3.6-.6.6z" fill="#1a3b6a"></path><path d="m176.4 343.1h-2.5c-.3 0-.6-.2-.7-.5l-1.1-2.3c-.2-.4 0-.9.4-1.1s.9 0 1.1.4l.9 1.8h1.5l1.2-1.9c.2-.4.7-.5 1.1-.3s.5.7.3 1.1l-1.4 2.3c-.3.3-.5.5-.8.5z" fill="#1a3b6a"></path><path d="m173.1 348.6h-.1c-.4-.1-.8-.5-.7-.9l.8-5.5c.1-.4.5-.8.9-.7s.8.5.7.9l-.8 5.5c-.1.4-.4.7-.8.7z" fill="#1a3b6a"></path><path d="m177.1 348.6c-.4 0-.8-.3-.8-.7l-.8-5.5c-.1-.4.2-.9.7-.9.4-.1.9.2.9.7l.8 5.5c.1.4-.2.9-.7.9z" fill="#1a3b6a"></path><path d="m202.2 315.2c-3.2 0-5.7-2.4-5.7-5.4s2.6-5.4 5.7-5.4c3.2 0 5.7 2.4 5.7 5.4s-2.5 5.4-5.7 5.4zm0-9.2c-2.3 0-4.1 1.7-4.1 3.8s1.8 3.8 4.1 3.8 4.1-1.7 4.1-3.8-1.8-3.8-4.1-3.8z" fill="#193a68"></path><path d="m205.8 316.6c-1.1.9-2.4 1.4-3.7 1.4-1.4 0-2.6-.5-3.6-1.3-2.1 1.2-3.6 3.5-3.6 6.2v4.4h14.7v-4.4c0-2.8-1.6-5.1-3.8-6.3z" fill="#fff"></path><path d="m209.8 327.5h-15.1v-4.6c0-2.6 1.4-5.1 3.7-6.4l.1-.1.1.1c1 .8 2.2 1.2 3.5 1.2s2.6-.5 3.6-1.3l.1-.1.1.1c2.4 1.3 3.9 3.8 3.9 6.5zm-14.8-.4h14.4v-4.2c0-2.5-1.4-4.9-3.6-6.1-1.1.9-2.4 1.3-3.8 1.3-1.3 0-2.6-.4-3.6-1.2-2.1 1.3-3.4 3.5-3.4 6z" fill="#193a68"></path><path d="m209.6 328.1h-14.7c-.5 0-.8-.4-.8-.8v-4.4c0-4.4 3.6-8 8-8h.5c4.4 0 8 3.6 8 8v4.4c-.2.4-.6.8-1 .8zm-14-1.7h13.1v-3.6c0-3.5-2.8-6.3-6.3-6.3h-.4c-3.5 0-6.3 2.8-6.3 6.3v3.6z" fill="#193a68"></path><path d="m202 318.9c-1.5 0-3-.5-4.2-1.5-.4-.3-.4-.8-.1-1.2s.8-.4 1.2-.1c1.9 1.5 4.7 1.5 6.5-.1.3-.3.9-.3 1.2.1.3.3.3.9-.1 1.2-1.3 1-2.9 1.6-4.5 1.6z" fill="#1a3b6a"></path><path d="m147.9 315.2c-3.2 0-5.7-2.4-5.7-5.4s2.6-5.4 5.7-5.4c3.2 0 5.7 2.4 5.7 5.4s-2.5 5.4-5.7 5.4zm0-9.2c-2.3 0-4.1 1.7-4.1 3.8s1.8 3.8 4.1 3.8 4.1-1.7 4.1-3.8-1.8-3.8-4.1-3.8z" fill="#193a68"></path><path d="m151.8 316.7c-1 .8-2.3 1.3-3.6 1.3-1.5 0-2.8-.6-3.8-1.5-2.3 1.2-3.8 3.6-3.8 6.3v4.4h14.7v-4.4c0-2.5-1.4-4.8-3.5-6.1z" fill="#fff"></path><path d="m155.5 327.5h-15.1v-4.6c0-2.7 1.5-5.2 3.9-6.5l.1-.1.1.1c1 .9 2.3 1.4 3.7 1.4 1.2 0 2.5-.4 3.5-1.3l.1-.1.1.1c2.2 1.3 3.6 3.7 3.6 6.3zm-14.7-.4h14.4v-4.2c0-2.4-1.3-4.6-3.3-5.9-1.1.8-2.4 1.3-3.6 1.3-1.4 0-2.8-.5-3.8-1.4-2.2 1.2-3.6 3.5-3.6 6.1v4.1z" fill="#193a68"></path><path d="m155.3 328.1h-14.7c-.5 0-.8-.4-.8-.8v-4.4c0-4.4 3.6-8 8-8h.5c4.4 0 8 3.6 8 8v4.4c-.1.4-.5.8-1 .8zm-13.9-1.7h13.1v-3.6c0-3.5-2.8-6.3-6.3-6.3h-.5c-3.5 0-6.3 2.8-6.3 6.3z" fill="#193a68"></path><path d="m148.1 318.9c-1.6 0-3.2-.5-4.4-1.6-.3-.3-.4-.8-.1-1.2.3-.3.8-.4 1.2-.1 1.8 1.6 4.6 1.6 6.5.1.4-.3.9-.2 1.2.1.3.4.2.9-.1 1.2-1.2 1-2.7 1.5-4.3 1.5z" fill="#1a3b6a"></path><path d="m202.2 362.1c-3.2 0-5.7-2.4-5.7-5.4s2.6-5.4 5.7-5.4c3.2 0 5.7 2.4 5.7 5.4.1 3-2.5 5.4-5.7 5.4zm0-9.2c-2.3 0-4.1 1.7-4.1 3.8s1.8 3.8 4.1 3.8 4.1-1.7 4.1-3.8-1.8-3.8-4.1-3.8z" fill="#193a68"></path><path d="m205.8 363.5c-1 .8-2.4 1.4-3.7 1.4-1.4 0-2.6-.5-3.6-1.3-2.2 1.2-3.6 3.5-3.6 6.2v4.4h14.7v-4.4c0-2.8-1.6-5.1-3.8-6.3z" fill="#fff"></path><path d="m209.8 374.3h-15.1v-4.6c0-2.6 1.4-5.1 3.7-6.4l.1-.1.1.1c1 .8 2.2 1.2 3.5 1.2s2.5-.5 3.6-1.3l.1-.1.1.1c2.4 1.3 3.9 3.8 3.9 6.5zm-14.8-.3h14.4v-4.2c0-2.5-1.4-4.8-3.6-6.1-1.1.9-2.4 1.3-3.7 1.3s-2.6-.4-3.6-1.3c-2.1 1.2-3.4 3.5-3.4 6v4.3z" fill="#193a68"></path><path d="m209.6 375h-14.7c-.5 0-.8-.4-.8-.8v-4.4c0-4.4 3.6-8 8-8h.5c4.4 0 8 3.6 8 8v4.4c-.2.4-.6.8-1 .8zm-14-1.7h13.1v-3.6c0-3.5-2.8-6.3-6.3-6.3h-.4c-3.5 0-6.3 2.8-6.3 6.3v3.6z" fill="#193a68"></path><path d="m202 365.8c-1.5 0-3-.5-4.2-1.5-.4-.3-.4-.8-.1-1.2s.8-.4 1.2-.1c1.9 1.5 4.7 1.5 6.5-.1.3-.3.9-.3 1.2.1.3.3.3.9-.1 1.2-1.3 1-2.9 1.6-4.5 1.6z" fill="#1a3b6a"></path><path d="m147.9 362.1c-3.2 0-5.7-2.4-5.7-5.4s2.6-5.4 5.7-5.4c3.2 0 5.7 2.4 5.7 5.4.1 3-2.5 5.4-5.7 5.4zm0-9.2c-2.3 0-4.1 1.7-4.1 3.8s1.8 3.8 4.1 3.8 4.1-1.7 4.1-3.8-1.8-3.8-4.1-3.8z" fill="#193a68"></path><path d="m151.7 363.5c-1 .8-2.3 1.3-3.6 1.3-1.4 0-2.7-.5-3.7-1.4-2.2 1.2-3.8 3.6-3.8 6.3v4.4h14.7v-4.4c0-2.6-1.4-4.9-3.6-6.2z" fill="#fff"></path><path d="m155.5 374.3h-15.1v-4.6c0-2.7 1.5-5.2 3.9-6.5l.1-.1.1.1c1 .9 2.3 1.3 3.6 1.3 1.2 0 2.5-.4 3.5-1.2l.1-.1.1.1c2.3 1.3 3.7 3.7 3.7 6.4zm-14.7-.3h14.4v-4.2c0-2.5-1.3-4.7-3.4-6-1.1.8-2.4 1.2-3.6 1.2-1.4 0-2.7-.5-3.7-1.3-2.2 1.2-3.6 3.5-3.6 6.1v4.2z" fill="#193a68"></path><path d="m155.3 375h-14.7c-.5 0-.8-.4-.8-.8v-4.4c0-4.4 3.6-8 8-8h.5c4.4 0 8 3.6 8 8v4.4c-.1.4-.5.8-1 .8zm-13.9-1.7h13.1v-3.6c0-3.5-2.8-6.3-6.3-6.3h-.5c-3.5 0-6.3 2.8-6.3 6.3z" fill="#193a68"></path><path d="m148.1 365.8c-1.6 0-3.2-.5-4.4-1.6-.3-.3-.4-.8-.1-1.2.3-.3.8-.4 1.2-.1 1.8 1.6 4.6 1.6 6.5.1.4-.3.9-.2 1.2.1.3.4.2.9-.1 1.2-1.2 1-2.7 1.5-4.3 1.5z" fill="#1a3b6a"></path><path d="m185.3 340.9c-.2 0-.5-.1-.6-.3-.3-.4-.2-.9.1-1.2l3.5-2.8c.4-.3.9-.2 1.2.1.3.4.2.9-.1 1.2l-3.5 2.8c-.2.2-.4.2-.6.2zm6.5-5c-.2 0-.5-.1-.6-.3-.3-.4-.2-.9.1-1.2l3.5-2.8c.4-.3.9-.2 1.2.1.3.4.2.9-.1 1.2l-3.5 2.8c-.3.1-.5.2-.6.2zm6.4-5.1c-.2 0-.5-.1-.6-.3-.3-.4-.2-.9.1-1.2l3.5-2.8c.4-.3.9-.2 1.2.1.3.4.2.9-.1 1.2l-3.5 2.8c-.2.2-.4.2-.6.2z" fill="#1a3b6a"></path><path d="m153.6 365.8c-.2 0-.4-.1-.6-.2-.3-.3-.3-.8 0-1.2 0 0 .1 0 .1-.1l2.9-2.2c.4-.3.9-.2 1.2.1.3.4.2.9-.1 1.2l-2.9 2.2c-.2.1-.4.2-.6.2zm5.8-4.6c-.2 0-.5-.1-.6-.3-.3-.4-.2-.9.1-1.2l3.5-2.8c.4-.3.9-.2 1.2.1.3.4.2.9-.1 1.2l-3.5 2.8c-.2.2-.4.2-.6.2z" fill="#1a3b6a"></path><path d="m170.6 341.4c-.2 0-.4-.1-.5-.2l-3.5-2.8c-.4-.3-.4-.8-.1-1.2s.8-.4 1.2-.1l3.5 2.8c.4.3.4.8.1 1.2-.3.1-.5.3-.7.3zm-6.5-5.1c-.2 0-.4-.1-.5-.2l-3.5-2.8c-.4-.3-.4-.8-.1-1.2s.8-.4 1.2-.1l3.5 2.8c.4.3.4.8.1 1.2-.2.2-.5.3-.7.3zm-6.5-5c-.2 0-.4-.1-.5-.2l-3.5-2.8c-.4-.3-.4-.8-.1-1.2s.8-.4 1.2-.1l3.5 2.8c.4.3.4.8.1 1.2-.2.1-.4.3-.7.3z" fill="#1a3b6a"></path><path d="m201.7 365.8c-.2 0-.4-.1-.6-.2-.3-.3-.3-.8 0-1.2.3-.3.8-.3 1.2 0 .3.3.3.8 0 1.2-.1.1-.3.2-.6.2z" fill="#1a3b6a"></path><path d="m197.2 362.2c-.2 0-.4-.1-.5-.2l-3.5-2.8c-.4-.3-.4-.8-.1-1.2s.8-.4 1.2-.1l3.5 2.8c.4.3.4.8.1 1.2-.2.2-.4.3-.7.3zm-6.4-5c-.2 0-.4-.1-.5-.2l-3.5-2.8c-.4-.3-.4-.8-.1-1.2s.8-.4 1.2-.1l3.5 2.8c.4.3.4.8.1 1.2-.3.2-.5.3-.7.3z" fill="#1a3b6a"></path><path d="m117.1 398.7h59v36.9h-59z" fill="#fff"></path><path d="m176.2 436.4h-59c-.5 0-.8-.4-.8-.8v-36.9c0-.5.4-.8.8-.8h59c.5 0 .8.4.8.8v36.9c0 .4-.4.8-.8.8zm-58.2-1.6h57.4v-35.3h-57.4z" fill="#193a68"></path><path d="m180 439.2h-22.2c-.5 0-.8-.4-.8-.8 0-.5.4-.8.8-.8h21.4v-41.7h-64.9v41.7h21.3c.5 0 .8.4.8.8 0 .5-.4.8-.8.8h-22.1c-.5 0-.8-.4-.8-.8v-43.4c0-.5.4-.8.8-.8h66.5c.5 0 .8.4.8.8v43.3c0 .5-.3.9-.8.9z" fill="#1a3b6a"></path><path d="m179.6 443.8h-65.9c-2.6 0-4.8-2.1-4.8-4.8v-.7c0-.5.4-.8.8-.8h26c.4 0 .8.3.8.7.1.4.4.8.9.8h18.6c.4 0 .8-.3.9-.8.1-.4.4-.7.8-.7h25.8c.5 0 .8.4.8.8v.7c.1 2.6-2.1 4.8-4.7 4.8zm-69-4.6c.1 1.7 1.4 3 3.1 3h65.9c1.7 0 3-1.3 3.1-3h-24.4c-.4.9-1.3 1.5-2.3 1.5h-18.5c-1 0-1.9-.6-2.3-1.5z" fill="#193a68"></path><circle cx="146.7" cy="417.5" fill="#5c9ad2" r="13"></circle><path d="m146.7 431.4c-7.6 0-13.9-6.2-13.9-13.9s6.2-13.9 13.9-13.9c7.6 0 13.9 6.2 13.9 13.9s-6.3 13.9-13.9 13.9zm0-26.1c-6.7 0-12.2 5.5-12.2 12.2s5.5 12.2 12.2 12.2 12.2-5.5 12.2-12.2-5.5-12.2-12.2-12.2z" fill="#193a68"></path><path d="m155.5 427.9c-.2 0-.4-.1-.6-.2-2.3-2.1-5.2-3.2-8.3-3.2s-6 1.1-8.3 3.2c-.3.3-.9.3-1.2 0s-.3-.9 0-1.2c2.6-2.4 5.9-3.6 9.4-3.6s6.8 1.3 9.4 3.6c.3.3.4.8 0 1.2 0 .1-.2.2-.4.2z" fill="#1a3b6a"></path><path d="m146.7 412.1c-3.5 0-6.8-1.3-9.4-3.6-.3-.3-.4-.8 0-1.2.3-.3.8-.4 1.2 0 2.3 2.1 5.2 3.2 8.3 3.2s6-1.1 8.3-3.2c.3-.3.9-.3 1.2 0s.3.9 0 1.2c-2.8 2.3-6.2 3.6-9.6 3.6z" fill="#1a3b6a"></path><path d="m146.7 431.4c-.5 0-.8-.4-.8-.8v-26.1c0-.5.4-.8.8-.8.5 0 .8.4.8.8v26.1c0 .4-.4.8-.8.8z" fill="#1a3b6a"></path><path d="m159.7 418.3h-26.1c-.5 0-.8-.4-.8-.8 0-.5.4-.8.8-.8h26.1c.5 0 .8.4.8.8 0 .5-.4.8-.8.8z" fill="#1a3b6a"></path><path d="m146.7 431.4c-.3 0-.5-.1-.7-.4-.3-.4-.2-.9.2-1.1 4.1-2.8 6.6-7.4 6.6-12.4s-2.5-9.6-6.6-12.4c-.4-.3-.5-.8-.2-1.1.3-.4.8-.5 1.1-.2 4.6 3.1 7.3 8.2 7.3 13.7s-2.7 10.6-7.3 13.7c-.1.1-.3.2-.4.2z" fill="#1a3b6a"></path><path d="m146.7 431.4c-.2 0-.3 0-.5-.1-4.6-3.1-7.3-8.2-7.3-13.7s2.7-10.6 7.3-13.7c.4-.3.9-.2 1.1.2.3.4.2.9-.2 1.1-4.1 2.8-6.6 7.4-6.6 12.4s2.5 9.6 6.6 12.4c.4.3.5.8.2 1.1-.1.1-.4.3-.6.3z" fill="#1a3b6a"></path><path d="m267.9 186.6 41.5-17.3-17.2 41.6-4.3-15.8-18.4 18.4-4.2-4.2 18.3-18.4z" fill="#fff"></path><path d="m269.5 214.3c-.2 0-.4-.1-.6-.2l-4.2-4.2c-.3-.3-.3-.8 0-1.2l17.4-17.4-14.4-3.9c-.3-.1-.6-.4-.6-.7s.2-.7.5-.8l41.6-17.3c.3-.1.7-.1.9.2.2.2.3.6.2.9l-17.3 41.6c-.1.3-.5.5-.8.5s-.6-.3-.7-.6l-3.9-14.4-17.4 17.4c-.3 0-.5.1-.7.1zm-3.1-5 3.1 3.1 17.8-17.8c.2-.2.5-.3.8-.2s.5.3.6.6l3.7 13.5 15.6-37.5-37.5 15.6 13.5 3.7c.3.1.5.3.6.6s0 .6-.2.8z" fill="#193a68"></path><path d="m309.4 161.4c-.5 0-.8-.4-.8-.8v-13.1c0-.5.4-.8.8-.8.5 0 .8.4.8.8v13.1c0 .4-.3.8-.8.8z" fill="#1a3b6a"></path><path d="m331.3 170.2h-13.1c-.5 0-.8-.4-.8-.8 0-.5.4-.8.8-.8h13.1c.5 0 .8.4.8.8s-.3.8-.8.8z" fill="#1a3b6a"></path><path d="m309.4 192.1c-.5 0-.8-.4-.8-.8v-13.1c0-.5.4-.8.8-.8.5 0 .8.4.8.8v13.1c0 .4-.3.8-.8.8z" fill="#1a3b6a"></path><path d="m300.6 170.2h-13.1c-.5 0-.8-.4-.8-.8 0-.5.4-.8.8-.8h13.1c.5 0 .8.4.8.8s-.3.8-.8.8z" fill="#1a3b6a"></path><path d="m303.2 163.9c-.2 0-.4-.1-.6-.2l-9.3-9.3c-.3-.3-.3-.8 0-1.2.3-.3.8-.3 1.2 0l9.3 9.3c.3.3.3.8 0 1.2-.2.2-.4.2-.6.2z" fill="#1a3b6a"></path><path d="m315.6 163.9c-.2 0-.4-.1-.6-.2-.3-.3-.3-.8 0-1.2l9.3-9.3c.3-.3.8-.3 1.2 0 .3.3.3.8 0 1.2l-9.3 9.3c-.1.2-.3.2-.6.2z" fill="#1a3b6a"></path><path d="m324.9 185.7c-.2 0-.4-.1-.6-.2l-9.3-9.3c-.3-.3-.3-.8 0-1.2.3-.3.8-.3 1.2 0l9.3 9.3c.3.3.3.8 0 1.2-.2.1-.4.2-.6.2z" fill="#1a3b6a"></path><path d="m340.6 299.3-1.1-11.5-7.3-4.7-.7 8.5-2-1.4-1.3 2.5 1.8 6.6z" fill="#5c9ad2"></path><path d="m313.9 299.3 1-11.5 7.3-4.7.7 8.5 2-1.4 1.3 2.5-1.7 6.6z" fill="#5c9ad2"></path><path d="m314.7 299.3h-1.6c0-.7.9-10.5 1-11.6 0-.2.2-.5.4-.6l7.3-4.8.9 1.4-7 4.6c-.4 4.3-1 10.5-1 11z" fill="#193a68"></path><path d="m323 292.8c-.1 0-.2 0-.3-.1-.3-.1-.5-.4-.5-.7l-.7-9c0-.3.2-.7.5-.8s.7-.1.9.2l5 5.2c.2.2.2.4.2.6s-.1.4-.3.6l-4.3 3.7c-.2.2-.4.3-.5.3zm.2-7.6.4 5.1 2.4-2.1z" fill="#193a68"></path><path d="m324.5 300.1c-.1 0-.1 0-.2 0-.4-.1-.7-.6-.6-1l1.7-6.8c.1-.4.6-.7 1-.6s.7.6.6 1l-1.7 6.8c-.1.4-.5.6-.8.6z" fill="#193a68"></path><path d="m339.7 299.3c0-.5-.6-6.7-1-11.1l-7-4.6.9-1.4 7.3 4.8c.2.1.3.4.4.6.1 1.1 1 10.9 1 11.6z" fill="#193a68"></path><path d="m331.5 292.8c-.2 0-.4-.1-.5-.2l-4.3-3.7c-.2-.1-.3-.4-.3-.6s.1-.4.2-.6l5-5.2c.2-.2.6-.3.9-.2s.5.5.5.8l-.7 9c0 .3-.2.6-.5.7-.1-.1-.2 0-.3 0zm-3.1-4.6 2.4 2.1.4-5.1z" fill="#193a68"></path><path d="m328.2 293.3h-2c-.3 0-.6-.2-.7-.4l-1.3-2.3c-.2-.3-.1-.8.2-1l2.3-2c.3-.3.8-.3 1.1 0l2.3 2c.3.3.4.7.2 1l-1.3 2.3c-.2.3-.5.4-.8.4zm-1.5-1.6h1.1l.7-1.3-1.2-1.1-1.2 1.1z" fill="#193a68"></path><path d="m330 300.1c-.4 0-.7-.2-.8-.6l-1.7-6.8c-.1-.4.2-.9.6-1s.9.2 1 .6l1.7 6.8c.1.4-.2.9-.6 1-.1 0-.1 0-.2 0z" fill="#193a68"></path><path d="m336.1 295.8h-3.9c-.4 0-.8-.4-.8-.8s.4-.8.8-.8h3.9c.4 0 .8.4.8.8.1.4-.3.8-.8.8z" fill="#193a68"></path><path d="m327.2 282.8c-3.4 0-6.1-3.3-6.1-7.3s2.7-7.3 6.1-7.3 6.1 3.3 6.1 7.3c.1 4-2.7 7.3-6.1 7.3zm0-13c-2.5 0-4.5 2.6-4.5 5.7 0 3.2 2 5.7 4.5 5.7s4.5-2.6 4.5-5.7c0-3.2-2-5.7-4.5-5.7z" fill="#193a68"></path><path d="m376.4 267.2-1-11.5-7.3-4.7-.8 8.5-2-1.4-1.2 2.5 1.7 6.6z" fill="#fff"></path><path d="m349.7 267.2 1-11.5 7.3-4.7.7 8.5 2.1-1.4 1.2 2.5-1.7 6.6z" fill="#fff"></path><path d="m350.5 267.2h-1.6c0-.7.9-10.5 1-11.6 0-.2.2-.5.4-.6l7.3-4.8.9 1.4-7 4.6c-.4 4.2-1 10.5-1 11z" fill="#193a68"></path><path d="m358.8 260.7c-.1 0-.2 0-.3-.1-.3-.1-.5-.4-.5-.7l-.7-9c0-.3.2-.7.5-.8s.7-.1.9.2l5 5.2c.2.2.2.4.2.6s-.1.4-.3.6l-4.3 3.7c-.1.2-.3.3-.5.3zm.2-7.6.4 5.1 2.4-2.1z" fill="#193a68"></path><path d="m360.3 268c-.1 0-.1 0-.2 0-.4-.1-.7-.6-.6-1l1.7-6.8c.1-.4.6-.7 1-.6s.7.6.6 1l-1.7 6.8c-.1.4-.4.6-.8.6z" fill="#193a68"></path><path d="m375.6 267.2c0-.5-.6-6.7-1-11.1l-7-4.6.9-1.4 7.3 4.8c.2.1.3.4.4.6.1 1.1 1 10.9 1 11.6z" fill="#193a68"></path><path d="m367.3 260.7c-.2 0-.4-.1-.5-.2l-4.3-3.7c-.2-.1-.3-.4-.3-.6s.1-.4.2-.6l5-5.2c.2-.2.6-.3.9-.2s.5.5.5.8l-.7 9c0 .3-.2.6-.5.7-.1-.1-.2 0-.3 0zm-3.1-4.6 2.4 2.1.4-5.1z" fill="#193a68"></path><path d="m364.1 261.2h-2c-.3 0-.6-.2-.7-.4l-1.3-2.3c-.2-.3-.1-.8.2-1l2.3-2c.3-.3.8-.3 1.1 0l2.3 2c.3.3.4.7.2 1l-1.3 2.3c-.3.2-.5.4-.8.4zm-1.6-1.6h1.1l.7-1.3-1.2-1.1-1.2 1.1z" fill="#193a68"></path><path d="m365.8 268c-.4 0-.7-.2-.8-.6l-1.7-6.8c-.1-.4.2-.9.6-1s.9.2 1 .6l1.7 6.8c.1.4-.2.9-.6 1-.1 0-.1 0-.2 0z" fill="#193a68"></path><path d="m372 263.7h-3.9c-.4 0-.8-.4-.8-.8s.4-.8.8-.8h3.9c.4 0 .8.4.8.8s-.4.8-.8.8z" fill="#193a68"></path><path d="m363 250.7c-3.4 0-6.1-3.3-6.1-7.3s2.7-7.3 6.1-7.3 6.1 3.3 6.1 7.3c.1 4-2.7 7.3-6.1 7.3zm0-13c-2.5 0-4.5 2.6-4.5 5.7 0 3.2 2 5.7 4.5 5.7s4.5-2.6 4.5-5.7c0-3.2-2-5.7-4.5-5.7z" fill="#193a68"></path><path d="m354.8 292.5-.5-1.6c4.3-1.2 12-4.8 15.3-14.9l1.5.5c-3.5 11.2-12.5 14.9-16.3 16z" fill="#193a68"></path><path d="m326.1 263.5-1.6-.5c1.1-3.7 4.8-12.8 16-16.4l.5 1.5c-10 3.4-13.6 11.1-14.9 15.4z" fill="#193a68"></path><path d="m427.1 279.3v-1.3c0-.7-.6-1.3-1.3-1.3h-14.5v-16.6h15.8z" fill="#fff"></path><g fill="#193a68"><path d="m436.6 267.6h-19c-.3 0-.6-.3-.6-.6s.3-.6.6-.6h19c.3 0 .6.3.6.6s-.3.6-.6.6z"></path><path d="m436.6 273h-19c-.3 0-.6-.3-.6-.6s.3-.6.6-.6h19c.3 0 .6.3.6.6s-.3.6-.6.6z"></path><path d="m443.5 284.8-4.7-4.7c-.1-.1-.2-.2-.4-.2h-11.3c-.3 0-.6-.3-.6-.6s.3-.6.6-.6h11.3c.5 0 .9.2 1.3.5l2.6 2.6v-20.6c0-.3-.2-.6-.6-.6h-29.2c-.3 0-.6.2-.6.6v15.5c0 .3-.3.6-.6.6s-.6-.3-.6-.6v-15.5c0-1 .8-1.8 1.8-1.8h29.2c1 0 1.8.8 1.8 1.8z"></path><path d="m420.8 284.2h-19c-.3 0-.6-.3-.6-.6s.3-.6.6-.6h19c.3 0 .6.3.6.6s-.2.6-.6.6z"></path><path d="m420.8 289.7h-19c-.3 0-.6-.3-.6-.6s.3-.6.6-.6h19c.3 0 .6.3.6.6s-.2.6-.6.6z"></path><path d="m395 301.5v-23.6c0-1 .8-1.8 1.8-1.8h29.2c1 0 1.8.8 1.8 1.8v16.9c0 1-.8 1.8-1.8 1.8h-25.8c-.1 0-.3.1-.4.2zm1.8-24.2c-.3 0-.6.2-.6.6v20.6l2.6-2.6c.3-.3.8-.5 1.3-.5h25.8c.3 0 .6-.2.6-.6v-16.9c0-.3-.2-.6-.6-.6z"></path><path d="m318.9 414.1c-.2-.5-.5-1-.7-1.5l1.5-.9c.3.5.6 1.1.8 1.6zm-30-.1-1.6-.7c.2-.6.5-1.1.8-1.6l1.5.9c-.3.5-.5.9-.7 1.4zm28.4-2.8c-.3-.4-.7-.9-1-1.3l1.3-1.1c.4.5.8.9 1.1 1.4zm-26.8 0-1.4-1c.4-.5.7-1 1.1-1.4l1.3 1.1c-.3.4-.7.9-1 1.3zm24.6-2.5c-.4-.4-.8-.7-1.3-1.1l1.1-1.4c.5.4.9.8 1.4 1.2zm-22.4 0-1.2-1.3c.4-.4.9-.8 1.4-1.2l1.1 1.4c-.5.4-.9.7-1.3 1.1zm19.8-2c-.5-.3-1-.6-1.4-.8l.8-1.6c.5.3 1.1.6 1.6.9zm-17.2 0-.9-1.5c.5-.3 1.1-.6 1.6-.9l.8 1.6c-.6.3-1 .5-1.5.8zm14.3-1.4c-.5-.2-1-.4-1.6-.5l.4-1.7c.6.1 1.2.3 1.7.5zm-11.3 0-.6-1.6c.6-.2 1.2-.4 1.7-.5l.4 1.7c-.5 0-1 .2-1.5.4zm8.1-.8c-.5-.1-1.1-.1-1.6-.2l.1-1.7c.6 0 1.2.1 1.8.2zm-5 0-.3-1.7c.6-.1 1.2-.1 1.8-.2l.1 1.7c-.5 0-1 .1-1.6.2z"></path><path d="m304.8 439-.1-1.7c.5 0 1.1-.1 1.6-.2l.3 1.7c-.6.1-1.2.2-1.8.2zm-1.8 0c-.6 0-1.2-.1-1.8-.2l.3-1.7c.5.1 1.1.1 1.6.2zm5.4-.5-.4-1.7c.5-.1 1.1-.3 1.6-.5l.6 1.6c-.6.2-1.2.4-1.8.6zm-9 0c-.6-.1-1.2-.3-1.7-.5l.6-1.6c.5.2 1 .4 1.6.5zm12.4-1.3-.8-1.6c.5-.2 1-.5 1.4-.8l.9 1.5c-.4.3-.9.6-1.5.9zm-15.8 0c-.5-.3-1.1-.6-1.6-.9l.9-1.5c.5.3 1 .6 1.4.8zm18.9-1.9-1.1-1.4c.4-.3.9-.7 1.3-1.1l1.2 1.3c-.4.4-.9.8-1.4 1.2zm-22 0c-.5-.4-.9-.8-1.4-1.2l1.2-1.3c.4.4.8.7 1.3 1.1zm24.7-2.5-1.3-1.1c.4-.4.7-.8 1-1.3l1.4 1c-.3.5-.7 1-1.1 1.4zm-27.4 0c-.4-.5-.8-.9-1.1-1.4l1.4-1c.3.4.7.9 1 1.3zm29.5-2.9-1.5-.9c.3-.5.5-1 .7-1.5l1.6.7c-.2.6-.5 1.1-.8 1.7zm-31.6 0c-.3-.5-.6-1.1-.8-1.6l1.6-.7c.2.5.5 1 .7 1.5z"></path><path d="m303.9 431.2c-5.7 0-10.4-4.7-10.4-10.4s4.7-10.4 10.4-10.4 10.4 4.7 10.4 10.4-4.7 10.4-10.4 10.4zm0-19.1c-4.8 0-8.7 3.9-8.7 8.7s3.9 8.7 8.7 8.7 8.7-3.9 8.7-8.7-3.9-8.7-8.7-8.7z"></path><path d="m303.9 431.2c-14.1 0-22.8-9.4-23.2-9.8l-.5-.6.5-.6c.4-.4 9.1-9.8 23.2-9.8s22.8 9.4 23.2 9.8l.5.6-.5.6c-.3.4-9.1 9.8-23.2 9.8zm-21.3-10.4c2.1 2 10 8.7 21.3 8.7 11.4 0 19.2-6.6 21.3-8.7-2.1-2-10-8.7-21.3-8.7-11.4 0-19.2 6.7-21.3 8.7z"></path><path d="m308.6 398.9-4.7-3.1-4.7 3.1-1-1.4 5.7-3.8 5.7 3.8z"></path><path d="m303 394.7h1.7v6.1h-1.7z"></path><path d="m285.1 408.7-1.7-.4 1.4-6.7 6.7-1.3.3 1.7-5.6 1.1z"></path><path d="m286.8 401.5h1.7v6.1h-1.7z" transform="matrix(.7071 -.7071 .7071 .7071 -201.7918 321.8673)"></path><path d="m291.5 441.3-6.7-1.4-1.4-6.7 1.7-.3 1.1 5.6 5.6 1.1z"></path><path d="m284.6 436.2h6.1v1.7h-6.1z" transform="matrix(.7071 -.7071 .7071 .7071 -224.7977 331.4013)"></path><path d="m303.9 447.9-5.7-3.8 1-1.5 4.7 3.2 4.7-3.2 1 1.5z"></path><path d="m303 440.8h1.7v6.1h-1.7z"></path><path d="m316.4 441.3-.4-1.7 5.6-1.1 1.1-5.6 1.7.3-1.3 6.7z"></path><path d="m319.3 434h1.7v6.1h-1.7z" transform="matrix(.7071 -.7071 .7071 .7071 -215.2695 354.4119)"></path><path d="m322.7 408.7-1.1-5.6-5.6-1.1.4-1.7 6.7 1.3 1.3 6.7z"></path><path d="m317.1 403.7h6.1v1.7h-6.1z" transform="matrix(.7071 -.7071 .7071 .7071 -192.2635 344.8774)"></path><path d="m325.6 426c-1.3 0-2.5-.5-3.5-1.3l1.2-1.3c.6.6 1.5.9 2.3.9 1.9 0 3.5-1.6 3.5-3.5s-1.6-3.5-3.5-3.5c-.8 0-1.7.3-2.3.9l-1.2-1.3c1-.9 2.2-1.3 3.5-1.3 2.9 0 5.2 2.3 5.2 5.2s-2.3 5.2-5.2 5.2z"></path><path d="m282.2 426c-2.9 0-5.2-2.3-5.2-5.2s2.3-5.2 5.2-5.2c1.3 0 2.5.5 3.5 1.3l-1.2 1.3c-.6-.6-1.5-.9-2.3-.9-1.9 0-3.5 1.6-3.5 3.5s1.6 3.5 3.5 3.5c.8 0 1.7-.3 2.3-.9l1.2 1.3c-1 .8-2.2 1.3-3.5 1.3z"></path><path d="m303.9 426.9c-3.4 0-6.1-2.7-6.1-6.1s2.7-6.1 6.1-6.1 6.1 2.7 6.1 6.1c0 1.1-.3 2.1-.8 3l-1.5-.9c.4-.7.6-1.4.6-2.2 0-2.4-1.9-4.3-4.3-4.3s-4.3 1.9-4.3 4.3 1.9 4.3 4.3 4.3c.9 0 1.7-.3 2.4-.7l1 1.4c-1.1.8-2.3 1.2-3.5 1.2z"></path><text font-family="'CenturyGothic'" font-size="60.768" transform="translate(161.7285 289.1602)">WAN</text></g></svg>